M48
INCH
T569C0.039
T568C0.032
%
T568
X012800Y020700
X013800Y020700
X009800Y020700
X010800Y020700
X014200Y017700
X013200Y017700
X011200Y018200
X012200Y018200
X010200Y018200
X009200Y018200
X015200Y017700
X017600Y018800
X018600Y018800
X017600Y021250
X018600Y021250
X019750Y018800
X019750Y021300
X020750Y018800
X020750Y021300
X003750Y008100
X006250Y008100
X006450Y005642
X006450Y004658
X003750Y007100
X004750Y007100
X005200Y011850
X003200Y011850
X003200Y012850
X003200Y013850
X005200Y012850
X005200Y013850
X006200Y015700
X004200Y015700
X005200Y015700
X003200Y015700
X006800Y020750
X007800Y020750
X003800Y020700
X004800Y020700
X008200Y018200
X007200Y018200
X006200Y018200
X004200Y018200
X005200Y018200
X003200Y018200
X009200Y011850
X009200Y012850
X009200Y013850
X007200Y011850
X007200Y012850
X007200Y013850
X010200Y015700
X008200Y015700
X009200Y015700
X007200Y015700
X011200Y015700
X012200Y015700
X011100Y009950
X011100Y010950
X011100Y011950
X013500Y013050
X014500Y013050
X012500Y011950
X015500Y005950
X012500Y008950
X012500Y007950
X012500Y006950
X012500Y005950
X015500Y006950
X015500Y007950
X015500Y008950
X015500Y009950
X017600Y009000
X018600Y009000
X019750Y009000
X020750Y009000
X017600Y011450
X018600Y011450
X019750Y011500
X020750Y011500
X017600Y004100
X018600Y004100
X017600Y006550
X018600Y006550
X019750Y004100
X019750Y006600
X020750Y004100
X020750Y006600
X012500Y010950
X012500Y009950
X015500Y010950
X015500Y011950
X014692Y015350
X013708Y015350
X017600Y013900
X018600Y013900
X017600Y016350
X018600Y016350
X019750Y013900
X019750Y016400
X020750Y013900
X020750Y016400
T569
X003250Y009450
X003250Y010450
X006250Y009450
X006250Y010450
X004750Y005650
X004750Y004650
X009200Y010150
X008200Y010150
X009200Y008150
X008200Y008150
X009200Y009150
X008200Y009150
X010050Y006550
X008280Y006550
X010050Y003990
X008280Y003990
X012500Y004450
X014500Y004450
X013500Y004450
M30
