G04 (created by PCBNEW-RS274X (2010-12-18 BZR 2669)-stable) date 2011-02-06T23:53:48 CET*
G01*
G70*
G90*
%MOIN*%
G04 Gerber Fmt 3.4, Leading zero omitted, Abs format*
%FSLAX34Y34*%
G04 APERTURE LIST*
%ADD10C,0.006000*%
%ADD11C,0.012000*%
%ADD12C,0.015000*%
%ADD13C,0.005000*%
%ADD14C,0.008000*%
%ADD15C,0.003000*%
%ADD16C,0.010000*%
%ADD17C,0.003500*%
%ADD18C,0.011300*%
G04 APERTURE END LIST*
G54D10*
G54D11*
X10972Y-09119D02*
X11429Y-09119D01*
X11200Y-09424D02*
X11200Y-08814D01*
X17072Y-15919D02*
X17529Y-15919D01*
X17300Y-16224D02*
X17300Y-15614D01*
X27410Y-25373D02*
X27867Y-25373D01*
X27638Y-25678D02*
X27638Y-25068D01*
X27410Y-22972D02*
X27867Y-22972D01*
X27638Y-23277D02*
X27638Y-22667D01*
X27370Y-20688D02*
X27827Y-20688D01*
X27598Y-20993D02*
X27598Y-20383D01*
X27410Y-18326D02*
X27867Y-18326D01*
X27638Y-18631D02*
X27638Y-18021D01*
X27410Y-15964D02*
X27867Y-15964D01*
X27638Y-16269D02*
X27638Y-15659D01*
X27410Y-13562D02*
X27867Y-13562D01*
X27638Y-13867D02*
X27638Y-13257D01*
X27449Y-11200D02*
X27906Y-11200D01*
X27677Y-11505D02*
X27677Y-10895D01*
X27370Y-08799D02*
X27827Y-08799D01*
X27598Y-09104D02*
X27598Y-08494D01*
X17672Y-26319D02*
X18129Y-26319D01*
X14640Y-24131D02*
X14754Y-24131D01*
X14812Y-24169D01*
X14869Y-24245D01*
X14897Y-24397D01*
X14897Y-24664D01*
X14869Y-24817D01*
X14812Y-24893D01*
X14754Y-24931D01*
X14640Y-24931D01*
X14583Y-24893D01*
X14526Y-24817D01*
X14497Y-24664D01*
X14497Y-24397D01*
X14526Y-24245D01*
X14583Y-24169D01*
X14640Y-24131D01*
X15126Y-24893D02*
X15212Y-24931D01*
X15355Y-24931D01*
X15412Y-24893D01*
X15441Y-24855D01*
X15469Y-24778D01*
X15469Y-24702D01*
X15441Y-24626D01*
X15412Y-24588D01*
X15355Y-24550D01*
X15241Y-24512D01*
X15183Y-24474D01*
X15155Y-24436D01*
X15126Y-24359D01*
X15126Y-24283D01*
X15155Y-24207D01*
X15183Y-24169D01*
X15241Y-24131D01*
X15383Y-24131D01*
X15469Y-24169D01*
X15697Y-24702D02*
X15983Y-24702D01*
X15640Y-24931D02*
X15840Y-24131D01*
X16040Y-24931D01*
X16211Y-24702D02*
X16497Y-24702D01*
X16154Y-24931D02*
X16354Y-24131D01*
X16554Y-24931D01*
X16754Y-24855D02*
X16782Y-24893D01*
X16754Y-24931D01*
X16725Y-24893D01*
X16754Y-24855D01*
X16754Y-24931D01*
X17040Y-24931D02*
X17040Y-24131D01*
X17183Y-24131D01*
X17268Y-24169D01*
X17326Y-24245D01*
X17354Y-24321D01*
X17383Y-24474D01*
X17383Y-24588D01*
X17354Y-24740D01*
X17326Y-24817D01*
X17268Y-24893D01*
X17183Y-24931D01*
X17040Y-24931D01*
X17640Y-24931D02*
X17640Y-24131D01*
X17983Y-24931D02*
X17726Y-24474D01*
X17983Y-24131D02*
X17640Y-24588D01*
X12456Y-17044D02*
X12799Y-17044D01*
X12628Y-17844D02*
X12628Y-17044D01*
X12913Y-17044D02*
X13113Y-17844D01*
X13313Y-17044D01*
X13713Y-17425D02*
X13799Y-17463D01*
X13827Y-17501D01*
X13856Y-17577D01*
X13856Y-17691D01*
X13827Y-17768D01*
X13799Y-17806D01*
X13741Y-17844D01*
X13513Y-17844D01*
X13513Y-17044D01*
X13713Y-17044D01*
X13770Y-17082D01*
X13799Y-17120D01*
X13827Y-17196D01*
X13827Y-17272D01*
X13799Y-17349D01*
X13770Y-17387D01*
X13713Y-17425D01*
X13513Y-17425D01*
X14427Y-17082D02*
X14370Y-17044D01*
X14284Y-17044D01*
X14199Y-17082D01*
X14141Y-17158D01*
X14113Y-17234D01*
X14084Y-17387D01*
X14084Y-17501D01*
X14113Y-17653D01*
X14141Y-17730D01*
X14199Y-17806D01*
X14284Y-17844D01*
X14341Y-17844D01*
X14427Y-17806D01*
X14456Y-17768D01*
X14456Y-17501D01*
X14341Y-17501D01*
X12756Y-20206D02*
X12756Y-19406D01*
X12984Y-19406D01*
X13042Y-19444D01*
X13070Y-19482D01*
X13099Y-19558D01*
X13099Y-19672D01*
X13070Y-19749D01*
X13042Y-19787D01*
X12984Y-19825D01*
X12756Y-19825D01*
X13470Y-19406D02*
X13584Y-19406D01*
X13642Y-19444D01*
X13699Y-19520D01*
X13727Y-19672D01*
X13727Y-19939D01*
X13699Y-20092D01*
X13642Y-20168D01*
X13584Y-20206D01*
X13470Y-20206D01*
X13413Y-20168D01*
X13356Y-20092D01*
X13327Y-19939D01*
X13327Y-19672D01*
X13356Y-19520D01*
X13413Y-19444D01*
X13470Y-19406D01*
X13899Y-19406D02*
X14099Y-20206D01*
X14299Y-19406D01*
G54D12*
X10335Y-27756D02*
X30020Y-27756D01*
X10335Y-08071D02*
X10335Y-27756D01*
X30020Y-08071D02*
X10335Y-08071D01*
X30020Y-27756D02*
X30020Y-08071D01*
G54D11*
X10912Y-27394D02*
X11141Y-26937D01*
X11370Y-27394D01*
X14632Y-26594D02*
X15089Y-26594D01*
X14860Y-26899D02*
X14860Y-26289D01*
G54D10*
X17453Y-16807D02*
X18453Y-16807D01*
X18453Y-16807D02*
X18453Y-19807D01*
X18453Y-19807D02*
X17453Y-19807D01*
X17453Y-19807D02*
X17453Y-16807D01*
X18453Y-17807D02*
X17453Y-17807D01*
G54D13*
X21758Y-25776D02*
X21738Y-25970D01*
X21682Y-26157D01*
X21590Y-26329D01*
X21467Y-26480D01*
X21317Y-26605D01*
X21145Y-26697D01*
X20959Y-26755D01*
X20764Y-26775D01*
X20571Y-26758D01*
X20384Y-26703D01*
X20211Y-26612D01*
X20059Y-26490D01*
X19933Y-26340D01*
X19839Y-26169D01*
X19780Y-25983D01*
X19759Y-25789D01*
X19775Y-25596D01*
X19829Y-25408D01*
X19918Y-25235D01*
X20039Y-25082D01*
X20188Y-24955D01*
X20358Y-24860D01*
X20544Y-24800D01*
X20738Y-24777D01*
X20931Y-24792D01*
X21119Y-24844D01*
X21293Y-24932D01*
X21447Y-25052D01*
X21575Y-25200D01*
X21671Y-25370D01*
X21733Y-25555D01*
X21757Y-25749D01*
X21758Y-25776D01*
X19258Y-24276D02*
X22258Y-24276D01*
X22258Y-24276D02*
X22258Y-27276D01*
X22258Y-27276D02*
X19258Y-27276D01*
X19258Y-24276D02*
X19258Y-27276D01*
G54D14*
X19319Y-10694D02*
X19319Y-09194D01*
G54D15*
X19006Y-09944D02*
X18992Y-10081D01*
X18952Y-10213D01*
X18887Y-10335D01*
X18800Y-10442D01*
X18694Y-10530D01*
X18572Y-10595D01*
X18441Y-10636D01*
X18303Y-10650D01*
X18167Y-10638D01*
X18035Y-10599D01*
X17912Y-10535D01*
X17805Y-10449D01*
X17716Y-10343D01*
X17650Y-10222D01*
X17608Y-10090D01*
X17593Y-09953D01*
X17604Y-09817D01*
X17642Y-09684D01*
X17705Y-09562D01*
X17791Y-09453D01*
X17896Y-09364D01*
X18016Y-09297D01*
X18148Y-09254D01*
X18285Y-09238D01*
X18421Y-09248D01*
X18554Y-09285D01*
X18677Y-09348D01*
X18786Y-09433D01*
X18876Y-09537D01*
X18944Y-09657D01*
X18988Y-09788D01*
X19005Y-09925D01*
X19006Y-09944D01*
G54D16*
X19298Y-09194D02*
X19229Y-09110D01*
X19153Y-09032D01*
X19070Y-08961D01*
X18981Y-08897D01*
X18887Y-08842D01*
X18789Y-08795D01*
X18687Y-08756D01*
X18582Y-08727D01*
X18475Y-08707D01*
X18366Y-08696D01*
X18258Y-08695D01*
X18149Y-08704D01*
X18042Y-08721D01*
X17936Y-08748D01*
X17833Y-08785D01*
X17734Y-08830D01*
X17639Y-08883D01*
X17549Y-08945D01*
X17465Y-09014D01*
X17387Y-09090D01*
X17316Y-09173D01*
X17252Y-09262D01*
X17197Y-09356D01*
X17150Y-09454D01*
X17111Y-09556D01*
X17082Y-09661D01*
X17062Y-09768D01*
X17051Y-09877D01*
X17050Y-09985D01*
X17059Y-10094D01*
X17076Y-10201D01*
X17103Y-10307D01*
X17140Y-10410D01*
X17185Y-10509D01*
X17238Y-10604D01*
X17300Y-10694D01*
X17369Y-10778D01*
X17445Y-10856D01*
X17528Y-10927D01*
X17617Y-10991D01*
X17711Y-11046D01*
X17809Y-11093D01*
X17911Y-11132D01*
X18016Y-11161D01*
X18123Y-11181D01*
X18232Y-11192D01*
X18340Y-11193D01*
X18449Y-11184D01*
X18556Y-11167D01*
X18662Y-11140D01*
X18765Y-11103D01*
X18864Y-11058D01*
X18959Y-11005D01*
X19049Y-10943D01*
X19133Y-10874D01*
X19211Y-10798D01*
X19282Y-10715D01*
X19298Y-10694D01*
G54D10*
X18299Y-09494D02*
X18260Y-09496D01*
X18221Y-09501D01*
X18183Y-09510D01*
X18146Y-09522D01*
X18109Y-09537D01*
X18075Y-09555D01*
X18041Y-09576D01*
X18010Y-09600D01*
X17981Y-09626D01*
X17955Y-09655D01*
X17931Y-09686D01*
X17910Y-09720D01*
X17892Y-09754D01*
X17877Y-09791D01*
X17865Y-09828D01*
X17856Y-09866D01*
X17851Y-09905D01*
X17849Y-09944D01*
X18299Y-10394D02*
X18338Y-10392D01*
X18377Y-10387D01*
X18415Y-10378D01*
X18452Y-10366D01*
X18489Y-10351D01*
X18524Y-10333D01*
X18557Y-10312D01*
X18588Y-10288D01*
X18617Y-10262D01*
X18643Y-10233D01*
X18667Y-10202D01*
X18688Y-10168D01*
X18706Y-10134D01*
X18721Y-10097D01*
X18733Y-10060D01*
X18742Y-10022D01*
X18747Y-09983D01*
X18749Y-09944D01*
X18299Y-09294D02*
X18243Y-09297D01*
X18187Y-09304D01*
X18131Y-09317D01*
X18077Y-09334D01*
X18025Y-09355D01*
X17975Y-09382D01*
X17927Y-09412D01*
X17882Y-09447D01*
X17840Y-09485D01*
X17802Y-09527D01*
X17767Y-09572D01*
X17737Y-09620D01*
X17710Y-09670D01*
X17689Y-09722D01*
X17672Y-09776D01*
X17659Y-09832D01*
X17652Y-09888D01*
X17649Y-09944D01*
X18299Y-10594D02*
X18355Y-10591D01*
X18411Y-10584D01*
X18467Y-10571D01*
X18521Y-10554D01*
X18573Y-10533D01*
X18624Y-10506D01*
X18671Y-10476D01*
X18716Y-10441D01*
X18758Y-10403D01*
X18796Y-10361D01*
X18831Y-10316D01*
X18861Y-10268D01*
X18888Y-10218D01*
X18909Y-10166D01*
X18926Y-10112D01*
X18939Y-10056D01*
X18946Y-10000D01*
X18949Y-09944D01*
X18299Y-09094D02*
X18225Y-09098D01*
X18152Y-09107D01*
X18080Y-09123D01*
X18009Y-09146D01*
X17940Y-09174D01*
X17875Y-09208D01*
X17812Y-09248D01*
X17753Y-09293D01*
X17698Y-09343D01*
X17648Y-09398D01*
X17603Y-09457D01*
X17563Y-09520D01*
X17529Y-09585D01*
X17501Y-09654D01*
X17478Y-09725D01*
X17462Y-09797D01*
X17453Y-09870D01*
X17449Y-09944D01*
X18299Y-10794D02*
X18373Y-10790D01*
X18446Y-10781D01*
X18518Y-10765D01*
X18589Y-10742D01*
X18658Y-10714D01*
X18724Y-10680D01*
X18786Y-10640D01*
X18845Y-10595D01*
X18900Y-10545D01*
X18950Y-10490D01*
X18995Y-10431D01*
X19035Y-10368D01*
X19069Y-10303D01*
X19097Y-10234D01*
X19120Y-10163D01*
X19136Y-10091D01*
X19145Y-10018D01*
X19149Y-09944D01*
G54D14*
X22077Y-10693D02*
X22077Y-09193D01*
G54D15*
X21764Y-09943D02*
X21750Y-10080D01*
X21710Y-10212D01*
X21645Y-10334D01*
X21558Y-10441D01*
X21452Y-10529D01*
X21330Y-10594D01*
X21199Y-10635D01*
X21061Y-10649D01*
X20925Y-10637D01*
X20793Y-10598D01*
X20670Y-10534D01*
X20563Y-10448D01*
X20474Y-10342D01*
X20408Y-10221D01*
X20366Y-10089D01*
X20351Y-09952D01*
X20362Y-09816D01*
X20400Y-09683D01*
X20463Y-09561D01*
X20549Y-09452D01*
X20654Y-09363D01*
X20774Y-09296D01*
X20906Y-09253D01*
X21043Y-09237D01*
X21179Y-09247D01*
X21312Y-09284D01*
X21435Y-09347D01*
X21544Y-09432D01*
X21634Y-09536D01*
X21702Y-09656D01*
X21746Y-09787D01*
X21763Y-09924D01*
X21764Y-09943D01*
G54D16*
X22056Y-09193D02*
X21987Y-09109D01*
X21911Y-09031D01*
X21828Y-08960D01*
X21739Y-08896D01*
X21645Y-08841D01*
X21547Y-08794D01*
X21445Y-08755D01*
X21340Y-08726D01*
X21233Y-08706D01*
X21124Y-08695D01*
X21016Y-08694D01*
X20907Y-08703D01*
X20800Y-08720D01*
X20694Y-08747D01*
X20591Y-08784D01*
X20492Y-08829D01*
X20397Y-08882D01*
X20307Y-08944D01*
X20223Y-09013D01*
X20145Y-09089D01*
X20074Y-09172D01*
X20010Y-09261D01*
X19955Y-09355D01*
X19908Y-09453D01*
X19869Y-09555D01*
X19840Y-09660D01*
X19820Y-09767D01*
X19809Y-09876D01*
X19808Y-09984D01*
X19817Y-10093D01*
X19834Y-10200D01*
X19861Y-10306D01*
X19898Y-10409D01*
X19943Y-10508D01*
X19996Y-10603D01*
X20058Y-10693D01*
X20127Y-10777D01*
X20203Y-10855D01*
X20286Y-10926D01*
X20375Y-10990D01*
X20469Y-11045D01*
X20567Y-11092D01*
X20669Y-11131D01*
X20774Y-11160D01*
X20881Y-11180D01*
X20990Y-11191D01*
X21098Y-11192D01*
X21207Y-11183D01*
X21314Y-11166D01*
X21420Y-11139D01*
X21523Y-11102D01*
X21622Y-11057D01*
X21717Y-11004D01*
X21807Y-10942D01*
X21891Y-10873D01*
X21969Y-10797D01*
X22040Y-10714D01*
X22056Y-10693D01*
G54D10*
X21057Y-09493D02*
X21018Y-09495D01*
X20979Y-09500D01*
X20941Y-09509D01*
X20904Y-09521D01*
X20867Y-09536D01*
X20833Y-09554D01*
X20799Y-09575D01*
X20768Y-09599D01*
X20739Y-09625D01*
X20713Y-09654D01*
X20689Y-09685D01*
X20668Y-09719D01*
X20650Y-09753D01*
X20635Y-09790D01*
X20623Y-09827D01*
X20614Y-09865D01*
X20609Y-09904D01*
X20607Y-09943D01*
X21057Y-10393D02*
X21096Y-10391D01*
X21135Y-10386D01*
X21173Y-10377D01*
X21210Y-10365D01*
X21247Y-10350D01*
X21282Y-10332D01*
X21315Y-10311D01*
X21346Y-10287D01*
X21375Y-10261D01*
X21401Y-10232D01*
X21425Y-10201D01*
X21446Y-10167D01*
X21464Y-10133D01*
X21479Y-10096D01*
X21491Y-10059D01*
X21500Y-10021D01*
X21505Y-09982D01*
X21507Y-09943D01*
X21057Y-09293D02*
X21001Y-09296D01*
X20945Y-09303D01*
X20889Y-09316D01*
X20835Y-09333D01*
X20783Y-09354D01*
X20733Y-09381D01*
X20685Y-09411D01*
X20640Y-09446D01*
X20598Y-09484D01*
X20560Y-09526D01*
X20525Y-09571D01*
X20495Y-09619D01*
X20468Y-09669D01*
X20447Y-09721D01*
X20430Y-09775D01*
X20417Y-09831D01*
X20410Y-09887D01*
X20407Y-09943D01*
X21057Y-10593D02*
X21113Y-10590D01*
X21169Y-10583D01*
X21225Y-10570D01*
X21279Y-10553D01*
X21331Y-10532D01*
X21382Y-10505D01*
X21429Y-10475D01*
X21474Y-10440D01*
X21516Y-10402D01*
X21554Y-10360D01*
X21589Y-10315D01*
X21619Y-10267D01*
X21646Y-10217D01*
X21667Y-10165D01*
X21684Y-10111D01*
X21697Y-10055D01*
X21704Y-09999D01*
X21707Y-09943D01*
X21057Y-09093D02*
X20983Y-09097D01*
X20910Y-09106D01*
X20838Y-09122D01*
X20767Y-09145D01*
X20698Y-09173D01*
X20633Y-09207D01*
X20570Y-09247D01*
X20511Y-09292D01*
X20456Y-09342D01*
X20406Y-09397D01*
X20361Y-09456D01*
X20321Y-09519D01*
X20287Y-09584D01*
X20259Y-09653D01*
X20236Y-09724D01*
X20220Y-09796D01*
X20211Y-09869D01*
X20207Y-09943D01*
X21057Y-10793D02*
X21131Y-10789D01*
X21204Y-10780D01*
X21276Y-10764D01*
X21347Y-10741D01*
X21416Y-10713D01*
X21482Y-10679D01*
X21544Y-10639D01*
X21603Y-10594D01*
X21658Y-10544D01*
X21708Y-10489D01*
X21753Y-10430D01*
X21793Y-10367D01*
X21827Y-10302D01*
X21855Y-10233D01*
X21878Y-10162D01*
X21894Y-10090D01*
X21903Y-10017D01*
X21907Y-09943D01*
G54D14*
X16565Y-10694D02*
X16565Y-09194D01*
G54D15*
X16252Y-09944D02*
X16238Y-10081D01*
X16198Y-10213D01*
X16133Y-10335D01*
X16046Y-10442D01*
X15940Y-10530D01*
X15818Y-10595D01*
X15687Y-10636D01*
X15549Y-10650D01*
X15413Y-10638D01*
X15281Y-10599D01*
X15158Y-10535D01*
X15051Y-10449D01*
X14962Y-10343D01*
X14896Y-10222D01*
X14854Y-10090D01*
X14839Y-09953D01*
X14850Y-09817D01*
X14888Y-09684D01*
X14951Y-09562D01*
X15037Y-09453D01*
X15142Y-09364D01*
X15262Y-09297D01*
X15394Y-09254D01*
X15531Y-09238D01*
X15667Y-09248D01*
X15800Y-09285D01*
X15923Y-09348D01*
X16032Y-09433D01*
X16122Y-09537D01*
X16190Y-09657D01*
X16234Y-09788D01*
X16251Y-09925D01*
X16252Y-09944D01*
G54D16*
X16544Y-09194D02*
X16475Y-09110D01*
X16399Y-09032D01*
X16316Y-08961D01*
X16227Y-08897D01*
X16133Y-08842D01*
X16035Y-08795D01*
X15933Y-08756D01*
X15828Y-08727D01*
X15721Y-08707D01*
X15612Y-08696D01*
X15504Y-08695D01*
X15395Y-08704D01*
X15288Y-08721D01*
X15182Y-08748D01*
X15079Y-08785D01*
X14980Y-08830D01*
X14885Y-08883D01*
X14795Y-08945D01*
X14711Y-09014D01*
X14633Y-09090D01*
X14562Y-09173D01*
X14498Y-09262D01*
X14443Y-09356D01*
X14396Y-09454D01*
X14357Y-09556D01*
X14328Y-09661D01*
X14308Y-09768D01*
X14297Y-09877D01*
X14296Y-09985D01*
X14305Y-10094D01*
X14322Y-10201D01*
X14349Y-10307D01*
X14386Y-10410D01*
X14431Y-10509D01*
X14484Y-10604D01*
X14546Y-10694D01*
X14615Y-10778D01*
X14691Y-10856D01*
X14774Y-10927D01*
X14863Y-10991D01*
X14957Y-11046D01*
X15055Y-11093D01*
X15157Y-11132D01*
X15262Y-11161D01*
X15369Y-11181D01*
X15478Y-11192D01*
X15586Y-11193D01*
X15695Y-11184D01*
X15802Y-11167D01*
X15908Y-11140D01*
X16011Y-11103D01*
X16110Y-11058D01*
X16205Y-11005D01*
X16295Y-10943D01*
X16379Y-10874D01*
X16457Y-10798D01*
X16528Y-10715D01*
X16544Y-10694D01*
G54D10*
X15545Y-09494D02*
X15506Y-09496D01*
X15467Y-09501D01*
X15429Y-09510D01*
X15392Y-09522D01*
X15355Y-09537D01*
X15321Y-09555D01*
X15287Y-09576D01*
X15256Y-09600D01*
X15227Y-09626D01*
X15201Y-09655D01*
X15177Y-09686D01*
X15156Y-09720D01*
X15138Y-09754D01*
X15123Y-09791D01*
X15111Y-09828D01*
X15102Y-09866D01*
X15097Y-09905D01*
X15095Y-09944D01*
X15545Y-10394D02*
X15584Y-10392D01*
X15623Y-10387D01*
X15661Y-10378D01*
X15698Y-10366D01*
X15735Y-10351D01*
X15770Y-10333D01*
X15803Y-10312D01*
X15834Y-10288D01*
X15863Y-10262D01*
X15889Y-10233D01*
X15913Y-10202D01*
X15934Y-10168D01*
X15952Y-10134D01*
X15967Y-10097D01*
X15979Y-10060D01*
X15988Y-10022D01*
X15993Y-09983D01*
X15995Y-09944D01*
X15545Y-09294D02*
X15489Y-09297D01*
X15433Y-09304D01*
X15377Y-09317D01*
X15323Y-09334D01*
X15271Y-09355D01*
X15221Y-09382D01*
X15173Y-09412D01*
X15128Y-09447D01*
X15086Y-09485D01*
X15048Y-09527D01*
X15013Y-09572D01*
X14983Y-09620D01*
X14956Y-09670D01*
X14935Y-09722D01*
X14918Y-09776D01*
X14905Y-09832D01*
X14898Y-09888D01*
X14895Y-09944D01*
X15545Y-10594D02*
X15601Y-10591D01*
X15657Y-10584D01*
X15713Y-10571D01*
X15767Y-10554D01*
X15819Y-10533D01*
X15870Y-10506D01*
X15917Y-10476D01*
X15962Y-10441D01*
X16004Y-10403D01*
X16042Y-10361D01*
X16077Y-10316D01*
X16107Y-10268D01*
X16134Y-10218D01*
X16155Y-10166D01*
X16172Y-10112D01*
X16185Y-10056D01*
X16192Y-10000D01*
X16195Y-09944D01*
X15545Y-09094D02*
X15471Y-09098D01*
X15398Y-09107D01*
X15326Y-09123D01*
X15255Y-09146D01*
X15186Y-09174D01*
X15121Y-09208D01*
X15058Y-09248D01*
X14999Y-09293D01*
X14944Y-09343D01*
X14894Y-09398D01*
X14849Y-09457D01*
X14809Y-09520D01*
X14775Y-09585D01*
X14747Y-09654D01*
X14724Y-09725D01*
X14708Y-09797D01*
X14699Y-09870D01*
X14695Y-09944D01*
X15545Y-10794D02*
X15619Y-10790D01*
X15692Y-10781D01*
X15764Y-10765D01*
X15835Y-10742D01*
X15904Y-10714D01*
X15970Y-10680D01*
X16032Y-10640D01*
X16091Y-10595D01*
X16146Y-10545D01*
X16196Y-10490D01*
X16241Y-10431D01*
X16281Y-10368D01*
X16315Y-10303D01*
X16343Y-10234D01*
X16366Y-10163D01*
X16382Y-10091D01*
X16391Y-10018D01*
X16395Y-09944D01*
G54D14*
X13809Y-10695D02*
X13809Y-09195D01*
G54D15*
X13496Y-09945D02*
X13482Y-10082D01*
X13442Y-10214D01*
X13377Y-10336D01*
X13290Y-10443D01*
X13184Y-10531D01*
X13062Y-10596D01*
X12931Y-10637D01*
X12793Y-10651D01*
X12657Y-10639D01*
X12525Y-10600D01*
X12402Y-10536D01*
X12295Y-10450D01*
X12206Y-10344D01*
X12140Y-10223D01*
X12098Y-10091D01*
X12083Y-09954D01*
X12094Y-09818D01*
X12132Y-09685D01*
X12195Y-09563D01*
X12281Y-09454D01*
X12386Y-09365D01*
X12506Y-09298D01*
X12638Y-09255D01*
X12775Y-09239D01*
X12911Y-09249D01*
X13044Y-09286D01*
X13167Y-09349D01*
X13276Y-09434D01*
X13366Y-09538D01*
X13434Y-09658D01*
X13478Y-09789D01*
X13495Y-09926D01*
X13496Y-09945D01*
G54D16*
X13788Y-09195D02*
X13719Y-09111D01*
X13643Y-09033D01*
X13560Y-08962D01*
X13471Y-08898D01*
X13377Y-08843D01*
X13279Y-08796D01*
X13177Y-08757D01*
X13072Y-08728D01*
X12965Y-08708D01*
X12856Y-08697D01*
X12748Y-08696D01*
X12639Y-08705D01*
X12532Y-08722D01*
X12426Y-08749D01*
X12323Y-08786D01*
X12224Y-08831D01*
X12129Y-08884D01*
X12039Y-08946D01*
X11955Y-09015D01*
X11877Y-09091D01*
X11806Y-09174D01*
X11742Y-09263D01*
X11687Y-09357D01*
X11640Y-09455D01*
X11601Y-09557D01*
X11572Y-09662D01*
X11552Y-09769D01*
X11541Y-09878D01*
X11540Y-09986D01*
X11549Y-10095D01*
X11566Y-10202D01*
X11593Y-10308D01*
X11630Y-10411D01*
X11675Y-10510D01*
X11728Y-10605D01*
X11790Y-10695D01*
X11859Y-10779D01*
X11935Y-10857D01*
X12018Y-10928D01*
X12107Y-10992D01*
X12201Y-11047D01*
X12299Y-11094D01*
X12401Y-11133D01*
X12506Y-11162D01*
X12613Y-11182D01*
X12722Y-11193D01*
X12830Y-11194D01*
X12939Y-11185D01*
X13046Y-11168D01*
X13152Y-11141D01*
X13255Y-11104D01*
X13354Y-11059D01*
X13449Y-11006D01*
X13539Y-10944D01*
X13623Y-10875D01*
X13701Y-10799D01*
X13772Y-10716D01*
X13788Y-10695D01*
G54D10*
X12789Y-09495D02*
X12750Y-09497D01*
X12711Y-09502D01*
X12673Y-09511D01*
X12636Y-09523D01*
X12599Y-09538D01*
X12565Y-09556D01*
X12531Y-09577D01*
X12500Y-09601D01*
X12471Y-09627D01*
X12445Y-09656D01*
X12421Y-09687D01*
X12400Y-09721D01*
X12382Y-09755D01*
X12367Y-09792D01*
X12355Y-09829D01*
X12346Y-09867D01*
X12341Y-09906D01*
X12339Y-09945D01*
X12789Y-10395D02*
X12828Y-10393D01*
X12867Y-10388D01*
X12905Y-10379D01*
X12942Y-10367D01*
X12979Y-10352D01*
X13014Y-10334D01*
X13047Y-10313D01*
X13078Y-10289D01*
X13107Y-10263D01*
X13133Y-10234D01*
X13157Y-10203D01*
X13178Y-10169D01*
X13196Y-10135D01*
X13211Y-10098D01*
X13223Y-10061D01*
X13232Y-10023D01*
X13237Y-09984D01*
X13239Y-09945D01*
X12789Y-09295D02*
X12733Y-09298D01*
X12677Y-09305D01*
X12621Y-09318D01*
X12567Y-09335D01*
X12515Y-09356D01*
X12465Y-09383D01*
X12417Y-09413D01*
X12372Y-09448D01*
X12330Y-09486D01*
X12292Y-09528D01*
X12257Y-09573D01*
X12227Y-09621D01*
X12200Y-09671D01*
X12179Y-09723D01*
X12162Y-09777D01*
X12149Y-09833D01*
X12142Y-09889D01*
X12139Y-09945D01*
X12789Y-10595D02*
X12845Y-10592D01*
X12901Y-10585D01*
X12957Y-10572D01*
X13011Y-10555D01*
X13063Y-10534D01*
X13114Y-10507D01*
X13161Y-10477D01*
X13206Y-10442D01*
X13248Y-10404D01*
X13286Y-10362D01*
X13321Y-10317D01*
X13351Y-10269D01*
X13378Y-10219D01*
X13399Y-10167D01*
X13416Y-10113D01*
X13429Y-10057D01*
X13436Y-10001D01*
X13439Y-09945D01*
X12789Y-09095D02*
X12715Y-09099D01*
X12642Y-09108D01*
X12570Y-09124D01*
X12499Y-09147D01*
X12430Y-09175D01*
X12365Y-09209D01*
X12302Y-09249D01*
X12243Y-09294D01*
X12188Y-09344D01*
X12138Y-09399D01*
X12093Y-09458D01*
X12053Y-09521D01*
X12019Y-09586D01*
X11991Y-09655D01*
X11968Y-09726D01*
X11952Y-09798D01*
X11943Y-09871D01*
X11939Y-09945D01*
X12789Y-10795D02*
X12863Y-10791D01*
X12936Y-10782D01*
X13008Y-10766D01*
X13079Y-10743D01*
X13148Y-10715D01*
X13214Y-10681D01*
X13276Y-10641D01*
X13335Y-10596D01*
X13390Y-10546D01*
X13440Y-10491D01*
X13485Y-10432D01*
X13525Y-10369D01*
X13559Y-10304D01*
X13587Y-10235D01*
X13610Y-10164D01*
X13626Y-10092D01*
X13635Y-10019D01*
X13639Y-09945D01*
X15378Y-27311D02*
X15378Y-26311D01*
X15378Y-26311D02*
X17378Y-26311D01*
X17378Y-26311D02*
X17378Y-27311D01*
X17378Y-27311D02*
X15378Y-27311D01*
G54D16*
X27975Y-26735D02*
X28975Y-26735D01*
G54D10*
X28859Y-25655D02*
X28817Y-25623D01*
X28773Y-25595D01*
X28726Y-25571D01*
X28678Y-25551D01*
X28628Y-25535D01*
X28577Y-25524D01*
X28525Y-25518D01*
X28475Y-25515D01*
X28475Y-25516D02*
X28423Y-25519D01*
X28371Y-25526D01*
X28320Y-25537D01*
X28271Y-25553D01*
X28222Y-25573D01*
X28176Y-25597D01*
X28132Y-25625D01*
X28090Y-25657D01*
X28078Y-25668D01*
X28475Y-26714D02*
X28527Y-26711D01*
X28579Y-26704D01*
X28630Y-26693D01*
X28679Y-26677D01*
X28728Y-26657D01*
X28774Y-26633D01*
X28818Y-26605D01*
X28860Y-26573D01*
X28864Y-26569D01*
X28091Y-26575D02*
X28133Y-26607D01*
X28177Y-26635D01*
X28224Y-26659D01*
X28272Y-26679D01*
X28322Y-26695D01*
X28373Y-26706D01*
X28425Y-26712D01*
X28475Y-26715D01*
X28824Y-26602D02*
X28865Y-26570D01*
X28903Y-26534D01*
X28938Y-26495D01*
X28970Y-26453D01*
X28997Y-26409D01*
X29021Y-26362D01*
X29040Y-26314D01*
X29056Y-26264D01*
X29066Y-26212D01*
X29073Y-26161D01*
X29075Y-26115D01*
X29075Y-26115D02*
X29072Y-26063D01*
X29065Y-26011D01*
X29054Y-25960D01*
X29038Y-25910D01*
X29018Y-25862D01*
X28994Y-25816D01*
X28966Y-25771D01*
X28934Y-25730D01*
X28899Y-25691D01*
X28860Y-25656D01*
X28835Y-25636D01*
X27876Y-26115D02*
X27879Y-26167D01*
X27886Y-26219D01*
X27897Y-26270D01*
X27913Y-26319D01*
X27933Y-26368D01*
X27957Y-26414D01*
X27985Y-26458D01*
X28017Y-26500D01*
X28052Y-26538D01*
X28090Y-26573D01*
X28108Y-26587D01*
X28107Y-25642D02*
X28067Y-25676D01*
X28030Y-25713D01*
X27997Y-25754D01*
X27967Y-25797D01*
X27941Y-25842D01*
X27920Y-25890D01*
X27902Y-25939D01*
X27889Y-25990D01*
X27880Y-26041D01*
X27876Y-26094D01*
X27875Y-26115D01*
X28725Y-26115D02*
X28724Y-26094D01*
X28721Y-26072D01*
X28716Y-26051D01*
X28709Y-26030D01*
X28701Y-26010D01*
X28691Y-25991D01*
X28679Y-25972D01*
X28666Y-25955D01*
X28651Y-25939D01*
X28635Y-25924D01*
X28618Y-25911D01*
X28600Y-25899D01*
X28580Y-25889D01*
X28560Y-25881D01*
X28539Y-25874D01*
X28518Y-25869D01*
X28496Y-25866D01*
X28475Y-25865D01*
X28875Y-26115D02*
X28873Y-26081D01*
X28868Y-26046D01*
X28861Y-26012D01*
X28850Y-25979D01*
X28837Y-25946D01*
X28821Y-25916D01*
X28802Y-25886D01*
X28781Y-25858D01*
X28757Y-25833D01*
X28732Y-25809D01*
X28704Y-25788D01*
X28675Y-25769D01*
X28644Y-25753D01*
X28611Y-25740D01*
X28578Y-25729D01*
X28544Y-25722D01*
X28509Y-25717D01*
X28475Y-25715D01*
X28225Y-26115D02*
X28226Y-26136D01*
X28229Y-26158D01*
X28234Y-26179D01*
X28241Y-26200D01*
X28249Y-26220D01*
X28259Y-26239D01*
X28271Y-26258D01*
X28284Y-26275D01*
X28299Y-26291D01*
X28315Y-26306D01*
X28332Y-26319D01*
X28351Y-26331D01*
X28370Y-26341D01*
X28390Y-26349D01*
X28411Y-26356D01*
X28432Y-26361D01*
X28454Y-26364D01*
X28475Y-26365D01*
X28075Y-26115D02*
X28077Y-26149D01*
X28082Y-26184D01*
X28089Y-26218D01*
X28100Y-26251D01*
X28113Y-26284D01*
X28129Y-26314D01*
X28148Y-26344D01*
X28169Y-26372D01*
X28193Y-26397D01*
X28218Y-26421D01*
X28246Y-26442D01*
X28276Y-26461D01*
X28306Y-26477D01*
X28339Y-26490D01*
X28372Y-26501D01*
X28406Y-26508D01*
X28441Y-26513D01*
X28475Y-26515D01*
G54D16*
X28988Y-26728D02*
X29039Y-26681D01*
X29086Y-26630D01*
X29129Y-26575D01*
X29167Y-26516D01*
X29199Y-26454D01*
X29226Y-26389D01*
X29247Y-26323D01*
X29262Y-26255D01*
X29271Y-26186D01*
X29274Y-26116D01*
X29275Y-26115D01*
X29274Y-26115D02*
X29270Y-26046D01*
X29261Y-25977D01*
X29246Y-25909D01*
X29225Y-25842D01*
X29199Y-25778D01*
X29166Y-25716D01*
X29129Y-25657D01*
X29087Y-25602D01*
X29039Y-25551D01*
X28988Y-25503D01*
X28933Y-25461D01*
X28874Y-25424D01*
X28851Y-25411D01*
X27678Y-26116D02*
X27681Y-26185D01*
X27690Y-26254D01*
X27705Y-26322D01*
X27726Y-26389D01*
X27753Y-26453D01*
X27785Y-26515D01*
X27823Y-26573D01*
X27865Y-26629D01*
X27912Y-26680D01*
X27960Y-26724D01*
X28078Y-25421D02*
X28019Y-25459D01*
X27963Y-25501D01*
X27912Y-25548D01*
X27864Y-25599D01*
X27822Y-25654D01*
X27784Y-25713D01*
X27752Y-25775D01*
X27725Y-25839D01*
X27703Y-25906D01*
X27688Y-25974D01*
X27679Y-26043D01*
X27676Y-26113D01*
X27675Y-26115D01*
X28854Y-25411D02*
X28791Y-25381D01*
X28726Y-25356D01*
X28659Y-25337D01*
X28590Y-25324D01*
X28521Y-25317D01*
X28475Y-25315D01*
X28475Y-25316D02*
X28406Y-25320D01*
X28337Y-25329D01*
X28269Y-25344D01*
X28202Y-25365D01*
X28138Y-25391D01*
X28076Y-25424D01*
X28057Y-25435D01*
X27974Y-24371D02*
X28974Y-24371D01*
G54D10*
X28858Y-23291D02*
X28816Y-23259D01*
X28772Y-23231D01*
X28725Y-23207D01*
X28677Y-23187D01*
X28627Y-23171D01*
X28576Y-23160D01*
X28524Y-23154D01*
X28474Y-23151D01*
X28474Y-23152D02*
X28422Y-23155D01*
X28370Y-23162D01*
X28319Y-23173D01*
X28270Y-23189D01*
X28221Y-23209D01*
X28175Y-23233D01*
X28131Y-23261D01*
X28089Y-23293D01*
X28077Y-23304D01*
X28474Y-24350D02*
X28526Y-24347D01*
X28578Y-24340D01*
X28629Y-24329D01*
X28678Y-24313D01*
X28727Y-24293D01*
X28773Y-24269D01*
X28817Y-24241D01*
X28859Y-24209D01*
X28863Y-24205D01*
X28090Y-24211D02*
X28132Y-24243D01*
X28176Y-24271D01*
X28223Y-24295D01*
X28271Y-24315D01*
X28321Y-24331D01*
X28372Y-24342D01*
X28424Y-24348D01*
X28474Y-24351D01*
X28823Y-24238D02*
X28864Y-24206D01*
X28902Y-24170D01*
X28937Y-24131D01*
X28969Y-24089D01*
X28996Y-24045D01*
X29020Y-23998D01*
X29039Y-23950D01*
X29055Y-23900D01*
X29065Y-23848D01*
X29072Y-23797D01*
X29074Y-23751D01*
X29074Y-23751D02*
X29071Y-23699D01*
X29064Y-23647D01*
X29053Y-23596D01*
X29037Y-23546D01*
X29017Y-23498D01*
X28993Y-23452D01*
X28965Y-23407D01*
X28933Y-23366D01*
X28898Y-23327D01*
X28859Y-23292D01*
X28834Y-23272D01*
X27875Y-23751D02*
X27878Y-23803D01*
X27885Y-23855D01*
X27896Y-23906D01*
X27912Y-23955D01*
X27932Y-24004D01*
X27956Y-24050D01*
X27984Y-24094D01*
X28016Y-24136D01*
X28051Y-24174D01*
X28089Y-24209D01*
X28107Y-24223D01*
X28106Y-23278D02*
X28066Y-23312D01*
X28029Y-23349D01*
X27996Y-23390D01*
X27966Y-23433D01*
X27940Y-23478D01*
X27919Y-23526D01*
X27901Y-23575D01*
X27888Y-23626D01*
X27879Y-23677D01*
X27875Y-23730D01*
X27874Y-23751D01*
X28724Y-23751D02*
X28723Y-23730D01*
X28720Y-23708D01*
X28715Y-23687D01*
X28708Y-23666D01*
X28700Y-23646D01*
X28690Y-23627D01*
X28678Y-23608D01*
X28665Y-23591D01*
X28650Y-23575D01*
X28634Y-23560D01*
X28617Y-23547D01*
X28599Y-23535D01*
X28579Y-23525D01*
X28559Y-23517D01*
X28538Y-23510D01*
X28517Y-23505D01*
X28495Y-23502D01*
X28474Y-23501D01*
X28874Y-23751D02*
X28872Y-23717D01*
X28867Y-23682D01*
X28860Y-23648D01*
X28849Y-23615D01*
X28836Y-23582D01*
X28820Y-23552D01*
X28801Y-23522D01*
X28780Y-23494D01*
X28756Y-23469D01*
X28731Y-23445D01*
X28703Y-23424D01*
X28674Y-23405D01*
X28643Y-23389D01*
X28610Y-23376D01*
X28577Y-23365D01*
X28543Y-23358D01*
X28508Y-23353D01*
X28474Y-23351D01*
X28224Y-23751D02*
X28225Y-23772D01*
X28228Y-23794D01*
X28233Y-23815D01*
X28240Y-23836D01*
X28248Y-23856D01*
X28258Y-23875D01*
X28270Y-23894D01*
X28283Y-23911D01*
X28298Y-23927D01*
X28314Y-23942D01*
X28331Y-23955D01*
X28350Y-23967D01*
X28369Y-23977D01*
X28389Y-23985D01*
X28410Y-23992D01*
X28431Y-23997D01*
X28453Y-24000D01*
X28474Y-24001D01*
X28074Y-23751D02*
X28076Y-23785D01*
X28081Y-23820D01*
X28088Y-23854D01*
X28099Y-23887D01*
X28112Y-23920D01*
X28128Y-23950D01*
X28147Y-23980D01*
X28168Y-24008D01*
X28192Y-24033D01*
X28217Y-24057D01*
X28245Y-24078D01*
X28275Y-24097D01*
X28305Y-24113D01*
X28338Y-24126D01*
X28371Y-24137D01*
X28405Y-24144D01*
X28440Y-24149D01*
X28474Y-24151D01*
G54D16*
X28987Y-24364D02*
X29038Y-24317D01*
X29085Y-24266D01*
X29128Y-24211D01*
X29166Y-24152D01*
X29198Y-24090D01*
X29225Y-24025D01*
X29246Y-23959D01*
X29261Y-23891D01*
X29270Y-23822D01*
X29273Y-23752D01*
X29274Y-23751D01*
X29273Y-23751D02*
X29269Y-23682D01*
X29260Y-23613D01*
X29245Y-23545D01*
X29224Y-23478D01*
X29198Y-23414D01*
X29165Y-23352D01*
X29128Y-23293D01*
X29086Y-23238D01*
X29038Y-23187D01*
X28987Y-23139D01*
X28932Y-23097D01*
X28873Y-23060D01*
X28850Y-23047D01*
X27677Y-23752D02*
X27680Y-23821D01*
X27689Y-23890D01*
X27704Y-23958D01*
X27725Y-24025D01*
X27752Y-24089D01*
X27784Y-24151D01*
X27822Y-24209D01*
X27864Y-24265D01*
X27911Y-24316D01*
X27959Y-24360D01*
X28077Y-23057D02*
X28018Y-23095D01*
X27962Y-23137D01*
X27911Y-23184D01*
X27863Y-23235D01*
X27821Y-23290D01*
X27783Y-23349D01*
X27751Y-23411D01*
X27724Y-23475D01*
X27702Y-23542D01*
X27687Y-23610D01*
X27678Y-23679D01*
X27675Y-23749D01*
X27674Y-23751D01*
X28853Y-23047D02*
X28790Y-23017D01*
X28725Y-22992D01*
X28658Y-22973D01*
X28589Y-22960D01*
X28520Y-22953D01*
X28474Y-22951D01*
X28474Y-22952D02*
X28405Y-22956D01*
X28336Y-22965D01*
X28268Y-22980D01*
X28201Y-23001D01*
X28137Y-23027D01*
X28075Y-23060D01*
X28056Y-23071D01*
X27973Y-22011D02*
X28973Y-22011D01*
G54D10*
X28857Y-20931D02*
X28815Y-20899D01*
X28771Y-20871D01*
X28724Y-20847D01*
X28676Y-20827D01*
X28626Y-20811D01*
X28575Y-20800D01*
X28523Y-20794D01*
X28473Y-20791D01*
X28473Y-20792D02*
X28421Y-20795D01*
X28369Y-20802D01*
X28318Y-20813D01*
X28269Y-20829D01*
X28220Y-20849D01*
X28174Y-20873D01*
X28130Y-20901D01*
X28088Y-20933D01*
X28076Y-20944D01*
X28473Y-21990D02*
X28525Y-21987D01*
X28577Y-21980D01*
X28628Y-21969D01*
X28677Y-21953D01*
X28726Y-21933D01*
X28772Y-21909D01*
X28816Y-21881D01*
X28858Y-21849D01*
X28862Y-21845D01*
X28089Y-21851D02*
X28131Y-21883D01*
X28175Y-21911D01*
X28222Y-21935D01*
X28270Y-21955D01*
X28320Y-21971D01*
X28371Y-21982D01*
X28423Y-21988D01*
X28473Y-21991D01*
X28822Y-21878D02*
X28863Y-21846D01*
X28901Y-21810D01*
X28936Y-21771D01*
X28968Y-21729D01*
X28995Y-21685D01*
X29019Y-21638D01*
X29038Y-21590D01*
X29054Y-21540D01*
X29064Y-21488D01*
X29071Y-21437D01*
X29073Y-21391D01*
X29073Y-21391D02*
X29070Y-21339D01*
X29063Y-21287D01*
X29052Y-21236D01*
X29036Y-21186D01*
X29016Y-21138D01*
X28992Y-21092D01*
X28964Y-21047D01*
X28932Y-21006D01*
X28897Y-20967D01*
X28858Y-20932D01*
X28833Y-20912D01*
X27874Y-21391D02*
X27877Y-21443D01*
X27884Y-21495D01*
X27895Y-21546D01*
X27911Y-21595D01*
X27931Y-21644D01*
X27955Y-21690D01*
X27983Y-21734D01*
X28015Y-21776D01*
X28050Y-21814D01*
X28088Y-21849D01*
X28106Y-21863D01*
X28105Y-20918D02*
X28065Y-20952D01*
X28028Y-20989D01*
X27995Y-21030D01*
X27965Y-21073D01*
X27939Y-21118D01*
X27918Y-21166D01*
X27900Y-21215D01*
X27887Y-21266D01*
X27878Y-21317D01*
X27874Y-21370D01*
X27873Y-21391D01*
X28723Y-21391D02*
X28722Y-21370D01*
X28719Y-21348D01*
X28714Y-21327D01*
X28707Y-21306D01*
X28699Y-21286D01*
X28689Y-21267D01*
X28677Y-21248D01*
X28664Y-21231D01*
X28649Y-21215D01*
X28633Y-21200D01*
X28616Y-21187D01*
X28598Y-21175D01*
X28578Y-21165D01*
X28558Y-21157D01*
X28537Y-21150D01*
X28516Y-21145D01*
X28494Y-21142D01*
X28473Y-21141D01*
X28873Y-21391D02*
X28871Y-21357D01*
X28866Y-21322D01*
X28859Y-21288D01*
X28848Y-21255D01*
X28835Y-21222D01*
X28819Y-21192D01*
X28800Y-21162D01*
X28779Y-21134D01*
X28755Y-21109D01*
X28730Y-21085D01*
X28702Y-21064D01*
X28673Y-21045D01*
X28642Y-21029D01*
X28609Y-21016D01*
X28576Y-21005D01*
X28542Y-20998D01*
X28507Y-20993D01*
X28473Y-20991D01*
X28223Y-21391D02*
X28224Y-21412D01*
X28227Y-21434D01*
X28232Y-21455D01*
X28239Y-21476D01*
X28247Y-21496D01*
X28257Y-21515D01*
X28269Y-21534D01*
X28282Y-21551D01*
X28297Y-21567D01*
X28313Y-21582D01*
X28330Y-21595D01*
X28349Y-21607D01*
X28368Y-21617D01*
X28388Y-21625D01*
X28409Y-21632D01*
X28430Y-21637D01*
X28452Y-21640D01*
X28473Y-21641D01*
X28073Y-21391D02*
X28075Y-21425D01*
X28080Y-21460D01*
X28087Y-21494D01*
X28098Y-21527D01*
X28111Y-21560D01*
X28127Y-21590D01*
X28146Y-21620D01*
X28167Y-21648D01*
X28191Y-21673D01*
X28216Y-21697D01*
X28244Y-21718D01*
X28274Y-21737D01*
X28304Y-21753D01*
X28337Y-21766D01*
X28370Y-21777D01*
X28404Y-21784D01*
X28439Y-21789D01*
X28473Y-21791D01*
G54D16*
X28986Y-22004D02*
X29037Y-21957D01*
X29084Y-21906D01*
X29127Y-21851D01*
X29165Y-21792D01*
X29197Y-21730D01*
X29224Y-21665D01*
X29245Y-21599D01*
X29260Y-21531D01*
X29269Y-21462D01*
X29272Y-21392D01*
X29273Y-21391D01*
X29272Y-21391D02*
X29268Y-21322D01*
X29259Y-21253D01*
X29244Y-21185D01*
X29223Y-21118D01*
X29197Y-21054D01*
X29164Y-20992D01*
X29127Y-20933D01*
X29085Y-20878D01*
X29037Y-20827D01*
X28986Y-20779D01*
X28931Y-20737D01*
X28872Y-20700D01*
X28849Y-20687D01*
X27676Y-21392D02*
X27679Y-21461D01*
X27688Y-21530D01*
X27703Y-21598D01*
X27724Y-21665D01*
X27751Y-21729D01*
X27783Y-21791D01*
X27821Y-21849D01*
X27863Y-21905D01*
X27910Y-21956D01*
X27958Y-22000D01*
X28076Y-20697D02*
X28017Y-20735D01*
X27961Y-20777D01*
X27910Y-20824D01*
X27862Y-20875D01*
X27820Y-20930D01*
X27782Y-20989D01*
X27750Y-21051D01*
X27723Y-21115D01*
X27701Y-21182D01*
X27686Y-21250D01*
X27677Y-21319D01*
X27674Y-21389D01*
X27673Y-21391D01*
X28852Y-20687D02*
X28789Y-20657D01*
X28724Y-20632D01*
X28657Y-20613D01*
X28588Y-20600D01*
X28519Y-20593D01*
X28473Y-20591D01*
X28473Y-20592D02*
X28404Y-20596D01*
X28335Y-20605D01*
X28267Y-20620D01*
X28200Y-20641D01*
X28136Y-20667D01*
X28074Y-20700D01*
X28055Y-20711D01*
X27974Y-19648D02*
X28974Y-19648D01*
G54D10*
X28858Y-18568D02*
X28816Y-18536D01*
X28772Y-18508D01*
X28725Y-18484D01*
X28677Y-18464D01*
X28627Y-18448D01*
X28576Y-18437D01*
X28524Y-18431D01*
X28474Y-18428D01*
X28474Y-18429D02*
X28422Y-18432D01*
X28370Y-18439D01*
X28319Y-18450D01*
X28270Y-18466D01*
X28221Y-18486D01*
X28175Y-18510D01*
X28131Y-18538D01*
X28089Y-18570D01*
X28077Y-18581D01*
X28474Y-19627D02*
X28526Y-19624D01*
X28578Y-19617D01*
X28629Y-19606D01*
X28678Y-19590D01*
X28727Y-19570D01*
X28773Y-19546D01*
X28817Y-19518D01*
X28859Y-19486D01*
X28863Y-19482D01*
X28090Y-19488D02*
X28132Y-19520D01*
X28176Y-19548D01*
X28223Y-19572D01*
X28271Y-19592D01*
X28321Y-19608D01*
X28372Y-19619D01*
X28424Y-19625D01*
X28474Y-19628D01*
X28823Y-19515D02*
X28864Y-19483D01*
X28902Y-19447D01*
X28937Y-19408D01*
X28969Y-19366D01*
X28996Y-19322D01*
X29020Y-19275D01*
X29039Y-19227D01*
X29055Y-19177D01*
X29065Y-19125D01*
X29072Y-19074D01*
X29074Y-19028D01*
X29074Y-19028D02*
X29071Y-18976D01*
X29064Y-18924D01*
X29053Y-18873D01*
X29037Y-18823D01*
X29017Y-18775D01*
X28993Y-18729D01*
X28965Y-18684D01*
X28933Y-18643D01*
X28898Y-18604D01*
X28859Y-18569D01*
X28834Y-18549D01*
X27875Y-19028D02*
X27878Y-19080D01*
X27885Y-19132D01*
X27896Y-19183D01*
X27912Y-19232D01*
X27932Y-19281D01*
X27956Y-19327D01*
X27984Y-19371D01*
X28016Y-19413D01*
X28051Y-19451D01*
X28089Y-19486D01*
X28107Y-19500D01*
X28106Y-18555D02*
X28066Y-18589D01*
X28029Y-18626D01*
X27996Y-18667D01*
X27966Y-18710D01*
X27940Y-18755D01*
X27919Y-18803D01*
X27901Y-18852D01*
X27888Y-18903D01*
X27879Y-18954D01*
X27875Y-19007D01*
X27874Y-19028D01*
X28724Y-19028D02*
X28723Y-19007D01*
X28720Y-18985D01*
X28715Y-18964D01*
X28708Y-18943D01*
X28700Y-18923D01*
X28690Y-18904D01*
X28678Y-18885D01*
X28665Y-18868D01*
X28650Y-18852D01*
X28634Y-18837D01*
X28617Y-18824D01*
X28599Y-18812D01*
X28579Y-18802D01*
X28559Y-18794D01*
X28538Y-18787D01*
X28517Y-18782D01*
X28495Y-18779D01*
X28474Y-18778D01*
X28874Y-19028D02*
X28872Y-18994D01*
X28867Y-18959D01*
X28860Y-18925D01*
X28849Y-18892D01*
X28836Y-18859D01*
X28820Y-18829D01*
X28801Y-18799D01*
X28780Y-18771D01*
X28756Y-18746D01*
X28731Y-18722D01*
X28703Y-18701D01*
X28674Y-18682D01*
X28643Y-18666D01*
X28610Y-18653D01*
X28577Y-18642D01*
X28543Y-18635D01*
X28508Y-18630D01*
X28474Y-18628D01*
X28224Y-19028D02*
X28225Y-19049D01*
X28228Y-19071D01*
X28233Y-19092D01*
X28240Y-19113D01*
X28248Y-19133D01*
X28258Y-19152D01*
X28270Y-19171D01*
X28283Y-19188D01*
X28298Y-19204D01*
X28314Y-19219D01*
X28331Y-19232D01*
X28350Y-19244D01*
X28369Y-19254D01*
X28389Y-19262D01*
X28410Y-19269D01*
X28431Y-19274D01*
X28453Y-19277D01*
X28474Y-19278D01*
X28074Y-19028D02*
X28076Y-19062D01*
X28081Y-19097D01*
X28088Y-19131D01*
X28099Y-19164D01*
X28112Y-19197D01*
X28128Y-19227D01*
X28147Y-19257D01*
X28168Y-19285D01*
X28192Y-19310D01*
X28217Y-19334D01*
X28245Y-19355D01*
X28275Y-19374D01*
X28305Y-19390D01*
X28338Y-19403D01*
X28371Y-19414D01*
X28405Y-19421D01*
X28440Y-19426D01*
X28474Y-19428D01*
G54D16*
X28987Y-19641D02*
X29038Y-19594D01*
X29085Y-19543D01*
X29128Y-19488D01*
X29166Y-19429D01*
X29198Y-19367D01*
X29225Y-19302D01*
X29246Y-19236D01*
X29261Y-19168D01*
X29270Y-19099D01*
X29273Y-19029D01*
X29274Y-19028D01*
X29273Y-19028D02*
X29269Y-18959D01*
X29260Y-18890D01*
X29245Y-18822D01*
X29224Y-18755D01*
X29198Y-18691D01*
X29165Y-18629D01*
X29128Y-18570D01*
X29086Y-18515D01*
X29038Y-18464D01*
X28987Y-18416D01*
X28932Y-18374D01*
X28873Y-18337D01*
X28850Y-18324D01*
X27677Y-19029D02*
X27680Y-19098D01*
X27689Y-19167D01*
X27704Y-19235D01*
X27725Y-19302D01*
X27752Y-19366D01*
X27784Y-19428D01*
X27822Y-19486D01*
X27864Y-19542D01*
X27911Y-19593D01*
X27959Y-19637D01*
X28077Y-18334D02*
X28018Y-18372D01*
X27962Y-18414D01*
X27911Y-18461D01*
X27863Y-18512D01*
X27821Y-18567D01*
X27783Y-18626D01*
X27751Y-18688D01*
X27724Y-18752D01*
X27702Y-18819D01*
X27687Y-18887D01*
X27678Y-18956D01*
X27675Y-19026D01*
X27674Y-19028D01*
X28853Y-18324D02*
X28790Y-18294D01*
X28725Y-18269D01*
X28658Y-18250D01*
X28589Y-18237D01*
X28520Y-18230D01*
X28474Y-18228D01*
X28474Y-18229D02*
X28405Y-18233D01*
X28336Y-18242D01*
X28268Y-18257D01*
X28201Y-18278D01*
X28137Y-18304D01*
X28075Y-18337D01*
X28056Y-18348D01*
X27975Y-17284D02*
X28975Y-17284D01*
G54D10*
X28859Y-16204D02*
X28817Y-16172D01*
X28773Y-16144D01*
X28726Y-16120D01*
X28678Y-16100D01*
X28628Y-16084D01*
X28577Y-16073D01*
X28525Y-16067D01*
X28475Y-16064D01*
X28475Y-16065D02*
X28423Y-16068D01*
X28371Y-16075D01*
X28320Y-16086D01*
X28271Y-16102D01*
X28222Y-16122D01*
X28176Y-16146D01*
X28132Y-16174D01*
X28090Y-16206D01*
X28078Y-16217D01*
X28475Y-17263D02*
X28527Y-17260D01*
X28579Y-17253D01*
X28630Y-17242D01*
X28679Y-17226D01*
X28728Y-17206D01*
X28774Y-17182D01*
X28818Y-17154D01*
X28860Y-17122D01*
X28864Y-17118D01*
X28091Y-17124D02*
X28133Y-17156D01*
X28177Y-17184D01*
X28224Y-17208D01*
X28272Y-17228D01*
X28322Y-17244D01*
X28373Y-17255D01*
X28425Y-17261D01*
X28475Y-17264D01*
X28824Y-17151D02*
X28865Y-17119D01*
X28903Y-17083D01*
X28938Y-17044D01*
X28970Y-17002D01*
X28997Y-16958D01*
X29021Y-16911D01*
X29040Y-16863D01*
X29056Y-16813D01*
X29066Y-16761D01*
X29073Y-16710D01*
X29075Y-16664D01*
X29075Y-16664D02*
X29072Y-16612D01*
X29065Y-16560D01*
X29054Y-16509D01*
X29038Y-16459D01*
X29018Y-16411D01*
X28994Y-16365D01*
X28966Y-16320D01*
X28934Y-16279D01*
X28899Y-16240D01*
X28860Y-16205D01*
X28835Y-16185D01*
X27876Y-16664D02*
X27879Y-16716D01*
X27886Y-16768D01*
X27897Y-16819D01*
X27913Y-16868D01*
X27933Y-16917D01*
X27957Y-16963D01*
X27985Y-17007D01*
X28017Y-17049D01*
X28052Y-17087D01*
X28090Y-17122D01*
X28108Y-17136D01*
X28107Y-16191D02*
X28067Y-16225D01*
X28030Y-16262D01*
X27997Y-16303D01*
X27967Y-16346D01*
X27941Y-16391D01*
X27920Y-16439D01*
X27902Y-16488D01*
X27889Y-16539D01*
X27880Y-16590D01*
X27876Y-16643D01*
X27875Y-16664D01*
X28725Y-16664D02*
X28724Y-16643D01*
X28721Y-16621D01*
X28716Y-16600D01*
X28709Y-16579D01*
X28701Y-16559D01*
X28691Y-16540D01*
X28679Y-16521D01*
X28666Y-16504D01*
X28651Y-16488D01*
X28635Y-16473D01*
X28618Y-16460D01*
X28600Y-16448D01*
X28580Y-16438D01*
X28560Y-16430D01*
X28539Y-16423D01*
X28518Y-16418D01*
X28496Y-16415D01*
X28475Y-16414D01*
X28875Y-16664D02*
X28873Y-16630D01*
X28868Y-16595D01*
X28861Y-16561D01*
X28850Y-16528D01*
X28837Y-16495D01*
X28821Y-16465D01*
X28802Y-16435D01*
X28781Y-16407D01*
X28757Y-16382D01*
X28732Y-16358D01*
X28704Y-16337D01*
X28675Y-16318D01*
X28644Y-16302D01*
X28611Y-16289D01*
X28578Y-16278D01*
X28544Y-16271D01*
X28509Y-16266D01*
X28475Y-16264D01*
X28225Y-16664D02*
X28226Y-16685D01*
X28229Y-16707D01*
X28234Y-16728D01*
X28241Y-16749D01*
X28249Y-16769D01*
X28259Y-16788D01*
X28271Y-16807D01*
X28284Y-16824D01*
X28299Y-16840D01*
X28315Y-16855D01*
X28332Y-16868D01*
X28351Y-16880D01*
X28370Y-16890D01*
X28390Y-16898D01*
X28411Y-16905D01*
X28432Y-16910D01*
X28454Y-16913D01*
X28475Y-16914D01*
X28075Y-16664D02*
X28077Y-16698D01*
X28082Y-16733D01*
X28089Y-16767D01*
X28100Y-16800D01*
X28113Y-16833D01*
X28129Y-16863D01*
X28148Y-16893D01*
X28169Y-16921D01*
X28193Y-16946D01*
X28218Y-16970D01*
X28246Y-16991D01*
X28276Y-17010D01*
X28306Y-17026D01*
X28339Y-17039D01*
X28372Y-17050D01*
X28406Y-17057D01*
X28441Y-17062D01*
X28475Y-17064D01*
G54D16*
X28988Y-17277D02*
X29039Y-17230D01*
X29086Y-17179D01*
X29129Y-17124D01*
X29167Y-17065D01*
X29199Y-17003D01*
X29226Y-16938D01*
X29247Y-16872D01*
X29262Y-16804D01*
X29271Y-16735D01*
X29274Y-16665D01*
X29275Y-16664D01*
X29274Y-16664D02*
X29270Y-16595D01*
X29261Y-16526D01*
X29246Y-16458D01*
X29225Y-16391D01*
X29199Y-16327D01*
X29166Y-16265D01*
X29129Y-16206D01*
X29087Y-16151D01*
X29039Y-16100D01*
X28988Y-16052D01*
X28933Y-16010D01*
X28874Y-15973D01*
X28851Y-15960D01*
X27678Y-16665D02*
X27681Y-16734D01*
X27690Y-16803D01*
X27705Y-16871D01*
X27726Y-16938D01*
X27753Y-17002D01*
X27785Y-17064D01*
X27823Y-17122D01*
X27865Y-17178D01*
X27912Y-17229D01*
X27960Y-17273D01*
X28078Y-15970D02*
X28019Y-16008D01*
X27963Y-16050D01*
X27912Y-16097D01*
X27864Y-16148D01*
X27822Y-16203D01*
X27784Y-16262D01*
X27752Y-16324D01*
X27725Y-16388D01*
X27703Y-16455D01*
X27688Y-16523D01*
X27679Y-16592D01*
X27676Y-16662D01*
X27675Y-16664D01*
X28854Y-15960D02*
X28791Y-15930D01*
X28726Y-15905D01*
X28659Y-15886D01*
X28590Y-15873D01*
X28521Y-15866D01*
X28475Y-15864D01*
X28475Y-15865D02*
X28406Y-15869D01*
X28337Y-15878D01*
X28269Y-15893D01*
X28202Y-15914D01*
X28138Y-15940D01*
X28076Y-15973D01*
X28057Y-15984D01*
X27974Y-14925D02*
X28974Y-14925D01*
G54D10*
X28858Y-13845D02*
X28816Y-13813D01*
X28772Y-13785D01*
X28725Y-13761D01*
X28677Y-13741D01*
X28627Y-13725D01*
X28576Y-13714D01*
X28524Y-13708D01*
X28474Y-13705D01*
X28474Y-13706D02*
X28422Y-13709D01*
X28370Y-13716D01*
X28319Y-13727D01*
X28270Y-13743D01*
X28221Y-13763D01*
X28175Y-13787D01*
X28131Y-13815D01*
X28089Y-13847D01*
X28077Y-13858D01*
X28474Y-14904D02*
X28526Y-14901D01*
X28578Y-14894D01*
X28629Y-14883D01*
X28678Y-14867D01*
X28727Y-14847D01*
X28773Y-14823D01*
X28817Y-14795D01*
X28859Y-14763D01*
X28863Y-14759D01*
X28090Y-14765D02*
X28132Y-14797D01*
X28176Y-14825D01*
X28223Y-14849D01*
X28271Y-14869D01*
X28321Y-14885D01*
X28372Y-14896D01*
X28424Y-14902D01*
X28474Y-14905D01*
X28823Y-14792D02*
X28864Y-14760D01*
X28902Y-14724D01*
X28937Y-14685D01*
X28969Y-14643D01*
X28996Y-14599D01*
X29020Y-14552D01*
X29039Y-14504D01*
X29055Y-14454D01*
X29065Y-14402D01*
X29072Y-14351D01*
X29074Y-14305D01*
X29074Y-14305D02*
X29071Y-14253D01*
X29064Y-14201D01*
X29053Y-14150D01*
X29037Y-14100D01*
X29017Y-14052D01*
X28993Y-14006D01*
X28965Y-13961D01*
X28933Y-13920D01*
X28898Y-13881D01*
X28859Y-13846D01*
X28834Y-13826D01*
X27875Y-14305D02*
X27878Y-14357D01*
X27885Y-14409D01*
X27896Y-14460D01*
X27912Y-14509D01*
X27932Y-14558D01*
X27956Y-14604D01*
X27984Y-14648D01*
X28016Y-14690D01*
X28051Y-14728D01*
X28089Y-14763D01*
X28107Y-14777D01*
X28106Y-13832D02*
X28066Y-13866D01*
X28029Y-13903D01*
X27996Y-13944D01*
X27966Y-13987D01*
X27940Y-14032D01*
X27919Y-14080D01*
X27901Y-14129D01*
X27888Y-14180D01*
X27879Y-14231D01*
X27875Y-14284D01*
X27874Y-14305D01*
X28724Y-14305D02*
X28723Y-14284D01*
X28720Y-14262D01*
X28715Y-14241D01*
X28708Y-14220D01*
X28700Y-14200D01*
X28690Y-14181D01*
X28678Y-14162D01*
X28665Y-14145D01*
X28650Y-14129D01*
X28634Y-14114D01*
X28617Y-14101D01*
X28599Y-14089D01*
X28579Y-14079D01*
X28559Y-14071D01*
X28538Y-14064D01*
X28517Y-14059D01*
X28495Y-14056D01*
X28474Y-14055D01*
X28874Y-14305D02*
X28872Y-14271D01*
X28867Y-14236D01*
X28860Y-14202D01*
X28849Y-14169D01*
X28836Y-14136D01*
X28820Y-14106D01*
X28801Y-14076D01*
X28780Y-14048D01*
X28756Y-14023D01*
X28731Y-13999D01*
X28703Y-13978D01*
X28674Y-13959D01*
X28643Y-13943D01*
X28610Y-13930D01*
X28577Y-13919D01*
X28543Y-13912D01*
X28508Y-13907D01*
X28474Y-13905D01*
X28224Y-14305D02*
X28225Y-14326D01*
X28228Y-14348D01*
X28233Y-14369D01*
X28240Y-14390D01*
X28248Y-14410D01*
X28258Y-14429D01*
X28270Y-14448D01*
X28283Y-14465D01*
X28298Y-14481D01*
X28314Y-14496D01*
X28331Y-14509D01*
X28350Y-14521D01*
X28369Y-14531D01*
X28389Y-14539D01*
X28410Y-14546D01*
X28431Y-14551D01*
X28453Y-14554D01*
X28474Y-14555D01*
X28074Y-14305D02*
X28076Y-14339D01*
X28081Y-14374D01*
X28088Y-14408D01*
X28099Y-14441D01*
X28112Y-14474D01*
X28128Y-14504D01*
X28147Y-14534D01*
X28168Y-14562D01*
X28192Y-14587D01*
X28217Y-14611D01*
X28245Y-14632D01*
X28275Y-14651D01*
X28305Y-14667D01*
X28338Y-14680D01*
X28371Y-14691D01*
X28405Y-14698D01*
X28440Y-14703D01*
X28474Y-14705D01*
G54D16*
X28987Y-14918D02*
X29038Y-14871D01*
X29085Y-14820D01*
X29128Y-14765D01*
X29166Y-14706D01*
X29198Y-14644D01*
X29225Y-14579D01*
X29246Y-14513D01*
X29261Y-14445D01*
X29270Y-14376D01*
X29273Y-14306D01*
X29274Y-14305D01*
X29273Y-14305D02*
X29269Y-14236D01*
X29260Y-14167D01*
X29245Y-14099D01*
X29224Y-14032D01*
X29198Y-13968D01*
X29165Y-13906D01*
X29128Y-13847D01*
X29086Y-13792D01*
X29038Y-13741D01*
X28987Y-13693D01*
X28932Y-13651D01*
X28873Y-13614D01*
X28850Y-13601D01*
X27677Y-14306D02*
X27680Y-14375D01*
X27689Y-14444D01*
X27704Y-14512D01*
X27725Y-14579D01*
X27752Y-14643D01*
X27784Y-14705D01*
X27822Y-14763D01*
X27864Y-14819D01*
X27911Y-14870D01*
X27959Y-14914D01*
X28077Y-13611D02*
X28018Y-13649D01*
X27962Y-13691D01*
X27911Y-13738D01*
X27863Y-13789D01*
X27821Y-13844D01*
X27783Y-13903D01*
X27751Y-13965D01*
X27724Y-14029D01*
X27702Y-14096D01*
X27687Y-14164D01*
X27678Y-14233D01*
X27675Y-14303D01*
X27674Y-14305D01*
X28853Y-13601D02*
X28790Y-13571D01*
X28725Y-13546D01*
X28658Y-13527D01*
X28589Y-13514D01*
X28520Y-13507D01*
X28474Y-13505D01*
X28474Y-13506D02*
X28405Y-13510D01*
X28336Y-13519D01*
X28268Y-13534D01*
X28201Y-13555D01*
X28137Y-13581D01*
X28075Y-13614D01*
X28056Y-13625D01*
X27972Y-12561D02*
X28972Y-12561D01*
G54D10*
X28856Y-11481D02*
X28814Y-11449D01*
X28770Y-11421D01*
X28723Y-11397D01*
X28675Y-11377D01*
X28625Y-11361D01*
X28574Y-11350D01*
X28522Y-11344D01*
X28472Y-11341D01*
X28472Y-11342D02*
X28420Y-11345D01*
X28368Y-11352D01*
X28317Y-11363D01*
X28268Y-11379D01*
X28219Y-11399D01*
X28173Y-11423D01*
X28129Y-11451D01*
X28087Y-11483D01*
X28075Y-11494D01*
X28472Y-12540D02*
X28524Y-12537D01*
X28576Y-12530D01*
X28627Y-12519D01*
X28676Y-12503D01*
X28725Y-12483D01*
X28771Y-12459D01*
X28815Y-12431D01*
X28857Y-12399D01*
X28861Y-12395D01*
X28088Y-12401D02*
X28130Y-12433D01*
X28174Y-12461D01*
X28221Y-12485D01*
X28269Y-12505D01*
X28319Y-12521D01*
X28370Y-12532D01*
X28422Y-12538D01*
X28472Y-12541D01*
X28821Y-12428D02*
X28862Y-12396D01*
X28900Y-12360D01*
X28935Y-12321D01*
X28967Y-12279D01*
X28994Y-12235D01*
X29018Y-12188D01*
X29037Y-12140D01*
X29053Y-12090D01*
X29063Y-12038D01*
X29070Y-11987D01*
X29072Y-11941D01*
X29072Y-11941D02*
X29069Y-11889D01*
X29062Y-11837D01*
X29051Y-11786D01*
X29035Y-11736D01*
X29015Y-11688D01*
X28991Y-11642D01*
X28963Y-11597D01*
X28931Y-11556D01*
X28896Y-11517D01*
X28857Y-11482D01*
X28832Y-11462D01*
X27873Y-11941D02*
X27876Y-11993D01*
X27883Y-12045D01*
X27894Y-12096D01*
X27910Y-12145D01*
X27930Y-12194D01*
X27954Y-12240D01*
X27982Y-12284D01*
X28014Y-12326D01*
X28049Y-12364D01*
X28087Y-12399D01*
X28105Y-12413D01*
X28104Y-11468D02*
X28064Y-11502D01*
X28027Y-11539D01*
X27994Y-11580D01*
X27964Y-11623D01*
X27938Y-11668D01*
X27917Y-11716D01*
X27899Y-11765D01*
X27886Y-11816D01*
X27877Y-11867D01*
X27873Y-11920D01*
X27872Y-11941D01*
X28722Y-11941D02*
X28721Y-11920D01*
X28718Y-11898D01*
X28713Y-11877D01*
X28706Y-11856D01*
X28698Y-11836D01*
X28688Y-11817D01*
X28676Y-11798D01*
X28663Y-11781D01*
X28648Y-11765D01*
X28632Y-11750D01*
X28615Y-11737D01*
X28597Y-11725D01*
X28577Y-11715D01*
X28557Y-11707D01*
X28536Y-11700D01*
X28515Y-11695D01*
X28493Y-11692D01*
X28472Y-11691D01*
X28872Y-11941D02*
X28870Y-11907D01*
X28865Y-11872D01*
X28858Y-11838D01*
X28847Y-11805D01*
X28834Y-11772D01*
X28818Y-11742D01*
X28799Y-11712D01*
X28778Y-11684D01*
X28754Y-11659D01*
X28729Y-11635D01*
X28701Y-11614D01*
X28672Y-11595D01*
X28641Y-11579D01*
X28608Y-11566D01*
X28575Y-11555D01*
X28541Y-11548D01*
X28506Y-11543D01*
X28472Y-11541D01*
X28222Y-11941D02*
X28223Y-11962D01*
X28226Y-11984D01*
X28231Y-12005D01*
X28238Y-12026D01*
X28246Y-12046D01*
X28256Y-12065D01*
X28268Y-12084D01*
X28281Y-12101D01*
X28296Y-12117D01*
X28312Y-12132D01*
X28329Y-12145D01*
X28348Y-12157D01*
X28367Y-12167D01*
X28387Y-12175D01*
X28408Y-12182D01*
X28429Y-12187D01*
X28451Y-12190D01*
X28472Y-12191D01*
X28072Y-11941D02*
X28074Y-11975D01*
X28079Y-12010D01*
X28086Y-12044D01*
X28097Y-12077D01*
X28110Y-12110D01*
X28126Y-12140D01*
X28145Y-12170D01*
X28166Y-12198D01*
X28190Y-12223D01*
X28215Y-12247D01*
X28243Y-12268D01*
X28273Y-12287D01*
X28303Y-12303D01*
X28336Y-12316D01*
X28369Y-12327D01*
X28403Y-12334D01*
X28438Y-12339D01*
X28472Y-12341D01*
G54D16*
X28985Y-12554D02*
X29036Y-12507D01*
X29083Y-12456D01*
X29126Y-12401D01*
X29164Y-12342D01*
X29196Y-12280D01*
X29223Y-12215D01*
X29244Y-12149D01*
X29259Y-12081D01*
X29268Y-12012D01*
X29271Y-11942D01*
X29272Y-11941D01*
X29271Y-11941D02*
X29267Y-11872D01*
X29258Y-11803D01*
X29243Y-11735D01*
X29222Y-11668D01*
X29196Y-11604D01*
X29163Y-11542D01*
X29126Y-11483D01*
X29084Y-11428D01*
X29036Y-11377D01*
X28985Y-11329D01*
X28930Y-11287D01*
X28871Y-11250D01*
X28848Y-11237D01*
X27675Y-11942D02*
X27678Y-12011D01*
X27687Y-12080D01*
X27702Y-12148D01*
X27723Y-12215D01*
X27750Y-12279D01*
X27782Y-12341D01*
X27820Y-12399D01*
X27862Y-12455D01*
X27909Y-12506D01*
X27957Y-12550D01*
X28075Y-11247D02*
X28016Y-11285D01*
X27960Y-11327D01*
X27909Y-11374D01*
X27861Y-11425D01*
X27819Y-11480D01*
X27781Y-11539D01*
X27749Y-11601D01*
X27722Y-11665D01*
X27700Y-11732D01*
X27685Y-11800D01*
X27676Y-11869D01*
X27673Y-11939D01*
X27672Y-11941D01*
X28851Y-11237D02*
X28788Y-11207D01*
X28723Y-11182D01*
X28656Y-11163D01*
X28587Y-11150D01*
X28518Y-11143D01*
X28472Y-11141D01*
X28472Y-11142D02*
X28403Y-11146D01*
X28334Y-11155D01*
X28266Y-11170D01*
X28199Y-11191D01*
X28135Y-11217D01*
X28073Y-11250D01*
X28054Y-11261D01*
X27974Y-10200D02*
X28974Y-10200D01*
G54D10*
X28858Y-09120D02*
X28816Y-09088D01*
X28772Y-09060D01*
X28725Y-09036D01*
X28677Y-09016D01*
X28627Y-09000D01*
X28576Y-08989D01*
X28524Y-08983D01*
X28474Y-08980D01*
X28474Y-08981D02*
X28422Y-08984D01*
X28370Y-08991D01*
X28319Y-09002D01*
X28270Y-09018D01*
X28221Y-09038D01*
X28175Y-09062D01*
X28131Y-09090D01*
X28089Y-09122D01*
X28077Y-09133D01*
X28474Y-10179D02*
X28526Y-10176D01*
X28578Y-10169D01*
X28629Y-10158D01*
X28678Y-10142D01*
X28727Y-10122D01*
X28773Y-10098D01*
X28817Y-10070D01*
X28859Y-10038D01*
X28863Y-10034D01*
X28090Y-10040D02*
X28132Y-10072D01*
X28176Y-10100D01*
X28223Y-10124D01*
X28271Y-10144D01*
X28321Y-10160D01*
X28372Y-10171D01*
X28424Y-10177D01*
X28474Y-10180D01*
X28823Y-10067D02*
X28864Y-10035D01*
X28902Y-09999D01*
X28937Y-09960D01*
X28969Y-09918D01*
X28996Y-09874D01*
X29020Y-09827D01*
X29039Y-09779D01*
X29055Y-09729D01*
X29065Y-09677D01*
X29072Y-09626D01*
X29074Y-09580D01*
X29074Y-09580D02*
X29071Y-09528D01*
X29064Y-09476D01*
X29053Y-09425D01*
X29037Y-09375D01*
X29017Y-09327D01*
X28993Y-09281D01*
X28965Y-09236D01*
X28933Y-09195D01*
X28898Y-09156D01*
X28859Y-09121D01*
X28834Y-09101D01*
X27875Y-09580D02*
X27878Y-09632D01*
X27885Y-09684D01*
X27896Y-09735D01*
X27912Y-09784D01*
X27932Y-09833D01*
X27956Y-09879D01*
X27984Y-09923D01*
X28016Y-09965D01*
X28051Y-10003D01*
X28089Y-10038D01*
X28107Y-10052D01*
X28106Y-09107D02*
X28066Y-09141D01*
X28029Y-09178D01*
X27996Y-09219D01*
X27966Y-09262D01*
X27940Y-09307D01*
X27919Y-09355D01*
X27901Y-09404D01*
X27888Y-09455D01*
X27879Y-09506D01*
X27875Y-09559D01*
X27874Y-09580D01*
X28724Y-09580D02*
X28723Y-09559D01*
X28720Y-09537D01*
X28715Y-09516D01*
X28708Y-09495D01*
X28700Y-09475D01*
X28690Y-09456D01*
X28678Y-09437D01*
X28665Y-09420D01*
X28650Y-09404D01*
X28634Y-09389D01*
X28617Y-09376D01*
X28599Y-09364D01*
X28579Y-09354D01*
X28559Y-09346D01*
X28538Y-09339D01*
X28517Y-09334D01*
X28495Y-09331D01*
X28474Y-09330D01*
X28874Y-09580D02*
X28872Y-09546D01*
X28867Y-09511D01*
X28860Y-09477D01*
X28849Y-09444D01*
X28836Y-09411D01*
X28820Y-09381D01*
X28801Y-09351D01*
X28780Y-09323D01*
X28756Y-09298D01*
X28731Y-09274D01*
X28703Y-09253D01*
X28674Y-09234D01*
X28643Y-09218D01*
X28610Y-09205D01*
X28577Y-09194D01*
X28543Y-09187D01*
X28508Y-09182D01*
X28474Y-09180D01*
X28224Y-09580D02*
X28225Y-09601D01*
X28228Y-09623D01*
X28233Y-09644D01*
X28240Y-09665D01*
X28248Y-09685D01*
X28258Y-09704D01*
X28270Y-09723D01*
X28283Y-09740D01*
X28298Y-09756D01*
X28314Y-09771D01*
X28331Y-09784D01*
X28350Y-09796D01*
X28369Y-09806D01*
X28389Y-09814D01*
X28410Y-09821D01*
X28431Y-09826D01*
X28453Y-09829D01*
X28474Y-09830D01*
X28074Y-09580D02*
X28076Y-09614D01*
X28081Y-09649D01*
X28088Y-09683D01*
X28099Y-09716D01*
X28112Y-09749D01*
X28128Y-09779D01*
X28147Y-09809D01*
X28168Y-09837D01*
X28192Y-09862D01*
X28217Y-09886D01*
X28245Y-09907D01*
X28275Y-09926D01*
X28305Y-09942D01*
X28338Y-09955D01*
X28371Y-09966D01*
X28405Y-09973D01*
X28440Y-09978D01*
X28474Y-09980D01*
G54D16*
X28987Y-10193D02*
X29038Y-10146D01*
X29085Y-10095D01*
X29128Y-10040D01*
X29166Y-09981D01*
X29198Y-09919D01*
X29225Y-09854D01*
X29246Y-09788D01*
X29261Y-09720D01*
X29270Y-09651D01*
X29273Y-09581D01*
X29274Y-09580D01*
X29273Y-09580D02*
X29269Y-09511D01*
X29260Y-09442D01*
X29245Y-09374D01*
X29224Y-09307D01*
X29198Y-09243D01*
X29165Y-09181D01*
X29128Y-09122D01*
X29086Y-09067D01*
X29038Y-09016D01*
X28987Y-08968D01*
X28932Y-08926D01*
X28873Y-08889D01*
X28850Y-08876D01*
X27677Y-09581D02*
X27680Y-09650D01*
X27689Y-09719D01*
X27704Y-09787D01*
X27725Y-09854D01*
X27752Y-09918D01*
X27784Y-09980D01*
X27822Y-10038D01*
X27864Y-10094D01*
X27911Y-10145D01*
X27959Y-10189D01*
X28077Y-08886D02*
X28018Y-08924D01*
X27962Y-08966D01*
X27911Y-09013D01*
X27863Y-09064D01*
X27821Y-09119D01*
X27783Y-09178D01*
X27751Y-09240D01*
X27724Y-09304D01*
X27702Y-09371D01*
X27687Y-09439D01*
X27678Y-09508D01*
X27675Y-09578D01*
X27674Y-09580D01*
X28853Y-08876D02*
X28790Y-08846D01*
X28725Y-08821D01*
X28658Y-08802D01*
X28589Y-08789D01*
X28520Y-08782D01*
X28474Y-08780D01*
X28474Y-08781D02*
X28405Y-08785D01*
X28336Y-08794D01*
X28268Y-08809D01*
X28201Y-08830D01*
X28137Y-08856D01*
X28075Y-08889D01*
X28056Y-08900D01*
G54D11*
X19581Y-14252D02*
X21561Y-14252D01*
X21561Y-14252D02*
X21561Y-15252D01*
X21561Y-15252D02*
X19561Y-15252D01*
X19561Y-15252D02*
X19561Y-14252D01*
X19561Y-14502D02*
X19811Y-14252D01*
X12656Y-20841D02*
X16656Y-20841D01*
X16656Y-20841D02*
X16656Y-22841D01*
X16656Y-22841D02*
X12656Y-22841D01*
X12656Y-22841D02*
X12656Y-20841D01*
G54D14*
X13924Y-26670D02*
X10924Y-26670D01*
X10924Y-24670D02*
X13924Y-24670D01*
X13924Y-24670D02*
X13924Y-26670D01*
X10924Y-26670D02*
X10924Y-24670D01*
G54D10*
X12395Y-20191D02*
X11395Y-20191D01*
X11395Y-20191D02*
X11395Y-17191D01*
X11395Y-17191D02*
X12395Y-17191D01*
X12395Y-17191D02*
X12395Y-20191D01*
X11395Y-19191D02*
X12395Y-19191D01*
G54D12*
X21560Y-15875D02*
X21560Y-23875D01*
X19560Y-23875D02*
X19560Y-15875D01*
X19560Y-15875D02*
X21560Y-15875D01*
X21060Y-15875D02*
X21060Y-16375D01*
X21060Y-16375D02*
X20060Y-16375D01*
X20060Y-16375D02*
X20060Y-15875D01*
X21560Y-23875D02*
X19560Y-23875D01*
G54D11*
X11999Y-20859D02*
X11999Y-22839D01*
X11999Y-22839D02*
X10999Y-22839D01*
X10999Y-22839D02*
X10999Y-20839D01*
X10999Y-20839D02*
X11999Y-20839D01*
X11749Y-20839D02*
X11999Y-21089D01*
X12558Y-14053D02*
X11058Y-15553D01*
X11058Y-15553D02*
X11058Y-16053D01*
X11058Y-16053D02*
X11558Y-16553D01*
X11558Y-16553D02*
X12558Y-16553D01*
X12558Y-16553D02*
X13558Y-15553D01*
X13558Y-15553D02*
X13558Y-14553D01*
X13558Y-14553D02*
X13058Y-14053D01*
X13058Y-14053D02*
X12558Y-14053D01*
X12597Y-11020D02*
X11097Y-12520D01*
X11097Y-12520D02*
X11097Y-13020D01*
X11097Y-13020D02*
X11597Y-13520D01*
X11597Y-13520D02*
X12597Y-13520D01*
X12597Y-13520D02*
X13597Y-12520D01*
X13597Y-12520D02*
X13597Y-11520D01*
X13597Y-11520D02*
X13097Y-11020D01*
X13097Y-11020D02*
X12597Y-11020D01*
X15355Y-11018D02*
X13855Y-12518D01*
X13855Y-12518D02*
X13855Y-13018D01*
X13855Y-13018D02*
X14355Y-13518D01*
X14355Y-13518D02*
X15355Y-13518D01*
X15355Y-13518D02*
X16355Y-12518D01*
X16355Y-12518D02*
X16355Y-11518D01*
X16355Y-11518D02*
X15855Y-11018D01*
X15855Y-11018D02*
X15355Y-11018D01*
X18108Y-11019D02*
X16608Y-12519D01*
X16608Y-12519D02*
X16608Y-13019D01*
X16608Y-13019D02*
X17108Y-13519D01*
X17108Y-13519D02*
X18108Y-13519D01*
X18108Y-13519D02*
X19108Y-12519D01*
X19108Y-12519D02*
X19108Y-11519D01*
X19108Y-11519D02*
X18608Y-11019D01*
X18608Y-11019D02*
X18108Y-11019D01*
X20865Y-11018D02*
X19365Y-12518D01*
X19365Y-12518D02*
X19365Y-13018D01*
X19365Y-13018D02*
X19865Y-13518D01*
X19865Y-13518D02*
X20865Y-13518D01*
X20865Y-13518D02*
X21865Y-12518D01*
X21865Y-12518D02*
X21865Y-11518D01*
X21865Y-11518D02*
X21365Y-11018D01*
X21365Y-11018D02*
X20865Y-11018D01*
G54D14*
X18030Y-16618D02*
X18030Y-13618D01*
X18030Y-13618D02*
X13780Y-13618D01*
X13780Y-13618D02*
X13780Y-16618D01*
X13780Y-16618D02*
X18030Y-16618D01*
X18780Y-15622D02*
X18030Y-15622D01*
X18780Y-14614D02*
X18030Y-14614D01*
G54D13*
X14950Y-19900D02*
X15700Y-19900D01*
X15700Y-19900D02*
X15700Y-16900D01*
X15700Y-16900D02*
X14700Y-16900D01*
X14700Y-16900D02*
X14700Y-19900D01*
X14700Y-19900D02*
X14950Y-19900D01*
X15200Y-20150D02*
X15200Y-19900D01*
X15200Y-16900D02*
X15200Y-16650D01*
X14950Y-19900D02*
X14700Y-19650D01*
X23824Y-09344D02*
X23824Y-10094D01*
X23824Y-10094D02*
X26824Y-10094D01*
X26824Y-10094D02*
X26824Y-09094D01*
X26824Y-09094D02*
X23824Y-09094D01*
X23824Y-09094D02*
X23824Y-09344D01*
X23574Y-09594D02*
X23824Y-09594D01*
X26824Y-09594D02*
X27074Y-09594D01*
X23824Y-09344D02*
X24074Y-09094D01*
X23824Y-11705D02*
X23824Y-12455D01*
X23824Y-12455D02*
X26824Y-12455D01*
X26824Y-12455D02*
X26824Y-11455D01*
X26824Y-11455D02*
X23824Y-11455D01*
X23824Y-11455D02*
X23824Y-11705D01*
X23574Y-11955D02*
X23824Y-11955D01*
X26824Y-11955D02*
X27074Y-11955D01*
X23824Y-11705D02*
X24074Y-11455D01*
X23825Y-14068D02*
X23825Y-14818D01*
X23825Y-14818D02*
X26825Y-14818D01*
X26825Y-14818D02*
X26825Y-13818D01*
X26825Y-13818D02*
X23825Y-13818D01*
X23825Y-13818D02*
X23825Y-14068D01*
X23575Y-14318D02*
X23825Y-14318D01*
X26825Y-14318D02*
X27075Y-14318D01*
X23825Y-14068D02*
X24075Y-13818D01*
X23826Y-16431D02*
X23826Y-17181D01*
X23826Y-17181D02*
X26826Y-17181D01*
X26826Y-17181D02*
X26826Y-16181D01*
X26826Y-16181D02*
X23826Y-16181D01*
X23826Y-16181D02*
X23826Y-16431D01*
X23576Y-16681D02*
X23826Y-16681D01*
X26826Y-16681D02*
X27076Y-16681D01*
X23826Y-16431D02*
X24076Y-16181D01*
X23825Y-18792D02*
X23825Y-19542D01*
X23825Y-19542D02*
X26825Y-19542D01*
X26825Y-19542D02*
X26825Y-18542D01*
X26825Y-18542D02*
X23825Y-18542D01*
X23825Y-18542D02*
X23825Y-18792D01*
X23575Y-19042D02*
X23825Y-19042D01*
X26825Y-19042D02*
X27075Y-19042D01*
X23825Y-18792D02*
X24075Y-18542D01*
X23823Y-21156D02*
X23823Y-21906D01*
X23823Y-21906D02*
X26823Y-21906D01*
X26823Y-21906D02*
X26823Y-20906D01*
X26823Y-20906D02*
X23823Y-20906D01*
X23823Y-20906D02*
X23823Y-21156D01*
X23573Y-21406D02*
X23823Y-21406D01*
X26823Y-21406D02*
X27073Y-21406D01*
X23823Y-21156D02*
X24073Y-20906D01*
X23823Y-23516D02*
X23823Y-24266D01*
X23823Y-24266D02*
X26823Y-24266D01*
X26823Y-24266D02*
X26823Y-23266D01*
X26823Y-23266D02*
X23823Y-23266D01*
X23823Y-23266D02*
X23823Y-23516D01*
X23573Y-23766D02*
X23823Y-23766D01*
X26823Y-23766D02*
X27073Y-23766D01*
X23823Y-23516D02*
X24073Y-23266D01*
X23825Y-25880D02*
X23825Y-26630D01*
X23825Y-26630D02*
X26825Y-26630D01*
X26825Y-26630D02*
X26825Y-25630D01*
X26825Y-25630D02*
X23825Y-25630D01*
X23825Y-25630D02*
X23825Y-25880D01*
X23575Y-26130D02*
X23825Y-26130D01*
X26825Y-26130D02*
X27075Y-26130D01*
X23825Y-25880D02*
X24075Y-25630D01*
X16250Y-19900D02*
X17000Y-19900D01*
X17000Y-19900D02*
X17000Y-16900D01*
X17000Y-16900D02*
X16000Y-16900D01*
X16000Y-16900D02*
X16000Y-19900D01*
X16000Y-19900D02*
X16250Y-19900D01*
X16500Y-20150D02*
X16500Y-19900D01*
X16500Y-16900D02*
X16500Y-16650D01*
X16250Y-19900D02*
X16000Y-19650D01*
G54D10*
X17562Y-20624D02*
X17962Y-20357D01*
X17562Y-20357D02*
X17962Y-20624D01*
X17962Y-19995D02*
X17962Y-20224D01*
X17962Y-20110D02*
X17562Y-20110D01*
X17619Y-20148D01*
X17657Y-20186D01*
X17676Y-20224D01*
G54D14*
X20225Y-25619D02*
X20282Y-25638D01*
X20378Y-25638D01*
X20416Y-25619D01*
X20435Y-25600D01*
X20454Y-25562D01*
X20454Y-25524D01*
X20435Y-25486D01*
X20416Y-25466D01*
X20378Y-25447D01*
X20301Y-25428D01*
X20263Y-25409D01*
X20244Y-25390D01*
X20225Y-25352D01*
X20225Y-25314D01*
X20244Y-25276D01*
X20263Y-25257D01*
X20301Y-25238D01*
X20397Y-25238D01*
X20454Y-25257D01*
X20587Y-25238D02*
X20682Y-25638D01*
X20759Y-25352D01*
X20835Y-25638D01*
X20930Y-25238D01*
X21292Y-25638D02*
X21063Y-25638D01*
X21177Y-25638D02*
X21177Y-25238D01*
X21139Y-25295D01*
X21101Y-25333D01*
X21063Y-25352D01*
X19453Y-26319D02*
X19510Y-26338D01*
X19606Y-26338D01*
X19644Y-26319D01*
X19663Y-26300D01*
X19682Y-26262D01*
X19682Y-26224D01*
X19663Y-26186D01*
X19644Y-26166D01*
X19606Y-26147D01*
X19529Y-26128D01*
X19491Y-26109D01*
X19472Y-26090D01*
X19453Y-26052D01*
X19453Y-26014D01*
X19472Y-25976D01*
X19491Y-25957D01*
X19529Y-25938D01*
X19625Y-25938D01*
X19682Y-25957D01*
X19815Y-25938D02*
X19910Y-26338D01*
X19987Y-26052D01*
X20063Y-26338D01*
X20158Y-25938D01*
X20215Y-26376D02*
X20520Y-26376D01*
X20615Y-26338D02*
X20615Y-25938D01*
X20768Y-25938D01*
X20806Y-25957D01*
X20825Y-25976D01*
X20844Y-26014D01*
X20844Y-26071D01*
X20825Y-26109D01*
X20806Y-26128D01*
X20768Y-26147D01*
X20615Y-26147D01*
X21015Y-25938D02*
X21015Y-26262D01*
X21034Y-26300D01*
X21053Y-26319D01*
X21091Y-26338D01*
X21168Y-26338D01*
X21206Y-26319D01*
X21225Y-26300D01*
X21244Y-26262D01*
X21244Y-25938D01*
X21415Y-26319D02*
X21472Y-26338D01*
X21568Y-26338D01*
X21606Y-26319D01*
X21625Y-26300D01*
X21644Y-26262D01*
X21644Y-26224D01*
X21625Y-26186D01*
X21606Y-26166D01*
X21568Y-26147D01*
X21491Y-26128D01*
X21453Y-26109D01*
X21434Y-26090D01*
X21415Y-26052D01*
X21415Y-26014D01*
X21434Y-25976D01*
X21453Y-25957D01*
X21491Y-25938D01*
X21587Y-25938D01*
X21644Y-25957D01*
X21815Y-26338D02*
X21815Y-25938D01*
X21815Y-26128D02*
X22044Y-26128D01*
X22044Y-26338D02*
X22044Y-25938D01*
G54D17*
X17871Y-09096D02*
X17728Y-09096D01*
X17728Y-08796D01*
X17971Y-08939D02*
X18071Y-08939D01*
X18114Y-09096D02*
X17971Y-09096D01*
X17971Y-08796D01*
X18114Y-08796D01*
X18242Y-09096D02*
X18242Y-08796D01*
X18314Y-08796D01*
X18357Y-08811D01*
X18385Y-08839D01*
X18400Y-08868D01*
X18414Y-08925D01*
X18414Y-08968D01*
X18400Y-09025D01*
X18385Y-09054D01*
X18357Y-09082D01*
X18314Y-09096D01*
X18242Y-09096D01*
X18671Y-08896D02*
X18671Y-09096D01*
X18600Y-08782D02*
X18528Y-08996D01*
X18714Y-08996D01*
X17527Y-11565D02*
X17527Y-11265D01*
X17842Y-11565D02*
X17742Y-11423D01*
X17670Y-11565D02*
X17670Y-11265D01*
X17785Y-11265D01*
X17813Y-11280D01*
X17828Y-11294D01*
X17842Y-11323D01*
X17842Y-11365D01*
X17828Y-11394D01*
X17813Y-11408D01*
X17785Y-11423D01*
X17670Y-11423D01*
X17899Y-11594D02*
X18128Y-11594D01*
X18342Y-11565D02*
X18199Y-11565D01*
X18199Y-11265D01*
X18442Y-11408D02*
X18542Y-11408D01*
X18585Y-11565D02*
X18442Y-11565D01*
X18442Y-11265D01*
X18585Y-11265D01*
X18713Y-11565D02*
X18713Y-11265D01*
X18785Y-11265D01*
X18828Y-11280D01*
X18856Y-11308D01*
X18871Y-11337D01*
X18885Y-11394D01*
X18885Y-11437D01*
X18871Y-11494D01*
X18856Y-11523D01*
X18828Y-11551D01*
X18785Y-11565D01*
X18713Y-11565D01*
X20629Y-09095D02*
X20486Y-09095D01*
X20486Y-08795D01*
X20729Y-08938D02*
X20829Y-08938D01*
X20872Y-09095D02*
X20729Y-09095D01*
X20729Y-08795D01*
X20872Y-08795D01*
X21000Y-09095D02*
X21000Y-08795D01*
X21072Y-08795D01*
X21115Y-08810D01*
X21143Y-08838D01*
X21158Y-08867D01*
X21172Y-08924D01*
X21172Y-08967D01*
X21158Y-09024D01*
X21143Y-09053D01*
X21115Y-09081D01*
X21072Y-09095D01*
X21000Y-09095D01*
X21272Y-08795D02*
X21458Y-08795D01*
X21358Y-08910D01*
X21400Y-08910D01*
X21429Y-08924D01*
X21443Y-08938D01*
X21458Y-08967D01*
X21458Y-09038D01*
X21443Y-09067D01*
X21429Y-09081D01*
X21400Y-09095D01*
X21315Y-09095D01*
X21286Y-09081D01*
X21272Y-09067D01*
X20285Y-11564D02*
X20285Y-11264D01*
X20600Y-11564D02*
X20500Y-11422D01*
X20428Y-11564D02*
X20428Y-11264D01*
X20543Y-11264D01*
X20571Y-11279D01*
X20586Y-11293D01*
X20600Y-11322D01*
X20600Y-11364D01*
X20586Y-11393D01*
X20571Y-11407D01*
X20543Y-11422D01*
X20428Y-11422D01*
X20657Y-11593D02*
X20886Y-11593D01*
X21100Y-11564D02*
X20957Y-11564D01*
X20957Y-11264D01*
X21200Y-11407D02*
X21300Y-11407D01*
X21343Y-11564D02*
X21200Y-11564D01*
X21200Y-11264D01*
X21343Y-11264D01*
X21471Y-11564D02*
X21471Y-11264D01*
X21543Y-11264D01*
X21586Y-11279D01*
X21614Y-11307D01*
X21629Y-11336D01*
X21643Y-11393D01*
X21643Y-11436D01*
X21629Y-11493D01*
X21614Y-11522D01*
X21586Y-11550D01*
X21543Y-11564D01*
X21471Y-11564D01*
X15117Y-09096D02*
X14974Y-09096D01*
X14974Y-08796D01*
X15217Y-08939D02*
X15317Y-08939D01*
X15360Y-09096D02*
X15217Y-09096D01*
X15217Y-08796D01*
X15360Y-08796D01*
X15488Y-09096D02*
X15488Y-08796D01*
X15560Y-08796D01*
X15603Y-08811D01*
X15631Y-08839D01*
X15646Y-08868D01*
X15660Y-08925D01*
X15660Y-08968D01*
X15646Y-09025D01*
X15631Y-09054D01*
X15603Y-09082D01*
X15560Y-09096D01*
X15488Y-09096D01*
X15774Y-08825D02*
X15788Y-08811D01*
X15817Y-08796D01*
X15888Y-08796D01*
X15917Y-08811D01*
X15931Y-08825D01*
X15946Y-08854D01*
X15946Y-08882D01*
X15931Y-08925D01*
X15760Y-09096D01*
X15946Y-09096D01*
X14773Y-11565D02*
X14773Y-11265D01*
X15088Y-11565D02*
X14988Y-11423D01*
X14916Y-11565D02*
X14916Y-11265D01*
X15031Y-11265D01*
X15059Y-11280D01*
X15074Y-11294D01*
X15088Y-11323D01*
X15088Y-11365D01*
X15074Y-11394D01*
X15059Y-11408D01*
X15031Y-11423D01*
X14916Y-11423D01*
X15145Y-11594D02*
X15374Y-11594D01*
X15588Y-11565D02*
X15445Y-11565D01*
X15445Y-11265D01*
X15688Y-11408D02*
X15788Y-11408D01*
X15831Y-11565D02*
X15688Y-11565D01*
X15688Y-11265D01*
X15831Y-11265D01*
X15959Y-11565D02*
X15959Y-11265D01*
X16031Y-11265D01*
X16074Y-11280D01*
X16102Y-11308D01*
X16117Y-11337D01*
X16131Y-11394D01*
X16131Y-11437D01*
X16117Y-11494D01*
X16102Y-11523D01*
X16074Y-11551D01*
X16031Y-11565D01*
X15959Y-11565D01*
X12361Y-09097D02*
X12218Y-09097D01*
X12218Y-08797D01*
X12461Y-08940D02*
X12561Y-08940D01*
X12604Y-09097D02*
X12461Y-09097D01*
X12461Y-08797D01*
X12604Y-08797D01*
X12732Y-09097D02*
X12732Y-08797D01*
X12804Y-08797D01*
X12847Y-08812D01*
X12875Y-08840D01*
X12890Y-08869D01*
X12904Y-08926D01*
X12904Y-08969D01*
X12890Y-09026D01*
X12875Y-09055D01*
X12847Y-09083D01*
X12804Y-09097D01*
X12732Y-09097D01*
X13190Y-09097D02*
X13018Y-09097D01*
X13104Y-09097D02*
X13104Y-08797D01*
X13075Y-08840D01*
X13047Y-08869D01*
X13018Y-08883D01*
X12017Y-11566D02*
X12017Y-11266D01*
X12332Y-11566D02*
X12232Y-11424D01*
X12160Y-11566D02*
X12160Y-11266D01*
X12275Y-11266D01*
X12303Y-11281D01*
X12318Y-11295D01*
X12332Y-11324D01*
X12332Y-11366D01*
X12318Y-11395D01*
X12303Y-11409D01*
X12275Y-11424D01*
X12160Y-11424D01*
X12389Y-11595D02*
X12618Y-11595D01*
X12832Y-11566D02*
X12689Y-11566D01*
X12689Y-11266D01*
X12932Y-11409D02*
X13032Y-11409D01*
X13075Y-11566D02*
X12932Y-11566D01*
X12932Y-11266D01*
X13075Y-11266D01*
X13203Y-11566D02*
X13203Y-11266D01*
X13275Y-11266D01*
X13318Y-11281D01*
X13346Y-11309D01*
X13361Y-11338D01*
X13375Y-11395D01*
X13375Y-11438D01*
X13361Y-11495D01*
X13346Y-11524D01*
X13318Y-11552D01*
X13275Y-11566D01*
X13203Y-11566D01*
G54D10*
X16142Y-26025D02*
X16185Y-26040D01*
X16200Y-26054D01*
X16214Y-26082D01*
X16214Y-26125D01*
X16200Y-26154D01*
X16185Y-26168D01*
X16157Y-26182D01*
X16042Y-26182D01*
X16042Y-25882D01*
X16142Y-25882D01*
X16171Y-25897D01*
X16185Y-25911D01*
X16200Y-25940D01*
X16200Y-25968D01*
X16185Y-25997D01*
X16171Y-26011D01*
X16142Y-26025D01*
X16042Y-26025D01*
X16300Y-25882D02*
X16471Y-25882D01*
X16385Y-26182D02*
X16385Y-25882D01*
X16729Y-26182D02*
X16557Y-26182D01*
X16643Y-26182D02*
X16643Y-25882D01*
X16614Y-25925D01*
X16586Y-25954D01*
X16557Y-25968D01*
G54D17*
X29596Y-26494D02*
X29596Y-26637D01*
X29296Y-26637D01*
X29439Y-26394D02*
X29439Y-26294D01*
X29596Y-26251D02*
X29596Y-26394D01*
X29296Y-26394D01*
X29296Y-26251D01*
X29596Y-26123D02*
X29296Y-26123D01*
X29296Y-26051D01*
X29311Y-26008D01*
X29339Y-25980D01*
X29368Y-25965D01*
X29425Y-25951D01*
X29468Y-25951D01*
X29525Y-25965D01*
X29554Y-25980D01*
X29582Y-26008D01*
X29596Y-26051D01*
X29596Y-26123D01*
X29596Y-25665D02*
X29596Y-25837D01*
X29596Y-25751D02*
X29296Y-25751D01*
X29339Y-25780D01*
X29368Y-25808D01*
X29382Y-25837D01*
X29325Y-25551D02*
X29311Y-25537D01*
X29296Y-25508D01*
X29296Y-25437D01*
X29311Y-25408D01*
X29325Y-25394D01*
X29354Y-25379D01*
X29382Y-25379D01*
X29425Y-25394D01*
X29596Y-25565D01*
X29596Y-25379D01*
X27596Y-26208D02*
X27596Y-26351D01*
X27296Y-26351D01*
X27439Y-26108D02*
X27439Y-26008D01*
X27596Y-25965D02*
X27596Y-26108D01*
X27296Y-26108D01*
X27296Y-25965D01*
X27596Y-25837D02*
X27296Y-25837D01*
X27296Y-25765D01*
X27311Y-25722D01*
X27339Y-25694D01*
X27368Y-25679D01*
X27425Y-25665D01*
X27468Y-25665D01*
X27525Y-25679D01*
X27554Y-25694D01*
X27582Y-25722D01*
X27596Y-25765D01*
X27596Y-25837D01*
X29595Y-24130D02*
X29595Y-24273D01*
X29295Y-24273D01*
X29438Y-24030D02*
X29438Y-23930D01*
X29595Y-23887D02*
X29595Y-24030D01*
X29295Y-24030D01*
X29295Y-23887D01*
X29595Y-23759D02*
X29295Y-23759D01*
X29295Y-23687D01*
X29310Y-23644D01*
X29338Y-23616D01*
X29367Y-23601D01*
X29424Y-23587D01*
X29467Y-23587D01*
X29524Y-23601D01*
X29553Y-23616D01*
X29581Y-23644D01*
X29595Y-23687D01*
X29595Y-23759D01*
X29595Y-23301D02*
X29595Y-23473D01*
X29595Y-23387D02*
X29295Y-23387D01*
X29338Y-23416D01*
X29367Y-23444D01*
X29381Y-23473D01*
X29595Y-23015D02*
X29595Y-23187D01*
X29595Y-23101D02*
X29295Y-23101D01*
X29338Y-23130D01*
X29367Y-23158D01*
X29381Y-23187D01*
X27595Y-23844D02*
X27595Y-23987D01*
X27295Y-23987D01*
X27438Y-23744D02*
X27438Y-23644D01*
X27595Y-23601D02*
X27595Y-23744D01*
X27295Y-23744D01*
X27295Y-23601D01*
X27595Y-23473D02*
X27295Y-23473D01*
X27295Y-23401D01*
X27310Y-23358D01*
X27338Y-23330D01*
X27367Y-23315D01*
X27424Y-23301D01*
X27467Y-23301D01*
X27524Y-23315D01*
X27553Y-23330D01*
X27581Y-23358D01*
X27595Y-23401D01*
X27595Y-23473D01*
X29594Y-21770D02*
X29594Y-21913D01*
X29294Y-21913D01*
X29437Y-21670D02*
X29437Y-21570D01*
X29594Y-21527D02*
X29594Y-21670D01*
X29294Y-21670D01*
X29294Y-21527D01*
X29594Y-21399D02*
X29294Y-21399D01*
X29294Y-21327D01*
X29309Y-21284D01*
X29337Y-21256D01*
X29366Y-21241D01*
X29423Y-21227D01*
X29466Y-21227D01*
X29523Y-21241D01*
X29552Y-21256D01*
X29580Y-21284D01*
X29594Y-21327D01*
X29594Y-21399D01*
X29594Y-20941D02*
X29594Y-21113D01*
X29594Y-21027D02*
X29294Y-21027D01*
X29337Y-21056D01*
X29366Y-21084D01*
X29380Y-21113D01*
X29294Y-20755D02*
X29294Y-20727D01*
X29309Y-20698D01*
X29323Y-20684D01*
X29352Y-20670D01*
X29409Y-20655D01*
X29480Y-20655D01*
X29537Y-20670D01*
X29566Y-20684D01*
X29580Y-20698D01*
X29594Y-20727D01*
X29594Y-20755D01*
X29580Y-20784D01*
X29566Y-20798D01*
X29537Y-20813D01*
X29480Y-20827D01*
X29409Y-20827D01*
X29352Y-20813D01*
X29323Y-20798D01*
X29309Y-20784D01*
X29294Y-20755D01*
X27594Y-21484D02*
X27594Y-21627D01*
X27294Y-21627D01*
X27437Y-21384D02*
X27437Y-21284D01*
X27594Y-21241D02*
X27594Y-21384D01*
X27294Y-21384D01*
X27294Y-21241D01*
X27594Y-21113D02*
X27294Y-21113D01*
X27294Y-21041D01*
X27309Y-20998D01*
X27337Y-20970D01*
X27366Y-20955D01*
X27423Y-20941D01*
X27466Y-20941D01*
X27523Y-20955D01*
X27552Y-20970D01*
X27580Y-20998D01*
X27594Y-21041D01*
X27594Y-21113D01*
X29595Y-19264D02*
X29595Y-19407D01*
X29295Y-19407D01*
X29438Y-19164D02*
X29438Y-19064D01*
X29595Y-19021D02*
X29595Y-19164D01*
X29295Y-19164D01*
X29295Y-19021D01*
X29595Y-18893D02*
X29295Y-18893D01*
X29295Y-18821D01*
X29310Y-18778D01*
X29338Y-18750D01*
X29367Y-18735D01*
X29424Y-18721D01*
X29467Y-18721D01*
X29524Y-18735D01*
X29553Y-18750D01*
X29581Y-18778D01*
X29595Y-18821D01*
X29595Y-18893D01*
X29595Y-18578D02*
X29595Y-18521D01*
X29581Y-18493D01*
X29567Y-18478D01*
X29524Y-18450D01*
X29467Y-18435D01*
X29353Y-18435D01*
X29324Y-18450D01*
X29310Y-18464D01*
X29295Y-18493D01*
X29295Y-18550D01*
X29310Y-18578D01*
X29324Y-18593D01*
X29353Y-18607D01*
X29424Y-18607D01*
X29453Y-18593D01*
X29467Y-18578D01*
X29481Y-18550D01*
X29481Y-18493D01*
X29467Y-18464D01*
X29453Y-18450D01*
X29424Y-18435D01*
X27595Y-19121D02*
X27595Y-19264D01*
X27295Y-19264D01*
X27438Y-19021D02*
X27438Y-18921D01*
X27595Y-18878D02*
X27595Y-19021D01*
X27295Y-19021D01*
X27295Y-18878D01*
X27595Y-18750D02*
X27295Y-18750D01*
X27295Y-18678D01*
X27310Y-18635D01*
X27338Y-18607D01*
X27367Y-18592D01*
X27424Y-18578D01*
X27467Y-18578D01*
X27524Y-18592D01*
X27553Y-18607D01*
X27581Y-18635D01*
X27595Y-18678D01*
X27595Y-18750D01*
X29596Y-16900D02*
X29596Y-17043D01*
X29296Y-17043D01*
X29439Y-16800D02*
X29439Y-16700D01*
X29596Y-16657D02*
X29596Y-16800D01*
X29296Y-16800D01*
X29296Y-16657D01*
X29596Y-16529D02*
X29296Y-16529D01*
X29296Y-16457D01*
X29311Y-16414D01*
X29339Y-16386D01*
X29368Y-16371D01*
X29425Y-16357D01*
X29468Y-16357D01*
X29525Y-16371D01*
X29554Y-16386D01*
X29582Y-16414D01*
X29596Y-16457D01*
X29596Y-16529D01*
X29425Y-16186D02*
X29411Y-16214D01*
X29396Y-16229D01*
X29368Y-16243D01*
X29354Y-16243D01*
X29325Y-16229D01*
X29311Y-16214D01*
X29296Y-16186D01*
X29296Y-16129D01*
X29311Y-16100D01*
X29325Y-16086D01*
X29354Y-16071D01*
X29368Y-16071D01*
X29396Y-16086D01*
X29411Y-16100D01*
X29425Y-16129D01*
X29425Y-16186D01*
X29439Y-16214D01*
X29454Y-16229D01*
X29482Y-16243D01*
X29539Y-16243D01*
X29568Y-16229D01*
X29582Y-16214D01*
X29596Y-16186D01*
X29596Y-16129D01*
X29582Y-16100D01*
X29568Y-16086D01*
X29539Y-16071D01*
X29482Y-16071D01*
X29454Y-16086D01*
X29439Y-16100D01*
X29425Y-16129D01*
X27596Y-16757D02*
X27596Y-16900D01*
X27296Y-16900D01*
X27439Y-16657D02*
X27439Y-16557D01*
X27596Y-16514D02*
X27596Y-16657D01*
X27296Y-16657D01*
X27296Y-16514D01*
X27596Y-16386D02*
X27296Y-16386D01*
X27296Y-16314D01*
X27311Y-16271D01*
X27339Y-16243D01*
X27368Y-16228D01*
X27425Y-16214D01*
X27468Y-16214D01*
X27525Y-16228D01*
X27554Y-16243D01*
X27582Y-16271D01*
X27596Y-16314D01*
X27596Y-16386D01*
X29595Y-14541D02*
X29595Y-14684D01*
X29295Y-14684D01*
X29438Y-14441D02*
X29438Y-14341D01*
X29595Y-14298D02*
X29595Y-14441D01*
X29295Y-14441D01*
X29295Y-14298D01*
X29595Y-14170D02*
X29295Y-14170D01*
X29295Y-14098D01*
X29310Y-14055D01*
X29338Y-14027D01*
X29367Y-14012D01*
X29424Y-13998D01*
X29467Y-13998D01*
X29524Y-14012D01*
X29553Y-14027D01*
X29581Y-14055D01*
X29595Y-14098D01*
X29595Y-14170D01*
X29295Y-13898D02*
X29295Y-13698D01*
X29595Y-13827D01*
X27595Y-14398D02*
X27595Y-14541D01*
X27295Y-14541D01*
X27438Y-14298D02*
X27438Y-14198D01*
X27595Y-14155D02*
X27595Y-14298D01*
X27295Y-14298D01*
X27295Y-14155D01*
X27595Y-14027D02*
X27295Y-14027D01*
X27295Y-13955D01*
X27310Y-13912D01*
X27338Y-13884D01*
X27367Y-13869D01*
X27424Y-13855D01*
X27467Y-13855D01*
X27524Y-13869D01*
X27553Y-13884D01*
X27581Y-13912D01*
X27595Y-13955D01*
X27595Y-14027D01*
X29593Y-12177D02*
X29593Y-12320D01*
X29293Y-12320D01*
X29436Y-12077D02*
X29436Y-11977D01*
X29593Y-11934D02*
X29593Y-12077D01*
X29293Y-12077D01*
X29293Y-11934D01*
X29593Y-11806D02*
X29293Y-11806D01*
X29293Y-11734D01*
X29308Y-11691D01*
X29336Y-11663D01*
X29365Y-11648D01*
X29422Y-11634D01*
X29465Y-11634D01*
X29522Y-11648D01*
X29551Y-11663D01*
X29579Y-11691D01*
X29593Y-11734D01*
X29593Y-11806D01*
X29293Y-11377D02*
X29293Y-11434D01*
X29308Y-11463D01*
X29322Y-11477D01*
X29365Y-11506D01*
X29422Y-11520D01*
X29536Y-11520D01*
X29565Y-11506D01*
X29579Y-11491D01*
X29593Y-11463D01*
X29593Y-11406D01*
X29579Y-11377D01*
X29565Y-11363D01*
X29536Y-11348D01*
X29465Y-11348D01*
X29436Y-11363D01*
X29422Y-11377D01*
X29408Y-11406D01*
X29408Y-11463D01*
X29422Y-11491D01*
X29436Y-11506D01*
X29465Y-11520D01*
X27593Y-12034D02*
X27593Y-12177D01*
X27293Y-12177D01*
X27436Y-11934D02*
X27436Y-11834D01*
X27593Y-11791D02*
X27593Y-11934D01*
X27293Y-11934D01*
X27293Y-11791D01*
X27593Y-11663D02*
X27293Y-11663D01*
X27293Y-11591D01*
X27308Y-11548D01*
X27336Y-11520D01*
X27365Y-11505D01*
X27422Y-11491D01*
X27465Y-11491D01*
X27522Y-11505D01*
X27551Y-11520D01*
X27579Y-11548D01*
X27593Y-11591D01*
X27593Y-11663D01*
X29595Y-09816D02*
X29595Y-09959D01*
X29295Y-09959D01*
X29438Y-09716D02*
X29438Y-09616D01*
X29595Y-09573D02*
X29595Y-09716D01*
X29295Y-09716D01*
X29295Y-09573D01*
X29595Y-09445D02*
X29295Y-09445D01*
X29295Y-09373D01*
X29310Y-09330D01*
X29338Y-09302D01*
X29367Y-09287D01*
X29424Y-09273D01*
X29467Y-09273D01*
X29524Y-09287D01*
X29553Y-09302D01*
X29581Y-09330D01*
X29595Y-09373D01*
X29595Y-09445D01*
X29295Y-09002D02*
X29295Y-09145D01*
X29438Y-09159D01*
X29424Y-09145D01*
X29410Y-09116D01*
X29410Y-09045D01*
X29424Y-09016D01*
X29438Y-09002D01*
X29467Y-08987D01*
X29538Y-08987D01*
X29567Y-09002D01*
X29581Y-09016D01*
X29595Y-09045D01*
X29595Y-09116D01*
X29581Y-09145D01*
X29567Y-09159D01*
X27595Y-09673D02*
X27595Y-09816D01*
X27295Y-09816D01*
X27438Y-09573D02*
X27438Y-09473D01*
X27595Y-09430D02*
X27595Y-09573D01*
X27295Y-09573D01*
X27295Y-09430D01*
X27595Y-09302D02*
X27295Y-09302D01*
X27295Y-09230D01*
X27310Y-09187D01*
X27338Y-09159D01*
X27367Y-09144D01*
X27424Y-09130D01*
X27467Y-09130D01*
X27524Y-09144D01*
X27553Y-09159D01*
X27581Y-09187D01*
X27595Y-09230D01*
X27595Y-09302D01*
G54D14*
X20595Y-13976D02*
X20576Y-13995D01*
X20519Y-14014D01*
X20481Y-14014D01*
X20423Y-13995D01*
X20385Y-13957D01*
X20366Y-13919D01*
X20347Y-13842D01*
X20347Y-13785D01*
X20366Y-13709D01*
X20385Y-13671D01*
X20423Y-13633D01*
X20481Y-13614D01*
X20519Y-13614D01*
X20576Y-13633D01*
X20595Y-13652D01*
X20747Y-13652D02*
X20766Y-13633D01*
X20804Y-13614D01*
X20900Y-13614D01*
X20938Y-13633D01*
X20957Y-13652D01*
X20976Y-13690D01*
X20976Y-13728D01*
X20957Y-13785D01*
X20728Y-14014D01*
X20976Y-14014D01*
X14523Y-20103D02*
X14523Y-20389D01*
X14503Y-20446D01*
X14465Y-20484D01*
X14408Y-20503D01*
X14370Y-20503D01*
X14694Y-20141D02*
X14713Y-20122D01*
X14751Y-20103D01*
X14847Y-20103D01*
X14885Y-20122D01*
X14904Y-20141D01*
X14923Y-20179D01*
X14923Y-20217D01*
X14904Y-20274D01*
X14675Y-20503D01*
X14923Y-20503D01*
X11519Y-24332D02*
X11519Y-23932D01*
X11672Y-23932D01*
X11710Y-23951D01*
X11729Y-23970D01*
X11748Y-24008D01*
X11748Y-24065D01*
X11729Y-24103D01*
X11710Y-24122D01*
X11672Y-24141D01*
X11519Y-24141D01*
X12148Y-24332D02*
X12014Y-24141D01*
X11919Y-24332D02*
X11919Y-23932D01*
X12072Y-23932D01*
X12110Y-23951D01*
X12129Y-23970D01*
X12148Y-24008D01*
X12148Y-24065D01*
X12129Y-24103D01*
X12110Y-24122D01*
X12072Y-24141D01*
X11919Y-24141D01*
X12395Y-23932D02*
X12472Y-23932D01*
X12510Y-23951D01*
X12548Y-23989D01*
X12567Y-24065D01*
X12567Y-24199D01*
X12548Y-24275D01*
X12510Y-24313D01*
X12472Y-24332D01*
X12395Y-24332D01*
X12357Y-24313D01*
X12319Y-24275D01*
X12300Y-24199D01*
X12300Y-24065D01*
X12319Y-23989D01*
X12357Y-23951D01*
X12395Y-23932D01*
X12948Y-23951D02*
X12910Y-23932D01*
X12853Y-23932D01*
X12795Y-23951D01*
X12757Y-23989D01*
X12738Y-24027D01*
X12719Y-24103D01*
X12719Y-24160D01*
X12738Y-24237D01*
X12757Y-24275D01*
X12795Y-24313D01*
X12853Y-24332D01*
X12891Y-24332D01*
X12948Y-24313D01*
X12967Y-24294D01*
X12967Y-24160D01*
X12891Y-24160D01*
X13348Y-24332D02*
X13119Y-24332D01*
X13233Y-24332D02*
X13233Y-23932D01*
X13195Y-23989D01*
X13157Y-24027D01*
X13119Y-24046D01*
G54D10*
X10807Y-18724D02*
X11093Y-18724D01*
X11150Y-18744D01*
X11188Y-18782D01*
X11207Y-18839D01*
X11207Y-18877D01*
X11207Y-18324D02*
X11207Y-18553D01*
X11207Y-18439D02*
X10807Y-18439D01*
X10864Y-18477D01*
X10902Y-18515D01*
X10921Y-18553D01*
G54D18*
X20243Y-18043D02*
X20729Y-18043D01*
X20786Y-18021D01*
X20814Y-18000D01*
X20843Y-17957D01*
X20843Y-17871D01*
X20814Y-17829D01*
X20786Y-17807D01*
X20729Y-17786D01*
X20243Y-17786D01*
X20843Y-17336D02*
X20843Y-17593D01*
X20843Y-17465D02*
X20243Y-17465D01*
X20329Y-17508D01*
X20386Y-17550D01*
X20414Y-17593D01*
X20671Y-21714D02*
X20671Y-21500D01*
X20843Y-21757D02*
X20243Y-21607D01*
X20843Y-21457D01*
X20243Y-21371D02*
X20243Y-21114D01*
X20843Y-21243D02*
X20243Y-21243D01*
X20243Y-21028D02*
X20243Y-20771D01*
X20843Y-20900D02*
X20243Y-20900D01*
X20843Y-20621D02*
X20243Y-20621D01*
X20843Y-20407D02*
X20243Y-20407D01*
X20843Y-20150D01*
X20243Y-20150D01*
X20557Y-19850D02*
X20843Y-19850D01*
X20243Y-20000D02*
X20557Y-19850D01*
X20243Y-19700D01*
X20500Y-19486D02*
X20471Y-19528D01*
X20443Y-19550D01*
X20386Y-19571D01*
X20357Y-19571D01*
X20300Y-19550D01*
X20271Y-19528D01*
X20243Y-19486D01*
X20243Y-19400D01*
X20271Y-19357D01*
X20300Y-19336D01*
X20357Y-19314D01*
X20386Y-19314D01*
X20443Y-19336D01*
X20471Y-19357D01*
X20500Y-19400D01*
X20500Y-19486D01*
X20529Y-19528D01*
X20557Y-19550D01*
X20614Y-19571D01*
X20729Y-19571D01*
X20786Y-19550D01*
X20814Y-19528D01*
X20843Y-19486D01*
X20843Y-19400D01*
X20814Y-19357D01*
X20786Y-19336D01*
X20729Y-19314D01*
X20614Y-19314D01*
X20557Y-19336D01*
X20529Y-19357D01*
X20500Y-19400D01*
X20443Y-18928D02*
X20843Y-18928D01*
X20214Y-19035D02*
X20643Y-19142D01*
X20643Y-18864D01*
G54D14*
X12523Y-22005D02*
X12542Y-22024D01*
X12561Y-22081D01*
X12561Y-22119D01*
X12542Y-22177D01*
X12504Y-22215D01*
X12466Y-22234D01*
X12389Y-22253D01*
X12332Y-22253D01*
X12256Y-22234D01*
X12218Y-22215D01*
X12180Y-22177D01*
X12161Y-22119D01*
X12161Y-22081D01*
X12180Y-22024D01*
X12199Y-22005D01*
X12161Y-21872D02*
X12161Y-21624D01*
X12313Y-21758D01*
X12313Y-21700D01*
X12332Y-21662D01*
X12351Y-21643D01*
X12389Y-21624D01*
X12485Y-21624D01*
X12523Y-21643D01*
X12542Y-21662D01*
X12561Y-21700D01*
X12561Y-21815D01*
X12542Y-21853D01*
X12523Y-21872D01*
X11367Y-14916D02*
X11329Y-14897D01*
X11291Y-14859D01*
X11234Y-14802D01*
X11195Y-14783D01*
X11157Y-14783D01*
X11176Y-14878D02*
X11138Y-14859D01*
X11100Y-14821D01*
X11081Y-14745D01*
X11081Y-14611D01*
X11100Y-14535D01*
X11138Y-14497D01*
X11176Y-14478D01*
X11253Y-14478D01*
X11291Y-14497D01*
X11329Y-14535D01*
X11348Y-14611D01*
X11348Y-14745D01*
X11329Y-14821D01*
X11291Y-14859D01*
X11253Y-14878D01*
X11176Y-14878D01*
X11710Y-14478D02*
X11519Y-14478D01*
X11500Y-14668D01*
X11519Y-14649D01*
X11557Y-14630D01*
X11653Y-14630D01*
X11691Y-14649D01*
X11710Y-14668D01*
X11729Y-14706D01*
X11729Y-14802D01*
X11710Y-14840D01*
X11691Y-14859D01*
X11653Y-14878D01*
X11557Y-14878D01*
X11519Y-14859D01*
X11500Y-14840D01*
X11713Y-16468D02*
X11770Y-16487D01*
X11789Y-16506D01*
X11808Y-16545D01*
X11808Y-16602D01*
X11789Y-16640D01*
X11770Y-16659D01*
X11732Y-16678D01*
X11579Y-16678D01*
X11579Y-16278D01*
X11713Y-16278D01*
X11751Y-16297D01*
X11770Y-16316D01*
X11789Y-16354D01*
X11789Y-16392D01*
X11770Y-16430D01*
X11751Y-16449D01*
X11713Y-16468D01*
X11579Y-16468D01*
X12208Y-16640D02*
X12189Y-16659D01*
X12132Y-16678D01*
X12094Y-16678D01*
X12036Y-16659D01*
X11998Y-16621D01*
X11979Y-16583D01*
X11960Y-16506D01*
X11960Y-16449D01*
X11979Y-16373D01*
X11998Y-16335D01*
X12036Y-16297D01*
X12094Y-16278D01*
X12132Y-16278D01*
X12189Y-16297D01*
X12208Y-16316D01*
X12570Y-16278D02*
X12379Y-16278D01*
X12360Y-16468D01*
X12379Y-16449D01*
X12417Y-16430D01*
X12513Y-16430D01*
X12551Y-16449D01*
X12570Y-16468D01*
X12589Y-16506D01*
X12589Y-16602D01*
X12570Y-16640D01*
X12551Y-16659D01*
X12513Y-16678D01*
X12417Y-16678D01*
X12379Y-16659D01*
X12360Y-16640D01*
X12951Y-16278D02*
X12760Y-16278D01*
X12741Y-16468D01*
X12760Y-16449D01*
X12798Y-16430D01*
X12894Y-16430D01*
X12932Y-16449D01*
X12951Y-16468D01*
X12970Y-16506D01*
X12970Y-16602D01*
X12951Y-16640D01*
X12932Y-16659D01*
X12894Y-16678D01*
X12798Y-16678D01*
X12760Y-16659D01*
X12741Y-16640D01*
X13103Y-16278D02*
X13370Y-16278D01*
X13198Y-16678D01*
X11406Y-11883D02*
X11368Y-11864D01*
X11330Y-11826D01*
X11273Y-11769D01*
X11234Y-11750D01*
X11196Y-11750D01*
X11215Y-11845D02*
X11177Y-11826D01*
X11139Y-11788D01*
X11120Y-11712D01*
X11120Y-11578D01*
X11139Y-11502D01*
X11177Y-11464D01*
X11215Y-11445D01*
X11292Y-11445D01*
X11330Y-11464D01*
X11368Y-11502D01*
X11387Y-11578D01*
X11387Y-11712D01*
X11368Y-11788D01*
X11330Y-11826D01*
X11292Y-11845D01*
X11215Y-11845D01*
X11768Y-11845D02*
X11539Y-11845D01*
X11653Y-11845D02*
X11653Y-11445D01*
X11615Y-11502D01*
X11577Y-11540D01*
X11539Y-11559D01*
X11752Y-13435D02*
X11809Y-13454D01*
X11828Y-13473D01*
X11847Y-13512D01*
X11847Y-13569D01*
X11828Y-13607D01*
X11809Y-13626D01*
X11771Y-13645D01*
X11618Y-13645D01*
X11618Y-13245D01*
X11752Y-13245D01*
X11790Y-13264D01*
X11809Y-13283D01*
X11828Y-13321D01*
X11828Y-13359D01*
X11809Y-13397D01*
X11790Y-13416D01*
X11752Y-13435D01*
X11618Y-13435D01*
X12247Y-13607D02*
X12228Y-13626D01*
X12171Y-13645D01*
X12133Y-13645D01*
X12075Y-13626D01*
X12037Y-13588D01*
X12018Y-13550D01*
X11999Y-13473D01*
X11999Y-13416D01*
X12018Y-13340D01*
X12037Y-13302D01*
X12075Y-13264D01*
X12133Y-13245D01*
X12171Y-13245D01*
X12228Y-13264D01*
X12247Y-13283D01*
X12609Y-13245D02*
X12418Y-13245D01*
X12399Y-13435D01*
X12418Y-13416D01*
X12456Y-13397D01*
X12552Y-13397D01*
X12590Y-13416D01*
X12609Y-13435D01*
X12628Y-13473D01*
X12628Y-13569D01*
X12609Y-13607D01*
X12590Y-13626D01*
X12552Y-13645D01*
X12456Y-13645D01*
X12418Y-13626D01*
X12399Y-13607D01*
X12971Y-13378D02*
X12971Y-13645D01*
X12875Y-13226D02*
X12780Y-13512D01*
X13028Y-13512D01*
X13142Y-13245D02*
X13409Y-13245D01*
X13237Y-13645D01*
X14164Y-11881D02*
X14126Y-11862D01*
X14088Y-11824D01*
X14031Y-11767D01*
X13992Y-11748D01*
X13954Y-11748D01*
X13973Y-11843D02*
X13935Y-11824D01*
X13897Y-11786D01*
X13878Y-11710D01*
X13878Y-11576D01*
X13897Y-11500D01*
X13935Y-11462D01*
X13973Y-11443D01*
X14050Y-11443D01*
X14088Y-11462D01*
X14126Y-11500D01*
X14145Y-11576D01*
X14145Y-11710D01*
X14126Y-11786D01*
X14088Y-11824D01*
X14050Y-11843D01*
X13973Y-11843D01*
X14297Y-11481D02*
X14316Y-11462D01*
X14354Y-11443D01*
X14450Y-11443D01*
X14488Y-11462D01*
X14507Y-11481D01*
X14526Y-11519D01*
X14526Y-11557D01*
X14507Y-11614D01*
X14278Y-11843D01*
X14526Y-11843D01*
X14510Y-13433D02*
X14567Y-13452D01*
X14586Y-13471D01*
X14605Y-13510D01*
X14605Y-13567D01*
X14586Y-13605D01*
X14567Y-13624D01*
X14529Y-13643D01*
X14376Y-13643D01*
X14376Y-13243D01*
X14510Y-13243D01*
X14548Y-13262D01*
X14567Y-13281D01*
X14586Y-13319D01*
X14586Y-13357D01*
X14567Y-13395D01*
X14548Y-13414D01*
X14510Y-13433D01*
X14376Y-13433D01*
X15005Y-13605D02*
X14986Y-13624D01*
X14929Y-13643D01*
X14891Y-13643D01*
X14833Y-13624D01*
X14795Y-13586D01*
X14776Y-13548D01*
X14757Y-13471D01*
X14757Y-13414D01*
X14776Y-13338D01*
X14795Y-13300D01*
X14833Y-13262D01*
X14891Y-13243D01*
X14929Y-13243D01*
X14986Y-13262D01*
X15005Y-13281D01*
X15367Y-13243D02*
X15176Y-13243D01*
X15157Y-13433D01*
X15176Y-13414D01*
X15214Y-13395D01*
X15310Y-13395D01*
X15348Y-13414D01*
X15367Y-13433D01*
X15386Y-13471D01*
X15386Y-13567D01*
X15367Y-13605D01*
X15348Y-13624D01*
X15310Y-13643D01*
X15214Y-13643D01*
X15176Y-13624D01*
X15157Y-13605D01*
X15729Y-13376D02*
X15729Y-13643D01*
X15633Y-13224D02*
X15538Y-13510D01*
X15786Y-13510D01*
X15900Y-13243D02*
X16167Y-13243D01*
X15995Y-13643D01*
X16917Y-11882D02*
X16879Y-11863D01*
X16841Y-11825D01*
X16784Y-11768D01*
X16745Y-11749D01*
X16707Y-11749D01*
X16726Y-11844D02*
X16688Y-11825D01*
X16650Y-11787D01*
X16631Y-11711D01*
X16631Y-11577D01*
X16650Y-11501D01*
X16688Y-11463D01*
X16726Y-11444D01*
X16803Y-11444D01*
X16841Y-11463D01*
X16879Y-11501D01*
X16898Y-11577D01*
X16898Y-11711D01*
X16879Y-11787D01*
X16841Y-11825D01*
X16803Y-11844D01*
X16726Y-11844D01*
X17031Y-11444D02*
X17279Y-11444D01*
X17145Y-11596D01*
X17203Y-11596D01*
X17241Y-11615D01*
X17260Y-11634D01*
X17279Y-11672D01*
X17279Y-11768D01*
X17260Y-11806D01*
X17241Y-11825D01*
X17203Y-11844D01*
X17088Y-11844D01*
X17050Y-11825D01*
X17031Y-11806D01*
X17263Y-13434D02*
X17320Y-13453D01*
X17339Y-13472D01*
X17358Y-13511D01*
X17358Y-13568D01*
X17339Y-13606D01*
X17320Y-13625D01*
X17282Y-13644D01*
X17129Y-13644D01*
X17129Y-13244D01*
X17263Y-13244D01*
X17301Y-13263D01*
X17320Y-13282D01*
X17339Y-13320D01*
X17339Y-13358D01*
X17320Y-13396D01*
X17301Y-13415D01*
X17263Y-13434D01*
X17129Y-13434D01*
X17758Y-13606D02*
X17739Y-13625D01*
X17682Y-13644D01*
X17644Y-13644D01*
X17586Y-13625D01*
X17548Y-13587D01*
X17529Y-13549D01*
X17510Y-13472D01*
X17510Y-13415D01*
X17529Y-13339D01*
X17548Y-13301D01*
X17586Y-13263D01*
X17644Y-13244D01*
X17682Y-13244D01*
X17739Y-13263D01*
X17758Y-13282D01*
X18120Y-13244D02*
X17929Y-13244D01*
X17910Y-13434D01*
X17929Y-13415D01*
X17967Y-13396D01*
X18063Y-13396D01*
X18101Y-13415D01*
X18120Y-13434D01*
X18139Y-13472D01*
X18139Y-13568D01*
X18120Y-13606D01*
X18101Y-13625D01*
X18063Y-13644D01*
X17967Y-13644D01*
X17929Y-13625D01*
X17910Y-13606D01*
X18482Y-13377D02*
X18482Y-13644D01*
X18386Y-13225D02*
X18291Y-13511D01*
X18539Y-13511D01*
X18653Y-13244D02*
X18920Y-13244D01*
X18748Y-13644D01*
X19674Y-11881D02*
X19636Y-11862D01*
X19598Y-11824D01*
X19541Y-11767D01*
X19502Y-11748D01*
X19464Y-11748D01*
X19483Y-11843D02*
X19445Y-11824D01*
X19407Y-11786D01*
X19388Y-11710D01*
X19388Y-11576D01*
X19407Y-11500D01*
X19445Y-11462D01*
X19483Y-11443D01*
X19560Y-11443D01*
X19598Y-11462D01*
X19636Y-11500D01*
X19655Y-11576D01*
X19655Y-11710D01*
X19636Y-11786D01*
X19598Y-11824D01*
X19560Y-11843D01*
X19483Y-11843D01*
X19998Y-11576D02*
X19998Y-11843D01*
X19902Y-11424D02*
X19807Y-11710D01*
X20055Y-11710D01*
X20020Y-13433D02*
X20077Y-13452D01*
X20096Y-13471D01*
X20115Y-13510D01*
X20115Y-13567D01*
X20096Y-13605D01*
X20077Y-13624D01*
X20039Y-13643D01*
X19886Y-13643D01*
X19886Y-13243D01*
X20020Y-13243D01*
X20058Y-13262D01*
X20077Y-13281D01*
X20096Y-13319D01*
X20096Y-13357D01*
X20077Y-13395D01*
X20058Y-13414D01*
X20020Y-13433D01*
X19886Y-13433D01*
X20515Y-13605D02*
X20496Y-13624D01*
X20439Y-13643D01*
X20401Y-13643D01*
X20343Y-13624D01*
X20305Y-13586D01*
X20286Y-13548D01*
X20267Y-13471D01*
X20267Y-13414D01*
X20286Y-13338D01*
X20305Y-13300D01*
X20343Y-13262D01*
X20401Y-13243D01*
X20439Y-13243D01*
X20496Y-13262D01*
X20515Y-13281D01*
X20877Y-13243D02*
X20686Y-13243D01*
X20667Y-13433D01*
X20686Y-13414D01*
X20724Y-13395D01*
X20820Y-13395D01*
X20858Y-13414D01*
X20877Y-13433D01*
X20896Y-13471D01*
X20896Y-13567D01*
X20877Y-13605D01*
X20858Y-13624D01*
X20820Y-13643D01*
X20724Y-13643D01*
X20686Y-13624D01*
X20667Y-13605D01*
X21239Y-13376D02*
X21239Y-13643D01*
X21143Y-13224D02*
X21048Y-13510D01*
X21296Y-13510D01*
X21410Y-13243D02*
X21677Y-13243D01*
X21505Y-13643D01*
X15723Y-14805D02*
X15707Y-14833D01*
X15658Y-14862D01*
X15626Y-14862D01*
X15578Y-14833D01*
X15545Y-14776D01*
X15529Y-14719D01*
X15513Y-14605D01*
X15513Y-14519D01*
X15529Y-14405D01*
X15545Y-14348D01*
X15578Y-14290D01*
X15626Y-14262D01*
X15658Y-14262D01*
X15707Y-14290D01*
X15723Y-14319D01*
X16047Y-14862D02*
X15853Y-14862D01*
X15950Y-14862D02*
X15950Y-14262D01*
X15918Y-14348D01*
X15885Y-14405D01*
X15853Y-14433D01*
X15523Y-15820D02*
X15294Y-15820D01*
X15408Y-15820D02*
X15408Y-15320D01*
X15370Y-15392D01*
X15332Y-15439D01*
X15294Y-15463D01*
X15770Y-15320D02*
X15809Y-15320D01*
X15847Y-15344D01*
X15866Y-15368D01*
X15885Y-15416D01*
X15904Y-15511D01*
X15904Y-15630D01*
X15885Y-15725D01*
X15866Y-15773D01*
X15847Y-15797D01*
X15809Y-15820D01*
X15770Y-15820D01*
X15732Y-15797D01*
X15713Y-15773D01*
X15694Y-15725D01*
X15675Y-15630D01*
X15675Y-15511D01*
X15694Y-15416D01*
X15713Y-15368D01*
X15732Y-15344D01*
X15770Y-15320D01*
X16247Y-15487D02*
X16247Y-15820D01*
X16075Y-15487D02*
X16075Y-15749D01*
X16094Y-15797D01*
X16132Y-15820D01*
X16190Y-15820D01*
X16228Y-15797D01*
X16247Y-15773D01*
G54D10*
X15402Y-18466D02*
X15164Y-18600D01*
X15402Y-18695D02*
X14902Y-18695D01*
X14902Y-18542D01*
X14926Y-18504D01*
X14950Y-18485D01*
X14998Y-18466D01*
X15069Y-18466D01*
X15117Y-18485D01*
X15140Y-18504D01*
X15164Y-18542D01*
X15164Y-18695D01*
X15402Y-18085D02*
X15402Y-18314D01*
X15402Y-18200D02*
X14902Y-18200D01*
X14974Y-18238D01*
X15021Y-18276D01*
X15045Y-18314D01*
X25258Y-09796D02*
X25124Y-09558D01*
X25029Y-09796D02*
X25029Y-09296D01*
X25182Y-09296D01*
X25220Y-09320D01*
X25239Y-09344D01*
X25258Y-09392D01*
X25258Y-09463D01*
X25239Y-09511D01*
X25220Y-09534D01*
X25182Y-09558D01*
X25029Y-09558D01*
X25410Y-09344D02*
X25429Y-09320D01*
X25467Y-09296D01*
X25563Y-09296D01*
X25601Y-09320D01*
X25620Y-09344D01*
X25639Y-09392D01*
X25639Y-09439D01*
X25620Y-09511D01*
X25391Y-09796D01*
X25639Y-09796D01*
X25258Y-12157D02*
X25124Y-11919D01*
X25029Y-12157D02*
X25029Y-11657D01*
X25182Y-11657D01*
X25220Y-11681D01*
X25239Y-11705D01*
X25258Y-11753D01*
X25258Y-11824D01*
X25239Y-11872D01*
X25220Y-11895D01*
X25182Y-11919D01*
X25029Y-11919D01*
X25391Y-11657D02*
X25639Y-11657D01*
X25505Y-11848D01*
X25563Y-11848D01*
X25601Y-11872D01*
X25620Y-11895D01*
X25639Y-11943D01*
X25639Y-12062D01*
X25620Y-12110D01*
X25601Y-12134D01*
X25563Y-12157D01*
X25448Y-12157D01*
X25410Y-12134D01*
X25391Y-12110D01*
X25259Y-14520D02*
X25125Y-14282D01*
X25030Y-14520D02*
X25030Y-14020D01*
X25183Y-14020D01*
X25221Y-14044D01*
X25240Y-14068D01*
X25259Y-14116D01*
X25259Y-14187D01*
X25240Y-14235D01*
X25221Y-14258D01*
X25183Y-14282D01*
X25030Y-14282D01*
X25602Y-14187D02*
X25602Y-14520D01*
X25506Y-13997D02*
X25411Y-14354D01*
X25659Y-14354D01*
X25260Y-16883D02*
X25126Y-16645D01*
X25031Y-16883D02*
X25031Y-16383D01*
X25184Y-16383D01*
X25222Y-16407D01*
X25241Y-16431D01*
X25260Y-16479D01*
X25260Y-16550D01*
X25241Y-16598D01*
X25222Y-16621D01*
X25184Y-16645D01*
X25031Y-16645D01*
X25622Y-16383D02*
X25431Y-16383D01*
X25412Y-16621D01*
X25431Y-16598D01*
X25469Y-16574D01*
X25565Y-16574D01*
X25603Y-16598D01*
X25622Y-16621D01*
X25641Y-16669D01*
X25641Y-16788D01*
X25622Y-16836D01*
X25603Y-16860D01*
X25565Y-16883D01*
X25469Y-16883D01*
X25431Y-16860D01*
X25412Y-16836D01*
X25259Y-19244D02*
X25125Y-19006D01*
X25030Y-19244D02*
X25030Y-18744D01*
X25183Y-18744D01*
X25221Y-18768D01*
X25240Y-18792D01*
X25259Y-18840D01*
X25259Y-18911D01*
X25240Y-18959D01*
X25221Y-18982D01*
X25183Y-19006D01*
X25030Y-19006D01*
X25602Y-18744D02*
X25525Y-18744D01*
X25487Y-18768D01*
X25468Y-18792D01*
X25430Y-18863D01*
X25411Y-18959D01*
X25411Y-19149D01*
X25430Y-19197D01*
X25449Y-19221D01*
X25487Y-19244D01*
X25564Y-19244D01*
X25602Y-19221D01*
X25621Y-19197D01*
X25640Y-19149D01*
X25640Y-19030D01*
X25621Y-18982D01*
X25602Y-18959D01*
X25564Y-18935D01*
X25487Y-18935D01*
X25449Y-18959D01*
X25430Y-18982D01*
X25411Y-19030D01*
X25257Y-21608D02*
X25123Y-21370D01*
X25028Y-21608D02*
X25028Y-21108D01*
X25181Y-21108D01*
X25219Y-21132D01*
X25238Y-21156D01*
X25257Y-21204D01*
X25257Y-21275D01*
X25238Y-21323D01*
X25219Y-21346D01*
X25181Y-21370D01*
X25028Y-21370D01*
X25390Y-21108D02*
X25657Y-21108D01*
X25485Y-21608D01*
X25257Y-23968D02*
X25123Y-23730D01*
X25028Y-23968D02*
X25028Y-23468D01*
X25181Y-23468D01*
X25219Y-23492D01*
X25238Y-23516D01*
X25257Y-23564D01*
X25257Y-23635D01*
X25238Y-23683D01*
X25219Y-23706D01*
X25181Y-23730D01*
X25028Y-23730D01*
X25485Y-23683D02*
X25447Y-23659D01*
X25428Y-23635D01*
X25409Y-23587D01*
X25409Y-23564D01*
X25428Y-23516D01*
X25447Y-23492D01*
X25485Y-23468D01*
X25562Y-23468D01*
X25600Y-23492D01*
X25619Y-23516D01*
X25638Y-23564D01*
X25638Y-23587D01*
X25619Y-23635D01*
X25600Y-23659D01*
X25562Y-23683D01*
X25485Y-23683D01*
X25447Y-23706D01*
X25428Y-23730D01*
X25409Y-23778D01*
X25409Y-23873D01*
X25428Y-23921D01*
X25447Y-23945D01*
X25485Y-23968D01*
X25562Y-23968D01*
X25600Y-23945D01*
X25619Y-23921D01*
X25638Y-23873D01*
X25638Y-23778D01*
X25619Y-23730D01*
X25600Y-23706D01*
X25562Y-23683D01*
X25259Y-26332D02*
X25125Y-26094D01*
X25030Y-26332D02*
X25030Y-25832D01*
X25183Y-25832D01*
X25221Y-25856D01*
X25240Y-25880D01*
X25259Y-25928D01*
X25259Y-25999D01*
X25240Y-26047D01*
X25221Y-26070D01*
X25183Y-26094D01*
X25030Y-26094D01*
X25449Y-26332D02*
X25525Y-26332D01*
X25564Y-26309D01*
X25583Y-26285D01*
X25621Y-26213D01*
X25640Y-26118D01*
X25640Y-25928D01*
X25621Y-25880D01*
X25602Y-25856D01*
X25564Y-25832D01*
X25487Y-25832D01*
X25449Y-25856D01*
X25430Y-25880D01*
X25411Y-25928D01*
X25411Y-26047D01*
X25430Y-26094D01*
X25449Y-26118D01*
X25487Y-26142D01*
X25564Y-26142D01*
X25602Y-26118D01*
X25621Y-26094D01*
X25640Y-26047D01*
X16702Y-18657D02*
X16464Y-18791D01*
X16702Y-18886D02*
X16202Y-18886D01*
X16202Y-18733D01*
X16226Y-18695D01*
X16250Y-18676D01*
X16298Y-18657D01*
X16369Y-18657D01*
X16417Y-18676D01*
X16440Y-18695D01*
X16464Y-18733D01*
X16464Y-18886D01*
X16702Y-18276D02*
X16702Y-18505D01*
X16702Y-18391D02*
X16202Y-18391D01*
X16274Y-18429D01*
X16321Y-18467D01*
X16345Y-18505D01*
X16202Y-18029D02*
X16202Y-17990D01*
X16226Y-17952D01*
X16250Y-17933D01*
X16298Y-17914D01*
X16393Y-17895D01*
X16512Y-17895D01*
X16607Y-17914D01*
X16655Y-17933D01*
X16679Y-17952D01*
X16702Y-17990D01*
X16702Y-18029D01*
X16679Y-18067D01*
X16655Y-18086D01*
X16607Y-18105D01*
X16512Y-18124D01*
X16393Y-18124D01*
X16298Y-18105D01*
X16250Y-18086D01*
X16226Y-18067D01*
X16202Y-18029D01*
M02*
