M48
;DRILL file {PCBnew (2010-12-18 BZR 2669)-stable} date 2011-02-06T23:23:43 CET
;FORMAT={3:3/ absolute / metric / suppress leading zeros}
FMAT,2
METRIC,TZ
T1C0.813
T2C0.889
T3C0.950
T4C1.016
%
G90
G05
M71
T1
X29207Y-54201
X29207Y-56741
X29484Y-40394
X29583Y-32690
X30960Y-25260
X31135Y-38743
X31234Y-31039
X32786Y-37092
X32885Y-29388
X33500Y-25260
X36589Y-32685
X37960Y-25258
X38240Y-31034
X38608Y-42291
X38608Y-51181
X39891Y-29383
X40500Y-25258
X41910Y-42291
X41910Y-51181
X43581Y-32687
X44955Y-25258
X45232Y-31036
X46883Y-29385
X47495Y-25258
X47701Y-37120
X47701Y-39680
X48412Y-42863
X48412Y-45403
X48412Y-47943
X48412Y-50483
X48412Y-53023
X48412Y-55563
X48412Y-58103
X50584Y-32685
X50955Y-37470
X51961Y-25255
X52235Y-31034
X53495Y-37470
X53886Y-29383
X54501Y-25255
X56032Y-42863
X56032Y-45403
X56032Y-47943
X56032Y-50483
X56032Y-53023
X56032Y-55563
X56032Y-58103
X59875Y-54371
X59875Y-60366
X59878Y-24369
X59878Y-30366
X59881Y-36368
X59881Y-48367
X59881Y-66370
X59883Y-42370
X68765Y-54371
X68765Y-60366
X68768Y-24369
X68768Y-30366
X68771Y-36368
X68771Y-48367
X68771Y-66370
X68773Y-42370
X72319Y-28806
X72319Y-31346
X72321Y-52809
X72321Y-55349
X72324Y-22809
X72324Y-25349
X72324Y-34811
X72324Y-37351
X72324Y-46807
X72324Y-49347
X72324Y-58804
X72324Y-61344
X72327Y-40803
X72327Y-43343
X72327Y-64808
X72327Y-67348
T2
X45601Y-43960
X45601Y-46500
X45601Y-49040
T3
X48915Y-62931
X48915Y-68011
X56535Y-62931
X56535Y-68011
T4
X29017Y-63932
X29017Y-66472
X30213Y-44935
X30213Y-47475
X30213Y-50015
X31557Y-63932
X31557Y-66472
X33416Y-54206
X33416Y-56746
X34097Y-63932
X34097Y-66472
X35956Y-54206
X35956Y-56746
X38496Y-54206
X38496Y-56746
X40330Y-68100
X41036Y-54206
X41036Y-56746
X42870Y-68100
T0
M30
