G04 (created by PCBNEW-RS274X (2010-12-18 BZR 2669)-stable) date 2011-02-06T23:53:48 CET*
G01*
G70*
G90*
%MOIN*%
G04 Gerber Fmt 3.4, Leading zero omitted, Abs format*
%FSLAX34Y34*%
G04 APERTURE LIST*
%ADD10C,0.006000*%
%ADD11C,0.015000*%
%ADD12R,0.100000X0.100000*%
%ADD13C,0.100000*%
%ADD14C,0.110000*%
%ADD15C,0.098700*%
G04 APERTURE END LIST*
G54D10*
G54D11*
X10335Y-27756D02*
X30020Y-27756D01*
X10335Y-08071D02*
X10335Y-27756D01*
X30020Y-08071D02*
X10335Y-08071D01*
X30020Y-27756D02*
X30020Y-08071D01*
G54D12*
X17953Y-17307D03*
G54D13*
X17953Y-18307D03*
X17953Y-19307D03*
X22258Y-24776D03*
X22258Y-26776D03*
X19258Y-24776D03*
X19258Y-26776D03*
G54D12*
X15878Y-26811D03*
G54D13*
X16878Y-26811D03*
X20061Y-14752D03*
X21061Y-14752D03*
G54D12*
X13156Y-22341D03*
G54D13*
X13156Y-21341D03*
X14156Y-22341D03*
X14156Y-21341D03*
G54D14*
X15156Y-22341D03*
G54D13*
X15156Y-21341D03*
X16156Y-22341D03*
X16156Y-21341D03*
G54D12*
X11424Y-26170D03*
G54D13*
X11424Y-25170D03*
X12424Y-26170D03*
X12424Y-25170D03*
X13424Y-26170D03*
X13424Y-25170D03*
G54D12*
X11895Y-19691D03*
G54D13*
X11895Y-18691D03*
X11895Y-17691D03*
G54D12*
X19060Y-16875D03*
G54D13*
X19060Y-17875D03*
X19060Y-18875D03*
X19060Y-19875D03*
X19060Y-20875D03*
X19060Y-21875D03*
X19060Y-22875D03*
X22060Y-22875D03*
X22060Y-21875D03*
X22060Y-20875D03*
X22060Y-19875D03*
X22060Y-18875D03*
X22060Y-17875D03*
X22060Y-16875D03*
X11499Y-21339D03*
X11499Y-22339D03*
G54D10*
G36*
X11608Y-15206D02*
X12305Y-15903D01*
X11608Y-16600D01*
X10911Y-15903D01*
X11608Y-15206D01*
X11608Y-15206D01*
G37*
G54D15*
X12258Y-15253D03*
X12908Y-14603D03*
G54D10*
G36*
X11647Y-12173D02*
X12344Y-12870D01*
X11647Y-13567D01*
X10950Y-12870D01*
X11647Y-12173D01*
X11647Y-12173D01*
G37*
G54D15*
X12297Y-12220D03*
X12947Y-11570D03*
G54D10*
G36*
X14405Y-12171D02*
X15102Y-12868D01*
X14405Y-13565D01*
X13708Y-12868D01*
X14405Y-12171D01*
X14405Y-12171D01*
G37*
G54D15*
X15055Y-12218D03*
X15705Y-11568D03*
G54D10*
G36*
X17158Y-12172D02*
X17855Y-12869D01*
X17158Y-13566D01*
X16461Y-12869D01*
X17158Y-12172D01*
X17158Y-12172D01*
G37*
G54D15*
X17808Y-12219D03*
X18458Y-11569D03*
G54D10*
G36*
X19915Y-12171D02*
X20612Y-12868D01*
X19915Y-13565D01*
X19218Y-12868D01*
X19915Y-12171D01*
X19915Y-12171D01*
G37*
G54D15*
X20565Y-12218D03*
X21215Y-11568D03*
G54D12*
X18780Y-15622D03*
G54D13*
X18780Y-14614D03*
X15200Y-20150D03*
X15200Y-16650D03*
X23574Y-09594D03*
X27074Y-09594D03*
X23574Y-11955D03*
X27074Y-11955D03*
X23575Y-14318D03*
X27075Y-14318D03*
X23576Y-16681D03*
X27076Y-16681D03*
X23575Y-19042D03*
X27075Y-19042D03*
X23573Y-21406D03*
X27073Y-21406D03*
X23573Y-23766D03*
X27073Y-23766D03*
X23575Y-26130D03*
X27075Y-26130D03*
X16500Y-20150D03*
X16500Y-16650D03*
M02*
