G04 start of page 4 for group 2 idx 2 *
G04 Title: Zab-Let V2, outline *
G04 Creator: pcb 20110918 *
G04 CreationDate: Sun 06 Jan 2013 03:26:29 PM GMT UTC *
G04 For: bertho *
G04 Format: Gerber/RS-274X *
G04 PCB-Dimensions: 325000 235000 *
G04 PCB-Coordinate-Origin: lower left *
%MOIN*%
%FSLAX25Y25*%
%LNOUTLINE*%
%ADD567C,0.0100*%
%ADD566C,0.0080*%
G54D566*X28000Y225000D02*X208500D01*
X20000Y36500D02*Y217000D01*
X216500D02*Y36500D01*
G54D567*Y28500D02*Y3500D01*
Y28500D02*X231500D01*
X226500D02*X229000Y33500D01*
X226500Y28500D02*X224000Y33500D01*
X226500Y28500D02*Y225000D01*
X216500D02*X231500D01*
X226500D02*X224000Y220000D01*
X226500Y225000D02*X229000Y220000D01*
G54D566*X208500Y28500D02*X28000D01*
G54D567*X20000Y8500D02*X216500D01*
X211500Y11000D01*
X216500Y8500D02*X211500Y6000D01*
X34000Y18500D02*X29000Y21000D01*
X34000Y18500D02*X29000Y16000D01*
X20000Y18500D02*X34000D01*
X20000Y28500D02*X5000D01*
X19000Y42500D02*X5000D01*
X10000D02*Y28500D01*
Y42500D02*X7500Y37500D01*
X10000Y42500D02*X12500Y37500D01*
X10000Y28500D02*X12500Y33500D01*
X10000Y28500D02*X7500Y33500D01*
X20000Y28500D02*Y3500D01*
X34000Y27500D02*Y13500D01*
X20000Y8500D02*X25000Y6000D01*
X20000Y8500D02*X25000Y11000D01*
X20000Y18500D02*X25000Y16000D01*
X20000Y18500D02*X25000Y21000D01*
G54D566*X20000Y217000D02*G75*G02X28000Y225000I8000J0D01*G01*
Y28500D02*G75*G02X20000Y36500I0J8000D01*G01*
X216500D02*G75*G02X208500Y28500I-8000J0D01*G01*
Y225000D02*G75*G02X216500Y217000I0J-8000D01*G01*
X93500Y13700D02*X94300Y14500D01*
Y10500D01*
X93500D02*X95000D01*
X96700D02*X98200Y12500D01*
Y14000D02*Y12500D01*
X97700Y14500D02*X98200Y14000D01*
X96700Y14500D02*X97700D01*
X96200Y14000D02*X96700Y14500D01*
X96200Y14000D02*Y13000D01*
X96700Y12500D01*
X98200D01*
X100900Y14500D02*X101400Y14000D01*
X99900Y14500D02*X100900D01*
X99400Y14000D02*X99900Y14500D01*
X99400Y14000D02*Y11000D01*
X99900Y10500D01*
X100900Y12700D02*X101400Y12200D01*
X99400Y12700D02*X100900D01*
X99900Y10500D02*X100900D01*
X101400Y11000D01*
Y12200D02*Y11000D01*
X102600Y14500D02*X104600D01*
X102600D02*Y12500D01*
X103100Y13000D01*
X104100D01*
X104600Y12500D01*
Y11000D01*
X104100Y10500D02*X104600Y11000D01*
X103100Y10500D02*X104100D01*
X102600Y11000D02*X103100Y10500D01*
X106300Y12000D02*Y10500D01*
Y12000D02*X106800Y12500D01*
X107300D01*
X107800Y12000D01*
Y10500D01*
Y12000D02*X108300Y12500D01*
X108800D01*
X109300Y12000D01*
Y10500D01*
X105800Y12500D02*X106300Y12000D01*
X110500Y13500D02*Y13400D01*
Y12000D02*Y10500D01*
X111500Y14500D02*Y11000D01*
X112000Y10500D01*
X114800Y11000D02*X117800Y14000D01*
X120800Y12000D02*X122800Y14500D01*
X120800Y12000D02*X123300D01*
X122800Y14500D02*Y10500D01*
X125000D02*X126500Y12500D01*
Y14000D02*Y12500D01*
X126000Y14500D02*X126500Y14000D01*
X125000Y14500D02*X126000D01*
X124500Y14000D02*X125000Y14500D01*
X124500Y14000D02*Y13000D01*
X125000Y12500D01*
X126500D01*
X127700Y10500D02*X128200D01*
X129900D02*X131400Y12500D01*
Y14000D02*Y12500D01*
X130900Y14500D02*X131400Y14000D01*
X129900Y14500D02*X130900D01*
X129400Y14000D02*X129900Y14500D01*
X129400Y14000D02*Y13000D01*
X129900Y12500D01*
X131400D01*
X132600Y13700D02*X133400Y14500D01*
Y10500D01*
X132600D02*X134100D01*
X135800Y12000D02*Y10500D01*
Y12000D02*X136300Y12500D01*
X136800D01*
X137300Y12000D01*
Y10500D01*
Y12000D02*X137800Y12500D01*
X138300D01*
X138800Y12000D01*
Y10500D01*
X135300Y12500D02*X135800Y12000D01*
X140500D02*Y10500D01*
Y12000D02*X141000Y12500D01*
X141500D01*
X142000Y12000D01*
Y10500D01*
Y12000D02*X142500Y12500D01*
X143000D01*
X143500Y12000D01*
Y10500D01*
X140000Y12500D02*X140500Y12000D01*
X221300Y103500D02*X220500Y104300D01*
X224500D01*
Y105000D02*Y103500D01*
Y106700D02*X222500Y108200D01*
X221000D02*X222500D01*
X220500Y107700D02*X221000Y108200D01*
X220500Y107700D02*Y106700D01*
X221000Y106200D02*X220500Y106700D01*
X221000Y106200D02*X222000D01*
X222500Y106700D01*
Y108200D02*Y106700D01*
X220500Y110900D02*X221000Y111400D01*
X220500Y110900D02*Y109900D01*
X221000Y109400D02*X220500Y109900D01*
X221000Y109400D02*X224000D01*
X224500Y109900D01*
X222300Y110900D02*X222800Y111400D01*
X222300Y110900D02*Y109400D01*
X224500Y110900D02*Y109900D01*
Y110900D02*X224000Y111400D01*
X222800D02*X224000D01*
X220500Y114600D02*Y112600D01*
X222500D01*
X222000Y113100D01*
Y114100D02*Y113100D01*
Y114100D02*X222500Y114600D01*
X224000D01*
X224500Y114100D02*X224000Y114600D01*
X224500Y114100D02*Y113100D01*
X224000Y112600D02*X224500Y113100D01*
X223000Y116300D02*X224500D01*
X223000D02*X222500Y116800D01*
Y117300D02*Y116800D01*
Y117300D02*X223000Y117800D01*
X224500D01*
X223000D02*X222500Y118300D01*
Y118800D02*Y118300D01*
Y118800D02*X223000Y119300D01*
X224500D01*
X222500Y115800D02*X223000Y116300D01*
X221500Y120500D02*X221600D01*
X223000D02*X224500D01*
X220500Y121500D02*X224000D01*
X224500Y122000D01*
X224000Y124800D02*X221000Y127800D01*
X223000Y130800D02*X220500Y132800D01*
X223000Y133300D02*Y130800D01*
X220500Y132800D02*X224500D01*
Y135000D02*X222500Y136500D01*
X221000D02*X222500D01*
X220500Y136000D02*X221000Y136500D01*
X220500Y136000D02*Y135000D01*
X221000Y134500D02*X220500Y135000D01*
X221000Y134500D02*X222000D01*
X222500Y135000D01*
Y136500D02*Y135000D01*
X224500Y138200D02*Y137700D01*
Y139900D02*X222500Y141400D01*
X221000D02*X222500D01*
X220500Y140900D02*X221000Y141400D01*
X220500Y140900D02*Y139900D01*
X221000Y139400D02*X220500Y139900D01*
X221000Y139400D02*X222000D01*
X222500Y139900D01*
Y141400D02*Y139900D01*
X221300Y142600D02*X220500Y143400D01*
X224500D01*
Y144100D02*Y142600D01*
X223000Y145800D02*X224500D01*
X223000D02*X222500Y146300D01*
Y146800D02*Y146300D01*
Y146800D02*X223000Y147300D01*
X224500D01*
X223000D02*X222500Y147800D01*
Y148300D02*Y147800D01*
Y148300D02*X223000Y148800D01*
X224500D01*
X222500Y145300D02*X223000Y145800D01*
Y150500D02*X224500D01*
X223000D02*X222500Y151000D01*
Y151500D02*Y151000D01*
Y151500D02*X223000Y152000D01*
X224500D01*
X223000D02*X222500Y152500D01*
Y153000D02*Y152500D01*
Y153000D02*X223000Y153500D01*
X224500D01*
X222500Y150000D02*X223000Y150500D01*
X7500Y45500D02*X9000D01*
X7500D02*X7000Y46000D01*
Y47000D02*Y46000D01*
Y45000D02*X7500Y45500D01*
X9000Y50200D02*Y48700D01*
X8500Y48200D02*X9000Y48700D01*
X7500Y48200D02*X8500D01*
X7500D02*X7000Y48700D01*
Y49700D02*Y48700D01*
Y49700D02*X7500Y50200D01*
X8000D02*Y48200D01*
X7500Y50200D02*X8000D01*
X5500Y51900D02*X9000D01*
X5500D02*X5000Y52400D01*
Y52900D02*Y52400D01*
X7000D02*Y51400D01*
X9000Y54400D02*Y53900D01*
X5800Y57400D02*X5000Y58200D01*
X9000D01*
Y58900D02*Y57400D01*
X7500Y60100D02*X5000Y62100D01*
X7500Y62600D02*Y60100D01*
X5000Y62100D02*X9000D01*
X8500Y63800D02*X9000Y64300D01*
X5500Y63800D02*X8500D01*
X5500D02*X5000Y64300D01*
Y65300D02*Y64300D01*
Y65300D02*X5500Y65800D01*
X8500D01*
X9000Y65300D02*X8500Y65800D01*
X9000Y65300D02*Y64300D01*
X8000Y63800D02*X6000Y65800D01*
X7500Y67500D02*X9000D01*
X7500D02*X7000Y68000D01*
Y68500D02*Y68000D01*
Y68500D02*X7500Y69000D01*
X9000D01*
X7500D02*X7000Y69500D01*
Y70000D02*Y69500D01*
Y70000D02*X7500Y70500D01*
X9000D01*
X7000Y67000D02*X7500Y67500D01*
X6000Y71700D02*X6100D01*
X7500D02*X9000D01*
X5000Y72700D02*X8500D01*
X9000Y73200D01*
X8500Y76000D02*X5500Y79000D01*
Y82000D02*X5000Y82500D01*
Y83500D02*Y82500D01*
Y83500D02*X5500Y84000D01*
X9000Y83500D02*X8500Y84000D01*
X9000Y83500D02*Y82500D01*
X8500Y82000D02*X9000Y82500D01*
X6800Y83500D02*Y82500D01*
X5500Y84000D02*X6300D01*
X7300D02*X8500D01*
X7300D02*X6800Y83500D01*
X6300Y84000D02*X6800Y83500D01*
X9000Y85700D02*Y85200D01*
X5000Y88900D02*Y86900D01*
X7000D01*
X6500Y87400D01*
Y88400D02*Y87400D01*
Y88400D02*X7000Y88900D01*
X8500D01*
X9000Y88400D02*X8500Y88900D01*
X9000Y88400D02*Y87400D01*
X8500Y86900D02*X9000Y87400D01*
X5000Y91600D02*X5500Y92100D01*
X5000Y91600D02*Y90600D01*
X5500Y90100D02*X5000Y90600D01*
X5500Y90100D02*X8500D01*
X9000Y90600D01*
X6800Y91600D02*X7300Y92100D01*
X6800Y91600D02*Y90100D01*
X9000Y91600D02*Y90600D01*
Y91600D02*X8500Y92100D01*
X7300D02*X8500D01*
X7500Y93800D02*X9000D01*
X7500D02*X7000Y94300D01*
Y94800D02*Y94300D01*
Y94800D02*X7500Y95300D01*
X9000D01*
X7500D02*X7000Y95800D01*
Y96300D02*Y95800D01*
Y96300D02*X7500Y96800D01*
X9000D01*
X7000Y93300D02*X7500Y93800D01*
Y98500D02*X9000D01*
X7500D02*X7000Y99000D01*
Y99500D02*Y99000D01*
Y99500D02*X7500Y100000D01*
X9000D01*
X7500D02*X7000Y100500D01*
Y101000D02*Y100500D01*
Y101000D02*X7500Y101500D01*
X9000D01*
X7000Y98000D02*X7500Y98500D01*
X36500Y21000D02*Y19500D01*
Y21000D02*X37000Y21500D01*
X38000D01*
X36000D02*X36500Y21000D01*
X39700Y19500D02*X41200D01*
X39200Y20000D02*X39700Y19500D01*
X39200Y21000D02*Y20000D01*
Y21000D02*X39700Y21500D01*
X40700D01*
X41200Y21000D01*
X39200Y20500D02*X41200D01*
Y21000D02*Y20500D01*
X42900Y23000D02*Y19500D01*
Y23000D02*X43400Y23500D01*
X43900D01*
X42400Y21500D02*X43400D01*
X44900Y19500D02*X45400D01*
X48400Y22700D02*X49200Y23500D01*
Y19500D01*
X48400D02*X49900D01*
X51100Y21000D02*X53100Y23500D01*
X51100Y21000D02*X53600D01*
X53100Y23500D02*Y19500D01*
X54800Y20000D02*X55300Y19500D01*
X54800Y23000D02*Y20000D01*
Y23000D02*X55300Y23500D01*
X56300D01*
X56800Y23000D01*
Y20000D01*
X56300Y19500D02*X56800Y20000D01*
X55300Y19500D02*X56300D01*
X54800Y20500D02*X56800Y22500D01*
X58500Y21000D02*Y19500D01*
Y21000D02*X59000Y21500D01*
X59500D01*
X60000Y21000D01*
Y19500D01*
Y21000D02*X60500Y21500D01*
X61000D01*
X61500Y21000D01*
Y19500D01*
X58000Y21500D02*X58500Y21000D01*
X62700Y22500D02*Y22400D01*
Y21000D02*Y19500D01*
X63700Y23500D02*Y20000D01*
X64200Y19500D01*
X67000Y20000D02*X70000Y23000D01*
X73000D02*X73500Y23500D01*
X74500D01*
X75000Y23000D01*
X74500Y19500D02*X75000Y20000D01*
X73500Y19500D02*X74500D01*
X73000Y20000D02*X73500Y19500D01*
Y21700D02*X74500D01*
X75000Y23000D02*Y22200D01*
Y21200D02*Y20000D01*
Y21200D02*X74500Y21700D01*
X75000Y22200D02*X74500Y21700D01*
X76200Y19500D02*X76700D01*
X77900Y23500D02*X79900D01*
X77900D02*Y21500D01*
X78400Y22000D01*
X79400D01*
X79900Y21500D01*
Y20000D01*
X79400Y19500D02*X79900Y20000D01*
X78400Y19500D02*X79400D01*
X77900Y20000D02*X78400Y19500D01*
X82600Y23500D02*X83100Y23000D01*
X81600Y23500D02*X82600D01*
X81100Y23000D02*X81600Y23500D01*
X81100Y23000D02*Y20000D01*
X81600Y19500D01*
X82600Y21700D02*X83100Y21200D01*
X81100Y21700D02*X82600D01*
X81600Y19500D02*X82600D01*
X83100Y20000D01*
Y21200D02*Y20000D01*
X84800Y21000D02*Y19500D01*
Y21000D02*X85300Y21500D01*
X85800D01*
X86300Y21000D01*
Y19500D01*
Y21000D02*X86800Y21500D01*
X87300D01*
X87800Y21000D01*
Y19500D01*
X84300Y21500D02*X84800Y21000D01*
X89500D02*Y19500D01*
Y21000D02*X90000Y21500D01*
X90500D01*
X91000Y21000D01*
Y19500D01*
Y21000D02*X91500Y21500D01*
X92000D01*
X92500Y21000D01*
Y19500D01*
X89000Y21500D02*X89500Y21000D01*
M02*
