G04 start of page 3 for group 1 idx 1 *
G04 Title: Zab-Let V2, solder *
G04 Creator: pcb 20110918 *
G04 CreationDate: Sun 06 Jan 2013 03:26:29 PM GMT UTC *
G04 For: bertho *
G04 Format: Gerber/RS-274X *
G04 PCB-Dimensions: 325000 235000 *
G04 PCB-Coordinate-Origin: lower left *
%MOIN*%
%FSLAX25Y25*%
%LNBOTTOM*%
%ADD565C,0.0984*%
%ADD564C,0.0394*%
%ADD563C,0.0315*%
%ADD562C,0.0600*%
%ADD561C,0.0714*%
%ADD560C,0.0635*%
%ADD559C,0.0250*%
%ADD558C,0.0080*%
%ADD557C,0.0100*%
%ADD556C,0.0150*%
%ADD555C,0.0001*%
G54D555*G36*
X207494Y223800D02*X208390D01*
X208500Y223794D01*
X209093Y223774D01*
X209681Y223697D01*
X210260Y223568D01*
X210826Y223390D01*
X211374Y223163D01*
X211900Y222889D01*
X212400Y222570D01*
X212871Y222209D01*
X213308Y221808D01*
X213709Y221371D01*
X214070Y220900D01*
X214389Y220400D01*
X214663Y219874D01*
X214890Y219326D01*
X215068Y218760D01*
X215197Y218181D01*
X215274Y217593D01*
X215300Y217000D01*
Y36610D01*
X215294Y36500D01*
X215274Y35907D01*
X215197Y35319D01*
X215068Y34740D01*
X214890Y34174D01*
X214663Y33626D01*
X214389Y33100D01*
X214070Y32600D01*
X213709Y32129D01*
X213308Y31692D01*
X212871Y31291D01*
X212400Y30930D01*
X211900Y30611D01*
X211374Y30337D01*
X210826Y30110D01*
X210260Y29932D01*
X209681Y29803D01*
X209093Y29726D01*
X208500Y29700D01*
X207494D01*
Y36813D01*
X207500Y36812D01*
X208155Y36864D01*
X208794Y37017D01*
X209401Y37269D01*
X209962Y37612D01*
X210461Y38039D01*
X210888Y38538D01*
X211231Y39099D01*
X211483Y39706D01*
X211636Y40345D01*
X211675Y41000D01*
X211636Y41655D01*
X211483Y42294D01*
X211231Y42901D01*
X210888Y43462D01*
X210461Y43961D01*
X209962Y44388D01*
X209401Y44731D01*
X208794Y44983D01*
X208155Y45136D01*
X207500Y45188D01*
X207494Y45187D01*
Y61813D01*
X207500Y61812D01*
X208155Y61864D01*
X208794Y62017D01*
X209401Y62269D01*
X209962Y62612D01*
X210461Y63039D01*
X210888Y63538D01*
X211231Y64099D01*
X211483Y64706D01*
X211636Y65345D01*
X211675Y66000D01*
X211636Y66655D01*
X211483Y67294D01*
X211231Y67901D01*
X210888Y68462D01*
X210461Y68961D01*
X209962Y69388D01*
X209401Y69731D01*
X208794Y69983D01*
X208155Y70136D01*
X207500Y70188D01*
X207494Y70187D01*
Y85813D01*
X207500Y85812D01*
X208155Y85864D01*
X208794Y86017D01*
X209401Y86269D01*
X209962Y86612D01*
X210461Y87039D01*
X210888Y87538D01*
X211231Y88099D01*
X211483Y88706D01*
X211636Y89345D01*
X211675Y90000D01*
X211636Y90655D01*
X211483Y91294D01*
X211231Y91901D01*
X210888Y92462D01*
X210461Y92961D01*
X209962Y93388D01*
X209401Y93731D01*
X208794Y93983D01*
X208155Y94136D01*
X207500Y94188D01*
X207494Y94187D01*
Y110813D01*
X207500Y110812D01*
X208155Y110864D01*
X208794Y111017D01*
X209401Y111269D01*
X209962Y111612D01*
X210461Y112039D01*
X210888Y112538D01*
X211231Y113099D01*
X211483Y113706D01*
X211636Y114345D01*
X211675Y115000D01*
X211636Y115655D01*
X211483Y116294D01*
X211231Y116901D01*
X210888Y117462D01*
X210461Y117961D01*
X209962Y118388D01*
X209401Y118731D01*
X208794Y118983D01*
X208155Y119136D01*
X207500Y119188D01*
X207494Y119187D01*
Y134813D01*
X207500Y134812D01*
X208155Y134864D01*
X208794Y135017D01*
X209401Y135269D01*
X209962Y135612D01*
X210461Y136039D01*
X210888Y136538D01*
X211231Y137099D01*
X211483Y137706D01*
X211636Y138345D01*
X211675Y139000D01*
X211636Y139655D01*
X211483Y140294D01*
X211231Y140901D01*
X210888Y141462D01*
X210461Y141961D01*
X209962Y142388D01*
X209401Y142731D01*
X208794Y142983D01*
X208155Y143136D01*
X207500Y143188D01*
X207494Y143187D01*
Y159813D01*
X207500Y159812D01*
X208155Y159864D01*
X208794Y160017D01*
X209401Y160269D01*
X209962Y160612D01*
X210461Y161039D01*
X210888Y161538D01*
X211231Y162099D01*
X211483Y162706D01*
X211636Y163345D01*
X211675Y164000D01*
X211636Y164655D01*
X211483Y165294D01*
X211231Y165901D01*
X210888Y166462D01*
X210461Y166961D01*
X209962Y167388D01*
X209401Y167731D01*
X208794Y167983D01*
X208155Y168136D01*
X207500Y168188D01*
X207494Y168187D01*
Y183813D01*
X207500Y183812D01*
X208155Y183864D01*
X208794Y184017D01*
X209401Y184269D01*
X209962Y184612D01*
X210461Y185039D01*
X210888Y185538D01*
X211231Y186099D01*
X211483Y186706D01*
X211636Y187345D01*
X211675Y188000D01*
X211636Y188655D01*
X211483Y189294D01*
X211231Y189901D01*
X210888Y190462D01*
X210461Y190961D01*
X209962Y191388D01*
X209401Y191731D01*
X208794Y191983D01*
X208155Y192136D01*
X207500Y192188D01*
X207494Y192187D01*
Y208813D01*
X207500Y208812D01*
X208155Y208864D01*
X208794Y209017D01*
X209401Y209269D01*
X209962Y209612D01*
X210461Y210039D01*
X210888Y210538D01*
X211231Y211099D01*
X211483Y211706D01*
X211636Y212345D01*
X211675Y213000D01*
X211636Y213655D01*
X211483Y214294D01*
X211231Y214901D01*
X210888Y215462D01*
X210461Y215961D01*
X209962Y216388D01*
X209401Y216731D01*
X208794Y216983D01*
X208155Y217136D01*
X207500Y217188D01*
X207494Y217187D01*
Y223800D01*
G37*
G36*
Y192187D02*X206845Y192136D01*
X206206Y191983D01*
X205599Y191731D01*
X205038Y191388D01*
X204539Y190961D01*
X204112Y190462D01*
X203769Y189901D01*
X203517Y189294D01*
X203364Y188655D01*
X203312Y188000D01*
X203364Y187345D01*
X203517Y186706D01*
X203683Y186305D01*
X195879Y178500D01*
X191744D01*
Y180122D01*
X195805Y184183D01*
X196206Y184017D01*
X196845Y183864D01*
X197500Y183812D01*
X198155Y183864D01*
X198794Y184017D01*
X199401Y184269D01*
X199962Y184612D01*
X200461Y185039D01*
X200888Y185538D01*
X201231Y186099D01*
X201483Y186706D01*
X201636Y187345D01*
X201675Y188000D01*
X201636Y188655D01*
X201483Y189294D01*
X201231Y189901D01*
X200888Y190462D01*
X200461Y190961D01*
X199962Y191388D01*
X199401Y191731D01*
X198794Y191983D01*
X198155Y192136D01*
X197500Y192188D01*
X196845Y192136D01*
X196206Y191983D01*
X195599Y191731D01*
X195038Y191388D01*
X194539Y190961D01*
X194112Y190462D01*
X193769Y189901D01*
X193517Y189294D01*
X193364Y188655D01*
X193312Y188000D01*
X193364Y187345D01*
X193517Y186706D01*
X193683Y186305D01*
X191744Y184365D01*
Y191622D01*
X203519Y203398D01*
X203564Y203436D01*
X203717Y203615D01*
X203717Y203616D01*
X203841Y203817D01*
X203931Y204035D01*
X203986Y204265D01*
X204005Y204500D01*
X204000Y204559D01*
Y207379D01*
X205805Y209183D01*
X206206Y209017D01*
X206845Y208864D01*
X207494Y208813D01*
Y192187D01*
G37*
G36*
Y168187D02*X206845Y168136D01*
X206206Y167983D01*
X205599Y167731D01*
X205038Y167388D01*
X204539Y166961D01*
X204112Y166462D01*
X203769Y165901D01*
X203517Y165294D01*
X203364Y164655D01*
X203312Y164000D01*
X203364Y163345D01*
X203517Y162706D01*
X203683Y162305D01*
X201481Y160102D01*
X201436Y160064D01*
X201283Y159884D01*
X201159Y159683D01*
X201069Y159465D01*
X201014Y159235D01*
X201014Y159235D01*
X200995Y159000D01*
X201000Y158941D01*
Y156121D01*
X191744Y146865D01*
Y162000D01*
X193829D01*
X194112Y161538D01*
X194539Y161039D01*
X195038Y160612D01*
X195599Y160269D01*
X196206Y160017D01*
X196845Y159864D01*
X197500Y159812D01*
X198155Y159864D01*
X198794Y160017D01*
X199401Y160269D01*
X199962Y160612D01*
X200461Y161039D01*
X200888Y161538D01*
X201231Y162099D01*
X201483Y162706D01*
X201636Y163345D01*
X201675Y164000D01*
X201636Y164655D01*
X201483Y165294D01*
X201231Y165901D01*
X200888Y166462D01*
X200461Y166961D01*
X199962Y167388D01*
X199401Y167731D01*
X198794Y167983D01*
X198155Y168136D01*
X197500Y168188D01*
X196845Y168136D01*
X196206Y167983D01*
X195599Y167731D01*
X195038Y167388D01*
X194539Y166961D01*
X194112Y166462D01*
X193769Y165901D01*
X193517Y165294D01*
X193446Y165000D01*
X191744D01*
Y175500D01*
X196441D01*
X196500Y175495D01*
X196735Y175514D01*
X196735Y175514D01*
X196965Y175569D01*
X197183Y175659D01*
X197384Y175783D01*
X197564Y175936D01*
X197602Y175981D01*
X205805Y184183D01*
X206206Y184017D01*
X206845Y183864D01*
X207494Y183813D01*
Y168187D01*
G37*
G36*
Y143187D02*X206845Y143136D01*
X206206Y142983D01*
X205599Y142731D01*
X205038Y142388D01*
X204539Y141961D01*
X204112Y141462D01*
X203769Y140901D01*
X203517Y140294D01*
X203364Y139655D01*
X203312Y139000D01*
X203364Y138345D01*
X203517Y137706D01*
X203683Y137305D01*
X195879Y129500D01*
X191744D01*
Y131122D01*
X195805Y135183D01*
X196206Y135017D01*
X196845Y134864D01*
X197500Y134812D01*
X198155Y134864D01*
X198794Y135017D01*
X199401Y135269D01*
X199962Y135612D01*
X200461Y136039D01*
X200888Y136538D01*
X201231Y137099D01*
X201483Y137706D01*
X201636Y138345D01*
X201675Y139000D01*
X201636Y139655D01*
X201483Y140294D01*
X201231Y140901D01*
X200888Y141462D01*
X200461Y141961D01*
X199962Y142388D01*
X199401Y142731D01*
X198794Y142983D01*
X198155Y143136D01*
X197500Y143188D01*
X196845Y143136D01*
X196206Y142983D01*
X195599Y142731D01*
X195038Y142388D01*
X194539Y141961D01*
X194112Y141462D01*
X193769Y140901D01*
X193517Y140294D01*
X193364Y139655D01*
X193312Y139000D01*
X193364Y138345D01*
X193517Y137706D01*
X193683Y137305D01*
X191744Y135365D01*
Y142622D01*
X203519Y154398D01*
X203564Y154436D01*
X203717Y154615D01*
X203717Y154616D01*
X203841Y154817D01*
X203931Y155035D01*
X203986Y155265D01*
X204005Y155500D01*
X204000Y155559D01*
Y158379D01*
X205805Y160183D01*
X206206Y160017D01*
X206845Y159864D01*
X207494Y159813D01*
Y143187D01*
G37*
G36*
Y119187D02*X206845Y119136D01*
X206206Y118983D01*
X205599Y118731D01*
X205038Y118388D01*
X204539Y117961D01*
X204112Y117462D01*
X203769Y116901D01*
X203517Y116294D01*
X203364Y115655D01*
X203312Y115000D01*
X203364Y114345D01*
X203517Y113706D01*
X203683Y113305D01*
X201481Y111102D01*
X201436Y111064D01*
X201283Y110884D01*
X201159Y110683D01*
X201069Y110465D01*
X201014Y110235D01*
X201014Y110235D01*
X200995Y110000D01*
X201000Y109941D01*
Y107121D01*
X191744Y97865D01*
Y113000D01*
X193829D01*
X194112Y112538D01*
X194539Y112039D01*
X195038Y111612D01*
X195599Y111269D01*
X196206Y111017D01*
X196845Y110864D01*
X197500Y110812D01*
X198155Y110864D01*
X198794Y111017D01*
X199401Y111269D01*
X199962Y111612D01*
X200461Y112039D01*
X200888Y112538D01*
X201231Y113099D01*
X201483Y113706D01*
X201636Y114345D01*
X201675Y115000D01*
X201636Y115655D01*
X201483Y116294D01*
X201231Y116901D01*
X200888Y117462D01*
X200461Y117961D01*
X199962Y118388D01*
X199401Y118731D01*
X198794Y118983D01*
X198155Y119136D01*
X197500Y119188D01*
X196845Y119136D01*
X196206Y118983D01*
X195599Y118731D01*
X195038Y118388D01*
X194539Y117961D01*
X194112Y117462D01*
X193769Y116901D01*
X193517Y116294D01*
X193446Y116000D01*
X191744D01*
Y126500D01*
X196441D01*
X196500Y126495D01*
X196735Y126514D01*
X196735Y126514D01*
X196965Y126569D01*
X197183Y126659D01*
X197384Y126783D01*
X197564Y126936D01*
X197602Y126981D01*
X205805Y135183D01*
X206206Y135017D01*
X206845Y134864D01*
X207494Y134813D01*
Y119187D01*
G37*
G36*
Y94187D02*X206845Y94136D01*
X206206Y93983D01*
X205599Y93731D01*
X205038Y93388D01*
X204539Y92961D01*
X204112Y92462D01*
X203769Y91901D01*
X203517Y91294D01*
X203364Y90655D01*
X203312Y90000D01*
X203364Y89345D01*
X203517Y88706D01*
X203683Y88305D01*
X193379Y78000D01*
X191744D01*
Y82122D01*
X195805Y86183D01*
X196206Y86017D01*
X196845Y85864D01*
X197500Y85812D01*
X198155Y85864D01*
X198794Y86017D01*
X199401Y86269D01*
X199962Y86612D01*
X200461Y87039D01*
X200888Y87538D01*
X201231Y88099D01*
X201483Y88706D01*
X201636Y89345D01*
X201675Y90000D01*
X201636Y90655D01*
X201483Y91294D01*
X201231Y91901D01*
X200888Y92462D01*
X200461Y92961D01*
X199962Y93388D01*
X199401Y93731D01*
X198794Y93983D01*
X198155Y94136D01*
X197500Y94188D01*
X196845Y94136D01*
X196206Y93983D01*
X195599Y93731D01*
X195038Y93388D01*
X194539Y92961D01*
X194112Y92462D01*
X193769Y91901D01*
X193517Y91294D01*
X193364Y90655D01*
X193312Y90000D01*
X193364Y89345D01*
X193517Y88706D01*
X193683Y88305D01*
X191744Y86365D01*
Y93622D01*
X203519Y105398D01*
X203564Y105436D01*
X203717Y105615D01*
X203717Y105616D01*
X203841Y105817D01*
X203931Y106035D01*
X203986Y106265D01*
X204005Y106500D01*
X204000Y106559D01*
Y109379D01*
X205805Y111183D01*
X206206Y111017D01*
X206845Y110864D01*
X207494Y110813D01*
Y94187D01*
G37*
G36*
Y45187D02*X206845Y45136D01*
X206206Y44983D01*
X205805Y44817D01*
X199602Y51019D01*
X199564Y51064D01*
X199384Y51217D01*
X199183Y51341D01*
X198965Y51431D01*
X198735Y51486D01*
X198500Y51505D01*
X198441Y51500D01*
X191744D01*
Y64000D01*
X193829D01*
X194112Y63538D01*
X194539Y63039D01*
X195038Y62612D01*
X195599Y62269D01*
X196206Y62017D01*
X196845Y61864D01*
X197500Y61812D01*
X198155Y61864D01*
X198794Y62017D01*
X199401Y62269D01*
X199962Y62612D01*
X200461Y63039D01*
X200888Y63538D01*
X201231Y64099D01*
X201483Y64706D01*
X201636Y65345D01*
X201675Y66000D01*
X201636Y66655D01*
X201483Y67294D01*
X201231Y67901D01*
X200888Y68462D01*
X200461Y68961D01*
X199962Y69388D01*
X199401Y69731D01*
X198794Y69983D01*
X198155Y70136D01*
X197500Y70188D01*
X196845Y70136D01*
X196206Y69983D01*
X195599Y69731D01*
X195038Y69388D01*
X194539Y68961D01*
X194112Y68462D01*
X193769Y67901D01*
X193517Y67294D01*
X193446Y67000D01*
X191744D01*
Y75000D01*
X193941D01*
X194000Y74995D01*
X194235Y75014D01*
X194235Y75014D01*
X194465Y75069D01*
X194683Y75159D01*
X194884Y75283D01*
X195064Y75436D01*
X195102Y75481D01*
X205805Y86183D01*
X206206Y86017D01*
X206845Y85864D01*
X207494Y85813D01*
Y70187D01*
X206845Y70136D01*
X206206Y69983D01*
X205599Y69731D01*
X205038Y69388D01*
X204539Y68961D01*
X204112Y68462D01*
X203769Y67901D01*
X203517Y67294D01*
X203364Y66655D01*
X203312Y66000D01*
X203364Y65345D01*
X203517Y64706D01*
X203769Y64099D01*
X204112Y63538D01*
X204539Y63039D01*
X205038Y62612D01*
X205599Y62269D01*
X206206Y62017D01*
X206845Y61864D01*
X207494Y61813D01*
Y45187D01*
G37*
G36*
Y29700D02*X191744D01*
Y44635D01*
X193683Y42695D01*
X193517Y42294D01*
X193364Y41655D01*
X193312Y41000D01*
X193364Y40345D01*
X193517Y39706D01*
X193769Y39099D01*
X194112Y38538D01*
X194539Y38039D01*
X195038Y37612D01*
X195599Y37269D01*
X196206Y37017D01*
X196845Y36864D01*
X197500Y36812D01*
X198155Y36864D01*
X198794Y37017D01*
X199401Y37269D01*
X199962Y37612D01*
X200461Y38039D01*
X200888Y38538D01*
X201231Y39099D01*
X201483Y39706D01*
X201636Y40345D01*
X201675Y41000D01*
X201636Y41655D01*
X201483Y42294D01*
X201231Y42901D01*
X200888Y43462D01*
X200461Y43961D01*
X199962Y44388D01*
X199401Y44731D01*
X198794Y44983D01*
X198155Y45136D01*
X197500Y45188D01*
X196845Y45136D01*
X196206Y44983D01*
X195805Y44817D01*
X192121Y48500D01*
X197879D01*
X203683Y42695D01*
X203517Y42294D01*
X203364Y41655D01*
X203312Y41000D01*
X203364Y40345D01*
X203517Y39706D01*
X203769Y39099D01*
X204112Y38538D01*
X204539Y38039D01*
X205038Y37612D01*
X205599Y37269D01*
X206206Y37017D01*
X206845Y36864D01*
X207494Y36813D01*
Y29700D01*
G37*
G36*
X191744Y223800D02*X207494D01*
Y217187D01*
X206845Y217136D01*
X206206Y216983D01*
X205599Y216731D01*
X205038Y216388D01*
X204539Y215961D01*
X204112Y215462D01*
X203769Y214901D01*
X203517Y214294D01*
X203364Y213655D01*
X203312Y213000D01*
X203364Y212345D01*
X203517Y211706D01*
X203683Y211305D01*
X201481Y209102D01*
X201436Y209064D01*
X201283Y208884D01*
X201159Y208683D01*
X201069Y208465D01*
X201014Y208235D01*
X201014Y208235D01*
X200995Y208000D01*
X201000Y207941D01*
Y205121D01*
X191744Y195865D01*
Y211000D01*
X193829D01*
X194112Y210538D01*
X194539Y210039D01*
X195038Y209612D01*
X195599Y209269D01*
X196206Y209017D01*
X196845Y208864D01*
X197500Y208812D01*
X198155Y208864D01*
X198794Y209017D01*
X199401Y209269D01*
X199962Y209612D01*
X200461Y210039D01*
X200888Y210538D01*
X201231Y211099D01*
X201483Y211706D01*
X201636Y212345D01*
X201675Y213000D01*
X201636Y213655D01*
X201483Y214294D01*
X201231Y214901D01*
X200888Y215462D01*
X200461Y215961D01*
X199962Y216388D01*
X199401Y216731D01*
X198794Y216983D01*
X198155Y217136D01*
X197500Y217188D01*
X196845Y217136D01*
X196206Y216983D01*
X195599Y216731D01*
X195038Y216388D01*
X194539Y215961D01*
X194112Y215462D01*
X193769Y214901D01*
X193517Y214294D01*
X193446Y214000D01*
X191744D01*
Y223800D01*
G37*
G36*
Y129500D02*X190121D01*
X191744Y131122D01*
Y129500D01*
G37*
G36*
Y178500D02*X190121D01*
X191744Y180122D01*
Y178500D01*
G37*
G36*
Y78000D02*X174559D01*
X174500Y78005D01*
X174265Y77986D01*
X174035Y77931D01*
X173817Y77841D01*
X173616Y77717D01*
X173615Y77717D01*
X173436Y77564D01*
X173398Y77519D01*
X160981Y65102D01*
X160936Y65064D01*
X160783Y64884D01*
X160659Y64683D01*
X160569Y64465D01*
X160514Y64235D01*
X160514Y64235D01*
X160495Y64000D01*
X160500Y63941D01*
Y62121D01*
X159379Y61000D01*
X158898D01*
X158731Y61401D01*
X158388Y61962D01*
X157961Y62461D01*
X157462Y62888D01*
X156901Y63231D01*
X156294Y63483D01*
X155655Y63636D01*
X155000Y63688D01*
X154345Y63636D01*
X153706Y63483D01*
X153305Y63317D01*
X141102Y75519D01*
X141064Y75564D01*
X140884Y75717D01*
X140683Y75841D01*
X140465Y75931D01*
X140235Y75986D01*
X140235Y75986D01*
X140000Y76005D01*
X139941Y76000D01*
X127279D01*
X127462Y76112D01*
X127961Y76539D01*
X128388Y77038D01*
X128731Y77599D01*
X128983Y78206D01*
X129136Y78845D01*
X129175Y79500D01*
X129136Y80155D01*
X128983Y80794D01*
X128731Y81401D01*
X128388Y81962D01*
X127961Y82461D01*
X127462Y82888D01*
X127279Y83000D01*
X139379D01*
X151183Y71195D01*
X151017Y70794D01*
X150864Y70155D01*
X150812Y69500D01*
X150864Y68845D01*
X151017Y68206D01*
X151269Y67599D01*
X151612Y67038D01*
X152039Y66539D01*
X152538Y66112D01*
X153099Y65769D01*
X153706Y65517D01*
X154345Y65364D01*
X155000Y65312D01*
X155655Y65364D01*
X156294Y65517D01*
X156901Y65769D01*
X157462Y66112D01*
X157961Y66539D01*
X158388Y67038D01*
X158731Y67599D01*
X158898Y68000D01*
X159941D01*
X160000Y67995D01*
X160235Y68014D01*
X160235Y68014D01*
X160465Y68069D01*
X160683Y68159D01*
X160884Y68283D01*
X161064Y68436D01*
X161102Y68481D01*
X172621Y80000D01*
X188941D01*
X189000Y79995D01*
X189235Y80014D01*
X189235Y80014D01*
X189465Y80069D01*
X189683Y80159D01*
X189884Y80283D01*
X190064Y80436D01*
X190102Y80481D01*
X191744Y82122D01*
Y78000D01*
G37*
G36*
X189898Y64000D02*X191744D01*
Y51500D01*
X179675D01*
Y62823D01*
X179753Y62830D01*
X179830Y62848D01*
X179903Y62878D01*
X179970Y62919D01*
X180030Y62970D01*
X180081Y63030D01*
X180122Y63097D01*
X180152Y63170D01*
X180170Y63247D01*
X180175Y63325D01*
Y67675D01*
X180170Y67753D01*
X180152Y67830D01*
X180122Y67903D01*
X180081Y67970D01*
X180030Y68030D01*
X179970Y68081D01*
X179903Y68122D01*
X179830Y68152D01*
X179753Y68170D01*
X179675Y68177D01*
Y75000D01*
X191744D01*
Y67000D01*
X189898D01*
X189731Y67401D01*
X189388Y67962D01*
X188961Y68461D01*
X188462Y68888D01*
X187901Y69231D01*
X187294Y69483D01*
X186655Y69636D01*
X186000Y69688D01*
X185345Y69636D01*
X184706Y69483D01*
X184099Y69231D01*
X183538Y68888D01*
X183039Y68461D01*
X182612Y67962D01*
X182269Y67401D01*
X182017Y66794D01*
X181864Y66155D01*
X181812Y65500D01*
X181864Y64845D01*
X182017Y64206D01*
X182269Y63599D01*
X182612Y63038D01*
X183039Y62539D01*
X183538Y62112D01*
X184099Y61769D01*
X184706Y61517D01*
X185345Y61364D01*
X186000Y61312D01*
X186655Y61364D01*
X187294Y61517D01*
X187901Y61769D01*
X188462Y62112D01*
X188961Y62539D01*
X189388Y63038D01*
X189731Y63599D01*
X189898Y64000D01*
G37*
G36*
X179675Y51500D02*X176000D01*
Y61325D01*
X178175D01*
X178253Y61330D01*
X178330Y61348D01*
X178403Y61378D01*
X178470Y61419D01*
X178530Y61470D01*
X178581Y61530D01*
X178622Y61597D01*
X178652Y61670D01*
X178670Y61747D01*
X178677Y61825D01*
X178670Y61903D01*
X178652Y61980D01*
X178622Y62053D01*
X178581Y62120D01*
X178530Y62180D01*
X178470Y62231D01*
X178403Y62272D01*
X178330Y62302D01*
X178253Y62320D01*
X178175Y62325D01*
X176000D01*
Y68675D01*
X178175D01*
X178253Y68680D01*
X178330Y68698D01*
X178403Y68728D01*
X178470Y68769D01*
X178530Y68820D01*
X178581Y68880D01*
X178622Y68947D01*
X178652Y69020D01*
X178670Y69097D01*
X178677Y69175D01*
X178670Y69253D01*
X178652Y69330D01*
X178622Y69403D01*
X178581Y69470D01*
X178530Y69530D01*
X178470Y69581D01*
X178403Y69622D01*
X178330Y69652D01*
X178253Y69670D01*
X178175Y69675D01*
X176000D01*
Y75000D01*
X179675D01*
Y68177D01*
X179597Y68170D01*
X179520Y68152D01*
X179447Y68122D01*
X179380Y68081D01*
X179320Y68030D01*
X179269Y67970D01*
X179228Y67903D01*
X179198Y67830D01*
X179180Y67753D01*
X179175Y67675D01*
Y63325D01*
X179180Y63247D01*
X179198Y63170D01*
X179228Y63097D01*
X179269Y63030D01*
X179320Y62970D01*
X179380Y62919D01*
X179447Y62878D01*
X179520Y62848D01*
X179597Y62830D01*
X179675Y62823D01*
Y51500D01*
G37*
G36*
X176000D02*X172325D01*
Y62823D01*
X172403Y62830D01*
X172480Y62848D01*
X172553Y62878D01*
X172620Y62919D01*
X172680Y62970D01*
X172731Y63030D01*
X172772Y63097D01*
X172802Y63170D01*
X172820Y63247D01*
X172825Y63325D01*
Y67675D01*
X172820Y67753D01*
X172802Y67830D01*
X172772Y67903D01*
X172731Y67970D01*
X172680Y68030D01*
X172620Y68081D01*
X172553Y68122D01*
X172480Y68152D01*
X172403Y68170D01*
X172325Y68177D01*
Y72204D01*
X175121Y75000D01*
X176000D01*
Y69675D01*
X173825D01*
X173747Y69670D01*
X173670Y69652D01*
X173597Y69622D01*
X173530Y69581D01*
X173470Y69530D01*
X173419Y69470D01*
X173378Y69403D01*
X173348Y69330D01*
X173330Y69253D01*
X173323Y69175D01*
X173330Y69097D01*
X173348Y69020D01*
X173378Y68947D01*
X173419Y68880D01*
X173470Y68820D01*
X173530Y68769D01*
X173597Y68728D01*
X173670Y68698D01*
X173747Y68680D01*
X173825Y68675D01*
X176000D01*
Y62325D01*
X173825D01*
X173747Y62320D01*
X173670Y62302D01*
X173597Y62272D01*
X173530Y62231D01*
X173470Y62180D01*
X173419Y62120D01*
X173378Y62053D01*
X173348Y61980D01*
X173330Y61903D01*
X173323Y61825D01*
X173330Y61747D01*
X173348Y61670D01*
X173378Y61597D01*
X173419Y61530D01*
X173470Y61470D01*
X173530Y61419D01*
X173597Y61378D01*
X173670Y61348D01*
X173747Y61330D01*
X173825Y61325D01*
X176000D01*
Y51500D01*
G37*
G36*
X172325D02*X154621D01*
X143602Y62519D01*
X143564Y62564D01*
X143384Y62717D01*
X143183Y62841D01*
X142965Y62931D01*
X142735Y62986D01*
X142735Y62986D01*
X142500Y63005D01*
X142441Y63000D01*
X133621D01*
X128817Y67805D01*
X128983Y68206D01*
X129136Y68845D01*
X129175Y69500D01*
X129136Y70155D01*
X128983Y70794D01*
X128731Y71401D01*
X128388Y71962D01*
X127961Y72461D01*
X127462Y72888D01*
X127279Y73000D01*
X139379D01*
X151183Y61195D01*
X151017Y60794D01*
X150864Y60155D01*
X150812Y59500D01*
X150864Y58845D01*
X151017Y58206D01*
X151269Y57599D01*
X151612Y57038D01*
X152039Y56539D01*
X152538Y56112D01*
X153099Y55769D01*
X153706Y55517D01*
X154345Y55364D01*
X155000Y55312D01*
X155655Y55364D01*
X156294Y55517D01*
X156901Y55769D01*
X157462Y56112D01*
X157961Y56539D01*
X158388Y57038D01*
X158731Y57599D01*
X158898Y58000D01*
X159941D01*
X160000Y57995D01*
X160235Y58014D01*
X160235Y58014D01*
X160465Y58069D01*
X160683Y58159D01*
X160884Y58283D01*
X161064Y58436D01*
X161102Y58481D01*
X163019Y60398D01*
X163064Y60436D01*
X163217Y60615D01*
X163217Y60616D01*
X163341Y60817D01*
X163431Y61035D01*
X163486Y61265D01*
X163505Y61500D01*
X163500Y61559D01*
Y63379D01*
X172325Y72204D01*
Y68177D01*
X172247Y68170D01*
X172170Y68152D01*
X172097Y68122D01*
X172030Y68081D01*
X171970Y68030D01*
X171919Y67970D01*
X171878Y67903D01*
X171848Y67830D01*
X171830Y67753D01*
X171825Y67675D01*
Y63325D01*
X171830Y63247D01*
X171848Y63170D01*
X171878Y63097D01*
X171919Y63030D01*
X171970Y62970D01*
X172030Y62919D01*
X172097Y62878D01*
X172170Y62848D01*
X172247Y62830D01*
X172325Y62823D01*
Y51500D01*
G37*
G36*
X189898Y162000D02*X191744D01*
Y146865D01*
X187695Y142817D01*
X187294Y142983D01*
X186655Y143136D01*
X186000Y143188D01*
X185345Y143136D01*
X184706Y142983D01*
X184099Y142731D01*
X183538Y142388D01*
X183039Y141961D01*
X182612Y141462D01*
X182269Y140901D01*
X182017Y140294D01*
X181864Y139655D01*
X181812Y139000D01*
X181864Y138345D01*
X182017Y137706D01*
X182269Y137099D01*
X182612Y136538D01*
X183039Y136039D01*
X183538Y135612D01*
X184099Y135269D01*
X184706Y135017D01*
X185345Y134864D01*
X186000Y134812D01*
X186655Y134864D01*
X187294Y135017D01*
X187901Y135269D01*
X188462Y135612D01*
X188961Y136039D01*
X189388Y136538D01*
X189731Y137099D01*
X189983Y137706D01*
X190136Y138345D01*
X190175Y139000D01*
X190136Y139655D01*
X189983Y140294D01*
X189817Y140695D01*
X191744Y142622D01*
Y135365D01*
X187879Y131500D01*
X179675D01*
Y136323D01*
X179753Y136330D01*
X179830Y136348D01*
X179903Y136378D01*
X179970Y136419D01*
X180030Y136470D01*
X180081Y136530D01*
X180122Y136597D01*
X180152Y136670D01*
X180170Y136747D01*
X180175Y136825D01*
Y141175D01*
X180170Y141253D01*
X180152Y141330D01*
X180122Y141403D01*
X180081Y141470D01*
X180030Y141530D01*
X179970Y141581D01*
X179903Y141622D01*
X179830Y141652D01*
X179753Y141670D01*
X179675Y141677D01*
Y160823D01*
X179753Y160830D01*
X179830Y160848D01*
X179903Y160878D01*
X179970Y160919D01*
X180030Y160970D01*
X180081Y161030D01*
X180122Y161097D01*
X180152Y161170D01*
X180170Y161247D01*
X180175Y161325D01*
Y165675D01*
X180170Y165753D01*
X180152Y165830D01*
X180122Y165903D01*
X180081Y165970D01*
X180030Y166030D01*
X179970Y166081D01*
X179903Y166122D01*
X179830Y166152D01*
X179753Y166170D01*
X179675Y166177D01*
Y175500D01*
X191744D01*
Y165000D01*
X189898D01*
X189731Y165401D01*
X189388Y165962D01*
X188961Y166461D01*
X188462Y166888D01*
X187901Y167231D01*
X187294Y167483D01*
X186655Y167636D01*
X186000Y167688D01*
X185345Y167636D01*
X184706Y167483D01*
X184099Y167231D01*
X183538Y166888D01*
X183039Y166461D01*
X182612Y165962D01*
X182269Y165401D01*
X182017Y164794D01*
X181864Y164155D01*
X181812Y163500D01*
X181864Y162845D01*
X182017Y162206D01*
X182269Y161599D01*
X182612Y161038D01*
X183039Y160539D01*
X183538Y160112D01*
X184099Y159769D01*
X184706Y159517D01*
X185345Y159364D01*
X186000Y159312D01*
X186655Y159364D01*
X187294Y159517D01*
X187901Y159769D01*
X188462Y160112D01*
X188961Y160539D01*
X189388Y161038D01*
X189731Y161599D01*
X189898Y162000D01*
G37*
G36*
X179675Y131500D02*X176000D01*
Y134825D01*
X178175D01*
X178253Y134830D01*
X178330Y134848D01*
X178403Y134878D01*
X178470Y134919D01*
X178530Y134970D01*
X178581Y135030D01*
X178622Y135097D01*
X178652Y135170D01*
X178670Y135247D01*
X178677Y135325D01*
X178670Y135403D01*
X178652Y135480D01*
X178622Y135553D01*
X178581Y135620D01*
X178530Y135680D01*
X178470Y135731D01*
X178403Y135772D01*
X178330Y135802D01*
X178253Y135820D01*
X178175Y135825D01*
X176000D01*
Y142175D01*
X178175D01*
X178253Y142180D01*
X178330Y142198D01*
X178403Y142228D01*
X178470Y142269D01*
X178530Y142320D01*
X178581Y142380D01*
X178622Y142447D01*
X178652Y142520D01*
X178670Y142597D01*
X178677Y142675D01*
X178670Y142753D01*
X178652Y142830D01*
X178622Y142903D01*
X178581Y142970D01*
X178530Y143030D01*
X178470Y143081D01*
X178403Y143122D01*
X178330Y143152D01*
X178253Y143170D01*
X178175Y143175D01*
X176000D01*
Y159325D01*
X178175D01*
X178253Y159330D01*
X178330Y159348D01*
X178403Y159378D01*
X178470Y159419D01*
X178530Y159470D01*
X178581Y159530D01*
X178622Y159597D01*
X178652Y159670D01*
X178670Y159747D01*
X178677Y159825D01*
X178670Y159903D01*
X178652Y159980D01*
X178622Y160053D01*
X178581Y160120D01*
X178530Y160180D01*
X178470Y160231D01*
X178403Y160272D01*
X178330Y160302D01*
X178253Y160320D01*
X178175Y160325D01*
X176000D01*
Y166675D01*
X178175D01*
X178253Y166680D01*
X178330Y166698D01*
X178403Y166728D01*
X178470Y166769D01*
X178530Y166820D01*
X178581Y166880D01*
X178622Y166947D01*
X178652Y167020D01*
X178670Y167097D01*
X178677Y167175D01*
X178670Y167253D01*
X178652Y167330D01*
X178622Y167403D01*
X178581Y167470D01*
X178530Y167530D01*
X178470Y167581D01*
X178403Y167622D01*
X178330Y167652D01*
X178253Y167670D01*
X178175Y167675D01*
X176000D01*
Y175500D01*
X179675D01*
Y166177D01*
X179597Y166170D01*
X179520Y166152D01*
X179447Y166122D01*
X179380Y166081D01*
X179320Y166030D01*
X179269Y165970D01*
X179228Y165903D01*
X179198Y165830D01*
X179180Y165753D01*
X179175Y165675D01*
Y161325D01*
X179180Y161247D01*
X179198Y161170D01*
X179228Y161097D01*
X179269Y161030D01*
X179320Y160970D01*
X179380Y160919D01*
X179447Y160878D01*
X179520Y160848D01*
X179597Y160830D01*
X179675Y160823D01*
Y141677D01*
X179597Y141670D01*
X179520Y141652D01*
X179447Y141622D01*
X179380Y141581D01*
X179320Y141530D01*
X179269Y141470D01*
X179228Y141403D01*
X179198Y141330D01*
X179180Y141253D01*
X179175Y141175D01*
Y136825D01*
X179180Y136747D01*
X179198Y136670D01*
X179228Y136597D01*
X179269Y136530D01*
X179320Y136470D01*
X179380Y136419D01*
X179447Y136378D01*
X179520Y136348D01*
X179597Y136330D01*
X179675Y136323D01*
Y131500D01*
G37*
G36*
X176000D02*X172325D01*
Y136323D01*
X172403Y136330D01*
X172480Y136348D01*
X172553Y136378D01*
X172620Y136419D01*
X172680Y136470D01*
X172731Y136530D01*
X172772Y136597D01*
X172802Y136670D01*
X172820Y136747D01*
X172825Y136825D01*
Y141175D01*
X172820Y141253D01*
X172802Y141330D01*
X172772Y141403D01*
X172731Y141470D01*
X172680Y141530D01*
X172620Y141581D01*
X172553Y141622D01*
X172480Y141652D01*
X172403Y141670D01*
X172325Y141677D01*
Y160823D01*
X172403Y160830D01*
X172480Y160848D01*
X172553Y160878D01*
X172620Y160919D01*
X172680Y160970D01*
X172731Y161030D01*
X172772Y161097D01*
X172802Y161170D01*
X172820Y161247D01*
X172825Y161325D01*
Y165675D01*
X172820Y165753D01*
X172802Y165830D01*
X172772Y165903D01*
X172731Y165970D01*
X172680Y166030D01*
X172620Y166081D01*
X172553Y166122D01*
X172480Y166152D01*
X172403Y166170D01*
X172325Y166177D01*
Y174204D01*
X173621Y175500D01*
X176000D01*
Y167675D01*
X173825D01*
X173747Y167670D01*
X173670Y167652D01*
X173597Y167622D01*
X173530Y167581D01*
X173470Y167530D01*
X173419Y167470D01*
X173378Y167403D01*
X173348Y167330D01*
X173330Y167253D01*
X173323Y167175D01*
X173330Y167097D01*
X173348Y167020D01*
X173378Y166947D01*
X173419Y166880D01*
X173470Y166820D01*
X173530Y166769D01*
X173597Y166728D01*
X173670Y166698D01*
X173747Y166680D01*
X173825Y166675D01*
X176000D01*
Y160325D01*
X173825D01*
X173747Y160320D01*
X173670Y160302D01*
X173597Y160272D01*
X173530Y160231D01*
X173470Y160180D01*
X173419Y160120D01*
X173378Y160053D01*
X173348Y159980D01*
X173330Y159903D01*
X173323Y159825D01*
X173330Y159747D01*
X173348Y159670D01*
X173378Y159597D01*
X173419Y159530D01*
X173470Y159470D01*
X173530Y159419D01*
X173597Y159378D01*
X173670Y159348D01*
X173747Y159330D01*
X173825Y159325D01*
X176000D01*
Y143175D01*
X173825D01*
X173747Y143170D01*
X173670Y143152D01*
X173597Y143122D01*
X173530Y143081D01*
X173470Y143030D01*
X173419Y142970D01*
X173378Y142903D01*
X173348Y142830D01*
X173330Y142753D01*
X173323Y142675D01*
X173330Y142597D01*
X173348Y142520D01*
X173378Y142447D01*
X173419Y142380D01*
X173470Y142320D01*
X173530Y142269D01*
X173597Y142228D01*
X173670Y142198D01*
X173747Y142180D01*
X173825Y142175D01*
X176000D01*
Y135825D01*
X173825D01*
X173747Y135820D01*
X173670Y135802D01*
X173597Y135772D01*
X173530Y135731D01*
X173470Y135680D01*
X173419Y135620D01*
X173378Y135553D01*
X173348Y135480D01*
X173330Y135403D01*
X173323Y135325D01*
X173330Y135247D01*
X173348Y135170D01*
X173378Y135097D01*
X173419Y135030D01*
X173470Y134970D01*
X173530Y134919D01*
X173597Y134878D01*
X173670Y134848D01*
X173747Y134830D01*
X173825Y134825D01*
X176000D01*
Y131500D01*
G37*
G36*
X172325D02*X171559D01*
X171500Y131505D01*
X171265Y131486D01*
X171035Y131431D01*
X170817Y131341D01*
X170616Y131217D01*
X170615Y131217D01*
X170500Y131119D01*
Y172379D01*
X172325Y174204D01*
Y166177D01*
X172247Y166170D01*
X172170Y166152D01*
X172097Y166122D01*
X172030Y166081D01*
X171970Y166030D01*
X171919Y165970D01*
X171878Y165903D01*
X171848Y165830D01*
X171830Y165753D01*
X171825Y165675D01*
Y161325D01*
X171830Y161247D01*
X171848Y161170D01*
X171878Y161097D01*
X171919Y161030D01*
X171970Y160970D01*
X172030Y160919D01*
X172097Y160878D01*
X172170Y160848D01*
X172247Y160830D01*
X172325Y160823D01*
Y141677D01*
X172247Y141670D01*
X172170Y141652D01*
X172097Y141622D01*
X172030Y141581D01*
X171970Y141530D01*
X171919Y141470D01*
X171878Y141403D01*
X171848Y141330D01*
X171830Y141253D01*
X171825Y141175D01*
Y136825D01*
X171830Y136747D01*
X171848Y136670D01*
X171878Y136597D01*
X171919Y136530D01*
X171970Y136470D01*
X172030Y136419D01*
X172097Y136378D01*
X172170Y136348D01*
X172247Y136330D01*
X172325Y136323D01*
Y131500D01*
G37*
G36*
X125898Y180500D02*X129721D01*
X129538Y180388D01*
X129039Y179961D01*
X128612Y179462D01*
X128269Y178901D01*
X128017Y178294D01*
X127864Y177655D01*
X127812Y177000D01*
X127864Y176345D01*
X128017Y175706D01*
X128183Y175305D01*
X124379Y171500D01*
X117994D01*
Y180804D01*
X118017Y180706D01*
X118269Y180099D01*
X118612Y179538D01*
X119039Y179039D01*
X119538Y178612D01*
X120099Y178269D01*
X120706Y178017D01*
X121345Y177864D01*
X122000Y177812D01*
X122655Y177864D01*
X123294Y178017D01*
X123901Y178269D01*
X124462Y178612D01*
X124961Y179039D01*
X125388Y179538D01*
X125731Y180099D01*
X125898Y180500D01*
G37*
G36*
X185994Y46500D02*X189879D01*
X191744Y44635D01*
Y29700D01*
X185994D01*
Y36813D01*
X186000Y36812D01*
X186655Y36864D01*
X187294Y37017D01*
X187901Y37269D01*
X188462Y37612D01*
X188961Y38039D01*
X189388Y38538D01*
X189731Y39099D01*
X189983Y39706D01*
X190136Y40345D01*
X190175Y41000D01*
X190136Y41655D01*
X189983Y42294D01*
X189731Y42901D01*
X189388Y43462D01*
X188961Y43961D01*
X188462Y44388D01*
X187901Y44731D01*
X187294Y44983D01*
X186655Y45136D01*
X186000Y45188D01*
X185994Y45187D01*
Y46500D01*
G37*
G36*
X179675D02*X185994D01*
Y45187D01*
X185345Y45136D01*
X184706Y44983D01*
X184099Y44731D01*
X183538Y44388D01*
X183039Y43961D01*
X182612Y43462D01*
X182269Y42901D01*
X182017Y42294D01*
X181864Y41655D01*
X181812Y41000D01*
X181864Y40345D01*
X182017Y39706D01*
X182269Y39099D01*
X182612Y38538D01*
X183039Y38039D01*
X183538Y37612D01*
X184099Y37269D01*
X184706Y37017D01*
X185345Y36864D01*
X185994Y36813D01*
Y29700D01*
X179675D01*
Y38323D01*
X179753Y38330D01*
X179830Y38348D01*
X179903Y38378D01*
X179970Y38419D01*
X180030Y38470D01*
X180081Y38530D01*
X180122Y38597D01*
X180152Y38670D01*
X180170Y38747D01*
X180175Y38825D01*
Y43175D01*
X180170Y43253D01*
X180152Y43330D01*
X180122Y43403D01*
X180081Y43470D01*
X180030Y43530D01*
X179970Y43581D01*
X179903Y43622D01*
X179830Y43652D01*
X179753Y43670D01*
X179675Y43677D01*
Y46500D01*
G37*
G36*
X176000D02*X179675D01*
Y43677D01*
X179597Y43670D01*
X179520Y43652D01*
X179447Y43622D01*
X179380Y43581D01*
X179320Y43530D01*
X179269Y43470D01*
X179228Y43403D01*
X179198Y43330D01*
X179180Y43253D01*
X179175Y43175D01*
Y38825D01*
X179180Y38747D01*
X179198Y38670D01*
X179228Y38597D01*
X179269Y38530D01*
X179320Y38470D01*
X179380Y38419D01*
X179447Y38378D01*
X179520Y38348D01*
X179597Y38330D01*
X179675Y38323D01*
Y29700D01*
X176000D01*
Y36825D01*
X178175D01*
X178253Y36830D01*
X178330Y36848D01*
X178403Y36878D01*
X178470Y36919D01*
X178530Y36970D01*
X178581Y37030D01*
X178622Y37097D01*
X178652Y37170D01*
X178670Y37247D01*
X178677Y37325D01*
X178670Y37403D01*
X178652Y37480D01*
X178622Y37553D01*
X178581Y37620D01*
X178530Y37680D01*
X178470Y37731D01*
X178403Y37772D01*
X178330Y37802D01*
X178253Y37820D01*
X178175Y37825D01*
X176000D01*
Y44175D01*
X178175D01*
X178253Y44180D01*
X178330Y44198D01*
X178403Y44228D01*
X178470Y44269D01*
X178530Y44320D01*
X178581Y44380D01*
X178622Y44447D01*
X178652Y44520D01*
X178670Y44597D01*
X178677Y44675D01*
X178670Y44753D01*
X178652Y44830D01*
X178622Y44903D01*
X178581Y44970D01*
X178530Y45030D01*
X178470Y45081D01*
X178403Y45122D01*
X178330Y45152D01*
X178253Y45170D01*
X178175Y45175D01*
X176000D01*
Y46500D01*
G37*
G36*
X172325D02*X176000D01*
Y45175D01*
X173825D01*
X173747Y45170D01*
X173670Y45152D01*
X173597Y45122D01*
X173530Y45081D01*
X173470Y45030D01*
X173419Y44970D01*
X173378Y44903D01*
X173348Y44830D01*
X173330Y44753D01*
X173323Y44675D01*
X173330Y44597D01*
X173348Y44520D01*
X173378Y44447D01*
X173419Y44380D01*
X173470Y44320D01*
X173530Y44269D01*
X173597Y44228D01*
X173670Y44198D01*
X173747Y44180D01*
X173825Y44175D01*
X176000D01*
Y37825D01*
X173825D01*
X173747Y37820D01*
X173670Y37802D01*
X173597Y37772D01*
X173530Y37731D01*
X173470Y37680D01*
X173419Y37620D01*
X173378Y37553D01*
X173348Y37480D01*
X173330Y37403D01*
X173323Y37325D01*
X173330Y37247D01*
X173348Y37170D01*
X173378Y37097D01*
X173419Y37030D01*
X173470Y36970D01*
X173530Y36919D01*
X173597Y36878D01*
X173670Y36848D01*
X173747Y36830D01*
X173825Y36825D01*
X176000D01*
Y29700D01*
X172325D01*
Y38323D01*
X172403Y38330D01*
X172480Y38348D01*
X172553Y38378D01*
X172620Y38419D01*
X172680Y38470D01*
X172731Y38530D01*
X172772Y38597D01*
X172802Y38670D01*
X172820Y38747D01*
X172825Y38825D01*
Y43175D01*
X172820Y43253D01*
X172802Y43330D01*
X172772Y43403D01*
X172731Y43470D01*
X172680Y43530D01*
X172620Y43581D01*
X172553Y43622D01*
X172480Y43652D01*
X172403Y43670D01*
X172325Y43677D01*
Y46500D01*
G37*
G36*
X145000Y53879D02*X151898Y46981D01*
X151936Y46936D01*
X152116Y46783D01*
X152317Y46659D01*
X152535Y46569D01*
X152765Y46514D01*
X153000Y46495D01*
X153059Y46500D01*
X172325D01*
Y43677D01*
X172247Y43670D01*
X172170Y43652D01*
X172097Y43622D01*
X172030Y43581D01*
X171970Y43530D01*
X171919Y43470D01*
X171878Y43403D01*
X171848Y43330D01*
X171830Y43253D01*
X171825Y43175D01*
Y38825D01*
X171830Y38747D01*
X171848Y38670D01*
X171878Y38597D01*
X171919Y38530D01*
X171970Y38470D01*
X172030Y38419D01*
X172097Y38378D01*
X172170Y38348D01*
X172247Y38330D01*
X172325Y38323D01*
Y29700D01*
X150193D01*
X150215Y29736D01*
X150263Y29852D01*
X150293Y29974D01*
X150300Y30100D01*
X150293Y35026D01*
X150263Y35148D01*
X150215Y35264D01*
X150149Y35372D01*
X150067Y35467D01*
X149972Y35549D01*
X149864Y35615D01*
X149748Y35663D01*
X149626Y35693D01*
X149500Y35700D01*
X145000Y35699D01*
Y39936D01*
X148725Y39941D01*
X148878Y39978D01*
X149024Y40038D01*
X149158Y40120D01*
X149278Y40222D01*
X149380Y40342D01*
X149462Y40476D01*
X149522Y40622D01*
X149559Y40775D01*
X149568Y40932D01*
X149559Y48225D01*
X149522Y48378D01*
X149462Y48524D01*
X149380Y48658D01*
X149278Y48778D01*
X149158Y48880D01*
X149024Y48962D01*
X148878Y49022D01*
X148725Y49059D01*
X148568Y49068D01*
X145000Y49064D01*
Y53879D01*
G37*
G36*
X134993Y58000D02*X140879D01*
X145000Y53879D01*
Y49064D01*
X141275Y49059D01*
X141122Y49022D01*
X140976Y48962D01*
X140842Y48880D01*
X140722Y48778D01*
X140620Y48658D01*
X140538Y48524D01*
X140478Y48378D01*
X140441Y48225D01*
X140432Y48068D01*
X140441Y40775D01*
X140478Y40622D01*
X140538Y40476D01*
X140620Y40342D01*
X140722Y40222D01*
X140842Y40120D01*
X140976Y40038D01*
X141122Y39978D01*
X141275Y39941D01*
X141432Y39932D01*
X145000Y39936D01*
Y35699D01*
X134993Y35696D01*
Y39918D01*
X135000Y39917D01*
X135717Y39974D01*
X136416Y40142D01*
X137080Y40417D01*
X137694Y40793D01*
X138240Y41260D01*
X138707Y41806D01*
X139083Y42420D01*
X139358Y43084D01*
X139526Y43783D01*
X139568Y44500D01*
X139526Y45217D01*
X139358Y45916D01*
X139083Y46580D01*
X138707Y47194D01*
X138240Y47740D01*
X137694Y48207D01*
X137080Y48583D01*
X136416Y48858D01*
X135717Y49026D01*
X135000Y49083D01*
X134993Y49082D01*
Y58000D01*
G37*
G36*
X124993Y55313D02*X125000Y55312D01*
X125655Y55364D01*
X126294Y55517D01*
X126901Y55769D01*
X127462Y56112D01*
X127961Y56539D01*
X128388Y57038D01*
X128731Y57599D01*
X128898Y58000D01*
X134993D01*
Y49082D01*
X134283Y49026D01*
X133584Y48858D01*
X132920Y48583D01*
X132306Y48207D01*
X131760Y47740D01*
X131293Y47194D01*
X130917Y46580D01*
X130642Y45916D01*
X130474Y45217D01*
X130417Y44500D01*
X130474Y43783D01*
X130642Y43084D01*
X130917Y42420D01*
X131293Y41806D01*
X131760Y41260D01*
X132306Y40793D01*
X132920Y40417D01*
X133584Y40142D01*
X134283Y39974D01*
X134993Y39918D01*
Y35696D01*
X124993Y35694D01*
Y39918D01*
X125000Y39917D01*
X125717Y39974D01*
X126416Y40142D01*
X127080Y40417D01*
X127694Y40793D01*
X128240Y41260D01*
X128707Y41806D01*
X129083Y42420D01*
X129358Y43084D01*
X129526Y43783D01*
X129568Y44500D01*
X129526Y45217D01*
X129358Y45916D01*
X129083Y46580D01*
X128707Y47194D01*
X128240Y47740D01*
X127694Y48207D01*
X127080Y48583D01*
X126416Y48858D01*
X125717Y49026D01*
X125000Y49083D01*
X124993Y49082D01*
Y55313D01*
G37*
G36*
X117994Y69885D02*X118500Y69379D01*
Y64559D01*
X118495Y64500D01*
X118514Y64265D01*
X118569Y64035D01*
X118659Y63817D01*
X118783Y63616D01*
X118936Y63436D01*
X118981Y63398D01*
X121183Y61195D01*
X121017Y60794D01*
X120864Y60155D01*
X120812Y59500D01*
X120864Y58845D01*
X121017Y58206D01*
X121269Y57599D01*
X121612Y57038D01*
X122039Y56539D01*
X122538Y56112D01*
X123099Y55769D01*
X123706Y55517D01*
X124345Y55364D01*
X124993Y55313D01*
Y49082D01*
X124283Y49026D01*
X123584Y48858D01*
X122920Y48583D01*
X122306Y48207D01*
X121760Y47740D01*
X121293Y47194D01*
X120917Y46580D01*
X120642Y45916D01*
X120474Y45217D01*
X120417Y44500D01*
X120474Y43783D01*
X120642Y43084D01*
X120917Y42420D01*
X121293Y41806D01*
X121760Y41260D01*
X122306Y40793D01*
X122920Y40417D01*
X123584Y40142D01*
X124283Y39974D01*
X124993Y39918D01*
Y35694D01*
X120974Y35693D01*
X120852Y35663D01*
X120736Y35615D01*
X120628Y35549D01*
X120533Y35467D01*
X120451Y35372D01*
X120385Y35264D01*
X120337Y35148D01*
X120307Y35026D01*
X120300Y34900D01*
X120307Y29974D01*
X120337Y29852D01*
X120385Y29736D01*
X120407Y29700D01*
X117994D01*
Y69885D01*
G37*
G36*
Y86000D02*X118379D01*
X120898Y83481D01*
X120936Y83436D01*
X121115Y83283D01*
X121116Y83283D01*
X121317Y83159D01*
X121535Y83069D01*
X121765Y83014D01*
X122000Y82995D01*
X122059Y83000D01*
X122721D01*
X122538Y82888D01*
X122039Y82461D01*
X121612Y81962D01*
X121269Y81401D01*
X121017Y80794D01*
X120864Y80155D01*
X120812Y79500D01*
X120864Y78845D01*
X121017Y78206D01*
X121269Y77599D01*
X121612Y77038D01*
X122039Y76539D01*
X122538Y76112D01*
X122721Y76000D01*
X119121D01*
X117994Y77128D01*
Y86000D01*
G37*
G36*
X179675Y126500D02*X191744D01*
Y116000D01*
X189898D01*
X189731Y116401D01*
X189388Y116962D01*
X188961Y117461D01*
X188462Y117888D01*
X187901Y118231D01*
X187294Y118483D01*
X186655Y118636D01*
X186000Y118688D01*
X185345Y118636D01*
X184706Y118483D01*
X184099Y118231D01*
X183538Y117888D01*
X183039Y117461D01*
X182612Y116962D01*
X182269Y116401D01*
X182017Y115794D01*
X181864Y115155D01*
X181812Y114500D01*
X181864Y113845D01*
X182017Y113206D01*
X182269Y112599D01*
X182612Y112038D01*
X183039Y111539D01*
X183538Y111112D01*
X184099Y110769D01*
X184706Y110517D01*
X185345Y110364D01*
X186000Y110312D01*
X186655Y110364D01*
X187294Y110517D01*
X187901Y110769D01*
X188462Y111112D01*
X188961Y111539D01*
X189388Y112038D01*
X189731Y112599D01*
X189898Y113000D01*
X191744D01*
Y97865D01*
X187695Y93817D01*
X187294Y93983D01*
X186655Y94136D01*
X186000Y94188D01*
X185345Y94136D01*
X184706Y93983D01*
X184099Y93731D01*
X183538Y93388D01*
X183039Y92961D01*
X182612Y92462D01*
X182269Y91901D01*
X182017Y91294D01*
X181864Y90655D01*
X181812Y90000D01*
X181864Y89345D01*
X182017Y88706D01*
X182269Y88099D01*
X182612Y87538D01*
X183039Y87039D01*
X183538Y86612D01*
X184099Y86269D01*
X184706Y86017D01*
X185345Y85864D01*
X186000Y85812D01*
X186655Y85864D01*
X187294Y86017D01*
X187901Y86269D01*
X188462Y86612D01*
X188961Y87039D01*
X189388Y87538D01*
X189731Y88099D01*
X189983Y88706D01*
X190136Y89345D01*
X190175Y90000D01*
X190136Y90655D01*
X189983Y91294D01*
X189817Y91695D01*
X191744Y93622D01*
Y86365D01*
X188379Y83000D01*
X179675D01*
Y87323D01*
X179753Y87330D01*
X179830Y87348D01*
X179903Y87378D01*
X179970Y87419D01*
X180030Y87470D01*
X180081Y87530D01*
X180122Y87597D01*
X180152Y87670D01*
X180170Y87747D01*
X180175Y87825D01*
Y92175D01*
X180170Y92253D01*
X180152Y92330D01*
X180122Y92403D01*
X180081Y92470D01*
X180030Y92530D01*
X179970Y92581D01*
X179903Y92622D01*
X179830Y92652D01*
X179753Y92670D01*
X179675Y92677D01*
Y111823D01*
X179753Y111830D01*
X179830Y111848D01*
X179903Y111878D01*
X179970Y111919D01*
X180030Y111970D01*
X180081Y112030D01*
X180122Y112097D01*
X180152Y112170D01*
X180170Y112247D01*
X180175Y112325D01*
Y116675D01*
X180170Y116753D01*
X180152Y116830D01*
X180122Y116903D01*
X180081Y116970D01*
X180030Y117030D01*
X179970Y117081D01*
X179903Y117122D01*
X179830Y117152D01*
X179753Y117170D01*
X179675Y117177D01*
Y126500D01*
G37*
G36*
X176000D02*X179675D01*
Y117177D01*
X179597Y117170D01*
X179520Y117152D01*
X179447Y117122D01*
X179380Y117081D01*
X179320Y117030D01*
X179269Y116970D01*
X179228Y116903D01*
X179198Y116830D01*
X179180Y116753D01*
X179175Y116675D01*
Y112325D01*
X179180Y112247D01*
X179198Y112170D01*
X179228Y112097D01*
X179269Y112030D01*
X179320Y111970D01*
X179380Y111919D01*
X179447Y111878D01*
X179520Y111848D01*
X179597Y111830D01*
X179675Y111823D01*
Y92677D01*
X179597Y92670D01*
X179520Y92652D01*
X179447Y92622D01*
X179380Y92581D01*
X179320Y92530D01*
X179269Y92470D01*
X179228Y92403D01*
X179198Y92330D01*
X179180Y92253D01*
X179175Y92175D01*
Y87825D01*
X179180Y87747D01*
X179198Y87670D01*
X179228Y87597D01*
X179269Y87530D01*
X179320Y87470D01*
X179380Y87419D01*
X179447Y87378D01*
X179520Y87348D01*
X179597Y87330D01*
X179675Y87323D01*
Y83000D01*
X176000D01*
Y85825D01*
X178175D01*
X178253Y85830D01*
X178330Y85848D01*
X178403Y85878D01*
X178470Y85919D01*
X178530Y85970D01*
X178581Y86030D01*
X178622Y86097D01*
X178652Y86170D01*
X178670Y86247D01*
X178677Y86325D01*
X178670Y86403D01*
X178652Y86480D01*
X178622Y86553D01*
X178581Y86620D01*
X178530Y86680D01*
X178470Y86731D01*
X178403Y86772D01*
X178330Y86802D01*
X178253Y86820D01*
X178175Y86825D01*
X176000D01*
Y93175D01*
X178175D01*
X178253Y93180D01*
X178330Y93198D01*
X178403Y93228D01*
X178470Y93269D01*
X178530Y93320D01*
X178581Y93380D01*
X178622Y93447D01*
X178652Y93520D01*
X178670Y93597D01*
X178677Y93675D01*
X178670Y93753D01*
X178652Y93830D01*
X178622Y93903D01*
X178581Y93970D01*
X178530Y94030D01*
X178470Y94081D01*
X178403Y94122D01*
X178330Y94152D01*
X178253Y94170D01*
X178175Y94175D01*
X176000D01*
Y110325D01*
X178175D01*
X178253Y110330D01*
X178330Y110348D01*
X178403Y110378D01*
X178470Y110419D01*
X178530Y110470D01*
X178581Y110530D01*
X178622Y110597D01*
X178652Y110670D01*
X178670Y110747D01*
X178677Y110825D01*
X178670Y110903D01*
X178652Y110980D01*
X178622Y111053D01*
X178581Y111120D01*
X178530Y111180D01*
X178470Y111231D01*
X178403Y111272D01*
X178330Y111302D01*
X178253Y111320D01*
X178175Y111325D01*
X176000D01*
Y117675D01*
X178175D01*
X178253Y117680D01*
X178330Y117698D01*
X178403Y117728D01*
X178470Y117769D01*
X178530Y117820D01*
X178581Y117880D01*
X178622Y117947D01*
X178652Y118020D01*
X178670Y118097D01*
X178677Y118175D01*
X178670Y118253D01*
X178652Y118330D01*
X178622Y118403D01*
X178581Y118470D01*
X178530Y118530D01*
X178470Y118581D01*
X178403Y118622D01*
X178330Y118652D01*
X178253Y118670D01*
X178175Y118675D01*
X176000D01*
Y126500D01*
G37*
G36*
X172325Y125204D02*X173621Y126500D01*
X176000D01*
Y118675D01*
X173825D01*
X173747Y118670D01*
X173670Y118652D01*
X173597Y118622D01*
X173530Y118581D01*
X173470Y118530D01*
X173419Y118470D01*
X173378Y118403D01*
X173348Y118330D01*
X173330Y118253D01*
X173323Y118175D01*
X173330Y118097D01*
X173348Y118020D01*
X173378Y117947D01*
X173419Y117880D01*
X173470Y117820D01*
X173530Y117769D01*
X173597Y117728D01*
X173670Y117698D01*
X173747Y117680D01*
X173825Y117675D01*
X176000D01*
Y111325D01*
X173825D01*
X173747Y111320D01*
X173670Y111302D01*
X173597Y111272D01*
X173530Y111231D01*
X173470Y111180D01*
X173419Y111120D01*
X173378Y111053D01*
X173348Y110980D01*
X173330Y110903D01*
X173323Y110825D01*
X173330Y110747D01*
X173348Y110670D01*
X173378Y110597D01*
X173419Y110530D01*
X173470Y110470D01*
X173530Y110419D01*
X173597Y110378D01*
X173670Y110348D01*
X173747Y110330D01*
X173825Y110325D01*
X176000D01*
Y94175D01*
X173825D01*
X173747Y94170D01*
X173670Y94152D01*
X173597Y94122D01*
X173530Y94081D01*
X173470Y94030D01*
X173419Y93970D01*
X173378Y93903D01*
X173348Y93830D01*
X173330Y93753D01*
X173323Y93675D01*
X173330Y93597D01*
X173348Y93520D01*
X173378Y93447D01*
X173419Y93380D01*
X173470Y93320D01*
X173530Y93269D01*
X173597Y93228D01*
X173670Y93198D01*
X173747Y93180D01*
X173825Y93175D01*
X176000D01*
Y86825D01*
X173825D01*
X173747Y86820D01*
X173670Y86802D01*
X173597Y86772D01*
X173530Y86731D01*
X173470Y86680D01*
X173419Y86620D01*
X173378Y86553D01*
X173348Y86480D01*
X173330Y86403D01*
X173323Y86325D01*
X173330Y86247D01*
X173348Y86170D01*
X173378Y86097D01*
X173419Y86030D01*
X173470Y85970D01*
X173530Y85919D01*
X173597Y85878D01*
X173670Y85848D01*
X173747Y85830D01*
X173825Y85825D01*
X176000D01*
Y83000D01*
X172325D01*
Y87323D01*
X172403Y87330D01*
X172480Y87348D01*
X172553Y87378D01*
X172620Y87419D01*
X172680Y87470D01*
X172731Y87530D01*
X172772Y87597D01*
X172802Y87670D01*
X172820Y87747D01*
X172825Y87825D01*
Y92175D01*
X172820Y92253D01*
X172802Y92330D01*
X172772Y92403D01*
X172731Y92470D01*
X172680Y92530D01*
X172620Y92581D01*
X172553Y92622D01*
X172480Y92652D01*
X172403Y92670D01*
X172325Y92677D01*
Y111823D01*
X172403Y111830D01*
X172480Y111848D01*
X172553Y111878D01*
X172620Y111919D01*
X172680Y111970D01*
X172731Y112030D01*
X172772Y112097D01*
X172802Y112170D01*
X172820Y112247D01*
X172825Y112325D01*
Y116675D01*
X172820Y116753D01*
X172802Y116830D01*
X172772Y116903D01*
X172731Y116970D01*
X172680Y117030D01*
X172620Y117081D01*
X172553Y117122D01*
X172480Y117152D01*
X172403Y117170D01*
X172325Y117177D01*
Y125204D01*
G37*
G36*
X150031Y138000D02*X165500D01*
Y133121D01*
X161981Y129602D01*
X161936Y129564D01*
X161783Y129384D01*
X161659Y129183D01*
X161569Y128965D01*
X161514Y128735D01*
X161514Y128735D01*
X161495Y128500D01*
X161500Y128441D01*
Y118121D01*
X156695Y113317D01*
X156294Y113483D01*
X155655Y113636D01*
X155000Y113688D01*
X154345Y113636D01*
X153706Y113483D01*
X153099Y113231D01*
X152538Y112888D01*
X152039Y112461D01*
X151612Y111962D01*
X151269Y111401D01*
X151017Y110794D01*
X150864Y110155D01*
X150812Y109500D01*
X150864Y108845D01*
X151017Y108206D01*
X151269Y107599D01*
X151612Y107038D01*
X152039Y106539D01*
X152538Y106112D01*
X153099Y105769D01*
X153706Y105517D01*
X154345Y105364D01*
X155000Y105312D01*
X155655Y105364D01*
X156294Y105517D01*
X156901Y105769D01*
X157462Y106112D01*
X157961Y106539D01*
X158388Y107038D01*
X158731Y107599D01*
X158983Y108206D01*
X159136Y108845D01*
X159175Y109500D01*
X159136Y110155D01*
X158983Y110794D01*
X158817Y111195D01*
X163500Y115879D01*
Y110121D01*
X156695Y103317D01*
X156294Y103483D01*
X155655Y103636D01*
X155000Y103688D01*
X154345Y103636D01*
X153706Y103483D01*
X153099Y103231D01*
X152538Y102888D01*
X152039Y102461D01*
X151612Y101962D01*
X151269Y101401D01*
X151017Y100794D01*
X150864Y100155D01*
X150812Y99500D01*
X150864Y98845D01*
X151017Y98206D01*
X151269Y97599D01*
X151612Y97038D01*
X152039Y96539D01*
X152538Y96112D01*
X153099Y95769D01*
X153706Y95517D01*
X154345Y95364D01*
X155000Y95312D01*
X155655Y95364D01*
X156294Y95517D01*
X156901Y95769D01*
X157462Y96112D01*
X157961Y96539D01*
X158388Y97038D01*
X158731Y97599D01*
X158983Y98206D01*
X159136Y98845D01*
X159175Y99500D01*
X159136Y100155D01*
X158983Y100794D01*
X158817Y101195D01*
X165500Y107879D01*
Y102121D01*
X156695Y93317D01*
X156294Y93483D01*
X155655Y93636D01*
X155000Y93688D01*
X154345Y93636D01*
X153706Y93483D01*
X153099Y93231D01*
X152538Y92888D01*
X152039Y92461D01*
X151612Y91962D01*
X151269Y91401D01*
X151017Y90794D01*
X150864Y90155D01*
X150812Y89500D01*
X150864Y88845D01*
X151017Y88206D01*
X151269Y87599D01*
X151612Y87038D01*
X152039Y86539D01*
X152538Y86112D01*
X153099Y85769D01*
X153706Y85517D01*
X154345Y85364D01*
X155000Y85312D01*
X155655Y85364D01*
X156294Y85517D01*
X156901Y85769D01*
X157462Y86112D01*
X157961Y86539D01*
X158388Y87038D01*
X158731Y87599D01*
X158983Y88206D01*
X159136Y88845D01*
X159175Y89500D01*
X159136Y90155D01*
X158983Y90794D01*
X158817Y91195D01*
X167500Y99879D01*
Y94121D01*
X156695Y83317D01*
X156294Y83483D01*
X155655Y83636D01*
X155000Y83688D01*
X154345Y83636D01*
X153706Y83483D01*
X153099Y83231D01*
X152538Y82888D01*
X152039Y82461D01*
X151612Y81962D01*
X151269Y81401D01*
X151017Y80794D01*
X150864Y80155D01*
X150812Y79500D01*
X150864Y78845D01*
X151017Y78206D01*
X151269Y77599D01*
X151612Y77038D01*
X152039Y76539D01*
X152538Y76112D01*
X153099Y75769D01*
X153706Y75517D01*
X154345Y75364D01*
X155000Y75312D01*
X155655Y75364D01*
X156294Y75517D01*
X156901Y75769D01*
X157462Y76112D01*
X157961Y76539D01*
X158388Y77038D01*
X158731Y77599D01*
X158983Y78206D01*
X159136Y78845D01*
X159175Y79500D01*
X159136Y80155D01*
X158983Y80794D01*
X158817Y81195D01*
X170019Y92398D01*
X170064Y92436D01*
X170217Y92615D01*
X170217Y92616D01*
X170341Y92817D01*
X170431Y93035D01*
X170486Y93265D01*
X170505Y93500D01*
X170500Y93559D01*
Y123379D01*
X172325Y125204D01*
Y117177D01*
X172247Y117170D01*
X172170Y117152D01*
X172097Y117122D01*
X172030Y117081D01*
X171970Y117030D01*
X171919Y116970D01*
X171878Y116903D01*
X171848Y116830D01*
X171830Y116753D01*
X171825Y116675D01*
Y112325D01*
X171830Y112247D01*
X171848Y112170D01*
X171878Y112097D01*
X171919Y112030D01*
X171970Y111970D01*
X172030Y111919D01*
X172097Y111878D01*
X172170Y111848D01*
X172247Y111830D01*
X172325Y111823D01*
Y92677D01*
X172247Y92670D01*
X172170Y92652D01*
X172097Y92622D01*
X172030Y92581D01*
X171970Y92530D01*
X171919Y92470D01*
X171878Y92403D01*
X171848Y92330D01*
X171830Y92253D01*
X171825Y92175D01*
Y87825D01*
X171830Y87747D01*
X171848Y87670D01*
X171878Y87597D01*
X171919Y87530D01*
X171970Y87470D01*
X172030Y87419D01*
X172097Y87378D01*
X172170Y87348D01*
X172247Y87330D01*
X172325Y87323D01*
Y83000D01*
X172059D01*
X172000Y83005D01*
X171765Y82986D01*
X171535Y82931D01*
X171317Y82841D01*
X171116Y82717D01*
X171115Y82717D01*
X170936Y82564D01*
X170898Y82519D01*
X159379Y71000D01*
X158898D01*
X158731Y71401D01*
X158388Y71962D01*
X157961Y72461D01*
X157462Y72888D01*
X156901Y73231D01*
X156294Y73483D01*
X155655Y73636D01*
X155000Y73688D01*
X154345Y73636D01*
X153706Y73483D01*
X153305Y73317D01*
X150031Y76590D01*
Y122287D01*
X151166Y121152D01*
X151017Y120794D01*
X150864Y120155D01*
X150812Y119500D01*
X150864Y118845D01*
X151017Y118206D01*
X151269Y117599D01*
X151612Y117038D01*
X152039Y116539D01*
X152538Y116112D01*
X153099Y115769D01*
X153706Y115517D01*
X154345Y115364D01*
X155000Y115312D01*
X155655Y115364D01*
X156294Y115517D01*
X156901Y115769D01*
X157462Y116112D01*
X157961Y116539D01*
X158388Y117038D01*
X158731Y117599D01*
X158983Y118206D01*
X159136Y118845D01*
X159175Y119500D01*
X159136Y120155D01*
X158983Y120794D01*
X158731Y121401D01*
X158388Y121962D01*
X157961Y122461D01*
X157462Y122888D01*
X156901Y123231D01*
X156294Y123483D01*
X155655Y123636D01*
X155000Y123688D01*
X154995Y123687D01*
X150031Y128651D01*
Y138000D01*
G37*
G36*
X138353D02*X150031D01*
Y128651D01*
X149016Y129666D01*
X149062Y129857D01*
X149100Y130500D01*
X149062Y131143D01*
X148911Y131771D01*
X148664Y132367D01*
X148327Y132917D01*
X147908Y133408D01*
X147417Y133827D01*
X146867Y134164D01*
X146271Y134411D01*
X145643Y134562D01*
X145000Y134613D01*
X144357Y134562D01*
X143729Y134411D01*
X143133Y134164D01*
X142583Y133827D01*
X142092Y133408D01*
X141673Y132917D01*
X141336Y132367D01*
X141089Y131771D01*
X140938Y131143D01*
X140887Y130500D01*
X140938Y129857D01*
X141089Y129229D01*
X141336Y128633D01*
X141673Y128083D01*
X142092Y127592D01*
X142583Y127173D01*
X143133Y126836D01*
X143729Y126589D01*
X144357Y126438D01*
X145000Y126387D01*
X145643Y126438D01*
X145834Y126484D01*
X150031Y122287D01*
Y76590D01*
X141102Y85519D01*
X141064Y85564D01*
X140884Y85717D01*
X140683Y85841D01*
X140465Y85931D01*
X140235Y85986D01*
X140000Y86005D01*
X139941Y86000D01*
X138353D01*
Y128361D01*
X138404Y128382D01*
X138478Y128427D01*
X138545Y128483D01*
X138601Y128549D01*
X138645Y128623D01*
X138811Y128976D01*
X138939Y129345D01*
X139031Y129724D01*
X139086Y130110D01*
X139105Y130500D01*
X139086Y130890D01*
X139031Y131276D01*
X138939Y131655D01*
X138811Y132024D01*
X138649Y132379D01*
X138604Y132453D01*
X138547Y132519D01*
X138480Y132576D01*
X138406Y132621D01*
X138353Y132643D01*
Y138000D01*
G37*
G36*
X135002D02*X138353D01*
Y132643D01*
X138325Y132654D01*
X138241Y132674D01*
X138154Y132680D01*
X138067Y132673D01*
X137982Y132652D01*
X137902Y132619D01*
X137828Y132573D01*
X137762Y132516D01*
X137706Y132450D01*
X137660Y132375D01*
X137627Y132295D01*
X137607Y132210D01*
X137601Y132123D01*
X137608Y132036D01*
X137629Y131951D01*
X137664Y131872D01*
X137786Y131614D01*
X137879Y131344D01*
X137946Y131067D01*
X137986Y130785D01*
X138000Y130500D01*
X137986Y130215D01*
X137946Y129933D01*
X137879Y129656D01*
X137786Y129386D01*
X137667Y129127D01*
X137632Y129047D01*
X137612Y128963D01*
X137604Y128877D01*
X137611Y128791D01*
X137631Y128707D01*
X137663Y128626D01*
X137708Y128552D01*
X137764Y128486D01*
X137830Y128430D01*
X137904Y128384D01*
X137983Y128351D01*
X138067Y128330D01*
X138154Y128323D01*
X138240Y128329D01*
X138324Y128349D01*
X138353Y128361D01*
Y86000D01*
X135002D01*
Y126395D01*
X135390Y126414D01*
X135776Y126469D01*
X136155Y126561D01*
X136524Y126689D01*
X136879Y126851D01*
X136953Y126896D01*
X137019Y126953D01*
X137076Y127020D01*
X137121Y127094D01*
X137154Y127175D01*
X137174Y127259D01*
X137180Y127346D01*
X137173Y127433D01*
X137152Y127518D01*
X137119Y127598D01*
X137073Y127672D01*
X137016Y127738D01*
X136950Y127794D01*
X136875Y127840D01*
X136795Y127873D01*
X136710Y127893D01*
X136623Y127899D01*
X136536Y127892D01*
X136451Y127871D01*
X136372Y127836D01*
X136114Y127714D01*
X135844Y127621D01*
X135567Y127554D01*
X135285Y127514D01*
X135002Y127500D01*
Y133500D01*
X135285Y133486D01*
X135567Y133446D01*
X135844Y133379D01*
X136114Y133286D01*
X136373Y133167D01*
X136453Y133132D01*
X136537Y133112D01*
X136623Y133104D01*
X136709Y133111D01*
X136793Y133131D01*
X136874Y133163D01*
X136948Y133208D01*
X137014Y133264D01*
X137070Y133330D01*
X137116Y133404D01*
X137149Y133483D01*
X137170Y133567D01*
X137177Y133654D01*
X137171Y133740D01*
X137151Y133824D01*
X137118Y133904D01*
X137073Y133978D01*
X137017Y134045D01*
X136951Y134101D01*
X136877Y134145D01*
X136524Y134311D01*
X136155Y134439D01*
X135776Y134531D01*
X135390Y134586D01*
X135002Y134605D01*
Y138000D01*
G37*
G36*
X131647D02*X135002D01*
Y134605D01*
X135000Y134605D01*
X134610Y134586D01*
X134224Y134531D01*
X133845Y134439D01*
X133476Y134311D01*
X133121Y134149D01*
X133047Y134104D01*
X132981Y134047D01*
X132924Y133980D01*
X132879Y133906D01*
X132846Y133825D01*
X132826Y133741D01*
X132820Y133654D01*
X132827Y133567D01*
X132848Y133482D01*
X132881Y133402D01*
X132927Y133328D01*
X132984Y133262D01*
X133050Y133206D01*
X133125Y133160D01*
X133205Y133127D01*
X133290Y133107D01*
X133377Y133101D01*
X133464Y133108D01*
X133549Y133129D01*
X133628Y133164D01*
X133886Y133286D01*
X134156Y133379D01*
X134433Y133446D01*
X134715Y133486D01*
X135000Y133500D01*
X135002Y133500D01*
Y127500D01*
X135000Y127500D01*
X134715Y127514D01*
X134433Y127554D01*
X134156Y127621D01*
X133886Y127714D01*
X133627Y127833D01*
X133547Y127868D01*
X133463Y127888D01*
X133377Y127896D01*
X133291Y127889D01*
X133207Y127869D01*
X133126Y127837D01*
X133052Y127792D01*
X132986Y127736D01*
X132930Y127670D01*
X132884Y127596D01*
X132851Y127517D01*
X132830Y127433D01*
X132823Y127346D01*
X132829Y127260D01*
X132849Y127176D01*
X132882Y127096D01*
X132927Y127022D01*
X132983Y126955D01*
X133049Y126899D01*
X133123Y126855D01*
X133476Y126689D01*
X133845Y126561D01*
X134224Y126469D01*
X134610Y126414D01*
X135000Y126395D01*
X135002Y126395D01*
Y86000D01*
X131647D01*
Y123972D01*
X131826Y124173D01*
X132011Y124475D01*
X132146Y124803D01*
X132229Y125147D01*
X132257Y125500D01*
X132229Y125853D01*
X132146Y126197D01*
X132011Y126525D01*
X131826Y126827D01*
X131647Y127036D01*
Y128357D01*
X131675Y128346D01*
X131759Y128326D01*
X131846Y128320D01*
X131933Y128327D01*
X132018Y128348D01*
X132098Y128381D01*
X132172Y128427D01*
X132238Y128484D01*
X132294Y128550D01*
X132340Y128625D01*
X132373Y128705D01*
X132393Y128790D01*
X132399Y128877D01*
X132392Y128964D01*
X132371Y129049D01*
X132336Y129128D01*
X132214Y129386D01*
X132121Y129656D01*
X132054Y129933D01*
X132014Y130215D01*
X132000Y130500D01*
X132014Y130785D01*
X132054Y131067D01*
X132121Y131344D01*
X132214Y131614D01*
X132333Y131873D01*
X132368Y131953D01*
X132388Y132037D01*
X132396Y132123D01*
X132389Y132209D01*
X132369Y132293D01*
X132337Y132374D01*
X132292Y132448D01*
X132236Y132514D01*
X132170Y132570D01*
X132096Y132616D01*
X132017Y132649D01*
X131933Y132670D01*
X131846Y132677D01*
X131760Y132671D01*
X131676Y132651D01*
X131647Y132639D01*
Y138000D01*
G37*
G36*
Y86000D02*X127279D01*
X127462Y86112D01*
X127961Y86539D01*
X128388Y87038D01*
X128731Y87599D01*
X128983Y88206D01*
X129136Y88845D01*
X129175Y89500D01*
X129136Y90155D01*
X128983Y90794D01*
X128731Y91401D01*
X128388Y91962D01*
X127961Y92461D01*
X127462Y92888D01*
X126901Y93231D01*
X126541Y93381D01*
Y95619D01*
X126901Y95769D01*
X127462Y96112D01*
X127961Y96539D01*
X128388Y97038D01*
X128731Y97599D01*
X128983Y98206D01*
X129136Y98845D01*
X129175Y99500D01*
X129136Y100155D01*
X128983Y100794D01*
X128731Y101401D01*
X128388Y101962D01*
X127961Y102461D01*
X127462Y102888D01*
X126901Y103231D01*
X126541Y103381D01*
Y105619D01*
X126901Y105769D01*
X127462Y106112D01*
X127961Y106539D01*
X128388Y107038D01*
X128731Y107599D01*
X128983Y108206D01*
X129136Y108845D01*
X129175Y109500D01*
X129136Y110155D01*
X128983Y110794D01*
X128731Y111401D01*
X128388Y111962D01*
X127961Y112461D01*
X127462Y112888D01*
X126901Y113231D01*
X126541Y113381D01*
Y115332D01*
X128332Y115334D01*
X128485Y115371D01*
X128630Y115431D01*
X128765Y115513D01*
X128884Y115616D01*
X128987Y115735D01*
X129069Y115870D01*
X129129Y116015D01*
X129166Y116168D01*
X129175Y116325D01*
X129168Y121486D01*
X131591Y123909D01*
X131647Y123972D01*
Y86000D01*
G37*
G36*
X126541Y138000D02*X131647D01*
Y132639D01*
X131596Y132618D01*
X131522Y132573D01*
X131455Y132517D01*
X131399Y132451D01*
X131355Y132377D01*
X131189Y132024D01*
X131061Y131655D01*
X130969Y131276D01*
X130914Y130890D01*
X130895Y130500D01*
X130914Y130110D01*
X130969Y129724D01*
X131061Y129345D01*
X131189Y128976D01*
X131351Y128621D01*
X131396Y128547D01*
X131453Y128481D01*
X131520Y128424D01*
X131594Y128379D01*
X131647Y128357D01*
Y127036D01*
X131596Y127096D01*
X131327Y127326D01*
X131025Y127511D01*
X130697Y127646D01*
X130353Y127729D01*
X130000Y127757D01*
X129647Y127729D01*
X129303Y127646D01*
X128975Y127511D01*
X128673Y127326D01*
X128409Y127091D01*
X126541Y125223D01*
Y138000D01*
G37*
G36*
Y103381D02*X126294Y103483D01*
X125655Y103636D01*
X125000Y103688D01*
X124345Y103636D01*
X123706Y103483D01*
X123099Y103231D01*
X122538Y102888D01*
X122039Y102461D01*
X121612Y101962D01*
X121269Y101401D01*
X121102Y101000D01*
X117994D01*
Y111500D01*
X120879D01*
X121183Y111195D01*
X121017Y110794D01*
X120864Y110155D01*
X120812Y109500D01*
X120864Y108845D01*
X121017Y108206D01*
X121269Y107599D01*
X121612Y107038D01*
X122039Y106539D01*
X122538Y106112D01*
X123099Y105769D01*
X123706Y105517D01*
X124345Y105364D01*
X125000Y105312D01*
X125655Y105364D01*
X126294Y105517D01*
X126541Y105619D01*
Y103381D01*
G37*
G36*
Y93381D02*X126294Y93483D01*
X125655Y93636D01*
X125000Y93688D01*
X124345Y93636D01*
X123706Y93483D01*
X123099Y93231D01*
X122538Y92888D01*
X122039Y92461D01*
X121612Y91962D01*
X121269Y91401D01*
X121102Y91000D01*
X117994D01*
Y98000D01*
X121102D01*
X121269Y97599D01*
X121612Y97038D01*
X122039Y96539D01*
X122538Y96112D01*
X123099Y95769D01*
X123706Y95517D01*
X124345Y95364D01*
X125000Y95312D01*
X125655Y95364D01*
X126294Y95517D01*
X126541Y95619D01*
Y93381D01*
G37*
G36*
X117994Y136994D02*X119000Y138000D01*
X126541D01*
Y125223D01*
X124988Y123670D01*
X121668Y123666D01*
X121515Y123629D01*
X121370Y123569D01*
X121235Y123487D01*
X121116Y123384D01*
X121013Y123265D01*
X120931Y123130D01*
X120871Y122985D01*
X120834Y122832D01*
X120825Y122675D01*
X120834Y116168D01*
X120871Y116015D01*
X120931Y115870D01*
X121013Y115735D01*
X121116Y115616D01*
X121235Y115513D01*
X121370Y115431D01*
X121515Y115371D01*
X121668Y115334D01*
X121825Y115325D01*
X126541Y115332D01*
Y113381D01*
X126294Y113483D01*
X125655Y113636D01*
X125000Y113688D01*
X124345Y113636D01*
X123706Y113483D01*
X123305Y113317D01*
X122602Y114019D01*
X122564Y114064D01*
X122384Y114217D01*
X122183Y114341D01*
X121965Y114431D01*
X121735Y114486D01*
X121500Y114505D01*
X121441Y114500D01*
X118121D01*
X117994Y114628D01*
Y136994D01*
G37*
G36*
X179675Y223800D02*X191744D01*
Y214000D01*
X189898D01*
X189731Y214401D01*
X189388Y214962D01*
X188961Y215461D01*
X188462Y215888D01*
X187901Y216231D01*
X187294Y216483D01*
X186655Y216636D01*
X186000Y216688D01*
X185345Y216636D01*
X184706Y216483D01*
X184099Y216231D01*
X183538Y215888D01*
X183039Y215461D01*
X182612Y214962D01*
X182269Y214401D01*
X182017Y213794D01*
X181864Y213155D01*
X181812Y212500D01*
X181864Y211845D01*
X182017Y211206D01*
X182269Y210599D01*
X182612Y210038D01*
X183039Y209539D01*
X183538Y209112D01*
X184099Y208769D01*
X184706Y208517D01*
X185345Y208364D01*
X186000Y208312D01*
X186655Y208364D01*
X187294Y208517D01*
X187901Y208769D01*
X188462Y209112D01*
X188961Y209539D01*
X189388Y210038D01*
X189731Y210599D01*
X189898Y211000D01*
X191744D01*
Y195865D01*
X187695Y191817D01*
X187294Y191983D01*
X186655Y192136D01*
X186000Y192188D01*
X185345Y192136D01*
X184706Y191983D01*
X184099Y191731D01*
X183538Y191388D01*
X183039Y190961D01*
X182612Y190462D01*
X182269Y189901D01*
X182017Y189294D01*
X181864Y188655D01*
X181812Y188000D01*
X181864Y187345D01*
X182017Y186706D01*
X182269Y186099D01*
X182612Y185538D01*
X183039Y185039D01*
X183538Y184612D01*
X184099Y184269D01*
X184706Y184017D01*
X185345Y183864D01*
X186000Y183812D01*
X186655Y183864D01*
X187294Y184017D01*
X187901Y184269D01*
X188462Y184612D01*
X188961Y185039D01*
X189388Y185538D01*
X189731Y186099D01*
X189983Y186706D01*
X190136Y187345D01*
X190175Y188000D01*
X190136Y188655D01*
X189983Y189294D01*
X189817Y189695D01*
X191744Y191622D01*
Y184365D01*
X187879Y180500D01*
X179675D01*
Y185323D01*
X179753Y185330D01*
X179830Y185348D01*
X179903Y185378D01*
X179970Y185419D01*
X180030Y185470D01*
X180081Y185530D01*
X180122Y185597D01*
X180152Y185670D01*
X180170Y185747D01*
X180175Y185825D01*
Y190175D01*
X180170Y190253D01*
X180152Y190330D01*
X180122Y190403D01*
X180081Y190470D01*
X180030Y190530D01*
X179970Y190581D01*
X179903Y190622D01*
X179830Y190652D01*
X179753Y190670D01*
X179675Y190677D01*
Y209823D01*
X179753Y209830D01*
X179830Y209848D01*
X179903Y209878D01*
X179970Y209919D01*
X180030Y209970D01*
X180081Y210030D01*
X180122Y210097D01*
X180152Y210170D01*
X180170Y210247D01*
X180175Y210325D01*
Y214675D01*
X180170Y214753D01*
X180152Y214830D01*
X180122Y214903D01*
X180081Y214970D01*
X180030Y215030D01*
X179970Y215081D01*
X179903Y215122D01*
X179830Y215152D01*
X179753Y215170D01*
X179675Y215177D01*
Y223800D01*
G37*
G36*
X176000D02*X179675D01*
Y215177D01*
X179597Y215170D01*
X179520Y215152D01*
X179447Y215122D01*
X179380Y215081D01*
X179320Y215030D01*
X179269Y214970D01*
X179228Y214903D01*
X179198Y214830D01*
X179180Y214753D01*
X179175Y214675D01*
Y210325D01*
X179180Y210247D01*
X179198Y210170D01*
X179228Y210097D01*
X179269Y210030D01*
X179320Y209970D01*
X179380Y209919D01*
X179447Y209878D01*
X179520Y209848D01*
X179597Y209830D01*
X179675Y209823D01*
Y190677D01*
X179597Y190670D01*
X179520Y190652D01*
X179447Y190622D01*
X179380Y190581D01*
X179320Y190530D01*
X179269Y190470D01*
X179228Y190403D01*
X179198Y190330D01*
X179180Y190253D01*
X179175Y190175D01*
Y185825D01*
X179180Y185747D01*
X179198Y185670D01*
X179228Y185597D01*
X179269Y185530D01*
X179320Y185470D01*
X179380Y185419D01*
X179447Y185378D01*
X179520Y185348D01*
X179597Y185330D01*
X179675Y185323D01*
Y180500D01*
X176000D01*
Y183825D01*
X178175D01*
X178253Y183830D01*
X178330Y183848D01*
X178403Y183878D01*
X178470Y183919D01*
X178530Y183970D01*
X178581Y184030D01*
X178622Y184097D01*
X178652Y184170D01*
X178670Y184247D01*
X178677Y184325D01*
X178670Y184403D01*
X178652Y184480D01*
X178622Y184553D01*
X178581Y184620D01*
X178530Y184680D01*
X178470Y184731D01*
X178403Y184772D01*
X178330Y184802D01*
X178253Y184820D01*
X178175Y184825D01*
X176000D01*
Y191175D01*
X178175D01*
X178253Y191180D01*
X178330Y191198D01*
X178403Y191228D01*
X178470Y191269D01*
X178530Y191320D01*
X178581Y191380D01*
X178622Y191447D01*
X178652Y191520D01*
X178670Y191597D01*
X178677Y191675D01*
X178670Y191753D01*
X178652Y191830D01*
X178622Y191903D01*
X178581Y191970D01*
X178530Y192030D01*
X178470Y192081D01*
X178403Y192122D01*
X178330Y192152D01*
X178253Y192170D01*
X178175Y192175D01*
X176000D01*
Y208325D01*
X178175D01*
X178253Y208330D01*
X178330Y208348D01*
X178403Y208378D01*
X178470Y208419D01*
X178530Y208470D01*
X178581Y208530D01*
X178622Y208597D01*
X178652Y208670D01*
X178670Y208747D01*
X178677Y208825D01*
X178670Y208903D01*
X178652Y208980D01*
X178622Y209053D01*
X178581Y209120D01*
X178530Y209180D01*
X178470Y209231D01*
X178403Y209272D01*
X178330Y209302D01*
X178253Y209320D01*
X178175Y209325D01*
X176000D01*
Y215675D01*
X178175D01*
X178253Y215680D01*
X178330Y215698D01*
X178403Y215728D01*
X178470Y215769D01*
X178530Y215820D01*
X178581Y215880D01*
X178622Y215947D01*
X178652Y216020D01*
X178670Y216097D01*
X178677Y216175D01*
X178670Y216253D01*
X178652Y216330D01*
X178622Y216403D01*
X178581Y216470D01*
X178530Y216530D01*
X178470Y216581D01*
X178403Y216622D01*
X178330Y216652D01*
X178253Y216670D01*
X178175Y216675D01*
X176000D01*
Y223800D01*
G37*
G36*
X172325D02*X176000D01*
Y216675D01*
X173825D01*
X173747Y216670D01*
X173670Y216652D01*
X173597Y216622D01*
X173530Y216581D01*
X173470Y216530D01*
X173419Y216470D01*
X173378Y216403D01*
X173348Y216330D01*
X173330Y216253D01*
X173323Y216175D01*
X173330Y216097D01*
X173348Y216020D01*
X173378Y215947D01*
X173419Y215880D01*
X173470Y215820D01*
X173530Y215769D01*
X173597Y215728D01*
X173670Y215698D01*
X173747Y215680D01*
X173825Y215675D01*
X176000D01*
Y209325D01*
X173825D01*
X173747Y209320D01*
X173670Y209302D01*
X173597Y209272D01*
X173530Y209231D01*
X173470Y209180D01*
X173419Y209120D01*
X173378Y209053D01*
X173348Y208980D01*
X173330Y208903D01*
X173323Y208825D01*
X173330Y208747D01*
X173348Y208670D01*
X173378Y208597D01*
X173419Y208530D01*
X173470Y208470D01*
X173530Y208419D01*
X173597Y208378D01*
X173670Y208348D01*
X173747Y208330D01*
X173825Y208325D01*
X176000D01*
Y192175D01*
X173825D01*
X173747Y192170D01*
X173670Y192152D01*
X173597Y192122D01*
X173530Y192081D01*
X173470Y192030D01*
X173419Y191970D01*
X173378Y191903D01*
X173348Y191830D01*
X173330Y191753D01*
X173323Y191675D01*
X173330Y191597D01*
X173348Y191520D01*
X173378Y191447D01*
X173419Y191380D01*
X173470Y191320D01*
X173530Y191269D01*
X173597Y191228D01*
X173670Y191198D01*
X173747Y191180D01*
X173825Y191175D01*
X176000D01*
Y184825D01*
X173825D01*
X173747Y184820D01*
X173670Y184802D01*
X173597Y184772D01*
X173530Y184731D01*
X173470Y184680D01*
X173419Y184620D01*
X173378Y184553D01*
X173348Y184480D01*
X173330Y184403D01*
X173323Y184325D01*
X173330Y184247D01*
X173348Y184170D01*
X173378Y184097D01*
X173419Y184030D01*
X173470Y183970D01*
X173530Y183919D01*
X173597Y183878D01*
X173670Y183848D01*
X173747Y183830D01*
X173825Y183825D01*
X176000D01*
Y180500D01*
X172325D01*
Y185323D01*
X172403Y185330D01*
X172480Y185348D01*
X172553Y185378D01*
X172620Y185419D01*
X172680Y185470D01*
X172731Y185530D01*
X172772Y185597D01*
X172802Y185670D01*
X172820Y185747D01*
X172825Y185825D01*
Y190175D01*
X172820Y190253D01*
X172802Y190330D01*
X172772Y190403D01*
X172731Y190470D01*
X172680Y190530D01*
X172620Y190581D01*
X172553Y190622D01*
X172480Y190652D01*
X172403Y190670D01*
X172325Y190677D01*
Y209823D01*
X172403Y209830D01*
X172480Y209848D01*
X172553Y209878D01*
X172620Y209919D01*
X172680Y209970D01*
X172731Y210030D01*
X172772Y210097D01*
X172802Y210170D01*
X172820Y210247D01*
X172825Y210325D01*
Y214675D01*
X172820Y214753D01*
X172802Y214830D01*
X172772Y214903D01*
X172731Y214970D01*
X172680Y215030D01*
X172620Y215081D01*
X172553Y215122D01*
X172480Y215152D01*
X172403Y215170D01*
X172325Y215177D01*
Y223800D01*
G37*
G36*
X155436Y217804D02*X161626Y217807D01*
X161748Y217837D01*
X161864Y217885D01*
X161972Y217951D01*
X162067Y218033D01*
X162149Y218128D01*
X162215Y218236D01*
X162263Y218352D01*
X162293Y218474D01*
X162300Y218600D01*
X162293Y223526D01*
X162263Y223648D01*
X162215Y223764D01*
X162193Y223800D01*
X172325D01*
Y215177D01*
X172247Y215170D01*
X172170Y215152D01*
X172097Y215122D01*
X172030Y215081D01*
X171970Y215030D01*
X171919Y214970D01*
X171878Y214903D01*
X171848Y214830D01*
X171830Y214753D01*
X171825Y214675D01*
Y210325D01*
X171830Y210247D01*
X171848Y210170D01*
X171878Y210097D01*
X171919Y210030D01*
X171970Y209970D01*
X172030Y209919D01*
X172097Y209878D01*
X172170Y209848D01*
X172247Y209830D01*
X172325Y209823D01*
Y190677D01*
X172247Y190670D01*
X172170Y190652D01*
X172097Y190622D01*
X172030Y190581D01*
X171970Y190530D01*
X171919Y190470D01*
X171878Y190403D01*
X171848Y190330D01*
X171830Y190253D01*
X171825Y190175D01*
Y185825D01*
X171830Y185747D01*
X171848Y185670D01*
X171878Y185597D01*
X171919Y185530D01*
X171970Y185470D01*
X172030Y185419D01*
X172097Y185378D01*
X172170Y185348D01*
X172247Y185330D01*
X172325Y185323D01*
Y180500D01*
X171559D01*
X171500Y180505D01*
X171265Y180486D01*
X171035Y180431D01*
X170817Y180341D01*
X170616Y180217D01*
X170615Y180217D01*
X170436Y180064D01*
X170398Y180019D01*
X165981Y175602D01*
X165936Y175564D01*
X165783Y175384D01*
X165659Y175183D01*
X165569Y174965D01*
X165514Y174735D01*
X165514Y174735D01*
X165495Y174500D01*
X165500Y174441D01*
Y139500D01*
X155436D01*
Y174754D01*
X155479Y174778D01*
X155541Y174826D01*
X155594Y174884D01*
X155637Y174950D01*
X155816Y175296D01*
X155959Y175659D01*
X156066Y176034D01*
X156139Y176417D01*
X156175Y176805D01*
Y177195D01*
X156139Y177583D01*
X156066Y177966D01*
X155959Y178341D01*
X155816Y178704D01*
X155641Y179052D01*
X155597Y179118D01*
X155543Y179176D01*
X155481Y179225D01*
X155436Y179250D01*
Y217804D01*
G37*
G36*
X150596Y217801D02*X155436Y217804D01*
Y179250D01*
X155412Y179264D01*
X155337Y179291D01*
X155259Y179306D01*
X155180Y179309D01*
X155102Y179300D01*
X155025Y179278D01*
X154953Y179245D01*
X154888Y179200D01*
X154830Y179146D01*
X154781Y179084D01*
X154742Y179015D01*
X154715Y178940D01*
X154700Y178863D01*
X154697Y178783D01*
X154706Y178705D01*
X154728Y178628D01*
X154763Y178557D01*
X154899Y178295D01*
X155007Y178019D01*
X155089Y177734D01*
X155144Y177443D01*
X155172Y177148D01*
Y176852D01*
X155144Y176557D01*
X155089Y176266D01*
X155007Y175981D01*
X154899Y175705D01*
X154766Y175441D01*
X154731Y175370D01*
X154710Y175295D01*
X154700Y175216D01*
X154703Y175138D01*
X154718Y175061D01*
X154745Y174987D01*
X154784Y174918D01*
X154832Y174856D01*
X154890Y174802D01*
X154955Y174759D01*
X155027Y174725D01*
X155102Y174704D01*
X155180Y174694D01*
X155259Y174697D01*
X155336Y174712D01*
X155410Y174739D01*
X155436Y174754D01*
Y139500D01*
X150596D01*
Y150823D01*
X150674Y150830D01*
X150751Y150848D01*
X150824Y150878D01*
X150891Y150919D01*
X150951Y150970D01*
X151002Y151030D01*
X151043Y151097D01*
X151073Y151170D01*
X151091Y151247D01*
X151096Y151325D01*
Y155675D01*
X151091Y155753D01*
X151073Y155830D01*
X151043Y155903D01*
X151002Y155970D01*
X150951Y156030D01*
X150891Y156081D01*
X150824Y156122D01*
X150751Y156152D01*
X150674Y156170D01*
X150596Y156177D01*
Y173066D01*
X150659Y173041D01*
X151034Y172934D01*
X151417Y172861D01*
X151805Y172825D01*
X152195D01*
X152583Y172861D01*
X152966Y172934D01*
X153341Y173041D01*
X153704Y173184D01*
X154052Y173359D01*
X154118Y173403D01*
X154176Y173457D01*
X154225Y173519D01*
X154264Y173588D01*
X154291Y173663D01*
X154306Y173741D01*
X154309Y173820D01*
X154300Y173898D01*
X154278Y173975D01*
X154245Y174047D01*
X154200Y174112D01*
X154146Y174170D01*
X154084Y174219D01*
X154015Y174258D01*
X153940Y174285D01*
X153863Y174300D01*
X153783Y174303D01*
X153705Y174294D01*
X153628Y174272D01*
X153557Y174237D01*
X153295Y174101D01*
X153019Y173993D01*
X152734Y173911D01*
X152443Y173856D01*
X152148Y173828D01*
X151852D01*
X151557Y173856D01*
X151266Y173911D01*
X150981Y173993D01*
X150705Y174101D01*
X150596Y174156D01*
Y179842D01*
X150705Y179899D01*
X150981Y180007D01*
X151266Y180089D01*
X151557Y180144D01*
X151852Y180172D01*
X152148D01*
X152443Y180144D01*
X152734Y180089D01*
X153019Y180007D01*
X153295Y179899D01*
X153559Y179766D01*
X153630Y179731D01*
X153705Y179710D01*
X153784Y179700D01*
X153862Y179703D01*
X153939Y179718D01*
X154013Y179745D01*
X154082Y179784D01*
X154144Y179832D01*
X154198Y179890D01*
X154241Y179955D01*
X154275Y180027D01*
X154296Y180102D01*
X154306Y180180D01*
X154303Y180259D01*
X154288Y180336D01*
X154261Y180410D01*
X154222Y180479D01*
X154174Y180541D01*
X154116Y180594D01*
X154050Y180637D01*
X153704Y180816D01*
X153341Y180959D01*
X152966Y181066D01*
X152583Y181139D01*
X152195Y181175D01*
X151805D01*
X151417Y181139D01*
X151034Y181066D01*
X150659Y180959D01*
X150596Y180934D01*
Y217801D01*
G37*
G36*
X148564Y217800D02*X150596Y217801D01*
Y180934D01*
X150296Y180816D01*
X149948Y180641D01*
X149882Y180597D01*
X149824Y180543D01*
X149775Y180481D01*
X149736Y180412D01*
X149709Y180337D01*
X149694Y180259D01*
X149691Y180180D01*
X149700Y180102D01*
X149722Y180025D01*
X149755Y179953D01*
X149800Y179888D01*
X149854Y179830D01*
X149916Y179781D01*
X149985Y179742D01*
X150060Y179715D01*
X150137Y179700D01*
X150217Y179697D01*
X150295Y179706D01*
X150372Y179728D01*
X150443Y179763D01*
X150596Y179842D01*
Y174156D01*
X150441Y174234D01*
X150370Y174269D01*
X150295Y174290D01*
X150216Y174300D01*
X150138Y174297D01*
X150061Y174282D01*
X149987Y174255D01*
X149918Y174216D01*
X149856Y174168D01*
X149802Y174110D01*
X149759Y174045D01*
X149725Y173973D01*
X149704Y173898D01*
X149694Y173820D01*
X149697Y173741D01*
X149712Y173664D01*
X149739Y173590D01*
X149778Y173521D01*
X149826Y173459D01*
X149884Y173406D01*
X149950Y173363D01*
X150296Y173184D01*
X150596Y173066D01*
Y156177D01*
X150518Y156170D01*
X150441Y156152D01*
X150368Y156122D01*
X150301Y156081D01*
X150241Y156030D01*
X150190Y155970D01*
X150149Y155903D01*
X150119Y155830D01*
X150101Y155753D01*
X150096Y155675D01*
Y151325D01*
X150101Y151247D01*
X150119Y151170D01*
X150149Y151097D01*
X150190Y151030D01*
X150241Y150970D01*
X150301Y150919D01*
X150368Y150878D01*
X150441Y150848D01*
X150518Y150830D01*
X150596Y150823D01*
Y139500D01*
X148564D01*
Y149325D01*
X149096D01*
X149174Y149330D01*
X149251Y149348D01*
X149324Y149378D01*
X149391Y149419D01*
X149451Y149470D01*
X149502Y149530D01*
X149543Y149597D01*
X149573Y149670D01*
X149591Y149747D01*
X149598Y149825D01*
X149591Y149903D01*
X149573Y149980D01*
X149543Y150053D01*
X149502Y150120D01*
X149451Y150180D01*
X149391Y150231D01*
X149324Y150272D01*
X149251Y150302D01*
X149174Y150320D01*
X149096Y150325D01*
X148564D01*
Y156675D01*
X149096D01*
X149174Y156680D01*
X149251Y156698D01*
X149324Y156728D01*
X149391Y156769D01*
X149451Y156820D01*
X149502Y156880D01*
X149543Y156947D01*
X149573Y157020D01*
X149591Y157097D01*
X149598Y157175D01*
X149591Y157253D01*
X149573Y157330D01*
X149543Y157403D01*
X149502Y157470D01*
X149451Y157530D01*
X149391Y157581D01*
X149324Y157622D01*
X149251Y157652D01*
X149174Y157670D01*
X149096Y157675D01*
X148564D01*
Y174750D01*
X148588Y174736D01*
X148663Y174709D01*
X148741Y174694D01*
X148820Y174691D01*
X148898Y174700D01*
X148975Y174722D01*
X149047Y174755D01*
X149112Y174800D01*
X149170Y174854D01*
X149219Y174916D01*
X149258Y174985D01*
X149285Y175060D01*
X149300Y175137D01*
X149303Y175217D01*
X149294Y175295D01*
X149272Y175372D01*
X149237Y175443D01*
X149101Y175705D01*
X148993Y175981D01*
X148911Y176266D01*
X148856Y176557D01*
X148828Y176852D01*
Y177148D01*
X148856Y177443D01*
X148911Y177734D01*
X148993Y178019D01*
X149101Y178295D01*
X149234Y178559D01*
X149269Y178630D01*
X149290Y178705D01*
X149300Y178784D01*
X149297Y178862D01*
X149282Y178939D01*
X149255Y179013D01*
X149216Y179082D01*
X149168Y179144D01*
X149110Y179198D01*
X149045Y179241D01*
X148973Y179275D01*
X148898Y179296D01*
X148820Y179306D01*
X148741Y179303D01*
X148664Y179288D01*
X148590Y179261D01*
X148564Y179246D01*
Y217800D01*
G37*
G36*
Y150325D02*X146921D01*
Y156675D01*
X148564D01*
Y150325D01*
G37*
G36*
Y139500D02*X146921D01*
Y149325D01*
X148564D01*
Y139500D01*
G37*
G36*
X146921Y223800D02*X147407D01*
X147385Y223764D01*
X147337Y223648D01*
X147307Y223526D01*
X147300Y223400D01*
X147307Y218474D01*
X147337Y218352D01*
X147385Y218236D01*
X147451Y218128D01*
X147533Y218033D01*
X147628Y217951D01*
X147736Y217885D01*
X147852Y217837D01*
X147974Y217807D01*
X148100Y217800D01*
X148564Y217800D01*
Y179246D01*
X148521Y179222D01*
X148459Y179174D01*
X148406Y179116D01*
X148363Y179050D01*
X148184Y178704D01*
X148041Y178341D01*
X147934Y177966D01*
X147861Y177583D01*
X147825Y177195D01*
Y176805D01*
X147861Y176417D01*
X147934Y176034D01*
X148041Y175659D01*
X148184Y175296D01*
X148359Y174948D01*
X148403Y174882D01*
X148457Y174824D01*
X148519Y174775D01*
X148564Y174750D01*
Y157675D01*
X146921D01*
Y223800D01*
G37*
G36*
X143246D02*X146921D01*
Y157675D01*
X144746D01*
X144668Y157670D01*
X144591Y157652D01*
X144518Y157622D01*
X144451Y157581D01*
X144391Y157530D01*
X144340Y157470D01*
X144299Y157403D01*
X144269Y157330D01*
X144251Y157253D01*
X144244Y157175D01*
X144251Y157097D01*
X144269Y157020D01*
X144299Y156947D01*
X144340Y156880D01*
X144391Y156820D01*
X144451Y156769D01*
X144518Y156728D01*
X144591Y156698D01*
X144668Y156680D01*
X144746Y156675D01*
X146921D01*
Y150325D01*
X144746D01*
X144668Y150320D01*
X144591Y150302D01*
X144518Y150272D01*
X144451Y150231D01*
X144391Y150180D01*
X144340Y150120D01*
X144299Y150053D01*
X144269Y149980D01*
X144251Y149903D01*
X144244Y149825D01*
X144251Y149747D01*
X144269Y149670D01*
X144299Y149597D01*
X144340Y149530D01*
X144391Y149470D01*
X144451Y149419D01*
X144518Y149378D01*
X144591Y149348D01*
X144668Y149330D01*
X144746Y149325D01*
X146921D01*
Y139500D01*
X143246D01*
Y150823D01*
X143324Y150830D01*
X143401Y150848D01*
X143474Y150878D01*
X143541Y150919D01*
X143601Y150970D01*
X143652Y151030D01*
X143693Y151097D01*
X143723Y151170D01*
X143741Y151247D01*
X143746Y151325D01*
Y155675D01*
X143741Y155753D01*
X143723Y155830D01*
X143693Y155903D01*
X143652Y155970D01*
X143601Y156030D01*
X143541Y156081D01*
X143474Y156122D01*
X143401Y156152D01*
X143324Y156170D01*
X143246Y156177D01*
Y173006D01*
X143294Y173017D01*
X143901Y173269D01*
X144462Y173612D01*
X144961Y174039D01*
X145388Y174538D01*
X145731Y175099D01*
X145983Y175706D01*
X146136Y176345D01*
X146175Y177000D01*
X146136Y177655D01*
X145983Y178294D01*
X145731Y178901D01*
X145388Y179462D01*
X144961Y179961D01*
X144462Y180388D01*
X143901Y180731D01*
X143294Y180983D01*
X143246Y180994D01*
Y223800D01*
G37*
G36*
Y139500D02*X137073D01*
Y149313D01*
X137079Y149312D01*
X137734Y149364D01*
X138373Y149517D01*
X138980Y149769D01*
X139541Y150112D01*
X140040Y150539D01*
X140467Y151038D01*
X140810Y151599D01*
X141062Y152206D01*
X141215Y152845D01*
X141254Y153500D01*
X141215Y154155D01*
X141062Y154794D01*
X140810Y155401D01*
X140467Y155962D01*
X140040Y156461D01*
X139541Y156888D01*
X138980Y157231D01*
X138373Y157483D01*
X137734Y157636D01*
X137079Y157688D01*
X137073Y157687D01*
Y179806D01*
X138183Y178695D01*
X138017Y178294D01*
X137864Y177655D01*
X137812Y177000D01*
X137864Y176345D01*
X138017Y175706D01*
X138269Y175099D01*
X138612Y174538D01*
X139039Y174039D01*
X139538Y173612D01*
X140099Y173269D01*
X140706Y173017D01*
X141345Y172864D01*
X142000Y172812D01*
X142655Y172864D01*
X143246Y173006D01*
Y156177D01*
X143168Y156170D01*
X143091Y156152D01*
X143018Y156122D01*
X142951Y156081D01*
X142891Y156030D01*
X142840Y155970D01*
X142799Y155903D01*
X142769Y155830D01*
X142751Y155753D01*
X142746Y155675D01*
Y151325D01*
X142751Y151247D01*
X142769Y151170D01*
X142799Y151097D01*
X142840Y151030D01*
X142891Y150970D01*
X142951Y150919D01*
X143018Y150878D01*
X143091Y150848D01*
X143168Y150830D01*
X143246Y150823D01*
Y139500D01*
G37*
G36*
X137073D02*X118500D01*
X117994Y138994D01*
Y155500D01*
X118102D01*
X118269Y155099D01*
X118612Y154538D01*
X119039Y154039D01*
X119538Y153612D01*
X120099Y153269D01*
X120706Y153017D01*
X121345Y152864D01*
X122000Y152812D01*
X122655Y152864D01*
X123294Y153017D01*
X123901Y153269D01*
X124462Y153612D01*
X124961Y154039D01*
X125388Y154538D01*
X125731Y155099D01*
X125983Y155706D01*
X126136Y156345D01*
X126175Y157000D01*
X126136Y157655D01*
X125983Y158294D01*
X125731Y158901D01*
X125388Y159462D01*
X124961Y159961D01*
X124462Y160388D01*
X123901Y160731D01*
X123294Y160983D01*
X122655Y161136D01*
X122000Y161188D01*
X121345Y161136D01*
X120706Y160983D01*
X120099Y160731D01*
X119538Y160388D01*
X119039Y159961D01*
X118612Y159462D01*
X118269Y158901D01*
X118102Y158500D01*
X117994D01*
Y168500D01*
X124941D01*
X125000Y168495D01*
X125235Y168514D01*
X125235Y168514D01*
X125465Y168569D01*
X125683Y168659D01*
X125884Y168783D01*
X126064Y168936D01*
X126102Y168981D01*
X130305Y173183D01*
X130706Y173017D01*
X131345Y172864D01*
X132000Y172812D01*
X132655Y172864D01*
X133294Y173017D01*
X133901Y173269D01*
X134462Y173612D01*
X134961Y174039D01*
X135388Y174538D01*
X135731Y175099D01*
X135983Y175706D01*
X136136Y176345D01*
X136175Y177000D01*
X136136Y177655D01*
X135983Y178294D01*
X135731Y178901D01*
X135388Y179462D01*
X134961Y179961D01*
X134462Y180388D01*
X134279Y180500D01*
X136379D01*
X137073Y179806D01*
Y157687D01*
X136424Y157636D01*
X135785Y157483D01*
X135178Y157231D01*
X134617Y156888D01*
X134118Y156461D01*
X133691Y155962D01*
X133348Y155401D01*
X133096Y154794D01*
X132943Y154155D01*
X132891Y153500D01*
X132943Y152845D01*
X133096Y152206D01*
X133348Y151599D01*
X133691Y151038D01*
X134118Y150539D01*
X134617Y150112D01*
X135178Y149769D01*
X135785Y149517D01*
X136424Y149364D01*
X137073Y149313D01*
Y139500D01*
G37*
G36*
X131675Y223800D02*X143246D01*
Y180994D01*
X142655Y181136D01*
X142000Y181188D01*
X141345Y181136D01*
X140706Y180983D01*
X140305Y180817D01*
X138102Y183019D01*
X138064Y183064D01*
X137884Y183217D01*
X137683Y183341D01*
X137465Y183431D01*
X137235Y183486D01*
X137000Y183505D01*
X136941Y183500D01*
X131675D01*
Y196250D01*
X133931D01*
X134000Y196245D01*
X134274Y196266D01*
X134275Y196266D01*
X134542Y196331D01*
X134797Y196436D01*
X135032Y196580D01*
X135241Y196759D01*
X135286Y196811D01*
X139189Y200714D01*
X139241Y200759D01*
X139420Y200968D01*
X139564Y201203D01*
X139669Y201458D01*
X139734Y201725D01*
X139755Y202000D01*
X139750Y202069D01*
Y203206D01*
X139901Y203269D01*
X140462Y203612D01*
X140961Y204039D01*
X141388Y204538D01*
X141731Y205099D01*
X141983Y205706D01*
X142136Y206345D01*
X142175Y207000D01*
X142136Y207655D01*
X141983Y208294D01*
X141731Y208901D01*
X141388Y209462D01*
X140961Y209961D01*
X140462Y210388D01*
X139901Y210731D01*
X139294Y210983D01*
X138655Y211136D01*
X138000Y211188D01*
X137345Y211136D01*
X136706Y210983D01*
X136099Y210731D01*
X135538Y210388D01*
X135039Y209961D01*
X134612Y209462D01*
X134269Y208901D01*
X134017Y208294D01*
X133864Y207655D01*
X133812Y207000D01*
X133864Y206345D01*
X134017Y205706D01*
X134269Y205099D01*
X134612Y204538D01*
X135039Y204039D01*
X135538Y203612D01*
X136099Y203269D01*
X136250Y203206D01*
Y202725D01*
X133275Y199750D01*
X131675D01*
Y204323D01*
X131753Y204330D01*
X131830Y204348D01*
X131903Y204378D01*
X131970Y204419D01*
X132030Y204470D01*
X132081Y204530D01*
X132122Y204597D01*
X132152Y204670D01*
X132170Y204747D01*
X132175Y204825D01*
Y209175D01*
X132170Y209253D01*
X132152Y209330D01*
X132122Y209403D01*
X132081Y209470D01*
X132030Y209530D01*
X131970Y209581D01*
X131903Y209622D01*
X131830Y209652D01*
X131753Y209670D01*
X131675Y209677D01*
Y223800D01*
G37*
G36*
Y183500D02*X128000D01*
Y196250D01*
X131675D01*
Y183500D01*
G37*
G36*
X128000Y223800D02*X131675D01*
Y209677D01*
X131597Y209670D01*
X131520Y209652D01*
X131447Y209622D01*
X131380Y209581D01*
X131320Y209530D01*
X131269Y209470D01*
X131228Y209403D01*
X131198Y209330D01*
X131180Y209253D01*
X131175Y209175D01*
Y204825D01*
X131180Y204747D01*
X131198Y204670D01*
X131228Y204597D01*
X131269Y204530D01*
X131320Y204470D01*
X131380Y204419D01*
X131447Y204378D01*
X131520Y204348D01*
X131597Y204330D01*
X131675Y204323D01*
Y199750D01*
X128000D01*
Y202825D01*
X130175D01*
X130253Y202830D01*
X130330Y202848D01*
X130403Y202878D01*
X130470Y202919D01*
X130530Y202970D01*
X130581Y203030D01*
X130622Y203097D01*
X130652Y203170D01*
X130670Y203247D01*
X130677Y203325D01*
X130670Y203403D01*
X130652Y203480D01*
X130622Y203553D01*
X130581Y203620D01*
X130530Y203680D01*
X130470Y203731D01*
X130403Y203772D01*
X130330Y203802D01*
X130253Y203820D01*
X130175Y203825D01*
X128000D01*
Y210175D01*
X130175D01*
X130253Y210180D01*
X130330Y210198D01*
X130403Y210228D01*
X130470Y210269D01*
X130530Y210320D01*
X130581Y210380D01*
X130622Y210447D01*
X130652Y210520D01*
X130670Y210597D01*
X130677Y210675D01*
X130670Y210753D01*
X130652Y210830D01*
X130622Y210903D01*
X130581Y210970D01*
X130530Y211030D01*
X130470Y211081D01*
X130403Y211122D01*
X130330Y211152D01*
X130253Y211170D01*
X130175Y211175D01*
X128000D01*
Y223800D01*
G37*
G36*
Y183500D02*X125898D01*
X125731Y183901D01*
X125388Y184462D01*
X124961Y184961D01*
X124462Y185388D01*
X123901Y185731D01*
X123294Y185983D01*
X122655Y186136D01*
X122000Y186188D01*
X121345Y186136D01*
X120706Y185983D01*
X120099Y185731D01*
X119538Y185388D01*
X119039Y184961D01*
X118612Y184462D01*
X118269Y183901D01*
X118017Y183294D01*
X117994Y183196D01*
Y195519D01*
X118725Y196250D01*
X128000D01*
Y183500D01*
G37*
G36*
X124325Y223800D02*X128000D01*
Y211175D01*
X125825D01*
X125747Y211170D01*
X125670Y211152D01*
X125597Y211122D01*
X125530Y211081D01*
X125470Y211030D01*
X125419Y210970D01*
X125378Y210903D01*
X125348Y210830D01*
X125330Y210753D01*
X125323Y210675D01*
X125330Y210597D01*
X125348Y210520D01*
X125378Y210447D01*
X125419Y210380D01*
X125470Y210320D01*
X125530Y210269D01*
X125597Y210228D01*
X125670Y210198D01*
X125747Y210180D01*
X125825Y210175D01*
X128000D01*
Y203825D01*
X125825D01*
X125747Y203820D01*
X125670Y203802D01*
X125597Y203772D01*
X125530Y203731D01*
X125470Y203680D01*
X125419Y203620D01*
X125378Y203553D01*
X125348Y203480D01*
X125330Y203403D01*
X125323Y203325D01*
X125330Y203247D01*
X125348Y203170D01*
X125378Y203097D01*
X125419Y203030D01*
X125470Y202970D01*
X125530Y202919D01*
X125597Y202878D01*
X125670Y202848D01*
X125747Y202830D01*
X125825Y202825D01*
X128000D01*
Y199750D01*
X124325D01*
Y204323D01*
X124403Y204330D01*
X124480Y204348D01*
X124553Y204378D01*
X124620Y204419D01*
X124680Y204470D01*
X124731Y204530D01*
X124772Y204597D01*
X124802Y204670D01*
X124820Y204747D01*
X124825Y204825D01*
Y209175D01*
X124820Y209253D01*
X124802Y209330D01*
X124772Y209403D01*
X124731Y209470D01*
X124680Y209530D01*
X124620Y209581D01*
X124553Y209622D01*
X124480Y209652D01*
X124403Y209670D01*
X124325Y209677D01*
Y223800D01*
G37*
G36*
X117994D02*X124325D01*
Y209677D01*
X124247Y209670D01*
X124170Y209652D01*
X124097Y209622D01*
X124030Y209581D01*
X123970Y209530D01*
X123919Y209470D01*
X123878Y209403D01*
X123848Y209330D01*
X123830Y209253D01*
X123825Y209175D01*
Y204825D01*
X123830Y204747D01*
X123848Y204670D01*
X123878Y204597D01*
X123919Y204530D01*
X123970Y204470D01*
X124030Y204419D01*
X124097Y204378D01*
X124170Y204348D01*
X124247Y204330D01*
X124325Y204323D01*
Y199750D01*
X118069D01*
X118000Y199755D01*
X117994Y199755D01*
Y223800D01*
G37*
G36*
X69994Y153333D02*X70099Y153269D01*
X70500Y153102D01*
Y149121D01*
X69994Y148615D01*
Y153333D01*
G37*
G36*
X96994Y74000D02*X113879D01*
X116398Y71481D01*
X116436Y71436D01*
X116481Y71398D01*
X117994Y69885D01*
Y29700D01*
X96994D01*
Y36971D01*
X97260Y36660D01*
X97806Y36193D01*
X98420Y35817D01*
X99084Y35542D01*
X99783Y35374D01*
X100500Y35317D01*
X101217Y35374D01*
X101916Y35542D01*
X102580Y35817D01*
X103194Y36193D01*
X103740Y36660D01*
X104207Y37206D01*
X104583Y37820D01*
X104858Y38484D01*
X105026Y39183D01*
X105068Y39900D01*
X105026Y40617D01*
X104858Y41316D01*
X104583Y41980D01*
X104207Y42594D01*
X103740Y43140D01*
X103194Y43607D01*
X102580Y43983D01*
X101916Y44258D01*
X101217Y44426D01*
X100500Y44483D01*
X99783Y44426D01*
X99084Y44258D01*
X98420Y43983D01*
X97806Y43607D01*
X97260Y43140D01*
X96994Y42829D01*
Y62571D01*
X97260Y62260D01*
X97806Y61793D01*
X98420Y61417D01*
X99084Y61142D01*
X99783Y60974D01*
X100500Y60917D01*
X101217Y60974D01*
X101916Y61142D01*
X102580Y61417D01*
X103194Y61793D01*
X103740Y62260D01*
X104207Y62806D01*
X104583Y63420D01*
X104858Y64084D01*
X105026Y64783D01*
X105068Y65500D01*
X105026Y66217D01*
X104858Y66916D01*
X104583Y67580D01*
X104207Y68194D01*
X103740Y68740D01*
X103194Y69207D01*
X102580Y69583D01*
X101916Y69858D01*
X101217Y70026D01*
X100500Y70083D01*
X99783Y70026D01*
X99084Y69858D01*
X98420Y69583D01*
X97806Y69207D01*
X97260Y68740D01*
X96994Y68429D01*
Y74000D01*
G37*
G36*
Y90000D02*X98379D01*
X101898Y86481D01*
X101936Y86436D01*
X102115Y86283D01*
X102116Y86283D01*
X102317Y86159D01*
X102535Y86069D01*
X102765Y86014D01*
X103000Y85995D01*
X103059Y86000D01*
X117994D01*
Y77128D01*
X116602Y78519D01*
X116564Y78564D01*
X116384Y78717D01*
X116183Y78841D01*
X115965Y78931D01*
X115735Y78986D01*
X115500Y79005D01*
X115441Y79000D01*
X96994D01*
Y90000D01*
G37*
G36*
Y94385D02*X98379Y93000D01*
X96994D01*
Y94385D01*
G37*
G36*
X110994Y95313D02*X111000Y95312D01*
X111655Y95364D01*
X112294Y95517D01*
X112901Y95769D01*
X113462Y96112D01*
X113961Y96539D01*
X114388Y97038D01*
X114731Y97599D01*
X114898Y98000D01*
X117994D01*
Y91000D01*
X110994D01*
Y95313D01*
G37*
G36*
Y115313D02*X111000Y115312D01*
X111655Y115364D01*
X112294Y115517D01*
X112695Y115683D01*
X116398Y111981D01*
X116436Y111936D01*
X116615Y111783D01*
X116616Y111783D01*
X116817Y111659D01*
X117035Y111569D01*
X117265Y111514D01*
X117500Y111495D01*
X117559Y111500D01*
X117994D01*
Y101000D01*
X114898D01*
X114731Y101401D01*
X114388Y101962D01*
X113961Y102461D01*
X113462Y102888D01*
X112901Y103231D01*
X112294Y103483D01*
X111655Y103636D01*
X111000Y103688D01*
X110994Y103687D01*
Y105313D01*
X111000Y105312D01*
X111655Y105364D01*
X112294Y105517D01*
X112901Y105769D01*
X113462Y106112D01*
X113961Y106539D01*
X114388Y107038D01*
X114731Y107599D01*
X114983Y108206D01*
X115136Y108845D01*
X115175Y109500D01*
X115136Y110155D01*
X114983Y110794D01*
X114731Y111401D01*
X114388Y111962D01*
X113961Y112461D01*
X113462Y112888D01*
X112901Y113231D01*
X112294Y113483D01*
X111655Y113636D01*
X111000Y113688D01*
X110994Y113687D01*
Y115313D01*
G37*
G36*
Y129994D02*X117994Y136994D01*
Y114628D01*
X114817Y117805D01*
X114983Y118206D01*
X115136Y118845D01*
X115175Y119500D01*
X115136Y120155D01*
X114983Y120794D01*
X114731Y121401D01*
X114388Y121962D01*
X113961Y122461D01*
X113462Y122888D01*
X112901Y123231D01*
X112294Y123483D01*
X111655Y123636D01*
X111000Y123688D01*
X110994Y123687D01*
Y129994D01*
G37*
G36*
Y152948D02*X111345Y152864D01*
X112000Y152812D01*
X112655Y152864D01*
X113294Y153017D01*
X113901Y153269D01*
X114462Y153612D01*
X114961Y154039D01*
X115388Y154538D01*
X115731Y155099D01*
X115898Y155500D01*
X117994D01*
Y138994D01*
X110994Y131994D01*
Y152948D01*
G37*
G36*
Y168500D02*X117994D01*
Y158500D01*
X115898D01*
X115731Y158901D01*
X115388Y159462D01*
X114961Y159961D01*
X114462Y160388D01*
X113901Y160731D01*
X113294Y160983D01*
X112655Y161136D01*
X112000Y161188D01*
X111345Y161136D01*
X110994Y161052D01*
Y168500D01*
G37*
G36*
X96994D02*X110994D01*
Y161052D01*
X110706Y160983D01*
X110099Y160731D01*
X109538Y160388D01*
X109039Y159961D01*
X108612Y159462D01*
X108269Y158901D01*
X108017Y158294D01*
X107864Y157655D01*
X107812Y157000D01*
X107864Y156345D01*
X108017Y155706D01*
X108269Y155099D01*
X108612Y154538D01*
X109039Y154039D01*
X109538Y153612D01*
X110099Y153269D01*
X110706Y153017D01*
X110994Y152948D01*
Y131994D01*
X100500Y121500D01*
X101500Y120500D01*
X110994Y129994D01*
Y123687D01*
X110345Y123636D01*
X109706Y123483D01*
X109099Y123231D01*
X108538Y122888D01*
X108039Y122461D01*
X107612Y121962D01*
X107269Y121401D01*
X107017Y120794D01*
X106864Y120155D01*
X106812Y119500D01*
X106864Y118845D01*
X107017Y118206D01*
X107269Y117599D01*
X107612Y117038D01*
X108039Y116539D01*
X108538Y116112D01*
X109099Y115769D01*
X109706Y115517D01*
X110345Y115364D01*
X110994Y115313D01*
Y113687D01*
X110345Y113636D01*
X109706Y113483D01*
X109099Y113231D01*
X108538Y112888D01*
X108039Y112461D01*
X107612Y111962D01*
X107269Y111401D01*
X107017Y110794D01*
X106864Y110155D01*
X106812Y109500D01*
X106864Y108845D01*
X107017Y108206D01*
X107269Y107599D01*
X107612Y107038D01*
X108039Y106539D01*
X108538Y106112D01*
X109099Y105769D01*
X109706Y105517D01*
X110345Y105364D01*
X110994Y105313D01*
Y103687D01*
X110345Y103636D01*
X109706Y103483D01*
X109099Y103231D01*
X108538Y102888D01*
X108039Y102461D01*
X107612Y101962D01*
X107269Y101401D01*
X107017Y100794D01*
X106864Y100155D01*
X106812Y99500D01*
X106864Y98845D01*
X107017Y98206D01*
X107269Y97599D01*
X107612Y97038D01*
X108039Y96539D01*
X108538Y96112D01*
X109099Y95769D01*
X109706Y95517D01*
X110345Y95364D01*
X110994Y95313D01*
Y91000D01*
X104621D01*
X96994Y98628D01*
Y141019D01*
X103189Y147214D01*
X103241Y147259D01*
X103420Y147468D01*
X103420Y147468D01*
X103564Y147703D01*
X103669Y147958D01*
X103734Y148225D01*
X103755Y148500D01*
X103750Y148569D01*
Y153206D01*
X103901Y153269D01*
X104462Y153612D01*
X104961Y154039D01*
X105388Y154538D01*
X105731Y155099D01*
X105983Y155706D01*
X106136Y156345D01*
X106175Y157000D01*
X106136Y157655D01*
X105983Y158294D01*
X105731Y158901D01*
X105388Y159462D01*
X104961Y159961D01*
X104462Y160388D01*
X103901Y160731D01*
X103294Y160983D01*
X102655Y161136D01*
X102000Y161188D01*
X101345Y161136D01*
X100706Y160983D01*
X100099Y160731D01*
X99538Y160388D01*
X99039Y159961D01*
X98612Y159462D01*
X98269Y158901D01*
X98017Y158294D01*
X97864Y157655D01*
X97812Y157000D01*
X97864Y156345D01*
X98017Y155706D01*
X98269Y155099D01*
X98612Y154538D01*
X99039Y154039D01*
X99538Y153612D01*
X100099Y153269D01*
X100250Y153206D01*
Y149225D01*
X96994Y145968D01*
Y168500D01*
G37*
G36*
X90500Y153102D02*Y149121D01*
X89835Y148457D01*
Y153430D01*
X90099Y153269D01*
X90500Y153102D01*
G37*
G36*
X89835Y74000D02*X96994D01*
Y68429D01*
X96793Y68194D01*
X96417Y67580D01*
X96142Y66916D01*
X95974Y66217D01*
X95917Y65500D01*
X95974Y64783D01*
X96142Y64084D01*
X96417Y63420D01*
X96793Y62806D01*
X96994Y62571D01*
Y42829D01*
X96793Y42594D01*
X96417Y41980D01*
X96142Y41316D01*
X95974Y40617D01*
X95917Y39900D01*
X95974Y39183D01*
X96142Y38484D01*
X96417Y37820D01*
X96793Y37206D01*
X96994Y36971D01*
Y29700D01*
X89835D01*
Y74000D01*
G37*
G36*
Y87469D02*X89920Y87417D01*
X90584Y87142D01*
X91283Y86974D01*
X92000Y86917D01*
X92717Y86974D01*
X93416Y87142D01*
X94080Y87417D01*
X94694Y87793D01*
X95240Y88260D01*
X95707Y88806D01*
X96083Y89420D01*
X96324Y90000D01*
X96994D01*
Y79000D01*
X96621D01*
X96567Y79054D01*
X96559Y85225D01*
X96522Y85378D01*
X96462Y85524D01*
X96380Y85658D01*
X96278Y85778D01*
X96158Y85880D01*
X96024Y85962D01*
X95878Y86022D01*
X95725Y86059D01*
X95568Y86068D01*
X89835Y86061D01*
Y87469D01*
G37*
G36*
Y97469D02*X89920Y97417D01*
X90584Y97142D01*
X91283Y96974D01*
X92000Y96917D01*
X92717Y96974D01*
X93416Y97142D01*
X93997Y97382D01*
X96994Y94385D01*
Y93000D01*
X96324D01*
X96083Y93580D01*
X95707Y94194D01*
X95240Y94740D01*
X94694Y95207D01*
X94080Y95583D01*
X93416Y95858D01*
X92717Y96026D01*
X92000Y96083D01*
X91283Y96026D01*
X90584Y95858D01*
X89920Y95583D01*
X89835Y95531D01*
Y97469D01*
G37*
G36*
Y134930D02*X90099Y134769D01*
X90706Y134517D01*
X91345Y134364D01*
X92000Y134312D01*
X92655Y134364D01*
X93294Y134517D01*
X93901Y134769D01*
X94462Y135112D01*
X94961Y135539D01*
X95388Y136038D01*
X95731Y136599D01*
X95983Y137206D01*
X96136Y137845D01*
X96175Y138500D01*
X96136Y139155D01*
X95983Y139794D01*
X95920Y139945D01*
X96994Y141019D01*
Y98628D01*
X96118Y99503D01*
X96358Y100084D01*
X96526Y100783D01*
X96568Y101500D01*
X96526Y102217D01*
X96358Y102916D01*
X96083Y103580D01*
X95707Y104194D01*
X95240Y104740D01*
X94694Y105207D01*
X94080Y105583D01*
X93416Y105858D01*
X92717Y106026D01*
X92000Y106083D01*
X91283Y106026D01*
X90584Y105858D01*
X89920Y105583D01*
X89835Y105531D01*
Y114930D01*
X90099Y114769D01*
X90706Y114517D01*
X91345Y114364D01*
X92000Y114312D01*
X92655Y114364D01*
X93294Y114517D01*
X93901Y114769D01*
X94462Y115112D01*
X94961Y115539D01*
X95388Y116038D01*
X95731Y116599D01*
X95983Y117206D01*
X96136Y117845D01*
X96175Y118500D01*
X96136Y119155D01*
X95983Y119794D01*
X95731Y120401D01*
X95388Y120962D01*
X94961Y121461D01*
X94462Y121888D01*
X93901Y122231D01*
X93294Y122483D01*
X92655Y122636D01*
X92000Y122688D01*
X91345Y122636D01*
X90706Y122483D01*
X90099Y122231D01*
X89835Y122070D01*
Y124930D01*
X90099Y124769D01*
X90706Y124517D01*
X91345Y124364D01*
X92000Y124312D01*
X92655Y124364D01*
X93294Y124517D01*
X93901Y124769D01*
X94462Y125112D01*
X94961Y125539D01*
X95388Y126038D01*
X95731Y126599D01*
X95983Y127206D01*
X96136Y127845D01*
X96175Y128500D01*
X96136Y129155D01*
X95983Y129794D01*
X95731Y130401D01*
X95388Y130962D01*
X94961Y131461D01*
X94462Y131888D01*
X93901Y132231D01*
X93294Y132483D01*
X92655Y132636D01*
X92000Y132688D01*
X91345Y132636D01*
X90706Y132483D01*
X90305Y132317D01*
X89835Y132786D01*
Y134930D01*
G37*
G36*
Y168500D02*X91941D01*
X92000Y168495D01*
X92059Y168500D01*
X96994D01*
Y145968D01*
X93445Y142420D01*
X93294Y142483D01*
X92655Y142636D01*
X92000Y142688D01*
X91345Y142636D01*
X90706Y142483D01*
X90099Y142231D01*
X89835Y142070D01*
Y144214D01*
X93019Y147398D01*
X93064Y147436D01*
X93217Y147615D01*
X93217Y147616D01*
X93341Y147817D01*
X93431Y148035D01*
X93486Y148265D01*
X93505Y148500D01*
X93500Y148559D01*
Y153102D01*
X93901Y153269D01*
X94462Y153612D01*
X94961Y154039D01*
X95388Y154538D01*
X95731Y155099D01*
X95983Y155706D01*
X96136Y156345D01*
X96175Y157000D01*
X96136Y157655D01*
X95983Y158294D01*
X95731Y158901D01*
X95388Y159462D01*
X94961Y159961D01*
X94462Y160388D01*
X93901Y160731D01*
X93294Y160983D01*
X92655Y161136D01*
X92000Y161188D01*
X91345Y161136D01*
X90706Y160983D01*
X90099Y160731D01*
X89835Y160570D01*
Y168500D01*
G37*
G36*
Y142070D02*X89538Y141888D01*
X89039Y141461D01*
X88612Y140962D01*
X88269Y140401D01*
X88017Y139794D01*
X87864Y139155D01*
X87812Y138500D01*
X87864Y137845D01*
X88017Y137206D01*
X88269Y136599D01*
X88612Y136038D01*
X89039Y135539D01*
X89538Y135112D01*
X89835Y134930D01*
Y132786D01*
X86500Y136121D01*
Y140879D01*
X89835Y144214D01*
Y142070D01*
G37*
G36*
X81993Y86918D02*X82000Y86917D01*
X82717Y86974D01*
X83416Y87142D01*
X83997Y87382D01*
X85500Y85879D01*
Y84094D01*
X85456Y84094D01*
X85377Y84083D01*
X85302Y84059D01*
X85231Y84024D01*
X85166Y83978D01*
X85110Y83922D01*
X85062Y83859D01*
X85026Y83788D01*
X85000Y83713D01*
X84987Y83635D01*
X84986Y83556D01*
X84998Y83477D01*
X85022Y83402D01*
X85058Y83332D01*
X85214Y83051D01*
X85340Y82756D01*
X85439Y82451D01*
X85500Y82186D01*
Y80814D01*
X85439Y80549D01*
X85340Y80244D01*
X85214Y79949D01*
X85061Y79667D01*
X85025Y79597D01*
X85002Y79522D01*
X84990Y79444D01*
X84991Y79365D01*
X85004Y79288D01*
X85029Y79213D01*
X85065Y79143D01*
X85112Y79080D01*
X85169Y79025D01*
X85233Y78979D01*
X85303Y78944D01*
X85378Y78921D01*
X85456Y78909D01*
X85500Y78910D01*
Y77059D01*
X85495Y77000D01*
X85514Y76765D01*
X85569Y76535D01*
X85659Y76317D01*
X85783Y76116D01*
X85936Y75936D01*
X85981Y75898D01*
X87398Y74481D01*
X87436Y74436D01*
X87615Y74283D01*
X87616Y74283D01*
X87817Y74159D01*
X88035Y74069D01*
X88265Y74014D01*
X88500Y73995D01*
X88559Y74000D01*
X89835D01*
Y29700D01*
X81993D01*
Y35395D01*
X82083Y35374D01*
X82800Y35317D01*
X83517Y35374D01*
X84216Y35542D01*
X84880Y35817D01*
X85494Y36193D01*
X86040Y36660D01*
X86507Y37206D01*
X86883Y37820D01*
X87158Y38484D01*
X87326Y39183D01*
X87368Y39900D01*
X87326Y40617D01*
X87158Y41316D01*
X86883Y41980D01*
X86507Y42594D01*
X86040Y43140D01*
X85494Y43607D01*
X84880Y43983D01*
X84216Y44258D01*
X83517Y44426D01*
X82800Y44483D01*
X82083Y44426D01*
X81993Y44405D01*
Y60995D01*
X82083Y60974D01*
X82800Y60917D01*
X83517Y60974D01*
X84216Y61142D01*
X84880Y61417D01*
X85494Y61793D01*
X86040Y62260D01*
X86507Y62806D01*
X86883Y63420D01*
X87158Y64084D01*
X87326Y64783D01*
X87368Y65500D01*
X87326Y66217D01*
X87158Y66916D01*
X86883Y67580D01*
X86507Y68194D01*
X86040Y68740D01*
X85494Y69207D01*
X84880Y69583D01*
X84216Y69858D01*
X83517Y70026D01*
X82800Y70083D01*
X82083Y70026D01*
X81993Y70005D01*
Y76927D01*
X82000Y76927D01*
X82411Y76945D01*
X82818Y77001D01*
X83219Y77092D01*
X83610Y77220D01*
X83988Y77382D01*
X84350Y77577D01*
X84415Y77622D01*
X84471Y77678D01*
X84518Y77741D01*
X84555Y77812D01*
X84580Y77887D01*
X84594Y77965D01*
X84594Y78044D01*
X84583Y78123D01*
X84559Y78198D01*
X84524Y78269D01*
X84478Y78334D01*
X84422Y78390D01*
X84359Y78438D01*
X84288Y78474D01*
X84213Y78500D01*
X84135Y78513D01*
X84056Y78514D01*
X83977Y78502D01*
X83902Y78478D01*
X83832Y78442D01*
X83551Y78286D01*
X83256Y78160D01*
X82951Y78061D01*
X82638Y77989D01*
X82320Y77946D01*
X82000Y77932D01*
X81993Y77932D01*
Y85068D01*
X82000Y85068D01*
X82320Y85054D01*
X82638Y85011D01*
X82951Y84939D01*
X83256Y84840D01*
X83551Y84714D01*
X83833Y84561D01*
X83903Y84525D01*
X83978Y84502D01*
X84056Y84490D01*
X84135Y84491D01*
X84212Y84504D01*
X84287Y84529D01*
X84357Y84565D01*
X84420Y84612D01*
X84475Y84669D01*
X84521Y84733D01*
X84556Y84803D01*
X84579Y84878D01*
X84591Y84956D01*
X84590Y85035D01*
X84577Y85112D01*
X84552Y85187D01*
X84515Y85257D01*
X84468Y85320D01*
X84412Y85375D01*
X84347Y85419D01*
X83988Y85619D01*
X83610Y85780D01*
X83219Y85908D01*
X82818Y85999D01*
X82411Y86055D01*
X82000Y86073D01*
X81993Y86073D01*
Y86918D01*
G37*
G36*
Y168500D02*X89835D01*
Y160570D01*
X89538Y160388D01*
X89039Y159961D01*
X88612Y159462D01*
X88269Y158901D01*
X88017Y158294D01*
X87864Y157655D01*
X87812Y157000D01*
X87864Y156345D01*
X88017Y155706D01*
X88269Y155099D01*
X88612Y154538D01*
X89039Y154039D01*
X89538Y153612D01*
X89835Y153430D01*
Y148457D01*
X83981Y142602D01*
X83936Y142564D01*
X83783Y142384D01*
X83659Y142183D01*
X83569Y141965D01*
X83514Y141735D01*
X83514Y141735D01*
X83495Y141500D01*
X83500Y141441D01*
Y135559D01*
X83495Y135500D01*
X83514Y135265D01*
X83569Y135035D01*
X83659Y134817D01*
X83783Y134616D01*
X83936Y134436D01*
X83981Y134398D01*
X88183Y130195D01*
X88017Y129794D01*
X87864Y129155D01*
X87812Y128500D01*
X87864Y127845D01*
X88017Y127206D01*
X88269Y126599D01*
X88612Y126038D01*
X89039Y125539D01*
X89538Y125112D01*
X89835Y124930D01*
Y122070D01*
X89538Y121888D01*
X89039Y121461D01*
X88612Y120962D01*
X88269Y120401D01*
X88017Y119794D01*
X87864Y119155D01*
X87812Y118500D01*
X87864Y117845D01*
X88017Y117206D01*
X88269Y116599D01*
X88612Y116038D01*
X89039Y115539D01*
X89538Y115112D01*
X89835Y114930D01*
Y105531D01*
X89306Y105207D01*
X88760Y104740D01*
X88293Y104194D01*
X87917Y103580D01*
X87642Y102916D01*
X87474Y102217D01*
X87417Y101500D01*
X87474Y100783D01*
X87642Y100084D01*
X87917Y99420D01*
X88293Y98806D01*
X88760Y98260D01*
X89306Y97793D01*
X89835Y97469D01*
Y95531D01*
X89306Y95207D01*
X88760Y94740D01*
X88293Y94194D01*
X87917Y93580D01*
X87642Y92916D01*
X87474Y92217D01*
X87417Y91500D01*
X87474Y90783D01*
X87642Y90084D01*
X87917Y89420D01*
X88293Y88806D01*
X88760Y88260D01*
X89306Y87793D01*
X89835Y87469D01*
Y86061D01*
X88500Y86060D01*
Y86441D01*
X88505Y86500D01*
X88486Y86735D01*
X88486Y86735D01*
X88431Y86965D01*
X88341Y87183D01*
X88217Y87384D01*
X88064Y87564D01*
X88019Y87602D01*
X86118Y89503D01*
X86358Y90084D01*
X86526Y90783D01*
X86568Y91500D01*
X86526Y92217D01*
X86358Y92916D01*
X86083Y93580D01*
X85707Y94194D01*
X85240Y94740D01*
X84694Y95207D01*
X84080Y95583D01*
X83416Y95858D01*
X82717Y96026D01*
X82000Y96083D01*
X81993Y96082D01*
Y96918D01*
X82000Y96917D01*
X82717Y96974D01*
X83416Y97142D01*
X84080Y97417D01*
X84694Y97793D01*
X85240Y98260D01*
X85707Y98806D01*
X86083Y99420D01*
X86358Y100084D01*
X86526Y100783D01*
X86568Y101500D01*
X86526Y102217D01*
X86358Y102916D01*
X86083Y103580D01*
X85707Y104194D01*
X85240Y104740D01*
X84694Y105207D01*
X84080Y105583D01*
X83416Y105858D01*
X82717Y106026D01*
X82000Y106083D01*
X81993Y106082D01*
Y146018D01*
X83189Y147214D01*
X83241Y147259D01*
X83420Y147468D01*
X83420Y147468D01*
X83564Y147703D01*
X83669Y147958D01*
X83734Y148225D01*
X83755Y148500D01*
X83750Y148569D01*
Y153206D01*
X83901Y153269D01*
X84462Y153612D01*
X84961Y154039D01*
X85388Y154538D01*
X85731Y155099D01*
X85983Y155706D01*
X86136Y156345D01*
X86175Y157000D01*
X86136Y157655D01*
X85983Y158294D01*
X85731Y158901D01*
X85388Y159462D01*
X84961Y159961D01*
X84462Y160388D01*
X83901Y160731D01*
X83294Y160983D01*
X82655Y161136D01*
X82000Y161188D01*
X81993Y161187D01*
Y168500D01*
G37*
G36*
X78220Y142245D02*X81993Y146018D01*
Y106082D01*
X81283Y106026D01*
X80584Y105858D01*
X79920Y105583D01*
X79306Y105207D01*
X78760Y104740D01*
X78293Y104194D01*
X78220Y104075D01*
Y142245D01*
G37*
G36*
Y39864D02*X78274Y39183D01*
X78442Y38484D01*
X78717Y37820D01*
X79093Y37206D01*
X79560Y36660D01*
X80106Y36193D01*
X80720Y35817D01*
X81384Y35542D01*
X81993Y35395D01*
Y29700D01*
X78220D01*
Y39864D01*
G37*
G36*
Y65464D02*X78274Y64783D01*
X78442Y64084D01*
X78717Y63420D01*
X79093Y62806D01*
X79560Y62260D01*
X80106Y61793D01*
X80720Y61417D01*
X81384Y61142D01*
X81993Y60995D01*
Y44405D01*
X81384Y44258D01*
X80720Y43983D01*
X80106Y43607D01*
X79560Y43140D01*
X79093Y42594D01*
X78717Y41980D01*
X78442Y41316D01*
X78274Y40617D01*
X78220Y39936D01*
Y65464D01*
G37*
G36*
Y88925D02*X78293Y88806D01*
X78760Y88260D01*
X79306Y87793D01*
X79920Y87417D01*
X80584Y87142D01*
X81283Y86974D01*
X81993Y86918D01*
Y86073D01*
X81589Y86055D01*
X81182Y85999D01*
X80781Y85908D01*
X80390Y85780D01*
X80012Y85619D01*
X79650Y85423D01*
X79585Y85378D01*
X79529Y85322D01*
X79482Y85259D01*
X79445Y85188D01*
X79420Y85113D01*
X79406Y85035D01*
X79406Y84956D01*
X79417Y84877D01*
X79441Y84802D01*
X79476Y84731D01*
X79522Y84666D01*
X79578Y84610D01*
X79641Y84562D01*
X79712Y84526D01*
X79787Y84500D01*
X79865Y84487D01*
X79944Y84486D01*
X80023Y84498D01*
X80098Y84522D01*
X80168Y84558D01*
X80449Y84714D01*
X80744Y84840D01*
X81049Y84939D01*
X81362Y85011D01*
X81680Y85054D01*
X81993Y85068D01*
Y77932D01*
X81680Y77946D01*
X81362Y77989D01*
X81049Y78061D01*
X80744Y78160D01*
X80449Y78286D01*
X80167Y78439D01*
X80097Y78475D01*
X80022Y78498D01*
X79944Y78510D01*
X79865Y78509D01*
X79788Y78496D01*
X79713Y78471D01*
X79643Y78435D01*
X79580Y78388D01*
X79525Y78331D01*
X79479Y78267D01*
X79444Y78197D01*
X79421Y78122D01*
X79409Y78044D01*
X79410Y77965D01*
X79423Y77888D01*
X79448Y77813D01*
X79485Y77743D01*
X79532Y77680D01*
X79588Y77625D01*
X79653Y77581D01*
X80012Y77382D01*
X80390Y77220D01*
X80781Y77092D01*
X81182Y77001D01*
X81589Y76945D01*
X81993Y76927D01*
Y70005D01*
X81384Y69858D01*
X80720Y69583D01*
X80106Y69207D01*
X79560Y68740D01*
X79093Y68194D01*
X78717Y67580D01*
X78442Y66916D01*
X78274Y66217D01*
X78220Y65536D01*
Y78997D01*
X78241Y78982D01*
X78312Y78945D01*
X78387Y78920D01*
X78465Y78906D01*
X78544Y78906D01*
X78623Y78917D01*
X78698Y78941D01*
X78769Y78976D01*
X78834Y79022D01*
X78890Y79078D01*
X78938Y79141D01*
X78974Y79212D01*
X79000Y79287D01*
X79013Y79365D01*
X79014Y79444D01*
X79002Y79523D01*
X78978Y79598D01*
X78942Y79668D01*
X78786Y79949D01*
X78660Y80244D01*
X78561Y80549D01*
X78489Y80862D01*
X78446Y81180D01*
X78432Y81500D01*
X78446Y81820D01*
X78489Y82138D01*
X78561Y82451D01*
X78660Y82756D01*
X78786Y83051D01*
X78939Y83333D01*
X78975Y83403D01*
X78998Y83478D01*
X79010Y83556D01*
X79009Y83635D01*
X78996Y83712D01*
X78971Y83787D01*
X78935Y83857D01*
X78888Y83920D01*
X78831Y83975D01*
X78767Y84021D01*
X78697Y84056D01*
X78622Y84079D01*
X78544Y84091D01*
X78465Y84090D01*
X78388Y84077D01*
X78313Y84052D01*
X78243Y84015D01*
X78220Y83998D01*
Y88925D01*
G37*
G36*
X81993Y96082D02*X81283Y96026D01*
X80584Y95858D01*
X79920Y95583D01*
X79306Y95207D01*
X78760Y94740D01*
X78293Y94194D01*
X78220Y94075D01*
Y98925D01*
X78293Y98806D01*
X78760Y98260D01*
X79306Y97793D01*
X79920Y97417D01*
X80584Y97142D01*
X81283Y96974D01*
X81993Y96918D01*
Y96082D01*
G37*
G36*
X78220Y94075D02*X77917Y93580D01*
X77642Y92916D01*
X77474Y92217D01*
X77417Y91500D01*
X77474Y90783D01*
X77642Y90084D01*
X77917Y89420D01*
X78220Y88925D01*
Y83998D01*
X78180Y83968D01*
X78125Y83912D01*
X78081Y83847D01*
X77881Y83488D01*
X77720Y83110D01*
X77592Y82719D01*
X77501Y82318D01*
X77445Y81911D01*
X77427Y81500D01*
X77445Y81089D01*
X77501Y80682D01*
X77592Y80281D01*
X77720Y79890D01*
X77881Y79512D01*
X78077Y79150D01*
X78122Y79085D01*
X78178Y79029D01*
X78220Y78997D01*
Y65536D01*
X78217Y65500D01*
X78220Y65464D01*
Y39936D01*
X78217Y39900D01*
X78220Y39864D01*
Y29700D01*
X69994D01*
Y114833D01*
X70099Y114769D01*
X70706Y114517D01*
X71345Y114364D01*
X72000Y114312D01*
X72655Y114364D01*
X73294Y114517D01*
X73901Y114769D01*
X74462Y115112D01*
X74961Y115539D01*
X75388Y116038D01*
X75731Y116599D01*
X75983Y117206D01*
X76136Y117845D01*
X76175Y118500D01*
X76136Y119155D01*
X75983Y119794D01*
X75731Y120401D01*
X75388Y120962D01*
X74961Y121461D01*
X74462Y121888D01*
X73901Y122231D01*
X73294Y122483D01*
X72655Y122636D01*
X72000Y122688D01*
X71345Y122636D01*
X70706Y122483D01*
X70099Y122231D01*
X69994Y122167D01*
Y124833D01*
X70099Y124769D01*
X70706Y124517D01*
X71345Y124364D01*
X72000Y124312D01*
X72655Y124364D01*
X73294Y124517D01*
X73901Y124769D01*
X74462Y125112D01*
X74961Y125539D01*
X75388Y126038D01*
X75731Y126599D01*
X75983Y127206D01*
X76136Y127845D01*
X76175Y128500D01*
X76136Y129155D01*
X75983Y129794D01*
X75731Y130401D01*
X75388Y130962D01*
X74961Y131461D01*
X74462Y131888D01*
X73901Y132231D01*
X73294Y132483D01*
X72655Y132636D01*
X72000Y132688D01*
X71345Y132636D01*
X70706Y132483D01*
X70305Y132317D01*
X69994Y132628D01*
Y134833D01*
X70099Y134769D01*
X70706Y134517D01*
X71345Y134364D01*
X72000Y134312D01*
X72655Y134364D01*
X73294Y134517D01*
X73901Y134769D01*
X74462Y135112D01*
X74961Y135539D01*
X75388Y136038D01*
X75731Y136599D01*
X75983Y137206D01*
X76136Y137845D01*
X76175Y138500D01*
X76136Y139155D01*
X75983Y139794D01*
X75920Y139945D01*
X78220Y142245D01*
Y104075D01*
X77917Y103580D01*
X77642Y102916D01*
X77474Y102217D01*
X77417Y101500D01*
X77474Y100783D01*
X77642Y100084D01*
X77917Y99420D01*
X78220Y98925D01*
Y94075D01*
G37*
G36*
X69994Y168500D02*X71941D01*
X72000Y168495D01*
X72059Y168500D01*
X81993D01*
Y161187D01*
X81345Y161136D01*
X80706Y160983D01*
X80099Y160731D01*
X79538Y160388D01*
X79039Y159961D01*
X78612Y159462D01*
X78269Y158901D01*
X78017Y158294D01*
X77864Y157655D01*
X77812Y157000D01*
X77864Y156345D01*
X78017Y155706D01*
X78269Y155099D01*
X78612Y154538D01*
X79039Y154039D01*
X79538Y153612D01*
X80099Y153269D01*
X80250Y153206D01*
Y149225D01*
X73445Y142420D01*
X73294Y142483D01*
X72655Y142636D01*
X72000Y142688D01*
X71345Y142636D01*
X70706Y142483D01*
X70099Y142231D01*
X69994Y142167D01*
Y144372D01*
X73019Y147398D01*
X73064Y147436D01*
X73217Y147615D01*
X73217Y147616D01*
X73341Y147817D01*
X73431Y148035D01*
X73486Y148265D01*
X73505Y148500D01*
X73500Y148559D01*
Y153102D01*
X73901Y153269D01*
X74462Y153612D01*
X74961Y154039D01*
X75388Y154538D01*
X75731Y155099D01*
X75983Y155706D01*
X76136Y156345D01*
X76175Y157000D01*
X76136Y157655D01*
X75983Y158294D01*
X75731Y158901D01*
X75388Y159462D01*
X74961Y159961D01*
X74462Y160388D01*
X73901Y160731D01*
X73294Y160983D01*
X72655Y161136D01*
X72000Y161188D01*
X71345Y161136D01*
X70706Y160983D01*
X70099Y160731D01*
X69994Y160667D01*
Y168500D01*
G37*
G36*
Y178333D02*X70099Y178269D01*
X70500Y178102D01*
Y171500D01*
X69994D01*
Y178333D01*
G37*
G36*
X115436Y192961D02*X117994Y195519D01*
Y183196D01*
X117864Y182655D01*
X117812Y182000D01*
X117864Y181345D01*
X117994Y180804D01*
Y171500D01*
X115436D01*
Y179754D01*
X115479Y179778D01*
X115541Y179826D01*
X115594Y179884D01*
X115637Y179950D01*
X115816Y180296D01*
X115959Y180659D01*
X116066Y181034D01*
X116139Y181417D01*
X116175Y181805D01*
Y182195D01*
X116139Y182583D01*
X116066Y182966D01*
X115959Y183341D01*
X115816Y183704D01*
X115641Y184052D01*
X115597Y184118D01*
X115543Y184176D01*
X115481Y184225D01*
X115436Y184250D01*
Y192961D01*
G37*
G36*
X112002Y189527D02*X115436Y192961D01*
Y184250D01*
X115412Y184264D01*
X115337Y184291D01*
X115259Y184306D01*
X115180Y184309D01*
X115102Y184300D01*
X115025Y184278D01*
X114953Y184245D01*
X114888Y184200D01*
X114830Y184146D01*
X114781Y184084D01*
X114742Y184015D01*
X114715Y183940D01*
X114700Y183863D01*
X114697Y183783D01*
X114706Y183705D01*
X114728Y183628D01*
X114763Y183557D01*
X114899Y183295D01*
X115007Y183019D01*
X115089Y182734D01*
X115144Y182443D01*
X115172Y182148D01*
Y181852D01*
X115144Y181557D01*
X115089Y181266D01*
X115007Y180981D01*
X114899Y180705D01*
X114766Y180441D01*
X114731Y180370D01*
X114710Y180295D01*
X114700Y180216D01*
X114703Y180138D01*
X114718Y180061D01*
X114745Y179987D01*
X114784Y179918D01*
X114832Y179856D01*
X114890Y179802D01*
X114955Y179759D01*
X115027Y179725D01*
X115102Y179704D01*
X115180Y179694D01*
X115259Y179697D01*
X115336Y179712D01*
X115410Y179739D01*
X115436Y179754D01*
Y171500D01*
X112002D01*
Y177825D01*
X112195D01*
X112583Y177861D01*
X112966Y177934D01*
X113341Y178041D01*
X113704Y178184D01*
X114052Y178359D01*
X114118Y178403D01*
X114176Y178457D01*
X114225Y178519D01*
X114264Y178588D01*
X114291Y178663D01*
X114306Y178741D01*
X114309Y178820D01*
X114300Y178898D01*
X114278Y178975D01*
X114245Y179047D01*
X114200Y179112D01*
X114146Y179170D01*
X114084Y179219D01*
X114015Y179258D01*
X113940Y179285D01*
X113863Y179300D01*
X113783Y179303D01*
X113705Y179294D01*
X113628Y179272D01*
X113557Y179237D01*
X113295Y179101D01*
X113019Y178993D01*
X112734Y178911D01*
X112443Y178856D01*
X112148Y178828D01*
X112002D01*
Y185172D01*
X112148D01*
X112443Y185144D01*
X112734Y185089D01*
X113019Y185007D01*
X113295Y184899D01*
X113559Y184766D01*
X113630Y184731D01*
X113705Y184710D01*
X113784Y184700D01*
X113862Y184703D01*
X113939Y184718D01*
X114013Y184745D01*
X114082Y184784D01*
X114144Y184832D01*
X114198Y184890D01*
X114241Y184955D01*
X114275Y185027D01*
X114296Y185102D01*
X114306Y185180D01*
X114303Y185259D01*
X114288Y185336D01*
X114261Y185410D01*
X114222Y185479D01*
X114174Y185541D01*
X114116Y185594D01*
X114050Y185637D01*
X113704Y185816D01*
X113341Y185959D01*
X112966Y186066D01*
X112583Y186139D01*
X112195Y186175D01*
X112002D01*
Y189527D01*
G37*
G36*
X108564Y186089D02*X112002Y189527D01*
Y186175D01*
X111805D01*
X111417Y186139D01*
X111034Y186066D01*
X110659Y185959D01*
X110296Y185816D01*
X109948Y185641D01*
X109882Y185597D01*
X109824Y185543D01*
X109775Y185481D01*
X109736Y185412D01*
X109709Y185337D01*
X109694Y185259D01*
X109691Y185180D01*
X109700Y185102D01*
X109722Y185025D01*
X109755Y184953D01*
X109800Y184888D01*
X109854Y184830D01*
X109916Y184781D01*
X109985Y184742D01*
X110060Y184715D01*
X110137Y184700D01*
X110217Y184697D01*
X110295Y184706D01*
X110372Y184728D01*
X110443Y184763D01*
X110705Y184899D01*
X110981Y185007D01*
X111266Y185089D01*
X111557Y185144D01*
X111852Y185172D01*
X112002D01*
Y178828D01*
X111852D01*
X111557Y178856D01*
X111266Y178911D01*
X110981Y178993D01*
X110705Y179101D01*
X110441Y179234D01*
X110370Y179269D01*
X110295Y179290D01*
X110216Y179300D01*
X110138Y179297D01*
X110061Y179282D01*
X109987Y179255D01*
X109918Y179216D01*
X109856Y179168D01*
X109802Y179110D01*
X109759Y179045D01*
X109725Y178973D01*
X109704Y178898D01*
X109694Y178820D01*
X109697Y178741D01*
X109712Y178664D01*
X109739Y178590D01*
X109778Y178521D01*
X109826Y178459D01*
X109884Y178406D01*
X109950Y178363D01*
X110296Y178184D01*
X110659Y178041D01*
X111034Y177934D01*
X111417Y177861D01*
X111805Y177825D01*
X112002D01*
Y171500D01*
X108564D01*
Y179750D01*
X108588Y179736D01*
X108663Y179709D01*
X108741Y179694D01*
X108820Y179691D01*
X108898Y179700D01*
X108975Y179722D01*
X109047Y179755D01*
X109112Y179800D01*
X109170Y179854D01*
X109219Y179916D01*
X109258Y179985D01*
X109285Y180060D01*
X109300Y180137D01*
X109303Y180217D01*
X109294Y180295D01*
X109272Y180372D01*
X109237Y180443D01*
X109101Y180705D01*
X108993Y180981D01*
X108911Y181266D01*
X108856Y181557D01*
X108828Y181852D01*
Y182148D01*
X108856Y182443D01*
X108911Y182734D01*
X108993Y183019D01*
X109101Y183295D01*
X109234Y183559D01*
X109269Y183630D01*
X109290Y183705D01*
X109300Y183784D01*
X109297Y183862D01*
X109282Y183939D01*
X109255Y184013D01*
X109216Y184082D01*
X109168Y184144D01*
X109110Y184198D01*
X109045Y184241D01*
X108973Y184275D01*
X108898Y184296D01*
X108820Y184306D01*
X108741Y184303D01*
X108664Y184288D01*
X108590Y184261D01*
X108564Y184246D01*
Y186089D01*
G37*
G36*
X98000Y180777D02*X98017Y180706D01*
X98269Y180099D01*
X98612Y179538D01*
X99039Y179039D01*
X99538Y178612D01*
X100099Y178269D01*
X100706Y178017D01*
X101345Y177864D01*
X102000Y177812D01*
X102655Y177864D01*
X103294Y178017D01*
X103901Y178269D01*
X104462Y178612D01*
X104961Y179039D01*
X105388Y179538D01*
X105731Y180099D01*
X105983Y180706D01*
X106136Y181345D01*
X106175Y182000D01*
X106136Y182655D01*
X105983Y183294D01*
X105920Y183445D01*
X108564Y186089D01*
Y184246D01*
X108521Y184222D01*
X108459Y184174D01*
X108406Y184116D01*
X108363Y184050D01*
X108184Y183704D01*
X108041Y183341D01*
X107934Y182966D01*
X107861Y182583D01*
X107825Y182195D01*
Y181805D01*
X107861Y181417D01*
X107934Y181034D01*
X108041Y180659D01*
X108184Y180296D01*
X108359Y179948D01*
X108403Y179882D01*
X108457Y179824D01*
X108519Y179775D01*
X108564Y179750D01*
Y171500D01*
X98000D01*
Y180777D01*
G37*
G36*
X101675Y223800D02*X117994D01*
Y199755D01*
X117725Y199734D01*
X117458Y199669D01*
X117203Y199564D01*
X116968Y199420D01*
X116968Y199420D01*
X116759Y199241D01*
X116714Y199189D01*
X103445Y185920D01*
X103294Y185983D01*
X102655Y186136D01*
X102000Y186188D01*
X101675Y186162D01*
Y196250D01*
X103931D01*
X104000Y196245D01*
X104274Y196266D01*
X104275Y196266D01*
X104542Y196331D01*
X104797Y196436D01*
X105032Y196580D01*
X105241Y196759D01*
X105286Y196811D01*
X109189Y200714D01*
X109241Y200759D01*
X109420Y200968D01*
X109564Y201203D01*
X109669Y201458D01*
X109734Y201725D01*
X109755Y202000D01*
X109750Y202069D01*
Y203206D01*
X109901Y203269D01*
X110462Y203612D01*
X110961Y204039D01*
X111388Y204538D01*
X111731Y205099D01*
X111983Y205706D01*
X112136Y206345D01*
X112175Y207000D01*
X112136Y207655D01*
X111983Y208294D01*
X111731Y208901D01*
X111388Y209462D01*
X110961Y209961D01*
X110462Y210388D01*
X109901Y210731D01*
X109294Y210983D01*
X108655Y211136D01*
X108000Y211188D01*
X107345Y211136D01*
X106706Y210983D01*
X106099Y210731D01*
X105538Y210388D01*
X105039Y209961D01*
X104612Y209462D01*
X104269Y208901D01*
X104017Y208294D01*
X103864Y207655D01*
X103812Y207000D01*
X103864Y206345D01*
X104017Y205706D01*
X104269Y205099D01*
X104612Y204538D01*
X105039Y204039D01*
X105538Y203612D01*
X106099Y203269D01*
X106250Y203206D01*
Y202725D01*
X103275Y199750D01*
X101675D01*
Y204323D01*
X101753Y204330D01*
X101830Y204348D01*
X101903Y204378D01*
X101970Y204419D01*
X102030Y204470D01*
X102081Y204530D01*
X102122Y204597D01*
X102152Y204670D01*
X102170Y204747D01*
X102175Y204825D01*
Y209175D01*
X102170Y209253D01*
X102152Y209330D01*
X102122Y209403D01*
X102081Y209470D01*
X102030Y209530D01*
X101970Y209581D01*
X101903Y209622D01*
X101830Y209652D01*
X101753Y209670D01*
X101675Y209677D01*
Y223800D01*
G37*
G36*
Y186162D02*X101345Y186136D01*
X100706Y185983D01*
X100099Y185731D01*
X99538Y185388D01*
X99039Y184961D01*
X98612Y184462D01*
X98269Y183901D01*
X98017Y183294D01*
X98000Y183223D01*
Y195525D01*
X98725Y196250D01*
X101675D01*
Y186162D01*
G37*
G36*
X98000Y223800D02*X101675D01*
Y209677D01*
X101597Y209670D01*
X101520Y209652D01*
X101447Y209622D01*
X101380Y209581D01*
X101320Y209530D01*
X101269Y209470D01*
X101228Y209403D01*
X101198Y209330D01*
X101180Y209253D01*
X101175Y209175D01*
Y204825D01*
X101180Y204747D01*
X101198Y204670D01*
X101228Y204597D01*
X101269Y204530D01*
X101320Y204470D01*
X101380Y204419D01*
X101447Y204378D01*
X101520Y204348D01*
X101597Y204330D01*
X101675Y204323D01*
Y199750D01*
X98069D01*
X98000Y199755D01*
Y202825D01*
X100175D01*
X100253Y202830D01*
X100330Y202848D01*
X100403Y202878D01*
X100470Y202919D01*
X100530Y202970D01*
X100581Y203030D01*
X100622Y203097D01*
X100652Y203170D01*
X100670Y203247D01*
X100677Y203325D01*
X100670Y203403D01*
X100652Y203480D01*
X100622Y203553D01*
X100581Y203620D01*
X100530Y203680D01*
X100470Y203731D01*
X100403Y203772D01*
X100330Y203802D01*
X100253Y203820D01*
X100175Y203825D01*
X98000D01*
Y210175D01*
X100175D01*
X100253Y210180D01*
X100330Y210198D01*
X100403Y210228D01*
X100470Y210269D01*
X100530Y210320D01*
X100581Y210380D01*
X100622Y210447D01*
X100652Y210520D01*
X100670Y210597D01*
X100677Y210675D01*
X100670Y210753D01*
X100652Y210830D01*
X100622Y210903D01*
X100581Y210970D01*
X100530Y211030D01*
X100470Y211081D01*
X100403Y211122D01*
X100330Y211152D01*
X100253Y211170D01*
X100175Y211175D01*
X98000D01*
Y223800D01*
G37*
G36*
Y183223D02*X97864Y182655D01*
X97812Y182000D01*
X97864Y181345D01*
X98000Y180777D01*
Y171500D01*
X94994D01*
Y179077D01*
X95388Y179538D01*
X95731Y180099D01*
X95983Y180706D01*
X96136Y181345D01*
X96175Y182000D01*
X96136Y182655D01*
X95983Y183294D01*
X95731Y183901D01*
X95388Y184462D01*
X94994Y184923D01*
Y192519D01*
X98000Y195525D01*
Y183223D01*
G37*
G36*
X94994Y223800D02*X98000D01*
Y211175D01*
X95825D01*
X95747Y211170D01*
X95670Y211152D01*
X95597Y211122D01*
X95530Y211081D01*
X95470Y211030D01*
X95419Y210970D01*
X95378Y210903D01*
X95348Y210830D01*
X95330Y210753D01*
X95323Y210675D01*
X95330Y210597D01*
X95348Y210520D01*
X95378Y210447D01*
X95419Y210380D01*
X95470Y210320D01*
X95530Y210269D01*
X95597Y210228D01*
X95670Y210198D01*
X95747Y210180D01*
X95825Y210175D01*
X98000D01*
Y203825D01*
X95825D01*
X95747Y203820D01*
X95670Y203802D01*
X95597Y203772D01*
X95530Y203731D01*
X95470Y203680D01*
X95419Y203620D01*
X95378Y203553D01*
X95348Y203480D01*
X95330Y203403D01*
X95323Y203325D01*
X95330Y203247D01*
X95348Y203170D01*
X95378Y203097D01*
X95419Y203030D01*
X95470Y202970D01*
X95530Y202919D01*
X95597Y202878D01*
X95670Y202848D01*
X95747Y202830D01*
X95825Y202825D01*
X98000D01*
Y199755D01*
X98000D01*
X97725Y199734D01*
X97458Y199669D01*
X97203Y199564D01*
X96968Y199420D01*
X96759Y199241D01*
X96714Y199189D01*
X94994Y197468D01*
Y223800D01*
G37*
G36*
Y171500D02*X93500D01*
Y178102D01*
X93901Y178269D01*
X94462Y178612D01*
X94961Y179039D01*
X94994Y179077D01*
Y171500D01*
G37*
G36*
X94325Y191850D02*X94994Y192519D01*
Y184923D01*
X94961Y184961D01*
X94462Y185388D01*
X94325Y185472D01*
Y191850D01*
G37*
G36*
Y223800D02*X94994D01*
Y197468D01*
X94325Y196800D01*
Y204323D01*
X94403Y204330D01*
X94480Y204348D01*
X94553Y204378D01*
X94620Y204419D01*
X94680Y204470D01*
X94731Y204530D01*
X94772Y204597D01*
X94802Y204670D01*
X94820Y204747D01*
X94825Y204825D01*
Y209175D01*
X94820Y209253D01*
X94802Y209330D01*
X94772Y209403D01*
X94731Y209470D01*
X94680Y209530D01*
X94620Y209581D01*
X94553Y209622D01*
X94480Y209652D01*
X94403Y209670D01*
X94325Y209677D01*
Y223800D01*
G37*
G36*
X71675D02*X94325D01*
Y209677D01*
X94247Y209670D01*
X94170Y209652D01*
X94097Y209622D01*
X94030Y209581D01*
X93970Y209530D01*
X93919Y209470D01*
X93878Y209403D01*
X93848Y209330D01*
X93830Y209253D01*
X93825Y209175D01*
Y204825D01*
X93830Y204747D01*
X93848Y204670D01*
X93878Y204597D01*
X93919Y204530D01*
X93970Y204470D01*
X94030Y204419D01*
X94097Y204378D01*
X94170Y204348D01*
X94247Y204330D01*
X94325Y204323D01*
Y196800D01*
X83445Y185920D01*
X83294Y185983D01*
X82655Y186136D01*
X82000Y186188D01*
X81345Y186136D01*
X80706Y185983D01*
X80099Y185731D01*
X79538Y185388D01*
X79039Y184961D01*
X78612Y184462D01*
X78269Y183901D01*
X78017Y183294D01*
X77864Y182655D01*
X77812Y182000D01*
X77864Y181345D01*
X78017Y180706D01*
X78269Y180099D01*
X78612Y179538D01*
X79039Y179039D01*
X79538Y178612D01*
X80099Y178269D01*
X80706Y178017D01*
X81345Y177864D01*
X82000Y177812D01*
X82655Y177864D01*
X83294Y178017D01*
X83901Y178269D01*
X84462Y178612D01*
X84961Y179039D01*
X85388Y179538D01*
X85731Y180099D01*
X85983Y180706D01*
X86136Y181345D01*
X86175Y182000D01*
X86136Y182655D01*
X85983Y183294D01*
X85920Y183445D01*
X94325Y191850D01*
Y185472D01*
X93901Y185731D01*
X93294Y185983D01*
X92655Y186136D01*
X92000Y186188D01*
X91345Y186136D01*
X90706Y185983D01*
X90099Y185731D01*
X89538Y185388D01*
X89039Y184961D01*
X88612Y184462D01*
X88269Y183901D01*
X88017Y183294D01*
X87864Y182655D01*
X87812Y182000D01*
X87864Y181345D01*
X88017Y180706D01*
X88269Y180099D01*
X88612Y179538D01*
X89039Y179039D01*
X89538Y178612D01*
X90099Y178269D01*
X90500Y178102D01*
Y171500D01*
X73500D01*
Y178102D01*
X73901Y178269D01*
X74462Y178612D01*
X74961Y179039D01*
X75388Y179538D01*
X75731Y180099D01*
X75983Y180706D01*
X76136Y181345D01*
X76175Y182000D01*
X76136Y182655D01*
X75983Y183294D01*
X75731Y183901D01*
X75388Y184462D01*
X74961Y184961D01*
X74462Y185388D01*
X73901Y185731D01*
X73294Y185983D01*
X72655Y186136D01*
X72000Y186188D01*
X71675Y186162D01*
Y189200D01*
X79189Y196714D01*
X79241Y196759D01*
X79420Y196968D01*
X79564Y197203D01*
X79669Y197458D01*
X79734Y197725D01*
X79755Y198000D01*
X79750Y198069D01*
Y203706D01*
X79901Y203769D01*
X80462Y204112D01*
X80961Y204539D01*
X81388Y205038D01*
X81731Y205599D01*
X81983Y206206D01*
X82136Y206845D01*
X82175Y207500D01*
X82136Y208155D01*
X81983Y208794D01*
X81731Y209401D01*
X81388Y209962D01*
X80961Y210461D01*
X80462Y210888D01*
X79901Y211231D01*
X79294Y211483D01*
X78655Y211636D01*
X78000Y211688D01*
X77345Y211636D01*
X76706Y211483D01*
X76099Y211231D01*
X75538Y210888D01*
X75039Y210461D01*
X74612Y209962D01*
X74269Y209401D01*
X74017Y208794D01*
X73864Y208155D01*
X73812Y207500D01*
X73864Y206845D01*
X74017Y206206D01*
X74269Y205599D01*
X74612Y205038D01*
X75039Y204539D01*
X75538Y204112D01*
X76099Y203769D01*
X76250Y203706D01*
Y198725D01*
X71675Y194150D01*
Y204823D01*
X71753Y204830D01*
X71830Y204848D01*
X71903Y204878D01*
X71970Y204919D01*
X72030Y204970D01*
X72081Y205030D01*
X72122Y205097D01*
X72152Y205170D01*
X72170Y205247D01*
X72175Y205325D01*
Y209675D01*
X72170Y209753D01*
X72152Y209830D01*
X72122Y209903D01*
X72081Y209970D01*
X72030Y210030D01*
X71970Y210081D01*
X71903Y210122D01*
X71830Y210152D01*
X71753Y210170D01*
X71675Y210177D01*
Y223800D01*
G37*
G36*
Y186162D02*X71345Y186136D01*
X70706Y185983D01*
X70099Y185731D01*
X69994Y185667D01*
Y187519D01*
X71675Y189200D01*
Y186162D01*
G37*
G36*
X69994Y223800D02*X71675D01*
Y210177D01*
X71597Y210170D01*
X71520Y210152D01*
X71447Y210122D01*
X71380Y210081D01*
X71320Y210030D01*
X71269Y209970D01*
X71228Y209903D01*
X71198Y209830D01*
X71180Y209753D01*
X71175Y209675D01*
Y205325D01*
X71180Y205247D01*
X71198Y205170D01*
X71228Y205097D01*
X71269Y205030D01*
X71320Y204970D01*
X71380Y204919D01*
X71447Y204878D01*
X71520Y204848D01*
X71597Y204830D01*
X71675Y204823D01*
Y194150D01*
X69994Y192468D01*
Y203325D01*
X70175D01*
X70253Y203330D01*
X70330Y203348D01*
X70403Y203378D01*
X70470Y203419D01*
X70530Y203470D01*
X70581Y203530D01*
X70622Y203597D01*
X70652Y203670D01*
X70670Y203747D01*
X70677Y203825D01*
X70670Y203903D01*
X70652Y203980D01*
X70622Y204053D01*
X70581Y204120D01*
X70530Y204180D01*
X70470Y204231D01*
X70403Y204272D01*
X70330Y204302D01*
X70253Y204320D01*
X70175Y204325D01*
X69994D01*
Y210675D01*
X70175D01*
X70253Y210680D01*
X70330Y210698D01*
X70403Y210728D01*
X70470Y210769D01*
X70530Y210820D01*
X70581Y210880D01*
X70622Y210947D01*
X70652Y211020D01*
X70670Y211097D01*
X70677Y211175D01*
X70670Y211253D01*
X70652Y211330D01*
X70622Y211403D01*
X70581Y211470D01*
X70530Y211530D01*
X70470Y211581D01*
X70403Y211622D01*
X70330Y211652D01*
X70253Y211670D01*
X70175Y211675D01*
X69994D01*
Y223800D01*
G37*
G36*
Y132628D02*X66500Y136121D01*
Y140879D01*
X69994Y144372D01*
Y142167D01*
X69538Y141888D01*
X69039Y141461D01*
X68612Y140962D01*
X68269Y140401D01*
X68017Y139794D01*
X67864Y139155D01*
X67812Y138500D01*
X67864Y137845D01*
X68017Y137206D01*
X68269Y136599D01*
X68612Y136038D01*
X69039Y135539D01*
X69538Y135112D01*
X69994Y134833D01*
Y132628D01*
G37*
G36*
X46250Y203206D02*Y188725D01*
X44994Y187468D01*
Y204092D01*
X45039Y204039D01*
X45538Y203612D01*
X46099Y203269D01*
X46250Y203206D01*
G37*
G36*
X68175Y116825D02*X68269Y116599D01*
X68612Y116038D01*
X69039Y115539D01*
X69538Y115112D01*
X69994Y114833D01*
Y29700D01*
X68175D01*
Y44586D01*
X68231Y44678D01*
X68483Y45285D01*
X68636Y45924D01*
X68675Y46579D01*
X68636Y47234D01*
X68483Y47873D01*
X68231Y48480D01*
X68175Y48572D01*
Y53744D01*
X68253Y53751D01*
X68330Y53769D01*
X68403Y53799D01*
X68470Y53840D01*
X68530Y53891D01*
X68581Y53951D01*
X68622Y54018D01*
X68652Y54091D01*
X68670Y54168D01*
X68675Y54246D01*
Y58596D01*
X68670Y58674D01*
X68652Y58751D01*
X68622Y58824D01*
X68581Y58891D01*
X68530Y58951D01*
X68470Y59002D01*
X68403Y59043D01*
X68330Y59073D01*
X68253Y59091D01*
X68175Y59098D01*
Y116825D01*
G37*
G36*
Y126825D02*X68269Y126599D01*
X68612Y126038D01*
X69039Y125539D01*
X69538Y125112D01*
X69994Y124833D01*
Y122167D01*
X69538Y121888D01*
X69039Y121461D01*
X68612Y120962D01*
X68269Y120401D01*
X68175Y120175D01*
Y126825D01*
G37*
G36*
Y130204D02*X68183Y130195D01*
X68175Y130175D01*
Y130204D01*
G37*
G36*
Y155325D02*X68269Y155099D01*
X68612Y154538D01*
X69039Y154039D01*
X69538Y153612D01*
X69994Y153333D01*
Y148615D01*
X68175Y146796D01*
Y155325D01*
G37*
G36*
Y168500D02*X69994D01*
Y160667D01*
X69538Y160388D01*
X69039Y159961D01*
X68612Y159462D01*
X68269Y158901D01*
X68175Y158675D01*
Y168500D01*
G37*
G36*
Y29700D02*X62493D01*
Y42912D01*
X62599Y42848D01*
X63206Y42596D01*
X63845Y42443D01*
X64500Y42391D01*
X65155Y42443D01*
X65794Y42596D01*
X66401Y42848D01*
X66962Y43191D01*
X67461Y43618D01*
X67888Y44117D01*
X68175Y44586D01*
Y29700D01*
G37*
G36*
X62493Y168500D02*X68175D01*
Y158675D01*
X68017Y158294D01*
X67864Y157655D01*
X67812Y157000D01*
X67864Y156345D01*
X68017Y155706D01*
X68175Y155325D01*
Y146796D01*
X63981Y142602D01*
X63936Y142564D01*
X63783Y142384D01*
X63659Y142183D01*
X63569Y141965D01*
X63514Y141735D01*
X63514Y141735D01*
X63495Y141500D01*
X63500Y141441D01*
Y135559D01*
X63495Y135500D01*
X63514Y135265D01*
X63569Y135035D01*
X63659Y134817D01*
X63783Y134616D01*
X63936Y134436D01*
X63981Y134398D01*
X68175Y130204D01*
Y130175D01*
X68017Y129794D01*
X67864Y129155D01*
X67812Y128500D01*
X67864Y127845D01*
X68017Y127206D01*
X68175Y126825D01*
Y120175D01*
X68017Y119794D01*
X67864Y119155D01*
X67812Y118500D01*
X67864Y117845D01*
X68017Y117206D01*
X68175Y116825D01*
Y59098D01*
X68097Y59091D01*
X68020Y59073D01*
X67947Y59043D01*
X67880Y59002D01*
X67820Y58951D01*
X67769Y58891D01*
X67728Y58824D01*
X67698Y58751D01*
X67680Y58674D01*
X67675Y58596D01*
Y54246D01*
X67680Y54168D01*
X67698Y54091D01*
X67728Y54018D01*
X67769Y53951D01*
X67820Y53891D01*
X67880Y53840D01*
X67947Y53799D01*
X68020Y53769D01*
X68097Y53751D01*
X68175Y53744D01*
Y48572D01*
X67888Y49041D01*
X67461Y49540D01*
X66962Y49967D01*
X66401Y50310D01*
X65794Y50562D01*
X65155Y50715D01*
X64500Y50767D01*
X63845Y50715D01*
X63206Y50562D01*
X62599Y50310D01*
X62493Y50246D01*
Y52246D01*
X66675D01*
X66753Y52251D01*
X66830Y52269D01*
X66903Y52299D01*
X66970Y52340D01*
X67030Y52391D01*
X67081Y52451D01*
X67122Y52518D01*
X67152Y52591D01*
X67170Y52668D01*
X67177Y52746D01*
X67170Y52824D01*
X67152Y52901D01*
X67122Y52974D01*
X67081Y53041D01*
X67030Y53101D01*
X66970Y53152D01*
X66903Y53193D01*
X66830Y53223D01*
X66753Y53241D01*
X66675Y53246D01*
X62493D01*
Y59596D01*
X66675D01*
X66753Y59601D01*
X66830Y59619D01*
X66903Y59649D01*
X66970Y59690D01*
X67030Y59741D01*
X67081Y59801D01*
X67122Y59868D01*
X67152Y59941D01*
X67170Y60018D01*
X67177Y60096D01*
X67170Y60174D01*
X67152Y60251D01*
X67122Y60324D01*
X67081Y60391D01*
X67030Y60451D01*
X66970Y60502D01*
X66903Y60543D01*
X66830Y60573D01*
X66753Y60591D01*
X66675Y60596D01*
X62493D01*
Y76813D01*
X62500Y76812D01*
X63155Y76864D01*
X63794Y77017D01*
X64401Y77269D01*
X64962Y77612D01*
X65461Y78039D01*
X65888Y78538D01*
X66231Y79099D01*
X66483Y79706D01*
X66636Y80345D01*
X66675Y81000D01*
X66636Y81655D01*
X66483Y82294D01*
X66231Y82901D01*
X65888Y83462D01*
X65461Y83961D01*
X64962Y84388D01*
X64401Y84731D01*
X64000Y84898D01*
Y90176D01*
X64580Y90417D01*
X65194Y90793D01*
X65740Y91260D01*
X66207Y91806D01*
X66583Y92420D01*
X66858Y93084D01*
X67026Y93783D01*
X67068Y94500D01*
X67026Y95217D01*
X66858Y95916D01*
X66583Y96580D01*
X66207Y97194D01*
X65740Y97740D01*
X65194Y98207D01*
X64580Y98583D01*
X63916Y98858D01*
X63217Y99026D01*
X62500Y99083D01*
X62493Y99082D01*
Y99918D01*
X62500Y99917D01*
X63217Y99974D01*
X63916Y100142D01*
X64580Y100417D01*
X65194Y100793D01*
X65740Y101260D01*
X66207Y101806D01*
X66583Y102420D01*
X66858Y103084D01*
X67026Y103783D01*
X67068Y104500D01*
X67026Y105217D01*
X66858Y105916D01*
X66583Y106580D01*
X66207Y107194D01*
X65740Y107740D01*
X65194Y108207D01*
X64580Y108583D01*
X63916Y108858D01*
X63217Y109026D01*
X62500Y109083D01*
X62493Y109082D01*
Y146518D01*
X63189Y147214D01*
X63241Y147259D01*
X63420Y147468D01*
X63420Y147468D01*
X63564Y147703D01*
X63669Y147958D01*
X63734Y148225D01*
X63755Y148500D01*
X63750Y148569D01*
Y153206D01*
X63901Y153269D01*
X64462Y153612D01*
X64961Y154039D01*
X65388Y154538D01*
X65731Y155099D01*
X65983Y155706D01*
X66136Y156345D01*
X66175Y157000D01*
X66136Y157655D01*
X65983Y158294D01*
X65731Y158901D01*
X65388Y159462D01*
X64961Y159961D01*
X64462Y160388D01*
X63901Y160731D01*
X63294Y160983D01*
X62655Y161136D01*
X62493Y161149D01*
Y168500D01*
G37*
G36*
Y99082D02*X61783Y99026D01*
X61084Y98858D01*
X60420Y98583D01*
X59806Y98207D01*
X59260Y97740D01*
X58793Y97194D01*
X58417Y96580D01*
X58176Y96000D01*
X56994D01*
Y141019D01*
X62493Y146518D01*
Y109082D01*
X61783Y109026D01*
X61084Y108858D01*
X60420Y108583D01*
X59806Y108207D01*
X59260Y107740D01*
X58793Y107194D01*
X58417Y106580D01*
X58142Y105916D01*
X57974Y105217D01*
X57917Y104500D01*
X57974Y103783D01*
X58142Y103084D01*
X58417Y102420D01*
X58793Y101806D01*
X59260Y101260D01*
X59806Y100793D01*
X60420Y100417D01*
X61084Y100142D01*
X61783Y99974D01*
X62493Y99918D01*
Y99082D01*
G37*
G36*
X60825Y77175D02*X61206Y77017D01*
X61845Y76864D01*
X62493Y76813D01*
Y60596D01*
X62325D01*
X62247Y60591D01*
X62170Y60573D01*
X62097Y60543D01*
X62030Y60502D01*
X61970Y60451D01*
X61919Y60391D01*
X61878Y60324D01*
X61848Y60251D01*
X61830Y60174D01*
X61823Y60096D01*
X61830Y60018D01*
X61848Y59941D01*
X61878Y59868D01*
X61919Y59801D01*
X61970Y59741D01*
X62030Y59690D01*
X62097Y59649D01*
X62170Y59619D01*
X62247Y59601D01*
X62325Y59596D01*
X62493D01*
Y53246D01*
X62325D01*
X62247Y53241D01*
X62170Y53223D01*
X62097Y53193D01*
X62030Y53152D01*
X61970Y53101D01*
X61919Y53041D01*
X61878Y52974D01*
X61848Y52901D01*
X61830Y52824D01*
X61823Y52746D01*
X61830Y52668D01*
X61848Y52591D01*
X61878Y52518D01*
X61919Y52451D01*
X61970Y52391D01*
X62030Y52340D01*
X62097Y52299D01*
X62170Y52269D01*
X62247Y52251D01*
X62325Y52246D01*
X62493D01*
Y50246D01*
X62038Y49967D01*
X61539Y49540D01*
X61112Y49041D01*
X60825Y48572D01*
Y53744D01*
X60903Y53751D01*
X60980Y53769D01*
X61053Y53799D01*
X61120Y53840D01*
X61180Y53891D01*
X61231Y53951D01*
X61272Y54018D01*
X61302Y54091D01*
X61320Y54168D01*
X61325Y54246D01*
Y58596D01*
X61320Y58674D01*
X61302Y58751D01*
X61272Y58824D01*
X61231Y58891D01*
X61180Y58951D01*
X61120Y59002D01*
X61053Y59043D01*
X60980Y59073D01*
X60903Y59091D01*
X60825Y59098D01*
Y77175D01*
G37*
G36*
Y90249D02*X61000Y90176D01*
Y84898D01*
X60825Y84825D01*
Y90249D01*
G37*
G36*
X62493Y29700D02*X60825D01*
Y44586D01*
X61112Y44117D01*
X61539Y43618D01*
X62038Y43191D01*
X62493Y42912D01*
Y29700D01*
G37*
G36*
X60825D02*X56994D01*
Y93000D01*
X58176D01*
X58417Y92420D01*
X58793Y91806D01*
X59260Y91260D01*
X59806Y90793D01*
X60420Y90417D01*
X60825Y90249D01*
Y84825D01*
X60599Y84731D01*
X60038Y84388D01*
X59539Y83961D01*
X59112Y83462D01*
X58769Y82901D01*
X58517Y82294D01*
X58364Y81655D01*
X58312Y81000D01*
X58364Y80345D01*
X58517Y79706D01*
X58769Y79099D01*
X59112Y78538D01*
X59539Y78039D01*
X60038Y77612D01*
X60599Y77269D01*
X60825Y77175D01*
Y59098D01*
X60747Y59091D01*
X60670Y59073D01*
X60597Y59043D01*
X60530Y59002D01*
X60470Y58951D01*
X60419Y58891D01*
X60378Y58824D01*
X60348Y58751D01*
X60330Y58674D01*
X60325Y58596D01*
Y54246D01*
X60330Y54168D01*
X60348Y54091D01*
X60378Y54018D01*
X60419Y53951D01*
X60470Y53891D01*
X60530Y53840D01*
X60597Y53799D01*
X60670Y53769D01*
X60747Y53751D01*
X60825Y53744D01*
Y48572D01*
X60769Y48480D01*
X60517Y47873D01*
X60364Y47234D01*
X60312Y46579D01*
X60364Y45924D01*
X60517Y45285D01*
X60769Y44678D01*
X60825Y44586D01*
Y29700D01*
G37*
G36*
X56994Y168500D02*X62493D01*
Y161149D01*
X62000Y161188D01*
X61345Y161136D01*
X60706Y160983D01*
X60099Y160731D01*
X59538Y160388D01*
X59039Y159961D01*
X58612Y159462D01*
X58269Y158901D01*
X58017Y158294D01*
X57864Y157655D01*
X57812Y157000D01*
X57864Y156345D01*
X58017Y155706D01*
X58269Y155099D01*
X58612Y154538D01*
X59039Y154039D01*
X59538Y153612D01*
X60099Y153269D01*
X60250Y153206D01*
Y149225D01*
X56994Y145968D01*
Y168500D01*
G37*
G36*
Y29700D02*X51568D01*
Y44396D01*
X51583Y44420D01*
X51858Y45084D01*
X52026Y45783D01*
X52068Y46500D01*
X52026Y47217D01*
X51858Y47916D01*
X51583Y48580D01*
X51568Y48604D01*
Y53430D01*
X51647Y53436D01*
X51723Y53455D01*
X51796Y53485D01*
X51863Y53526D01*
X51923Y53577D01*
X51974Y53637D01*
X52015Y53704D01*
X52045Y53777D01*
X52064Y53853D01*
X52068Y53932D01*
Y59068D01*
X52064Y59147D01*
X52045Y59223D01*
X52015Y59296D01*
X51974Y59363D01*
X51923Y59423D01*
X51863Y59474D01*
X51796Y59515D01*
X51723Y59545D01*
X51647Y59564D01*
X51568Y59570D01*
Y70467D01*
X51600Y71000D01*
X51568Y71533D01*
Y93000D01*
X56994D01*
Y29700D01*
G37*
G36*
X51568Y71533D02*X51562Y71643D01*
X51411Y72271D01*
X51164Y72867D01*
X50827Y73417D01*
X50408Y73908D01*
X49917Y74327D01*
X49367Y74664D01*
X48771Y74911D01*
X48143Y75062D01*
X47500Y75113D01*
X46857Y75062D01*
X46229Y74911D01*
X45633Y74664D01*
X45083Y74327D01*
X44994Y74251D01*
Y93000D01*
X51568D01*
Y71533D01*
G37*
G36*
Y48604D02*X51207Y49194D01*
X50740Y49740D01*
X50194Y50207D01*
X49580Y50583D01*
X48916Y50858D01*
X48217Y51026D01*
X47500Y51083D01*
X46783Y51026D01*
X46084Y50858D01*
X45420Y50583D01*
X44994Y50322D01*
Y51932D01*
X50068D01*
X50147Y51936D01*
X50223Y51955D01*
X50296Y51985D01*
X50363Y52026D01*
X50423Y52077D01*
X50474Y52137D01*
X50515Y52204D01*
X50545Y52277D01*
X50564Y52353D01*
X50570Y52432D01*
X50564Y52510D01*
X50545Y52586D01*
X50515Y52659D01*
X50474Y52726D01*
X50423Y52786D01*
X50363Y52837D01*
X50296Y52878D01*
X50223Y52908D01*
X50147Y52927D01*
X50068Y52932D01*
X44994D01*
Y60069D01*
X50068D01*
X50147Y60073D01*
X50223Y60092D01*
X50296Y60122D01*
X50363Y60163D01*
X50423Y60214D01*
X50474Y60274D01*
X50515Y60341D01*
X50545Y60414D01*
X50564Y60490D01*
X50570Y60568D01*
X50564Y60647D01*
X50545Y60723D01*
X50515Y60796D01*
X50474Y60863D01*
X50423Y60923D01*
X50363Y60974D01*
X50296Y61015D01*
X50223Y61045D01*
X50147Y61064D01*
X50068Y61068D01*
X44994D01*
Y67749D01*
X45083Y67673D01*
X45633Y67336D01*
X46229Y67089D01*
X46857Y66938D01*
X47500Y66887D01*
X48143Y66938D01*
X48771Y67089D01*
X49367Y67336D01*
X49917Y67673D01*
X50408Y68092D01*
X50827Y68583D01*
X51164Y69133D01*
X51411Y69729D01*
X51562Y70357D01*
X51568Y70467D01*
Y59570D01*
X51490Y59564D01*
X51414Y59545D01*
X51341Y59515D01*
X51274Y59474D01*
X51214Y59423D01*
X51163Y59363D01*
X51122Y59296D01*
X51092Y59223D01*
X51073Y59147D01*
X51068Y59068D01*
Y53932D01*
X51073Y53853D01*
X51092Y53777D01*
X51122Y53704D01*
X51163Y53637D01*
X51214Y53577D01*
X51274Y53526D01*
X51341Y53485D01*
X51414Y53455D01*
X51490Y53436D01*
X51568Y53430D01*
Y48604D01*
G37*
G36*
Y29700D02*X44994D01*
Y42678D01*
X45420Y42417D01*
X46084Y42142D01*
X46783Y41974D01*
X47500Y41917D01*
X48217Y41974D01*
X48916Y42142D01*
X49580Y42417D01*
X50194Y42793D01*
X50740Y43260D01*
X51207Y43806D01*
X51568Y44396D01*
Y29700D01*
G37*
G36*
X51994Y134313D02*X52000Y134312D01*
X52655Y134364D01*
X53294Y134517D01*
X53901Y134769D01*
X54462Y135112D01*
X54961Y135539D01*
X55388Y136038D01*
X55731Y136599D01*
X55983Y137206D01*
X56136Y137845D01*
X56175Y138500D01*
X56136Y139155D01*
X55983Y139794D01*
X55920Y139945D01*
X56994Y141019D01*
Y96000D01*
X51994D01*
Y114313D01*
X52000Y114312D01*
X52655Y114364D01*
X53294Y114517D01*
X53901Y114769D01*
X54462Y115112D01*
X54961Y115539D01*
X55388Y116038D01*
X55731Y116599D01*
X55983Y117206D01*
X56136Y117845D01*
X56175Y118500D01*
X56136Y119155D01*
X55983Y119794D01*
X55731Y120401D01*
X55388Y120962D01*
X54961Y121461D01*
X54462Y121888D01*
X53901Y122231D01*
X53294Y122483D01*
X52655Y122636D01*
X52000Y122688D01*
X51994Y122687D01*
Y124313D01*
X52000Y124312D01*
X52655Y124364D01*
X53294Y124517D01*
X53901Y124769D01*
X54462Y125112D01*
X54961Y125539D01*
X55388Y126038D01*
X55731Y126599D01*
X55983Y127206D01*
X56136Y127845D01*
X56175Y128500D01*
X56136Y129155D01*
X55983Y129794D01*
X55731Y130401D01*
X55388Y130962D01*
X54961Y131461D01*
X54462Y131888D01*
X53901Y132231D01*
X53294Y132483D01*
X52655Y132636D01*
X52000Y132688D01*
X51994Y132687D01*
Y134313D01*
G37*
G36*
Y168496D02*X52000Y168495D01*
X52059Y168500D01*
X56994D01*
Y145968D01*
X53445Y142420D01*
X53294Y142483D01*
X52655Y142636D01*
X52000Y142688D01*
X51994Y142687D01*
Y146372D01*
X53019Y147398D01*
X53064Y147436D01*
X53217Y147615D01*
X53217Y147616D01*
X53341Y147817D01*
X53431Y148035D01*
X53486Y148265D01*
X53505Y148500D01*
X53500Y148559D01*
Y153102D01*
X53901Y153269D01*
X54462Y153612D01*
X54961Y154039D01*
X55388Y154538D01*
X55731Y155099D01*
X55983Y155706D01*
X56136Y156345D01*
X56175Y157000D01*
X56136Y157655D01*
X55983Y158294D01*
X55731Y158901D01*
X55388Y159462D01*
X54961Y159961D01*
X54462Y160388D01*
X53901Y160731D01*
X53294Y160983D01*
X52655Y161136D01*
X52000Y161188D01*
X51994Y161187D01*
Y168496D01*
G37*
G36*
Y96000D02*X44994D01*
Y133385D01*
X48183Y130195D01*
X48017Y129794D01*
X47864Y129155D01*
X47812Y128500D01*
X47864Y127845D01*
X48017Y127206D01*
X48269Y126599D01*
X48612Y126038D01*
X49039Y125539D01*
X49538Y125112D01*
X50099Y124769D01*
X50706Y124517D01*
X51345Y124364D01*
X51994Y124313D01*
Y122687D01*
X51345Y122636D01*
X50706Y122483D01*
X50099Y122231D01*
X49538Y121888D01*
X49039Y121461D01*
X48612Y120962D01*
X48269Y120401D01*
X48017Y119794D01*
X47864Y119155D01*
X47812Y118500D01*
X47864Y117845D01*
X48017Y117206D01*
X48269Y116599D01*
X48612Y116038D01*
X49039Y115539D01*
X49538Y115112D01*
X50099Y114769D01*
X50706Y114517D01*
X51345Y114364D01*
X51994Y114313D01*
Y96000D01*
G37*
G36*
Y142687D02*X51345Y142636D01*
X50706Y142483D01*
X50099Y142231D01*
X49538Y141888D01*
X49039Y141461D01*
X48612Y140962D01*
X48269Y140401D01*
X48017Y139794D01*
X47864Y139155D01*
X47812Y138500D01*
X47864Y137845D01*
X48017Y137206D01*
X48269Y136599D01*
X48612Y136038D01*
X49039Y135539D01*
X49538Y135112D01*
X50099Y134769D01*
X50706Y134517D01*
X51345Y134364D01*
X51994Y134313D01*
Y132687D01*
X51345Y132636D01*
X50706Y132483D01*
X50305Y132317D01*
X46500Y136121D01*
Y140879D01*
X51994Y146372D01*
Y142687D01*
G37*
G36*
X44994Y168500D02*X51941D01*
X51994Y168496D01*
Y161187D01*
X51345Y161136D01*
X50706Y160983D01*
X50099Y160731D01*
X49538Y160388D01*
X49039Y159961D01*
X48612Y159462D01*
X48269Y158901D01*
X48017Y158294D01*
X47864Y157655D01*
X47812Y157000D01*
X47864Y156345D01*
X48017Y155706D01*
X48269Y155099D01*
X48612Y154538D01*
X49039Y154039D01*
X49538Y153612D01*
X50099Y153269D01*
X50500Y153102D01*
Y149121D01*
X44994Y143615D01*
Y154077D01*
X45388Y154538D01*
X45731Y155099D01*
X45983Y155706D01*
X46136Y156345D01*
X46175Y157000D01*
X46136Y157655D01*
X45983Y158294D01*
X45731Y158901D01*
X45388Y159462D01*
X44994Y159923D01*
Y168500D01*
G37*
G36*
X64325Y178528D02*X64462Y178612D01*
X64961Y179039D01*
X65388Y179538D01*
X65731Y180099D01*
X65983Y180706D01*
X66136Y181345D01*
X66175Y182000D01*
X66136Y182655D01*
X65983Y183294D01*
X65920Y183445D01*
X69994Y187519D01*
Y185667D01*
X69538Y185388D01*
X69039Y184961D01*
X68612Y184462D01*
X68269Y183901D01*
X68017Y183294D01*
X67864Y182655D01*
X67812Y182000D01*
X67864Y181345D01*
X68017Y180706D01*
X68269Y180099D01*
X68612Y179538D01*
X69039Y179039D01*
X69538Y178612D01*
X69994Y178333D01*
Y171500D01*
X64325D01*
Y178528D01*
G37*
G36*
Y223800D02*X69994D01*
Y211675D01*
X65825D01*
X65747Y211670D01*
X65670Y211652D01*
X65597Y211622D01*
X65530Y211581D01*
X65470Y211530D01*
X65419Y211470D01*
X65378Y211403D01*
X65348Y211330D01*
X65330Y211253D01*
X65323Y211175D01*
X65330Y211097D01*
X65348Y211020D01*
X65378Y210947D01*
X65419Y210880D01*
X65470Y210820D01*
X65530Y210769D01*
X65597Y210728D01*
X65670Y210698D01*
X65747Y210680D01*
X65825Y210675D01*
X69994D01*
Y204325D01*
X65825D01*
X65747Y204320D01*
X65670Y204302D01*
X65597Y204272D01*
X65530Y204231D01*
X65470Y204180D01*
X65419Y204120D01*
X65378Y204053D01*
X65348Y203980D01*
X65330Y203903D01*
X65323Y203825D01*
X65330Y203747D01*
X65348Y203670D01*
X65378Y203597D01*
X65419Y203530D01*
X65470Y203470D01*
X65530Y203419D01*
X65597Y203378D01*
X65670Y203348D01*
X65747Y203330D01*
X65825Y203325D01*
X69994D01*
Y192468D01*
X64325Y186800D01*
Y204823D01*
X64403Y204830D01*
X64480Y204848D01*
X64553Y204878D01*
X64620Y204919D01*
X64680Y204970D01*
X64731Y205030D01*
X64772Y205097D01*
X64802Y205170D01*
X64820Y205247D01*
X64825Y205325D01*
Y209675D01*
X64820Y209753D01*
X64802Y209830D01*
X64772Y209903D01*
X64731Y209970D01*
X64680Y210030D01*
X64620Y210081D01*
X64553Y210122D01*
X64480Y210152D01*
X64403Y210170D01*
X64325Y210177D01*
Y223800D01*
G37*
G36*
X44994D02*X64325D01*
Y210177D01*
X64247Y210170D01*
X64170Y210152D01*
X64097Y210122D01*
X64030Y210081D01*
X63970Y210030D01*
X63919Y209970D01*
X63878Y209903D01*
X63848Y209830D01*
X63830Y209753D01*
X63825Y209675D01*
Y205325D01*
X63830Y205247D01*
X63848Y205170D01*
X63878Y205097D01*
X63919Y205030D01*
X63970Y204970D01*
X64030Y204919D01*
X64097Y204878D01*
X64170Y204848D01*
X64247Y204830D01*
X64325Y204823D01*
Y186800D01*
X63445Y185920D01*
X63294Y185983D01*
X62655Y186136D01*
X62000Y186188D01*
X61345Y186136D01*
X60706Y185983D01*
X60099Y185731D01*
X59538Y185388D01*
X59039Y184961D01*
X58612Y184462D01*
X58269Y183901D01*
X58017Y183294D01*
X57864Y182655D01*
X57812Y182000D01*
X57864Y181345D01*
X58017Y180706D01*
X58269Y180099D01*
X58612Y179538D01*
X59039Y179039D01*
X59538Y178612D01*
X60099Y178269D01*
X60706Y178017D01*
X61345Y177864D01*
X62000Y177812D01*
X62655Y177864D01*
X63294Y178017D01*
X63901Y178269D01*
X64325Y178528D01*
Y171500D01*
X53500D01*
Y178102D01*
X53901Y178269D01*
X54462Y178612D01*
X54961Y179039D01*
X55388Y179538D01*
X55731Y180099D01*
X55983Y180706D01*
X56136Y181345D01*
X56175Y182000D01*
X56136Y182655D01*
X55983Y183294D01*
X55731Y183901D01*
X55388Y184462D01*
X54961Y184961D01*
X54462Y185388D01*
X53901Y185731D01*
X53294Y185983D01*
X52655Y186136D01*
X52000Y186188D01*
X51345Y186136D01*
X50706Y185983D01*
X50099Y185731D01*
X49538Y185388D01*
X49039Y184961D01*
X48612Y184462D01*
X48269Y183901D01*
X48017Y183294D01*
X47864Y182655D01*
X47812Y182000D01*
X47864Y181345D01*
X48017Y180706D01*
X48269Y180099D01*
X48612Y179538D01*
X49039Y179039D01*
X49538Y178612D01*
X50099Y178269D01*
X50500Y178102D01*
Y171500D01*
X44994D01*
Y179077D01*
X45388Y179538D01*
X45731Y180099D01*
X45983Y180706D01*
X46136Y181345D01*
X46175Y182000D01*
X46136Y182655D01*
X45983Y183294D01*
X45920Y183445D01*
X49189Y186714D01*
X49241Y186759D01*
X49420Y186968D01*
X49564Y187203D01*
X49669Y187458D01*
X49734Y187725D01*
X49755Y188000D01*
X49750Y188069D01*
Y203206D01*
X49901Y203269D01*
X50462Y203612D01*
X50961Y204039D01*
X51388Y204538D01*
X51731Y205099D01*
X51983Y205706D01*
X52136Y206345D01*
X52175Y207000D01*
X52136Y207655D01*
X51983Y208294D01*
X51731Y208901D01*
X51388Y209462D01*
X50961Y209961D01*
X50462Y210388D01*
X49901Y210731D01*
X49294Y210983D01*
X48655Y211136D01*
X48000Y211188D01*
X47345Y211136D01*
X46706Y210983D01*
X46099Y210731D01*
X45538Y210388D01*
X45039Y209961D01*
X44994Y209908D01*
Y223800D01*
G37*
G36*
X29835Y153430D02*X30099Y153269D01*
X30500Y153102D01*
Y149121D01*
X29835Y148457D01*
Y153430D01*
G37*
G36*
X43432Y44396D02*X43793Y43806D01*
X44260Y43260D01*
X44806Y42793D01*
X44994Y42678D01*
Y29700D01*
X43432D01*
Y44396D01*
G37*
G36*
Y70439D02*X43438Y70357D01*
X43589Y69729D01*
X43836Y69133D01*
X44173Y68583D01*
X44592Y68092D01*
X44994Y67749D01*
Y61068D01*
X44932D01*
X44853Y61064D01*
X44777Y61045D01*
X44704Y61015D01*
X44637Y60974D01*
X44577Y60923D01*
X44526Y60863D01*
X44485Y60796D01*
X44455Y60723D01*
X44436Y60647D01*
X44430Y60568D01*
X44436Y60490D01*
X44455Y60414D01*
X44485Y60341D01*
X44526Y60274D01*
X44577Y60214D01*
X44637Y60163D01*
X44704Y60122D01*
X44777Y60092D01*
X44853Y60073D01*
X44932Y60069D01*
X44994D01*
Y52932D01*
X44932D01*
X44853Y52927D01*
X44777Y52908D01*
X44704Y52878D01*
X44637Y52837D01*
X44577Y52786D01*
X44526Y52726D01*
X44485Y52659D01*
X44455Y52586D01*
X44436Y52510D01*
X44430Y52432D01*
X44436Y52353D01*
X44455Y52277D01*
X44485Y52204D01*
X44526Y52137D01*
X44577Y52077D01*
X44637Y52026D01*
X44704Y51985D01*
X44777Y51955D01*
X44853Y51936D01*
X44932Y51932D01*
X44994D01*
Y50322D01*
X44806Y50207D01*
X44260Y49740D01*
X43793Y49194D01*
X43432Y48604D01*
Y53430D01*
X43510Y53436D01*
X43586Y53455D01*
X43659Y53485D01*
X43726Y53526D01*
X43786Y53577D01*
X43837Y53637D01*
X43878Y53704D01*
X43908Y53777D01*
X43927Y53853D01*
X43931Y53932D01*
Y59068D01*
X43927Y59147D01*
X43908Y59223D01*
X43878Y59296D01*
X43837Y59363D01*
X43786Y59423D01*
X43726Y59474D01*
X43659Y59515D01*
X43586Y59545D01*
X43510Y59564D01*
X43432Y59570D01*
Y70439D01*
G37*
G36*
Y93000D02*X44994D01*
Y74251D01*
X44592Y73908D01*
X44173Y73417D01*
X43836Y72867D01*
X43589Y72271D01*
X43438Y71643D01*
X43432Y71561D01*
Y93000D01*
G37*
G36*
X37494D02*X43432D01*
Y71561D01*
X43387Y71000D01*
X43432Y70439D01*
Y59570D01*
X43353Y59564D01*
X43277Y59545D01*
X43204Y59515D01*
X43137Y59474D01*
X43077Y59423D01*
X43026Y59363D01*
X42985Y59296D01*
X42955Y59223D01*
X42936Y59147D01*
X42932Y59068D01*
Y53932D01*
X42936Y53853D01*
X42955Y53777D01*
X42985Y53704D01*
X43026Y53637D01*
X43077Y53577D01*
X43137Y53526D01*
X43204Y53485D01*
X43277Y53455D01*
X43353Y53436D01*
X43432Y53430D01*
Y48604D01*
X43417Y48580D01*
X43142Y47916D01*
X42974Y47217D01*
X42917Y46500D01*
X42974Y45783D01*
X43142Y45084D01*
X43417Y44420D01*
X43432Y44396D01*
Y29700D01*
X37494D01*
Y37697D01*
X38200Y38300D01*
X38805Y39009D01*
X39292Y39803D01*
X39649Y40665D01*
X39867Y41571D01*
X39922Y42500D01*
X39867Y43429D01*
X39649Y44335D01*
X39292Y45197D01*
X38805Y45991D01*
X38200Y46700D01*
X37494Y47303D01*
Y51697D01*
X38200Y52300D01*
X38805Y53009D01*
X39292Y53803D01*
X39649Y54665D01*
X39867Y55571D01*
X39922Y56500D01*
X39867Y57429D01*
X39649Y58335D01*
X39292Y59197D01*
X38805Y59991D01*
X38200Y60700D01*
X37494Y61303D01*
Y66888D01*
X37500Y66887D01*
X38143Y66938D01*
X38771Y67089D01*
X39367Y67336D01*
X39917Y67673D01*
X40408Y68092D01*
X40827Y68583D01*
X41164Y69133D01*
X41411Y69729D01*
X41562Y70357D01*
X41600Y71000D01*
X41562Y71643D01*
X41411Y72271D01*
X41164Y72867D01*
X40827Y73417D01*
X40408Y73908D01*
X39917Y74327D01*
X39367Y74664D01*
X39000Y74816D01*
Y77102D01*
X39401Y77269D01*
X39962Y77612D01*
X40461Y78039D01*
X40888Y78538D01*
X41231Y79099D01*
X41483Y79706D01*
X41636Y80345D01*
X41675Y81000D01*
X41636Y81655D01*
X41483Y82294D01*
X41231Y82901D01*
X40888Y83462D01*
X40461Y83961D01*
X39962Y84388D01*
X39401Y84731D01*
X38794Y84983D01*
X38155Y85136D01*
X37500Y85188D01*
X37494Y85187D01*
Y93000D01*
G37*
G36*
Y47303D02*X37491Y47305D01*
X36697Y47792D01*
X35835Y48149D01*
X34929Y48367D01*
X34000Y48440D01*
X33071Y48367D01*
X32165Y48149D01*
X31303Y47792D01*
X30509Y47305D01*
X29835Y46730D01*
Y52270D01*
X30509Y51695D01*
X31303Y51208D01*
X32165Y50851D01*
X33071Y50633D01*
X34000Y50560D01*
X34929Y50633D01*
X35835Y50851D01*
X36697Y51208D01*
X37491Y51695D01*
X37494Y51697D01*
Y47303D01*
G37*
G36*
Y29700D02*X29835D01*
Y38270D01*
X30509Y37695D01*
X31303Y37208D01*
X32165Y36851D01*
X33071Y36633D01*
X34000Y36560D01*
X34929Y36633D01*
X35835Y36851D01*
X36697Y37208D01*
X37491Y37695D01*
X37494Y37697D01*
Y29700D01*
G37*
G36*
X29835Y89933D02*X36225Y89941D01*
X36378Y89978D01*
X36524Y90038D01*
X36658Y90120D01*
X36778Y90222D01*
X36880Y90342D01*
X36962Y90476D01*
X37022Y90622D01*
X37059Y90775D01*
X37068Y90932D01*
X37066Y93000D01*
X37494D01*
Y85187D01*
X36845Y85136D01*
X36206Y84983D01*
X35599Y84731D01*
X35038Y84388D01*
X34539Y83961D01*
X34112Y83462D01*
X33769Y82901D01*
X33517Y82294D01*
X33364Y81655D01*
X33312Y81000D01*
X33364Y80345D01*
X33517Y79706D01*
X33769Y79099D01*
X34112Y78538D01*
X34539Y78039D01*
X35038Y77612D01*
X35599Y77269D01*
X36000Y77102D01*
Y74816D01*
X35633Y74664D01*
X35083Y74327D01*
X34592Y73908D01*
X34173Y73417D01*
X33836Y72867D01*
X33589Y72271D01*
X33438Y71643D01*
X33387Y71000D01*
X33438Y70357D01*
X33589Y69729D01*
X33836Y69133D01*
X34173Y68583D01*
X34592Y68092D01*
X35083Y67673D01*
X35633Y67336D01*
X36229Y67089D01*
X36857Y66938D01*
X37494Y66888D01*
Y61303D01*
X37491Y61305D01*
X36697Y61792D01*
X35835Y62149D01*
X34929Y62367D01*
X34000Y62440D01*
X33071Y62367D01*
X32165Y62149D01*
X31303Y61792D01*
X30509Y61305D01*
X29835Y60730D01*
Y89933D01*
G37*
G36*
X36280Y140305D02*X43189Y147214D01*
X43241Y147259D01*
X43420Y147468D01*
X43420Y147468D01*
X43564Y147703D01*
X43669Y147958D01*
X43734Y148225D01*
X43755Y148500D01*
X43750Y148569D01*
Y153206D01*
X43901Y153269D01*
X44462Y153612D01*
X44961Y154039D01*
X44994Y154077D01*
Y143615D01*
X43981Y142602D01*
X43936Y142564D01*
X43783Y142384D01*
X43659Y142183D01*
X43569Y141965D01*
X43514Y141735D01*
X43514Y141735D01*
X43495Y141500D01*
X43500Y141441D01*
Y135559D01*
X43495Y135500D01*
X43514Y135265D01*
X43569Y135035D01*
X43659Y134817D01*
X43783Y134616D01*
X43936Y134436D01*
X43981Y134398D01*
X44994Y133385D01*
Y96000D01*
X37062D01*
X37059Y98225D01*
X37022Y98378D01*
X36962Y98524D01*
X36880Y98658D01*
X36778Y98778D01*
X36658Y98880D01*
X36524Y98962D01*
X36378Y99022D01*
X36280Y99046D01*
Y102002D01*
X36320Y102032D01*
X36375Y102088D01*
X36419Y102153D01*
X36618Y102512D01*
X36780Y102890D01*
X36908Y103281D01*
X36999Y103682D01*
X37055Y104089D01*
X37073Y104500D01*
X37055Y104911D01*
X36999Y105318D01*
X36908Y105719D01*
X36780Y106110D01*
X36618Y106488D01*
X36423Y106850D01*
X36378Y106915D01*
X36322Y106971D01*
X36280Y107003D01*
Y140305D01*
G37*
G36*
X32502Y134352D02*X32655Y134364D01*
X33294Y134517D01*
X33901Y134769D01*
X34462Y135112D01*
X34961Y135539D01*
X35388Y136038D01*
X35731Y136599D01*
X35983Y137206D01*
X36136Y137845D01*
X36175Y138500D01*
X36136Y139155D01*
X35983Y139794D01*
X35920Y139945D01*
X36280Y140305D01*
Y107003D01*
X36259Y107018D01*
X36188Y107055D01*
X36113Y107080D01*
X36035Y107094D01*
X35956Y107094D01*
X35877Y107083D01*
X35802Y107059D01*
X35731Y107024D01*
X35666Y106978D01*
X35610Y106922D01*
X35562Y106859D01*
X35526Y106788D01*
X35500Y106713D01*
X35487Y106635D01*
X35486Y106556D01*
X35498Y106477D01*
X35522Y106402D01*
X35558Y106332D01*
X35714Y106051D01*
X35840Y105756D01*
X35939Y105451D01*
X36011Y105138D01*
X36054Y104820D01*
X36068Y104500D01*
X36054Y104180D01*
X36011Y103862D01*
X35939Y103549D01*
X35840Y103244D01*
X35714Y102949D01*
X35561Y102667D01*
X35525Y102597D01*
X35502Y102522D01*
X35490Y102444D01*
X35491Y102365D01*
X35504Y102288D01*
X35529Y102213D01*
X35565Y102143D01*
X35612Y102080D01*
X35669Y102025D01*
X35733Y101979D01*
X35803Y101944D01*
X35878Y101921D01*
X35956Y101909D01*
X36035Y101910D01*
X36112Y101923D01*
X36187Y101948D01*
X36257Y101985D01*
X36280Y102002D01*
Y99046D01*
X36225Y99059D01*
X36068Y99068D01*
X32502Y99064D01*
Y99927D01*
X32911Y99945D01*
X33318Y100001D01*
X33719Y100092D01*
X34110Y100220D01*
X34488Y100382D01*
X34850Y100577D01*
X34915Y100622D01*
X34971Y100678D01*
X35018Y100741D01*
X35055Y100812D01*
X35080Y100887D01*
X35094Y100965D01*
X35094Y101044D01*
X35083Y101123D01*
X35059Y101198D01*
X35024Y101269D01*
X34978Y101334D01*
X34922Y101390D01*
X34859Y101438D01*
X34788Y101474D01*
X34713Y101500D01*
X34635Y101513D01*
X34556Y101514D01*
X34477Y101502D01*
X34402Y101478D01*
X34332Y101442D01*
X34051Y101286D01*
X33756Y101160D01*
X33451Y101061D01*
X33138Y100989D01*
X32820Y100946D01*
X32502Y100932D01*
Y108068D01*
X32820Y108054D01*
X33138Y108011D01*
X33451Y107939D01*
X33756Y107840D01*
X34051Y107714D01*
X34333Y107561D01*
X34403Y107525D01*
X34478Y107502D01*
X34556Y107490D01*
X34635Y107491D01*
X34712Y107504D01*
X34787Y107529D01*
X34857Y107565D01*
X34920Y107612D01*
X34975Y107669D01*
X35021Y107733D01*
X35056Y107803D01*
X35079Y107878D01*
X35091Y107956D01*
X35090Y108035D01*
X35077Y108112D01*
X35052Y108187D01*
X35015Y108257D01*
X34968Y108320D01*
X34912Y108375D01*
X34847Y108419D01*
X34488Y108619D01*
X34110Y108780D01*
X33719Y108908D01*
X33318Y108999D01*
X32911Y109055D01*
X32502Y109073D01*
Y114352D01*
X32655Y114364D01*
X33294Y114517D01*
X33901Y114769D01*
X34462Y115112D01*
X34961Y115539D01*
X35388Y116038D01*
X35731Y116599D01*
X35983Y117206D01*
X36136Y117845D01*
X36175Y118500D01*
X36136Y119155D01*
X35983Y119794D01*
X35731Y120401D01*
X35388Y120962D01*
X34961Y121461D01*
X34462Y121888D01*
X33901Y122231D01*
X33294Y122483D01*
X32655Y122636D01*
X32502Y122648D01*
Y124352D01*
X32655Y124364D01*
X33294Y124517D01*
X33901Y124769D01*
X34462Y125112D01*
X34961Y125539D01*
X35388Y126038D01*
X35731Y126599D01*
X35983Y127206D01*
X36136Y127845D01*
X36175Y128500D01*
X36136Y129155D01*
X35983Y129794D01*
X35731Y130401D01*
X35388Y130962D01*
X34961Y131461D01*
X34462Y131888D01*
X33901Y132231D01*
X33294Y132483D01*
X32655Y132636D01*
X32502Y132648D01*
Y134352D01*
G37*
G36*
Y122648D02*X32000Y122688D01*
X31345Y122636D01*
X30706Y122483D01*
X30099Y122231D01*
X29835Y122070D01*
Y124930D01*
X30099Y124769D01*
X30706Y124517D01*
X31345Y124364D01*
X32000Y124312D01*
X32502Y124352D01*
Y122648D01*
G37*
G36*
Y99064D02*X29835Y99061D01*
Y114930D01*
X30099Y114769D01*
X30706Y114517D01*
X31345Y114364D01*
X32000Y114312D01*
X32502Y114352D01*
Y109073D01*
X32500Y109073D01*
X32089Y109055D01*
X31682Y108999D01*
X31281Y108908D01*
X30890Y108780D01*
X30512Y108619D01*
X30150Y108423D01*
X30085Y108378D01*
X30029Y108322D01*
X29982Y108259D01*
X29945Y108188D01*
X29920Y108113D01*
X29906Y108035D01*
X29906Y107956D01*
X29917Y107877D01*
X29941Y107802D01*
X29976Y107731D01*
X30022Y107666D01*
X30078Y107610D01*
X30141Y107562D01*
X30212Y107526D01*
X30287Y107500D01*
X30365Y107487D01*
X30444Y107486D01*
X30523Y107498D01*
X30598Y107522D01*
X30668Y107558D01*
X30949Y107714D01*
X31244Y107840D01*
X31549Y107939D01*
X31862Y108011D01*
X32180Y108054D01*
X32500Y108068D01*
X32502Y108068D01*
Y100932D01*
X32500Y100932D01*
X32180Y100946D01*
X31862Y100989D01*
X31549Y101061D01*
X31244Y101160D01*
X30949Y101286D01*
X30667Y101439D01*
X30597Y101475D01*
X30522Y101498D01*
X30444Y101510D01*
X30365Y101509D01*
X30288Y101496D01*
X30213Y101471D01*
X30143Y101435D01*
X30080Y101388D01*
X30025Y101331D01*
X29979Y101267D01*
X29944Y101197D01*
X29921Y101122D01*
X29909Y101044D01*
X29910Y100965D01*
X29923Y100888D01*
X29948Y100813D01*
X29985Y100743D01*
X30032Y100680D01*
X30088Y100625D01*
X30153Y100581D01*
X30512Y100382D01*
X30890Y100220D01*
X31281Y100092D01*
X31682Y100001D01*
X32089Y99945D01*
X32500Y99927D01*
X32502Y99927D01*
Y99064D01*
G37*
G36*
X29835Y134930D02*X30099Y134769D01*
X30706Y134517D01*
X31345Y134364D01*
X32000Y134312D01*
X32502Y134352D01*
Y132648D01*
X32000Y132688D01*
X31345Y132636D01*
X30706Y132483D01*
X30305Y132317D01*
X29835Y132786D01*
Y134930D01*
G37*
G36*
Y178430D02*X30099Y178269D01*
X30706Y178017D01*
X31345Y177864D01*
X32000Y177812D01*
X32655Y177864D01*
X33294Y178017D01*
X33695Y178183D01*
X42898Y168981D01*
X42936Y168936D01*
X43116Y168783D01*
X43317Y168659D01*
X43535Y168569D01*
X43765Y168514D01*
X44000Y168495D01*
X44059Y168500D01*
X44994D01*
Y159923D01*
X44961Y159961D01*
X44462Y160388D01*
X43901Y160731D01*
X43294Y160983D01*
X42655Y161136D01*
X42000Y161188D01*
X41345Y161136D01*
X40706Y160983D01*
X40099Y160731D01*
X39538Y160388D01*
X39039Y159961D01*
X38612Y159462D01*
X38269Y158901D01*
X38017Y158294D01*
X37864Y157655D01*
X37812Y157000D01*
X37864Y156345D01*
X38017Y155706D01*
X38269Y155099D01*
X38612Y154538D01*
X39039Y154039D01*
X39538Y153612D01*
X40099Y153269D01*
X40250Y153206D01*
Y149225D01*
X33445Y142420D01*
X33294Y142483D01*
X32655Y142636D01*
X32000Y142688D01*
X31345Y142636D01*
X30706Y142483D01*
X30099Y142231D01*
X29835Y142070D01*
Y144214D01*
X33019Y147398D01*
X33064Y147436D01*
X33217Y147615D01*
X33217Y147616D01*
X33341Y147817D01*
X33431Y148035D01*
X33486Y148265D01*
X33505Y148500D01*
X33500Y148559D01*
Y153102D01*
X33901Y153269D01*
X34462Y153612D01*
X34961Y154039D01*
X35388Y154538D01*
X35731Y155099D01*
X35983Y155706D01*
X36136Y156345D01*
X36175Y157000D01*
X36136Y157655D01*
X35983Y158294D01*
X35731Y158901D01*
X35388Y159462D01*
X34961Y159961D01*
X34462Y160388D01*
X33901Y160731D01*
X33294Y160983D01*
X32655Y161136D01*
X32000Y161188D01*
X31345Y161136D01*
X30706Y160983D01*
X30099Y160731D01*
X29835Y160570D01*
Y178430D01*
G37*
G36*
X38000Y180777D02*X38017Y180706D01*
X38269Y180099D01*
X38612Y179538D01*
X39039Y179039D01*
X39538Y178612D01*
X40099Y178269D01*
X40706Y178017D01*
X41345Y177864D01*
X42000Y177812D01*
X42655Y177864D01*
X43294Y178017D01*
X43901Y178269D01*
X44462Y178612D01*
X44961Y179039D01*
X44994Y179077D01*
Y171500D01*
X44621D01*
X38000Y178121D01*
Y180777D01*
G37*
G36*
X41675Y223800D02*X44994D01*
Y209908D01*
X44612Y209462D01*
X44269Y208901D01*
X44017Y208294D01*
X43864Y207655D01*
X43812Y207000D01*
X43864Y206345D01*
X44017Y205706D01*
X44269Y205099D01*
X44612Y204538D01*
X44994Y204092D01*
Y187468D01*
X43445Y185920D01*
X43294Y185983D01*
X42655Y186136D01*
X42000Y186188D01*
X41675Y186162D01*
Y204323D01*
X41753Y204330D01*
X41830Y204348D01*
X41903Y204378D01*
X41970Y204419D01*
X42030Y204470D01*
X42081Y204530D01*
X42122Y204597D01*
X42152Y204670D01*
X42170Y204747D01*
X42175Y204825D01*
Y209175D01*
X42170Y209253D01*
X42152Y209330D01*
X42122Y209403D01*
X42081Y209470D01*
X42030Y209530D01*
X41970Y209581D01*
X41903Y209622D01*
X41830Y209652D01*
X41753Y209670D01*
X41675Y209677D01*
Y223800D01*
G37*
G36*
X38000D02*X41675D01*
Y209677D01*
X41597Y209670D01*
X41520Y209652D01*
X41447Y209622D01*
X41380Y209581D01*
X41320Y209530D01*
X41269Y209470D01*
X41228Y209403D01*
X41198Y209330D01*
X41180Y209253D01*
X41175Y209175D01*
Y204825D01*
X41180Y204747D01*
X41198Y204670D01*
X41228Y204597D01*
X41269Y204530D01*
X41320Y204470D01*
X41380Y204419D01*
X41447Y204378D01*
X41520Y204348D01*
X41597Y204330D01*
X41675Y204323D01*
Y186162D01*
X41345Y186136D01*
X40706Y185983D01*
X40099Y185731D01*
X39538Y185388D01*
X39039Y184961D01*
X38612Y184462D01*
X38269Y183901D01*
X38017Y183294D01*
X38000Y183223D01*
Y202825D01*
X40175D01*
X40253Y202830D01*
X40330Y202848D01*
X40403Y202878D01*
X40470Y202919D01*
X40530Y202970D01*
X40581Y203030D01*
X40622Y203097D01*
X40652Y203170D01*
X40670Y203247D01*
X40677Y203325D01*
X40670Y203403D01*
X40652Y203480D01*
X40622Y203553D01*
X40581Y203620D01*
X40530Y203680D01*
X40470Y203731D01*
X40403Y203772D01*
X40330Y203802D01*
X40253Y203820D01*
X40175Y203825D01*
X38000D01*
Y210175D01*
X40175D01*
X40253Y210180D01*
X40330Y210198D01*
X40403Y210228D01*
X40470Y210269D01*
X40530Y210320D01*
X40581Y210380D01*
X40622Y210447D01*
X40652Y210520D01*
X40670Y210597D01*
X40677Y210675D01*
X40670Y210753D01*
X40652Y210830D01*
X40622Y210903D01*
X40581Y210970D01*
X40530Y211030D01*
X40470Y211081D01*
X40403Y211122D01*
X40330Y211152D01*
X40253Y211170D01*
X40175Y211175D01*
X38000D01*
Y223800D01*
G37*
G36*
X34325D02*X38000D01*
Y211175D01*
X35825D01*
X35747Y211170D01*
X35670Y211152D01*
X35597Y211122D01*
X35530Y211081D01*
X35470Y211030D01*
X35419Y210970D01*
X35378Y210903D01*
X35348Y210830D01*
X35330Y210753D01*
X35323Y210675D01*
X35330Y210597D01*
X35348Y210520D01*
X35378Y210447D01*
X35419Y210380D01*
X35470Y210320D01*
X35530Y210269D01*
X35597Y210228D01*
X35670Y210198D01*
X35747Y210180D01*
X35825Y210175D01*
X38000D01*
Y203825D01*
X35825D01*
X35747Y203820D01*
X35670Y203802D01*
X35597Y203772D01*
X35530Y203731D01*
X35470Y203680D01*
X35419Y203620D01*
X35378Y203553D01*
X35348Y203480D01*
X35330Y203403D01*
X35323Y203325D01*
X35330Y203247D01*
X35348Y203170D01*
X35378Y203097D01*
X35419Y203030D01*
X35470Y202970D01*
X35530Y202919D01*
X35597Y202878D01*
X35670Y202848D01*
X35747Y202830D01*
X35825Y202825D01*
X38000D01*
Y183223D01*
X37864Y182655D01*
X37812Y182000D01*
X37864Y181345D01*
X38000Y180777D01*
Y178121D01*
X35817Y180305D01*
X35983Y180706D01*
X36136Y181345D01*
X36175Y182000D01*
X36136Y182655D01*
X35983Y183294D01*
X35731Y183901D01*
X35388Y184462D01*
X34961Y184961D01*
X34462Y185388D01*
X34325Y185472D01*
Y204323D01*
X34403Y204330D01*
X34480Y204348D01*
X34553Y204378D01*
X34620Y204419D01*
X34680Y204470D01*
X34731Y204530D01*
X34772Y204597D01*
X34802Y204670D01*
X34820Y204747D01*
X34825Y204825D01*
Y209175D01*
X34820Y209253D01*
X34802Y209330D01*
X34772Y209403D01*
X34731Y209470D01*
X34680Y209530D01*
X34620Y209581D01*
X34553Y209622D01*
X34480Y209652D01*
X34403Y209670D01*
X34325Y209677D01*
Y223800D01*
G37*
G36*
X29835D02*X34325D01*
Y209677D01*
X34247Y209670D01*
X34170Y209652D01*
X34097Y209622D01*
X34030Y209581D01*
X33970Y209530D01*
X33919Y209470D01*
X33878Y209403D01*
X33848Y209330D01*
X33830Y209253D01*
X33825Y209175D01*
Y204825D01*
X33830Y204747D01*
X33848Y204670D01*
X33878Y204597D01*
X33919Y204530D01*
X33970Y204470D01*
X34030Y204419D01*
X34097Y204378D01*
X34170Y204348D01*
X34247Y204330D01*
X34325Y204323D01*
Y185472D01*
X33901Y185731D01*
X33294Y185983D01*
X32655Y186136D01*
X32000Y186188D01*
X31345Y186136D01*
X30706Y185983D01*
X30099Y185731D01*
X29835Y185570D01*
Y223800D01*
G37*
G36*
Y142070D02*X29538Y141888D01*
X29039Y141461D01*
X28612Y140962D01*
X28269Y140401D01*
X28017Y139794D01*
X27864Y139155D01*
X27812Y138500D01*
X27864Y137845D01*
X28017Y137206D01*
X28269Y136599D01*
X28612Y136038D01*
X29039Y135539D01*
X29538Y135112D01*
X29835Y134930D01*
Y132786D01*
X26500Y136121D01*
Y140879D01*
X29835Y144214D01*
Y142070D01*
G37*
G36*
X28720Y39783D02*X29195Y39009D01*
X29800Y38300D01*
X29835Y38270D01*
Y29700D01*
X28720D01*
Y39783D01*
G37*
G36*
Y53783D02*X29195Y53009D01*
X29800Y52300D01*
X29835Y52270D01*
Y46730D01*
X29800Y46700D01*
X29195Y45991D01*
X28720Y45217D01*
Y53783D01*
G37*
G36*
Y89954D02*X28775Y89941D01*
X28932Y89932D01*
X29835Y89933D01*
Y60730D01*
X29800Y60700D01*
X29195Y59991D01*
X28720Y59217D01*
Y89954D01*
G37*
G36*
Y115912D02*X29039Y115539D01*
X29538Y115112D01*
X29835Y114930D01*
Y99061D01*
X28775Y99059D01*
X28720Y99046D01*
Y101997D01*
X28741Y101982D01*
X28812Y101945D01*
X28887Y101920D01*
X28965Y101906D01*
X29044Y101906D01*
X29123Y101917D01*
X29198Y101941D01*
X29269Y101976D01*
X29334Y102022D01*
X29390Y102078D01*
X29438Y102141D01*
X29474Y102212D01*
X29500Y102287D01*
X29513Y102365D01*
X29514Y102444D01*
X29502Y102523D01*
X29478Y102598D01*
X29442Y102668D01*
X29286Y102949D01*
X29160Y103244D01*
X29061Y103549D01*
X28989Y103862D01*
X28946Y104180D01*
X28932Y104500D01*
X28946Y104820D01*
X28989Y105138D01*
X29061Y105451D01*
X29160Y105756D01*
X29286Y106051D01*
X29439Y106333D01*
X29475Y106403D01*
X29498Y106478D01*
X29510Y106556D01*
X29509Y106635D01*
X29496Y106712D01*
X29471Y106787D01*
X29435Y106857D01*
X29388Y106920D01*
X29331Y106975D01*
X29267Y107021D01*
X29197Y107056D01*
X29122Y107079D01*
X29044Y107091D01*
X28965Y107090D01*
X28888Y107077D01*
X28813Y107052D01*
X28743Y107015D01*
X28720Y106998D01*
Y115912D01*
G37*
G36*
Y125912D02*X29039Y125539D01*
X29538Y125112D01*
X29835Y124930D01*
Y122070D01*
X29538Y121888D01*
X29039Y121461D01*
X28720Y121088D01*
Y125912D01*
G37*
G36*
Y154412D02*X29039Y154039D01*
X29538Y153612D01*
X29835Y153430D01*
Y148457D01*
X28720Y147342D01*
Y154412D01*
G37*
G36*
Y179412D02*X29039Y179039D01*
X29538Y178612D01*
X29835Y178430D01*
Y160570D01*
X29538Y160388D01*
X29039Y159961D01*
X28720Y159588D01*
Y179412D01*
G37*
G36*
Y223800D02*X29835D01*
Y185570D01*
X29538Y185388D01*
X29039Y184961D01*
X28720Y184588D01*
Y223800D01*
G37*
G36*
X28000D02*X28720D01*
Y184588D01*
X28612Y184462D01*
X28269Y183901D01*
X28017Y183294D01*
X27864Y182655D01*
X27812Y182000D01*
X27864Y181345D01*
X28017Y180706D01*
X28269Y180099D01*
X28612Y179538D01*
X28720Y179412D01*
Y159588D01*
X28612Y159462D01*
X28269Y158901D01*
X28017Y158294D01*
X27864Y157655D01*
X27812Y157000D01*
X27864Y156345D01*
X28017Y155706D01*
X28269Y155099D01*
X28612Y154538D01*
X28720Y154412D01*
Y147342D01*
X23981Y142602D01*
X23936Y142564D01*
X23783Y142384D01*
X23659Y142183D01*
X23569Y141965D01*
X23514Y141735D01*
X23514Y141735D01*
X23495Y141500D01*
X23500Y141441D01*
Y135559D01*
X23495Y135500D01*
X23514Y135265D01*
X23569Y135035D01*
X23659Y134817D01*
X23783Y134616D01*
X23936Y134436D01*
X23981Y134398D01*
X28183Y130195D01*
X28017Y129794D01*
X27864Y129155D01*
X27812Y128500D01*
X27864Y127845D01*
X28017Y127206D01*
X28269Y126599D01*
X28612Y126038D01*
X28720Y125912D01*
Y121088D01*
X28612Y120962D01*
X28269Y120401D01*
X28017Y119794D01*
X27864Y119155D01*
X27812Y118500D01*
X27864Y117845D01*
X28017Y117206D01*
X28269Y116599D01*
X28612Y116038D01*
X28720Y115912D01*
Y106998D01*
X28680Y106968D01*
X28625Y106912D01*
X28581Y106847D01*
X28381Y106488D01*
X28220Y106110D01*
X28092Y105719D01*
X28001Y105318D01*
X27945Y104911D01*
X27927Y104500D01*
X27945Y104089D01*
X28001Y103682D01*
X28092Y103281D01*
X28220Y102890D01*
X28381Y102512D01*
X28577Y102150D01*
X28622Y102085D01*
X28678Y102029D01*
X28720Y101997D01*
Y99046D01*
X28622Y99022D01*
X28476Y98962D01*
X28342Y98880D01*
X28222Y98778D01*
X28120Y98658D01*
X28038Y98524D01*
X27978Y98378D01*
X27941Y98225D01*
X27932Y98068D01*
X27941Y90775D01*
X27978Y90622D01*
X28038Y90476D01*
X28120Y90342D01*
X28222Y90222D01*
X28342Y90120D01*
X28476Y90038D01*
X28622Y89978D01*
X28720Y89954D01*
Y59217D01*
X28708Y59197D01*
X28351Y58335D01*
X28133Y57429D01*
X28060Y56500D01*
X28133Y55571D01*
X28351Y54665D01*
X28708Y53803D01*
X28720Y53783D01*
Y45217D01*
X28708Y45197D01*
X28351Y44335D01*
X28133Y43429D01*
X28060Y42500D01*
X28133Y41571D01*
X28351Y40665D01*
X28708Y39803D01*
X28720Y39783D01*
Y29700D01*
X28110D01*
X28000Y29706D01*
X27407Y29726D01*
X26819Y29803D01*
X26240Y29932D01*
X25674Y30110D01*
X25126Y30337D01*
X24600Y30611D01*
X24100Y30930D01*
X23629Y31291D01*
X23192Y31692D01*
X22791Y32129D01*
X22430Y32600D01*
X22111Y33100D01*
X21837Y33626D01*
X21610Y34174D01*
X21432Y34740D01*
X21303Y35319D01*
X21226Y35907D01*
X21200Y36500D01*
X21200Y36500D01*
Y216890D01*
X21206Y217000D01*
X21226Y217593D01*
X21303Y218181D01*
X21432Y218760D01*
X21610Y219326D01*
X21837Y219874D01*
X22111Y220400D01*
X22430Y220900D01*
X22791Y221371D01*
X23192Y221808D01*
X23629Y222209D01*
X24100Y222570D01*
X24600Y222889D01*
X25126Y223163D01*
X25674Y223390D01*
X26240Y223568D01*
X26819Y223697D01*
X27407Y223774D01*
X28000Y223800D01*
X28000Y223800D01*
G37*
G54D556*X78000Y207500D02*Y198000D01*
X82000Y182000D02*X98000Y198000D01*
X104000D01*
X108000Y202000D01*
G54D557*X92000Y182000D02*Y170000D01*
G54D556*X108000Y202000D02*Y207000D01*
X102000Y182000D02*X118000Y198000D01*
X134000D01*
G54D557*X122000Y182000D02*X137000D01*
X142000Y177000D01*
X132000D02*X125000Y170000D01*
G54D556*X134000Y198000D02*X138000Y202000D01*
G54D558*X28000Y225000D02*X208500D01*
G54D556*X138000Y202000D02*Y207000D01*
G54D557*X196500Y177000D02*X173000D01*
X169000Y173000D01*
G54D558*X20000Y36500D02*Y217000D01*
G54D556*X48000Y207000D02*Y188000D01*
X42000Y182000D01*
X78000Y198000D02*X62000Y182000D01*
G54D557*X44000Y170000D02*X32000Y182000D01*
X52000D02*Y170000D01*
X72000Y182000D02*Y170000D01*
X32000Y128500D02*X25000Y135500D01*
Y141500D01*
X32000Y148500D01*
X65000Y141500D02*X72000Y148500D01*
X52000Y157000D02*Y148500D01*
X72000Y157000D02*Y148500D01*
X32000Y157000D02*Y148500D01*
X112000Y157000D02*X122000D01*
X117500Y72500D02*X114500Y75500D01*
X125000Y170000D02*X44000D01*
G54D556*X82000Y157000D02*Y148500D01*
X102000Y157000D02*Y148500D01*
G54D557*X92000Y157000D02*Y148500D01*
G54D556*X42000Y157000D02*Y148500D01*
X32000Y138500D01*
X62000Y157000D02*Y148500D01*
X52000Y138500D01*
X82000Y148500D02*X72000Y138500D01*
G54D557*X45000Y141500D02*X52000Y148500D01*
G54D556*X102000D02*X92000Y138500D01*
G54D557*X52000Y128500D02*X45000Y135500D01*
Y141500D01*
X72000Y128500D02*X65000Y135500D01*
Y141500D01*
X92000Y128500D02*X85000Y135500D01*
Y141500D01*
X92000Y148500D01*
X165000Y109500D02*Y127000D01*
X169000Y131000D02*Y173000D01*
X165000Y127000D02*X169000Y131000D01*
X163000Y117500D02*Y128500D01*
X167000Y132500D02*Y174500D01*
X163000Y128500D02*X167000Y132500D01*
X155000Y109500D02*X163000Y117500D01*
G54D559*X155000Y119500D02*Y120500D01*
G54D557*X167000Y101500D02*Y125500D01*
X169000Y93500D02*Y124000D01*
G54D558*X216500Y217000D02*Y36500D01*
G54D559*X155000Y120500D02*X145000Y130500D01*
G54D557*X154000Y50000D02*X198500D01*
X155000Y59500D02*X156000D01*
X153000Y48000D02*X190500D01*
X155000Y99500D02*X165000Y109500D01*
X155000Y89500D02*X167000Y101500D01*
X155000Y79500D02*X169000Y93500D01*
G54D559*X125000Y119500D02*Y120500D01*
X130000Y125500D01*
X135000Y130500D01*
G54D557*X155000Y69500D02*X160000D01*
X142500Y61500D02*X154000Y50000D01*
X141500Y59500D02*X153000Y48000D01*
X141500Y59500D02*X125000D01*
Y69500D02*X133000Y61500D01*
X142500D01*
X122000Y84500D02*X140000D01*
X118500Y74500D02*X140000D01*
Y84500D02*X155000Y69500D01*
X140000Y74500D02*X155000Y59500D01*
G54D558*X208500Y28500D02*X28000D01*
G54D557*X186000Y139000D02*X202500Y155500D01*
Y159000D01*
X207500Y164000D01*
X186000Y114500D02*X197000D01*
X197500Y115000D01*
X186000Y90000D02*X202500Y106500D01*
Y110000D01*
X207500Y115000D01*
X186000Y65500D02*X197000D01*
X197500Y66000D01*
X186000Y188000D02*X202500Y204500D01*
X188500Y179000D02*X171500D01*
X167000Y174500D01*
X186000Y212500D02*X197000D01*
X197500Y213000D01*
X202500Y204500D02*Y208000D01*
X207500Y213000D01*
X186000Y163500D02*X197000D01*
X197500Y164000D01*
Y188000D02*X188500Y179000D01*
X207500Y188000D02*X196500Y177000D01*
X92000Y101500D02*X104000Y89500D01*
X87000Y86500D02*X82000Y91500D01*
X62500Y94500D02*Y81000D01*
X103000Y87500D02*X99000Y91500D01*
X92000D01*
X37500Y71000D02*Y81000D01*
X32500Y94500D02*X62500D01*
X197500Y139000D02*X188500Y130000D01*
X171500D01*
X207500Y139000D02*X196500Y128000D01*
X173000D01*
X197500Y90000D02*X189000Y81500D01*
X197500Y41000D02*X190500Y48000D01*
X207500Y41000D02*X198500Y50000D01*
X189000Y81500D02*X172000D01*
X160000Y69500D01*
X174500Y76500D02*X162000Y64000D01*
X155000Y59500D02*X160000D01*
X162000Y61500D01*
Y64000D01*
X207500Y90000D02*X194000Y76500D01*
X174500D01*
X173000Y128000D02*X169000Y124000D01*
X171500Y130000D02*X167000Y125500D01*
X111000Y99500D02*X125000D01*
X111000Y119500D02*X117500Y113000D01*
X121500D01*
X125000Y109500D01*
X104000Y89500D02*X125000D01*
X119000Y87500D02*X122000Y84500D01*
X119000Y87500D02*X103000D01*
X96000Y77500D02*X115500D01*
X114500Y75500D02*X88500D01*
X87000Y77000D01*
Y86500D01*
X92000Y81500D02*X96000Y77500D01*
X115500D02*X118500Y74500D01*
X125000Y59500D02*X120000Y64500D01*
Y70000D01*
X117500Y72500D01*
D03*
G54D558*X28000Y225000D02*G75*G03X20000Y217000I0J-8000D01*G01*
Y36500D02*G75*G03X28000Y28500I8000J0D01*G01*
X208500D02*G75*G03X216500Y36500I0J8000D01*G01*
Y217000D02*G75*G03X208500Y225000I-8000J0D01*G01*
X150500Y219000D02*X151000Y219500D01*
X149000Y219000D02*X150500D01*
X148500Y219500D02*X149000Y219000D01*
X148500Y219500D02*Y220500D01*
X149000Y221000D01*
X150500D01*
X151000Y221500D01*
Y222500D01*
X150500Y223000D02*X151000Y222500D01*
X149000Y223000D02*X150500D01*
X148500Y222500D02*X149000Y223000D01*
X152200Y219500D02*Y222500D01*
Y219500D02*X152700Y219000D01*
X153700D01*
X154200Y219500D01*
Y222500D01*
X153700Y223000D02*X154200Y222500D01*
X152700Y223000D02*X153700D01*
X152200Y222500D02*X152700Y223000D01*
X155400Y219000D02*Y223000D01*
X157400D01*
X159100Y219000D02*Y223000D01*
X160400Y219000D02*X161100Y219700D01*
Y222300D01*
X160400Y223000D02*X161100Y222300D01*
X158600Y223000D02*X160400D01*
X158600Y219000D02*X160400D01*
X121500Y32500D02*X122500Y34500D01*
X123500Y32500D02*X122500Y34500D01*
X124700Y31000D02*X125200Y30500D01*
X126700D01*
X127200Y31000D01*
Y32000D01*
X124700Y34500D02*X127200Y32000D01*
X124700Y34500D02*X127200D01*
X128400Y34000D02*X128900Y34500D01*
X128400Y31000D02*Y34000D01*
Y31000D02*X128900Y30500D01*
X129900D01*
X130400Y31000D01*
Y34000D01*
X129900Y34500D02*X130400Y34000D01*
X128900Y34500D02*X129900D01*
X128400Y33500D02*X130400Y31500D01*
X131600Y31300D02*X132400Y30500D01*
Y34500D01*
X131600D02*X133100D01*
X134300Y31000D02*X134800Y30500D01*
X135800D01*
X136300Y31000D01*
X135800Y34500D02*X136300Y34000D01*
X134800Y34500D02*X135800D01*
X134300Y34000D02*X134800Y34500D01*
Y32300D02*X135800D01*
X136300Y31000D02*Y31800D01*
Y32800D02*Y34000D01*
Y32800D02*X135800Y32300D01*
X136300Y31800D02*X135800Y32300D01*
X137500Y34000D02*X138000Y34500D01*
X137500Y31000D02*Y34000D01*
Y31000D02*X138000Y30500D01*
X139000D01*
X139500Y31000D01*
Y34000D01*
X139000Y34500D02*X139500Y34000D01*
X138000Y34500D02*X139000D01*
X137500Y33500D02*X139500Y31500D01*
X140700Y31300D02*X141500Y30500D01*
Y34500D01*
X140700D02*X142200D01*
X143400Y34000D02*X143900Y34500D01*
X143400Y31000D02*Y34000D01*
Y31000D02*X143900Y30500D01*
X144900D01*
X145400Y31000D01*
Y34000D01*
X144900Y34500D02*X145400Y34000D01*
X143900Y34500D02*X144900D01*
X143400Y33500D02*X145400Y31500D01*
X146600Y33000D02*X148600Y30500D01*
X146600Y33000D02*X149100D01*
X148600Y30500D02*Y34500D01*
G54D555*G36*
X124825Y210175D02*Y203825D01*
X131175D01*
Y210175D01*
X124825D01*
G37*
G54D560*X138000Y207000D03*
G54D555*G36*
X94825Y210175D02*Y203825D01*
X101175D01*
Y210175D01*
X94825D01*
G37*
G54D560*X108000Y207000D03*
X142000Y177000D03*
X132000D03*
X112000Y182000D03*
X122000D03*
X102000D03*
X92000D03*
X152000Y177000D03*
G54D555*G36*
X172825Y191175D02*Y184825D01*
X179175D01*
Y191175D01*
X172825D01*
G37*
G54D560*X186000Y188000D03*
G54D555*G36*
X172825Y215675D02*Y209325D01*
X179175D01*
Y215675D01*
X172825D01*
G37*
G54D560*X186000Y212500D03*
X197500Y188000D03*
Y213000D03*
X207500Y188000D03*
Y213000D03*
X37500Y81000D03*
G54D555*G36*
X28932Y98068D02*Y90932D01*
X36068D01*
Y98068D01*
X28932D01*
G37*
G54D561*X32500Y104500D03*
G54D560*X62500Y81000D03*
G54D561*Y94500D03*
Y104500D03*
G54D555*G36*
X61325Y59596D02*Y53246D01*
X67675D01*
Y59596D01*
X61325D01*
G37*
G54D560*X64500Y46579D03*
G54D562*X37500Y71000D03*
X47500D03*
G54D555*G36*
X43932Y60068D02*Y52932D01*
X51068D01*
Y60068D01*
X43932D01*
G37*
G54D561*X47500Y46500D03*
G54D560*X52000Y118500D03*
X32000D03*
Y128500D03*
Y138500D03*
X52000Y128500D03*
Y138500D03*
X62000Y157000D03*
X42000D03*
X52000D03*
X32000D03*
G54D555*G36*
X64825Y210675D02*Y204325D01*
X71175D01*
Y210675D01*
X64825D01*
G37*
G54D560*X78000Y207500D03*
G54D555*G36*
X34825Y210175D02*Y203825D01*
X41175D01*
Y210175D01*
X34825D01*
G37*
G54D560*X48000Y207000D03*
X82000Y182000D03*
X72000D03*
X62000D03*
X42000D03*
X52000D03*
X32000D03*
G54D561*X92000Y101500D03*
X82000D03*
G54D560*X92000Y118500D03*
Y128500D03*
Y138500D03*
X72000Y118500D03*
Y128500D03*
Y138500D03*
X102000Y157000D03*
X82000D03*
X92000D03*
X72000D03*
G54D555*G36*
X88432Y85068D02*Y77932D01*
X95568D01*
Y85068D01*
X88432D01*
G37*
G54D561*X82000Y81500D03*
X92000Y91500D03*
X82000D03*
X100500Y65500D03*
X82800D03*
X100500Y39900D03*
X82800D03*
X125000Y44500D03*
G54D560*X112000Y157000D03*
X122000D03*
X111000Y99500D03*
Y109500D03*
Y119500D03*
G54D562*X135000Y130500D03*
X145000D03*
G54D555*G36*
X121825Y122675D02*Y116325D01*
X128175D01*
Y122675D01*
X121825D01*
G37*
G36*
X141432Y48068D02*Y40932D01*
X148568D01*
Y48068D01*
X141432D01*
G37*
G54D560*X155000Y59500D03*
G54D561*X135000Y44500D03*
G54D560*X125000Y89500D03*
Y79500D03*
Y69500D03*
Y59500D03*
X155000Y69500D03*
Y79500D03*
Y89500D03*
Y99500D03*
G54D555*G36*
X172825Y93175D02*Y86825D01*
X179175D01*
Y93175D01*
X172825D01*
G37*
G54D560*X186000Y90000D03*
X197500D03*
X207500D03*
G54D555*G36*
X172825Y117675D02*Y111325D01*
X179175D01*
Y117675D01*
X172825D01*
G37*
G54D560*X186000Y114500D03*
X197500Y115000D03*
X207500D03*
G54D555*G36*
X172825Y44175D02*Y37825D01*
X179175D01*
Y44175D01*
X172825D01*
G37*
G54D560*X186000Y41000D03*
G54D555*G36*
X172825Y68675D02*Y62325D01*
X179175D01*
Y68675D01*
X172825D01*
G37*
G54D560*X186000Y65500D03*
X197500Y41000D03*
Y66000D03*
X207500Y41000D03*
Y66000D03*
X125000Y109500D03*
Y99500D03*
X155000Y109500D03*
Y119500D03*
G54D555*G36*
X143746Y156675D02*Y150325D01*
X150096D01*
Y156675D01*
X143746D01*
G37*
G54D560*X137079Y153500D03*
G54D555*G36*
X172825Y142175D02*Y135825D01*
X179175D01*
Y142175D01*
X172825D01*
G37*
G54D560*X186000Y139000D03*
G54D555*G36*
X172825Y166675D02*Y160325D01*
X179175D01*
Y166675D01*
X172825D01*
G37*
G54D560*X186000Y163500D03*
X197500Y139000D03*
Y164000D03*
X207500Y139000D03*
Y164000D03*
G54D563*G54D564*G54D563*G54D564*G54D563*G54D565*G54D563*G54D564*G54D563*G54D564*G54D563*G54D564*G54D563*G54D564*G54D563*G54D564*G54D563*M02*
