M48
INCH
T36C0.098
T35C0.039
T34C0.032
%
T34
X003750Y006100
X005450Y004642
X005450Y003658
X019400Y008500
X019400Y007500
X019400Y010950
X019400Y009950
X019400Y013400
X019400Y012400
X019400Y015850
X019400Y014850
X019400Y003600
X019400Y002600
X019400Y006050
X019400Y005050
X019400Y018300
X019400Y017300
X019400Y020750
X019400Y019750
X016400Y017800
X017400Y017800
X016400Y015400
X017400Y015400
X016400Y020300
X017400Y020300
X008200Y010850
X008200Y011850
X008200Y012850
X006200Y010850
X006200Y011850
X006200Y012850
X010200Y014700
X009200Y014700
X007200Y014700
X008200Y014700
X006200Y014700
X011200Y014700
X012500Y012050
X013500Y012050
X013692Y014350
X012708Y014350
X010100Y008950
X010100Y009950
X010100Y010950
X011500Y010950
X011500Y009950
X011500Y008950
X011500Y007950
X011500Y006950
X014500Y004950
X014500Y005950
X011500Y005950
X011500Y004950
X014500Y006950
X014500Y007950
X014500Y008950
X014500Y009950
X014500Y010950
X016400Y010500
X017400Y010500
X016400Y012900
X017400Y012900
X016400Y003100
X016400Y005600
X017400Y003100
X017400Y005600
X016400Y008000
X017400Y008000
X002750Y007100
X005250Y007100
X005200Y014700
X002750Y006100
X004200Y010850
X002200Y010850
X002200Y011850
X002200Y012850
X004200Y011850
X004200Y012850
X003200Y014700
X004200Y014700
X002200Y014700
X005800Y019750
X006800Y019750
X002800Y019700
X003800Y019700
X011800Y019700
X012800Y019700
X008800Y019700
X009800Y019700
X014200Y016700
X013200Y016700
X012200Y016700
X011200Y017200
X010200Y017200
X009200Y017200
X007200Y017200
X008200Y017200
X006200Y017200
X005200Y017200
X004200Y017200
X003200Y017200
X002200Y017200
T35
X003750Y004650
X003750Y003650
X009050Y005550
X007280Y005550
X009050Y002990
X007280Y002990
X013500Y003450
X012500Y003450
X011500Y003450
X002250Y008450
X002250Y009450
X005250Y008450
X005250Y009450
X008200Y006950
X007200Y006950
X008200Y007950
X007200Y007950
X008200Y008950
X007200Y008950
T36
X002400Y004650
X002400Y003250
M30
