G04 start of page 3 for group 1 idx 1 *
G04 Title: Zab-Let V2, solder *
G04 Creator: pcb 20110918 *
G04 CreationDate: Fri 21 Dec 2012 01:58:23 PM GMT UTC *
G04 For: bertho *
G04 Format: Gerber/RS-274X *
G04 PCB-Dimensions: 325000 225000 *
G04 PCB-Coordinate-Origin: lower left *
%MOIN*%
%FSLAX25Y25*%
%LNBOTTOM*%
%ADD31C,0.0984*%
%ADD30C,0.0394*%
%ADD29C,0.0315*%
%ADD28C,0.0714*%
%ADD27C,0.0635*%
%ADD26C,0.0600*%
%ADD25C,0.0250*%
%ADD24C,0.0080*%
%ADD23C,0.0100*%
%ADD22C,0.0150*%
%ADD21C,0.0001*%
G54D21*G36*
X109994Y78000D02*X111102D01*
X111269Y77599D01*
X111612Y77038D01*
X112039Y76539D01*
X112538Y76112D01*
X112721Y76000D01*
X109994D01*
Y78000D01*
G37*
G36*
X118000Y168879D02*X118183Y168695D01*
X118017Y168294D01*
X118000Y168223D01*
Y168879D01*
G37*
G36*
X142002Y76582D02*X142039Y76539D01*
X142538Y76112D01*
X143099Y75769D01*
X143706Y75517D01*
X144345Y75364D01*
X145000Y75312D01*
X145655Y75364D01*
X146294Y75517D01*
X146901Y75769D01*
X147462Y76112D01*
X147961Y76539D01*
X148388Y77038D01*
X148731Y77599D01*
X148983Y78206D01*
X149136Y78845D01*
X149175Y79500D01*
X149136Y80155D01*
X148983Y80794D01*
X148817Y81195D01*
X157500Y89879D01*
Y84121D01*
X146695Y73317D01*
X146294Y73483D01*
X145655Y73636D01*
X145000Y73688D01*
X144345Y73636D01*
X143706Y73483D01*
X143099Y73231D01*
X142538Y72888D01*
X142039Y72461D01*
X142002Y72418D01*
Y76582D01*
G37*
G36*
Y86582D02*X142039Y86539D01*
X142538Y86112D01*
X143099Y85769D01*
X143706Y85517D01*
X144345Y85364D01*
X145000Y85312D01*
X145655Y85364D01*
X146294Y85517D01*
X146901Y85769D01*
X147462Y86112D01*
X147961Y86539D01*
X148388Y87038D01*
X148731Y87599D01*
X148983Y88206D01*
X149136Y88845D01*
X149175Y89500D01*
X149136Y90155D01*
X148983Y90794D01*
X148817Y91195D01*
X155500Y97879D01*
Y92121D01*
X146695Y83317D01*
X146294Y83483D01*
X145655Y83636D01*
X145000Y83688D01*
X144345Y83636D01*
X143706Y83483D01*
X143099Y83231D01*
X142538Y82888D01*
X142039Y82461D01*
X142002Y82418D01*
Y86582D01*
G37*
G36*
Y96582D02*X142039Y96539D01*
X142538Y96112D01*
X143099Y95769D01*
X143706Y95517D01*
X144345Y95364D01*
X145000Y95312D01*
X145655Y95364D01*
X146294Y95517D01*
X146901Y95769D01*
X147462Y96112D01*
X147961Y96539D01*
X148388Y97038D01*
X148731Y97599D01*
X148983Y98206D01*
X149136Y98845D01*
X149175Y99500D01*
X149136Y100155D01*
X148983Y100794D01*
X148817Y101195D01*
X153500Y105879D01*
Y100121D01*
X146695Y93317D01*
X146294Y93483D01*
X145655Y93636D01*
X145000Y93688D01*
X144345Y93636D01*
X143706Y93483D01*
X143099Y93231D01*
X142538Y92888D01*
X142039Y92461D01*
X142002Y92418D01*
Y96582D01*
G37*
G36*
Y128000D02*X151500D01*
Y108121D01*
X146695Y103317D01*
X146294Y103483D01*
X145655Y103636D01*
X145000Y103688D01*
X144345Y103636D01*
X143706Y103483D01*
X143099Y103231D01*
X142538Y102888D01*
X142039Y102461D01*
X142002Y102418D01*
Y106582D01*
X142039Y106539D01*
X142538Y106112D01*
X143099Y105769D01*
X143706Y105517D01*
X144345Y105364D01*
X145000Y105312D01*
X145655Y105364D01*
X146294Y105517D01*
X146901Y105769D01*
X147462Y106112D01*
X147961Y106539D01*
X148388Y107038D01*
X148731Y107599D01*
X148983Y108206D01*
X149136Y108845D01*
X149175Y109500D01*
X149136Y110155D01*
X148983Y110794D01*
X148731Y111401D01*
X148388Y111962D01*
X147961Y112461D01*
X147462Y112888D01*
X146901Y113231D01*
X146294Y113483D01*
X145655Y113636D01*
X145000Y113688D01*
X144995Y113687D01*
X142002Y116680D01*
Y128000D01*
G37*
G36*
X197675Y213800D02*X198390D01*
X198500Y213794D01*
X199093Y213774D01*
X199681Y213697D01*
X200260Y213568D01*
X200826Y213390D01*
X201374Y213163D01*
X201900Y212889D01*
X202400Y212570D01*
X202871Y212209D01*
X203308Y211808D01*
X203709Y211371D01*
X204070Y210900D01*
X204389Y210400D01*
X204663Y209874D01*
X204890Y209326D01*
X205068Y208760D01*
X205197Y208181D01*
X205274Y207593D01*
X205300Y207000D01*
Y26610D01*
X205294Y26500D01*
X205274Y25907D01*
X205197Y25319D01*
X205068Y24740D01*
X204890Y24174D01*
X204663Y23626D01*
X204389Y23100D01*
X204070Y22600D01*
X203709Y22129D01*
X203308Y21692D01*
X202871Y21291D01*
X202400Y20930D01*
X201900Y20611D01*
X201374Y20337D01*
X200826Y20110D01*
X200260Y19932D01*
X199681Y19803D01*
X199093Y19726D01*
X198500Y19700D01*
X197675D01*
Y24007D01*
X197731Y24099D01*
X197983Y24706D01*
X198136Y25345D01*
X198175Y26000D01*
X198136Y26655D01*
X197983Y27294D01*
X197731Y27901D01*
X197675Y27993D01*
Y33323D01*
X197753Y33330D01*
X197830Y33348D01*
X197903Y33378D01*
X197970Y33419D01*
X198030Y33470D01*
X198081Y33530D01*
X198122Y33597D01*
X198152Y33670D01*
X198170Y33747D01*
X198175Y33825D01*
Y38175D01*
X198170Y38253D01*
X198152Y38330D01*
X198122Y38403D01*
X198081Y38470D01*
X198030Y38530D01*
X197970Y38581D01*
X197903Y38622D01*
X197830Y38652D01*
X197753Y38670D01*
X197675Y38677D01*
Y48507D01*
X197731Y48599D01*
X197983Y49206D01*
X198136Y49845D01*
X198175Y50500D01*
X198136Y51155D01*
X197983Y51794D01*
X197731Y52401D01*
X197675Y52493D01*
Y57823D01*
X197753Y57830D01*
X197830Y57848D01*
X197903Y57878D01*
X197970Y57919D01*
X198030Y57970D01*
X198081Y58030D01*
X198122Y58097D01*
X198152Y58170D01*
X198170Y58247D01*
X198175Y58325D01*
Y62675D01*
X198170Y62753D01*
X198152Y62830D01*
X198122Y62903D01*
X198081Y62970D01*
X198030Y63030D01*
X197970Y63081D01*
X197903Y63122D01*
X197830Y63152D01*
X197753Y63170D01*
X197675Y63177D01*
Y73007D01*
X197731Y73099D01*
X197983Y73706D01*
X198136Y74345D01*
X198175Y75000D01*
X198136Y75655D01*
X197983Y76294D01*
X197731Y76901D01*
X197675Y76993D01*
Y82323D01*
X197753Y82330D01*
X197830Y82348D01*
X197903Y82378D01*
X197970Y82419D01*
X198030Y82470D01*
X198081Y82530D01*
X198122Y82597D01*
X198152Y82670D01*
X198170Y82747D01*
X198175Y82825D01*
Y87175D01*
X198170Y87253D01*
X198152Y87330D01*
X198122Y87403D01*
X198081Y87470D01*
X198030Y87530D01*
X197970Y87581D01*
X197903Y87622D01*
X197830Y87652D01*
X197753Y87670D01*
X197675Y87677D01*
Y97507D01*
X197731Y97599D01*
X197983Y98206D01*
X198136Y98845D01*
X198175Y99500D01*
X198136Y100155D01*
X197983Y100794D01*
X197731Y101401D01*
X197675Y101493D01*
Y106823D01*
X197753Y106830D01*
X197830Y106848D01*
X197903Y106878D01*
X197970Y106919D01*
X198030Y106970D01*
X198081Y107030D01*
X198122Y107097D01*
X198152Y107170D01*
X198170Y107247D01*
X198175Y107325D01*
Y111675D01*
X198170Y111753D01*
X198152Y111830D01*
X198122Y111903D01*
X198081Y111970D01*
X198030Y112030D01*
X197970Y112081D01*
X197903Y112122D01*
X197830Y112152D01*
X197753Y112170D01*
X197675Y112177D01*
Y122007D01*
X197731Y122099D01*
X197983Y122706D01*
X198136Y123345D01*
X198175Y124000D01*
X198136Y124655D01*
X197983Y125294D01*
X197731Y125901D01*
X197675Y125993D01*
Y131323D01*
X197753Y131330D01*
X197830Y131348D01*
X197903Y131378D01*
X197970Y131419D01*
X198030Y131470D01*
X198081Y131530D01*
X198122Y131597D01*
X198152Y131670D01*
X198170Y131747D01*
X198175Y131825D01*
Y136175D01*
X198170Y136253D01*
X198152Y136330D01*
X198122Y136403D01*
X198081Y136470D01*
X198030Y136530D01*
X197970Y136581D01*
X197903Y136622D01*
X197830Y136652D01*
X197753Y136670D01*
X197675Y136677D01*
Y146507D01*
X197731Y146599D01*
X197983Y147206D01*
X198136Y147845D01*
X198175Y148500D01*
X198136Y149155D01*
X197983Y149794D01*
X197731Y150401D01*
X197675Y150493D01*
Y155823D01*
X197753Y155830D01*
X197830Y155848D01*
X197903Y155878D01*
X197970Y155919D01*
X198030Y155970D01*
X198081Y156030D01*
X198122Y156097D01*
X198152Y156170D01*
X198170Y156247D01*
X198175Y156325D01*
Y160675D01*
X198170Y160753D01*
X198152Y160830D01*
X198122Y160903D01*
X198081Y160970D01*
X198030Y161030D01*
X197970Y161081D01*
X197903Y161122D01*
X197830Y161152D01*
X197753Y161170D01*
X197675Y161177D01*
Y171007D01*
X197731Y171099D01*
X197983Y171706D01*
X198136Y172345D01*
X198175Y173000D01*
X198136Y173655D01*
X197983Y174294D01*
X197731Y174901D01*
X197675Y174993D01*
Y180323D01*
X197753Y180330D01*
X197830Y180348D01*
X197903Y180378D01*
X197970Y180419D01*
X198030Y180470D01*
X198081Y180530D01*
X198122Y180597D01*
X198152Y180670D01*
X198170Y180747D01*
X198175Y180825D01*
Y185175D01*
X198170Y185253D01*
X198152Y185330D01*
X198122Y185403D01*
X198081Y185470D01*
X198030Y185530D01*
X197970Y185581D01*
X197903Y185622D01*
X197830Y185652D01*
X197753Y185670D01*
X197675Y185677D01*
Y195507D01*
X197731Y195599D01*
X197983Y196206D01*
X198136Y196845D01*
X198175Y197500D01*
X198136Y198155D01*
X197983Y198794D01*
X197731Y199401D01*
X197675Y199493D01*
Y204823D01*
X197753Y204830D01*
X197830Y204848D01*
X197903Y204878D01*
X197970Y204919D01*
X198030Y204970D01*
X198081Y205030D01*
X198122Y205097D01*
X198152Y205170D01*
X198170Y205247D01*
X198175Y205325D01*
Y209675D01*
X198170Y209753D01*
X198152Y209830D01*
X198122Y209903D01*
X198081Y209970D01*
X198030Y210030D01*
X197970Y210081D01*
X197903Y210122D01*
X197830Y210152D01*
X197753Y210170D01*
X197675Y210177D01*
Y213800D01*
G37*
G36*
Y174993D02*X197388Y175462D01*
X196961Y175961D01*
X196462Y176388D01*
X195901Y176731D01*
X195294Y176983D01*
X194655Y177136D01*
X194000Y177188D01*
Y178825D01*
X196175D01*
X196253Y178830D01*
X196330Y178848D01*
X196403Y178878D01*
X196470Y178919D01*
X196530Y178970D01*
X196581Y179030D01*
X196622Y179097D01*
X196652Y179170D01*
X196670Y179247D01*
X196677Y179325D01*
X196670Y179403D01*
X196652Y179480D01*
X196622Y179553D01*
X196581Y179620D01*
X196530Y179680D01*
X196470Y179731D01*
X196403Y179772D01*
X196330Y179802D01*
X196253Y179820D01*
X196175Y179825D01*
X194000D01*
Y186175D01*
X196175D01*
X196253Y186180D01*
X196330Y186198D01*
X196403Y186228D01*
X196470Y186269D01*
X196530Y186320D01*
X196581Y186380D01*
X196622Y186447D01*
X196652Y186520D01*
X196670Y186597D01*
X196677Y186675D01*
X196670Y186753D01*
X196652Y186830D01*
X196622Y186903D01*
X196581Y186970D01*
X196530Y187030D01*
X196470Y187081D01*
X196403Y187122D01*
X196330Y187152D01*
X196253Y187170D01*
X196175Y187175D01*
X194000D01*
Y193312D01*
X194655Y193364D01*
X195294Y193517D01*
X195901Y193769D01*
X196462Y194112D01*
X196961Y194539D01*
X197388Y195038D01*
X197675Y195507D01*
Y185677D01*
X197597Y185670D01*
X197520Y185652D01*
X197447Y185622D01*
X197380Y185581D01*
X197320Y185530D01*
X197269Y185470D01*
X197228Y185403D01*
X197198Y185330D01*
X197180Y185253D01*
X197175Y185175D01*
Y180825D01*
X197180Y180747D01*
X197198Y180670D01*
X197228Y180597D01*
X197269Y180530D01*
X197320Y180470D01*
X197380Y180419D01*
X197447Y180378D01*
X197520Y180348D01*
X197597Y180330D01*
X197675Y180323D01*
Y174993D01*
G37*
G36*
Y150493D02*X197388Y150962D01*
X196961Y151461D01*
X196462Y151888D01*
X195901Y152231D01*
X195294Y152483D01*
X194655Y152636D01*
X194000Y152688D01*
Y154325D01*
X196175D01*
X196253Y154330D01*
X196330Y154348D01*
X196403Y154378D01*
X196470Y154419D01*
X196530Y154470D01*
X196581Y154530D01*
X196622Y154597D01*
X196652Y154670D01*
X196670Y154747D01*
X196677Y154825D01*
X196670Y154903D01*
X196652Y154980D01*
X196622Y155053D01*
X196581Y155120D01*
X196530Y155180D01*
X196470Y155231D01*
X196403Y155272D01*
X196330Y155302D01*
X196253Y155320D01*
X196175Y155325D01*
X194000D01*
Y161675D01*
X196175D01*
X196253Y161680D01*
X196330Y161698D01*
X196403Y161728D01*
X196470Y161769D01*
X196530Y161820D01*
X196581Y161880D01*
X196622Y161947D01*
X196652Y162020D01*
X196670Y162097D01*
X196677Y162175D01*
X196670Y162253D01*
X196652Y162330D01*
X196622Y162403D01*
X196581Y162470D01*
X196530Y162530D01*
X196470Y162581D01*
X196403Y162622D01*
X196330Y162652D01*
X196253Y162670D01*
X196175Y162675D01*
X194000D01*
Y168812D01*
X194655Y168864D01*
X195294Y169017D01*
X195901Y169269D01*
X196462Y169612D01*
X196961Y170039D01*
X197388Y170538D01*
X197675Y171007D01*
Y161177D01*
X197597Y161170D01*
X197520Y161152D01*
X197447Y161122D01*
X197380Y161081D01*
X197320Y161030D01*
X197269Y160970D01*
X197228Y160903D01*
X197198Y160830D01*
X197180Y160753D01*
X197175Y160675D01*
Y156325D01*
X197180Y156247D01*
X197198Y156170D01*
X197228Y156097D01*
X197269Y156030D01*
X197320Y155970D01*
X197380Y155919D01*
X197447Y155878D01*
X197520Y155848D01*
X197597Y155830D01*
X197675Y155823D01*
Y150493D01*
G37*
G36*
Y125993D02*X197388Y126462D01*
X196961Y126961D01*
X196462Y127388D01*
X195901Y127731D01*
X195294Y127983D01*
X194655Y128136D01*
X194000Y128188D01*
Y129825D01*
X196175D01*
X196253Y129830D01*
X196330Y129848D01*
X196403Y129878D01*
X196470Y129919D01*
X196530Y129970D01*
X196581Y130030D01*
X196622Y130097D01*
X196652Y130170D01*
X196670Y130247D01*
X196677Y130325D01*
X196670Y130403D01*
X196652Y130480D01*
X196622Y130553D01*
X196581Y130620D01*
X196530Y130680D01*
X196470Y130731D01*
X196403Y130772D01*
X196330Y130802D01*
X196253Y130820D01*
X196175Y130825D01*
X194000D01*
Y137175D01*
X196175D01*
X196253Y137180D01*
X196330Y137198D01*
X196403Y137228D01*
X196470Y137269D01*
X196530Y137320D01*
X196581Y137380D01*
X196622Y137447D01*
X196652Y137520D01*
X196670Y137597D01*
X196677Y137675D01*
X196670Y137753D01*
X196652Y137830D01*
X196622Y137903D01*
X196581Y137970D01*
X196530Y138030D01*
X196470Y138081D01*
X196403Y138122D01*
X196330Y138152D01*
X196253Y138170D01*
X196175Y138175D01*
X194000D01*
Y144312D01*
X194655Y144364D01*
X195294Y144517D01*
X195901Y144769D01*
X196462Y145112D01*
X196961Y145539D01*
X197388Y146038D01*
X197675Y146507D01*
Y136677D01*
X197597Y136670D01*
X197520Y136652D01*
X197447Y136622D01*
X197380Y136581D01*
X197320Y136530D01*
X197269Y136470D01*
X197228Y136403D01*
X197198Y136330D01*
X197180Y136253D01*
X197175Y136175D01*
Y131825D01*
X197180Y131747D01*
X197198Y131670D01*
X197228Y131597D01*
X197269Y131530D01*
X197320Y131470D01*
X197380Y131419D01*
X197447Y131378D01*
X197520Y131348D01*
X197597Y131330D01*
X197675Y131323D01*
Y125993D01*
G37*
G36*
Y101493D02*X197388Y101962D01*
X196961Y102461D01*
X196462Y102888D01*
X195901Y103231D01*
X195294Y103483D01*
X194655Y103636D01*
X194000Y103688D01*
Y105325D01*
X196175D01*
X196253Y105330D01*
X196330Y105348D01*
X196403Y105378D01*
X196470Y105419D01*
X196530Y105470D01*
X196581Y105530D01*
X196622Y105597D01*
X196652Y105670D01*
X196670Y105747D01*
X196677Y105825D01*
X196670Y105903D01*
X196652Y105980D01*
X196622Y106053D01*
X196581Y106120D01*
X196530Y106180D01*
X196470Y106231D01*
X196403Y106272D01*
X196330Y106302D01*
X196253Y106320D01*
X196175Y106325D01*
X194000D01*
Y112675D01*
X196175D01*
X196253Y112680D01*
X196330Y112698D01*
X196403Y112728D01*
X196470Y112769D01*
X196530Y112820D01*
X196581Y112880D01*
X196622Y112947D01*
X196652Y113020D01*
X196670Y113097D01*
X196677Y113175D01*
X196670Y113253D01*
X196652Y113330D01*
X196622Y113403D01*
X196581Y113470D01*
X196530Y113530D01*
X196470Y113581D01*
X196403Y113622D01*
X196330Y113652D01*
X196253Y113670D01*
X196175Y113675D01*
X194000D01*
Y119812D01*
X194655Y119864D01*
X195294Y120017D01*
X195901Y120269D01*
X196462Y120612D01*
X196961Y121039D01*
X197388Y121538D01*
X197675Y122007D01*
Y112177D01*
X197597Y112170D01*
X197520Y112152D01*
X197447Y112122D01*
X197380Y112081D01*
X197320Y112030D01*
X197269Y111970D01*
X197228Y111903D01*
X197198Y111830D01*
X197180Y111753D01*
X197175Y111675D01*
Y107325D01*
X197180Y107247D01*
X197198Y107170D01*
X197228Y107097D01*
X197269Y107030D01*
X197320Y106970D01*
X197380Y106919D01*
X197447Y106878D01*
X197520Y106848D01*
X197597Y106830D01*
X197675Y106823D01*
Y101493D01*
G37*
G36*
Y76993D02*X197388Y77462D01*
X196961Y77961D01*
X196462Y78388D01*
X195901Y78731D01*
X195294Y78983D01*
X194655Y79136D01*
X194000Y79188D01*
Y80825D01*
X196175D01*
X196253Y80830D01*
X196330Y80848D01*
X196403Y80878D01*
X196470Y80919D01*
X196530Y80970D01*
X196581Y81030D01*
X196622Y81097D01*
X196652Y81170D01*
X196670Y81247D01*
X196677Y81325D01*
X196670Y81403D01*
X196652Y81480D01*
X196622Y81553D01*
X196581Y81620D01*
X196530Y81680D01*
X196470Y81731D01*
X196403Y81772D01*
X196330Y81802D01*
X196253Y81820D01*
X196175Y81825D01*
X194000D01*
Y88175D01*
X196175D01*
X196253Y88180D01*
X196330Y88198D01*
X196403Y88228D01*
X196470Y88269D01*
X196530Y88320D01*
X196581Y88380D01*
X196622Y88447D01*
X196652Y88520D01*
X196670Y88597D01*
X196677Y88675D01*
X196670Y88753D01*
X196652Y88830D01*
X196622Y88903D01*
X196581Y88970D01*
X196530Y89030D01*
X196470Y89081D01*
X196403Y89122D01*
X196330Y89152D01*
X196253Y89170D01*
X196175Y89175D01*
X194000D01*
Y95312D01*
X194655Y95364D01*
X195294Y95517D01*
X195901Y95769D01*
X196462Y96112D01*
X196961Y96539D01*
X197388Y97038D01*
X197675Y97507D01*
Y87677D01*
X197597Y87670D01*
X197520Y87652D01*
X197447Y87622D01*
X197380Y87581D01*
X197320Y87530D01*
X197269Y87470D01*
X197228Y87403D01*
X197198Y87330D01*
X197180Y87253D01*
X197175Y87175D01*
Y82825D01*
X197180Y82747D01*
X197198Y82670D01*
X197228Y82597D01*
X197269Y82530D01*
X197320Y82470D01*
X197380Y82419D01*
X197447Y82378D01*
X197520Y82348D01*
X197597Y82330D01*
X197675Y82323D01*
Y76993D01*
G37*
G36*
Y52493D02*X197388Y52962D01*
X196961Y53461D01*
X196462Y53888D01*
X195901Y54231D01*
X195294Y54483D01*
X194655Y54636D01*
X194000Y54688D01*
Y56325D01*
X196175D01*
X196253Y56330D01*
X196330Y56348D01*
X196403Y56378D01*
X196470Y56419D01*
X196530Y56470D01*
X196581Y56530D01*
X196622Y56597D01*
X196652Y56670D01*
X196670Y56747D01*
X196677Y56825D01*
X196670Y56903D01*
X196652Y56980D01*
X196622Y57053D01*
X196581Y57120D01*
X196530Y57180D01*
X196470Y57231D01*
X196403Y57272D01*
X196330Y57302D01*
X196253Y57320D01*
X196175Y57325D01*
X194000D01*
Y63675D01*
X196175D01*
X196253Y63680D01*
X196330Y63698D01*
X196403Y63728D01*
X196470Y63769D01*
X196530Y63820D01*
X196581Y63880D01*
X196622Y63947D01*
X196652Y64020D01*
X196670Y64097D01*
X196677Y64175D01*
X196670Y64253D01*
X196652Y64330D01*
X196622Y64403D01*
X196581Y64470D01*
X196530Y64530D01*
X196470Y64581D01*
X196403Y64622D01*
X196330Y64652D01*
X196253Y64670D01*
X196175Y64675D01*
X194000D01*
Y70812D01*
X194655Y70864D01*
X195294Y71017D01*
X195901Y71269D01*
X196462Y71612D01*
X196961Y72039D01*
X197388Y72538D01*
X197675Y73007D01*
Y63177D01*
X197597Y63170D01*
X197520Y63152D01*
X197447Y63122D01*
X197380Y63081D01*
X197320Y63030D01*
X197269Y62970D01*
X197228Y62903D01*
X197198Y62830D01*
X197180Y62753D01*
X197175Y62675D01*
Y58325D01*
X197180Y58247D01*
X197198Y58170D01*
X197228Y58097D01*
X197269Y58030D01*
X197320Y57970D01*
X197380Y57919D01*
X197447Y57878D01*
X197520Y57848D01*
X197597Y57830D01*
X197675Y57823D01*
Y52493D01*
G37*
G36*
Y27993D02*X197388Y28462D01*
X196961Y28961D01*
X196462Y29388D01*
X195901Y29731D01*
X195294Y29983D01*
X194655Y30136D01*
X194000Y30188D01*
Y31825D01*
X196175D01*
X196253Y31830D01*
X196330Y31848D01*
X196403Y31878D01*
X196470Y31919D01*
X196530Y31970D01*
X196581Y32030D01*
X196622Y32097D01*
X196652Y32170D01*
X196670Y32247D01*
X196677Y32325D01*
X196670Y32403D01*
X196652Y32480D01*
X196622Y32553D01*
X196581Y32620D01*
X196530Y32680D01*
X196470Y32731D01*
X196403Y32772D01*
X196330Y32802D01*
X196253Y32820D01*
X196175Y32825D01*
X194000D01*
Y39175D01*
X196175D01*
X196253Y39180D01*
X196330Y39198D01*
X196403Y39228D01*
X196470Y39269D01*
X196530Y39320D01*
X196581Y39380D01*
X196622Y39447D01*
X196652Y39520D01*
X196670Y39597D01*
X196677Y39675D01*
X196670Y39753D01*
X196652Y39830D01*
X196622Y39903D01*
X196581Y39970D01*
X196530Y40030D01*
X196470Y40081D01*
X196403Y40122D01*
X196330Y40152D01*
X196253Y40170D01*
X196175Y40175D01*
X194000D01*
Y46312D01*
X194655Y46364D01*
X195294Y46517D01*
X195901Y46769D01*
X196462Y47112D01*
X196961Y47539D01*
X197388Y48038D01*
X197675Y48507D01*
Y38677D01*
X197597Y38670D01*
X197520Y38652D01*
X197447Y38622D01*
X197380Y38581D01*
X197320Y38530D01*
X197269Y38470D01*
X197228Y38403D01*
X197198Y38330D01*
X197180Y38253D01*
X197175Y38175D01*
Y33825D01*
X197180Y33747D01*
X197198Y33670D01*
X197228Y33597D01*
X197269Y33530D01*
X197320Y33470D01*
X197380Y33419D01*
X197447Y33378D01*
X197520Y33348D01*
X197597Y33330D01*
X197675Y33323D01*
Y27993D01*
G37*
G36*
Y19700D02*X194000D01*
Y21812D01*
X194655Y21864D01*
X195294Y22017D01*
X195901Y22269D01*
X196462Y22612D01*
X196961Y23039D01*
X197388Y23538D01*
X197675Y24007D01*
Y19700D01*
G37*
G36*
X194000Y213800D02*X197675D01*
Y210177D01*
X197597Y210170D01*
X197520Y210152D01*
X197447Y210122D01*
X197380Y210081D01*
X197320Y210030D01*
X197269Y209970D01*
X197228Y209903D01*
X197198Y209830D01*
X197180Y209753D01*
X197175Y209675D01*
Y205325D01*
X197180Y205247D01*
X197198Y205170D01*
X197228Y205097D01*
X197269Y205030D01*
X197320Y204970D01*
X197380Y204919D01*
X197447Y204878D01*
X197520Y204848D01*
X197597Y204830D01*
X197675Y204823D01*
Y199493D01*
X197388Y199962D01*
X196961Y200461D01*
X196462Y200888D01*
X195901Y201231D01*
X195294Y201483D01*
X194655Y201636D01*
X194000Y201688D01*
Y203325D01*
X196175D01*
X196253Y203330D01*
X196330Y203348D01*
X196403Y203378D01*
X196470Y203419D01*
X196530Y203470D01*
X196581Y203530D01*
X196622Y203597D01*
X196652Y203670D01*
X196670Y203747D01*
X196677Y203825D01*
X196670Y203903D01*
X196652Y203980D01*
X196622Y204053D01*
X196581Y204120D01*
X196530Y204180D01*
X196470Y204231D01*
X196403Y204272D01*
X196330Y204302D01*
X196253Y204320D01*
X196175Y204325D01*
X194000D01*
Y210675D01*
X196175D01*
X196253Y210680D01*
X196330Y210698D01*
X196403Y210728D01*
X196470Y210769D01*
X196530Y210820D01*
X196581Y210880D01*
X196622Y210947D01*
X196652Y211020D01*
X196670Y211097D01*
X196677Y211175D01*
X196670Y211253D01*
X196652Y211330D01*
X196622Y211403D01*
X196581Y211470D01*
X196530Y211530D01*
X196470Y211581D01*
X196403Y211622D01*
X196330Y211652D01*
X196253Y211670D01*
X196175Y211675D01*
X194000D01*
Y213800D01*
G37*
G36*
Y177188D02*X194000D01*
X193345Y177136D01*
X192706Y176983D01*
X192305Y176817D01*
X190325Y178796D01*
Y180323D01*
X190403Y180330D01*
X190480Y180348D01*
X190553Y180378D01*
X190620Y180419D01*
X190680Y180470D01*
X190731Y180530D01*
X190772Y180597D01*
X190802Y180670D01*
X190820Y180747D01*
X190825Y180825D01*
Y185175D01*
X190820Y185253D01*
X190802Y185330D01*
X190772Y185403D01*
X190731Y185470D01*
X190680Y185530D01*
X190620Y185581D01*
X190553Y185622D01*
X190480Y185652D01*
X190403Y185670D01*
X190325Y185677D01*
Y195507D01*
X190612Y195038D01*
X191039Y194539D01*
X191538Y194112D01*
X192099Y193769D01*
X192706Y193517D01*
X193345Y193364D01*
X194000Y193312D01*
X194000D01*
Y187175D01*
X191825D01*
X191747Y187170D01*
X191670Y187152D01*
X191597Y187122D01*
X191530Y187081D01*
X191470Y187030D01*
X191419Y186970D01*
X191378Y186903D01*
X191348Y186830D01*
X191330Y186753D01*
X191323Y186675D01*
X191330Y186597D01*
X191348Y186520D01*
X191378Y186447D01*
X191419Y186380D01*
X191470Y186320D01*
X191530Y186269D01*
X191597Y186228D01*
X191670Y186198D01*
X191747Y186180D01*
X191825Y186175D01*
X194000D01*
Y179825D01*
X191825D01*
X191747Y179820D01*
X191670Y179802D01*
X191597Y179772D01*
X191530Y179731D01*
X191470Y179680D01*
X191419Y179620D01*
X191378Y179553D01*
X191348Y179480D01*
X191330Y179403D01*
X191323Y179325D01*
X191330Y179247D01*
X191348Y179170D01*
X191378Y179097D01*
X191419Y179030D01*
X191470Y178970D01*
X191530Y178919D01*
X191597Y178878D01*
X191670Y178848D01*
X191747Y178830D01*
X191825Y178825D01*
X194000D01*
Y177188D01*
G37*
G36*
X190325Y178796D02*X183994Y185128D01*
Y205385D01*
X190183Y199195D01*
X190017Y198794D01*
X189864Y198155D01*
X189812Y197500D01*
X189864Y196845D01*
X190017Y196206D01*
X190269Y195599D01*
X190325Y195507D01*
Y185677D01*
X190247Y185670D01*
X190170Y185652D01*
X190097Y185622D01*
X190030Y185581D01*
X189970Y185530D01*
X189919Y185470D01*
X189878Y185403D01*
X189848Y185330D01*
X189830Y185253D01*
X189825Y185175D01*
Y180825D01*
X189830Y180747D01*
X189848Y180670D01*
X189878Y180597D01*
X189919Y180530D01*
X189970Y180470D01*
X190030Y180419D01*
X190097Y180378D01*
X190170Y180348D01*
X190247Y180330D01*
X190325Y180323D01*
Y178796D01*
G37*
G36*
X194000Y152688D02*X194000D01*
X193345Y152636D01*
X192706Y152483D01*
X192305Y152317D01*
X190325Y154296D01*
Y155823D01*
X190403Y155830D01*
X190480Y155848D01*
X190553Y155878D01*
X190620Y155919D01*
X190680Y155970D01*
X190731Y156030D01*
X190772Y156097D01*
X190802Y156170D01*
X190820Y156247D01*
X190825Y156325D01*
Y160675D01*
X190820Y160753D01*
X190802Y160830D01*
X190772Y160903D01*
X190731Y160970D01*
X190680Y161030D01*
X190620Y161081D01*
X190553Y161122D01*
X190480Y161152D01*
X190403Y161170D01*
X190325Y161177D01*
Y171007D01*
X190612Y170538D01*
X191039Y170039D01*
X191538Y169612D01*
X192099Y169269D01*
X192706Y169017D01*
X193345Y168864D01*
X194000Y168812D01*
X194000D01*
Y162675D01*
X191825D01*
X191747Y162670D01*
X191670Y162652D01*
X191597Y162622D01*
X191530Y162581D01*
X191470Y162530D01*
X191419Y162470D01*
X191378Y162403D01*
X191348Y162330D01*
X191330Y162253D01*
X191323Y162175D01*
X191330Y162097D01*
X191348Y162020D01*
X191378Y161947D01*
X191419Y161880D01*
X191470Y161820D01*
X191530Y161769D01*
X191597Y161728D01*
X191670Y161698D01*
X191747Y161680D01*
X191825Y161675D01*
X194000D01*
Y155325D01*
X191825D01*
X191747Y155320D01*
X191670Y155302D01*
X191597Y155272D01*
X191530Y155231D01*
X191470Y155180D01*
X191419Y155120D01*
X191378Y155053D01*
X191348Y154980D01*
X191330Y154903D01*
X191323Y154825D01*
X191330Y154747D01*
X191348Y154670D01*
X191378Y154597D01*
X191419Y154530D01*
X191470Y154470D01*
X191530Y154419D01*
X191597Y154378D01*
X191670Y154348D01*
X191747Y154330D01*
X191825Y154325D01*
X194000D01*
Y152688D01*
G37*
G36*
X190325Y154296D02*X183994Y160628D01*
Y180885D01*
X190183Y174695D01*
X190017Y174294D01*
X189864Y173655D01*
X189812Y173000D01*
X189864Y172345D01*
X190017Y171706D01*
X190269Y171099D01*
X190325Y171007D01*
Y161177D01*
X190247Y161170D01*
X190170Y161152D01*
X190097Y161122D01*
X190030Y161081D01*
X189970Y161030D01*
X189919Y160970D01*
X189878Y160903D01*
X189848Y160830D01*
X189830Y160753D01*
X189825Y160675D01*
Y156325D01*
X189830Y156247D01*
X189848Y156170D01*
X189878Y156097D01*
X189919Y156030D01*
X189970Y155970D01*
X190030Y155919D01*
X190097Y155878D01*
X190170Y155848D01*
X190247Y155830D01*
X190325Y155823D01*
Y154296D01*
G37*
G36*
X194000Y128188D02*X194000D01*
X193345Y128136D01*
X192706Y127983D01*
X192305Y127817D01*
X190325Y129796D01*
Y131323D01*
X190403Y131330D01*
X190480Y131348D01*
X190553Y131378D01*
X190620Y131419D01*
X190680Y131470D01*
X190731Y131530D01*
X190772Y131597D01*
X190802Y131670D01*
X190820Y131747D01*
X190825Y131825D01*
Y136175D01*
X190820Y136253D01*
X190802Y136330D01*
X190772Y136403D01*
X190731Y136470D01*
X190680Y136530D01*
X190620Y136581D01*
X190553Y136622D01*
X190480Y136652D01*
X190403Y136670D01*
X190325Y136677D01*
Y146507D01*
X190612Y146038D01*
X191039Y145539D01*
X191538Y145112D01*
X192099Y144769D01*
X192706Y144517D01*
X193345Y144364D01*
X194000Y144312D01*
X194000D01*
Y138175D01*
X191825D01*
X191747Y138170D01*
X191670Y138152D01*
X191597Y138122D01*
X191530Y138081D01*
X191470Y138030D01*
X191419Y137970D01*
X191378Y137903D01*
X191348Y137830D01*
X191330Y137753D01*
X191323Y137675D01*
X191330Y137597D01*
X191348Y137520D01*
X191378Y137447D01*
X191419Y137380D01*
X191470Y137320D01*
X191530Y137269D01*
X191597Y137228D01*
X191670Y137198D01*
X191747Y137180D01*
X191825Y137175D01*
X194000D01*
Y130825D01*
X191825D01*
X191747Y130820D01*
X191670Y130802D01*
X191597Y130772D01*
X191530Y130731D01*
X191470Y130680D01*
X191419Y130620D01*
X191378Y130553D01*
X191348Y130480D01*
X191330Y130403D01*
X191323Y130325D01*
X191330Y130247D01*
X191348Y130170D01*
X191378Y130097D01*
X191419Y130030D01*
X191470Y129970D01*
X191530Y129919D01*
X191597Y129878D01*
X191670Y129848D01*
X191747Y129830D01*
X191825Y129825D01*
X194000D01*
Y128188D01*
G37*
G36*
X190325Y129796D02*X183994Y136128D01*
Y156385D01*
X190183Y150195D01*
X190017Y149794D01*
X189864Y149155D01*
X189812Y148500D01*
X189864Y147845D01*
X190017Y147206D01*
X190269Y146599D01*
X190325Y146507D01*
Y136677D01*
X190247Y136670D01*
X190170Y136652D01*
X190097Y136622D01*
X190030Y136581D01*
X189970Y136530D01*
X189919Y136470D01*
X189878Y136403D01*
X189848Y136330D01*
X189830Y136253D01*
X189825Y136175D01*
Y131825D01*
X189830Y131747D01*
X189848Y131670D01*
X189878Y131597D01*
X189919Y131530D01*
X189970Y131470D01*
X190030Y131419D01*
X190097Y131378D01*
X190170Y131348D01*
X190247Y131330D01*
X190325Y131323D01*
Y129796D01*
G37*
G36*
X194000Y103688D02*X194000D01*
X193345Y103636D01*
X192706Y103483D01*
X192305Y103317D01*
X190325Y105296D01*
Y106823D01*
X190403Y106830D01*
X190480Y106848D01*
X190553Y106878D01*
X190620Y106919D01*
X190680Y106970D01*
X190731Y107030D01*
X190772Y107097D01*
X190802Y107170D01*
X190820Y107247D01*
X190825Y107325D01*
Y111675D01*
X190820Y111753D01*
X190802Y111830D01*
X190772Y111903D01*
X190731Y111970D01*
X190680Y112030D01*
X190620Y112081D01*
X190553Y112122D01*
X190480Y112152D01*
X190403Y112170D01*
X190325Y112177D01*
Y122007D01*
X190612Y121538D01*
X191039Y121039D01*
X191538Y120612D01*
X192099Y120269D01*
X192706Y120017D01*
X193345Y119864D01*
X194000Y119812D01*
X194000D01*
Y113675D01*
X191825D01*
X191747Y113670D01*
X191670Y113652D01*
X191597Y113622D01*
X191530Y113581D01*
X191470Y113530D01*
X191419Y113470D01*
X191378Y113403D01*
X191348Y113330D01*
X191330Y113253D01*
X191323Y113175D01*
X191330Y113097D01*
X191348Y113020D01*
X191378Y112947D01*
X191419Y112880D01*
X191470Y112820D01*
X191530Y112769D01*
X191597Y112728D01*
X191670Y112698D01*
X191747Y112680D01*
X191825Y112675D01*
X194000D01*
Y106325D01*
X191825D01*
X191747Y106320D01*
X191670Y106302D01*
X191597Y106272D01*
X191530Y106231D01*
X191470Y106180D01*
X191419Y106120D01*
X191378Y106053D01*
X191348Y105980D01*
X191330Y105903D01*
X191323Y105825D01*
X191330Y105747D01*
X191348Y105670D01*
X191378Y105597D01*
X191419Y105530D01*
X191470Y105470D01*
X191530Y105419D01*
X191597Y105378D01*
X191670Y105348D01*
X191747Y105330D01*
X191825Y105325D01*
X194000D01*
Y103688D01*
G37*
G36*
X190325Y105296D02*X183994Y111628D01*
Y131885D01*
X190183Y125695D01*
X190017Y125294D01*
X189864Y124655D01*
X189812Y124000D01*
X189864Y123345D01*
X190017Y122706D01*
X190269Y122099D01*
X190325Y122007D01*
Y112177D01*
X190247Y112170D01*
X190170Y112152D01*
X190097Y112122D01*
X190030Y112081D01*
X189970Y112030D01*
X189919Y111970D01*
X189878Y111903D01*
X189848Y111830D01*
X189830Y111753D01*
X189825Y111675D01*
Y107325D01*
X189830Y107247D01*
X189848Y107170D01*
X189878Y107097D01*
X189919Y107030D01*
X189970Y106970D01*
X190030Y106919D01*
X190097Y106878D01*
X190170Y106848D01*
X190247Y106830D01*
X190325Y106823D01*
Y105296D01*
G37*
G36*
X194000Y79188D02*X194000D01*
X193345Y79136D01*
X192706Y78983D01*
X192305Y78817D01*
X190325Y80796D01*
Y82323D01*
X190403Y82330D01*
X190480Y82348D01*
X190553Y82378D01*
X190620Y82419D01*
X190680Y82470D01*
X190731Y82530D01*
X190772Y82597D01*
X190802Y82670D01*
X190820Y82747D01*
X190825Y82825D01*
Y87175D01*
X190820Y87253D01*
X190802Y87330D01*
X190772Y87403D01*
X190731Y87470D01*
X190680Y87530D01*
X190620Y87581D01*
X190553Y87622D01*
X190480Y87652D01*
X190403Y87670D01*
X190325Y87677D01*
Y97507D01*
X190612Y97038D01*
X191039Y96539D01*
X191538Y96112D01*
X192099Y95769D01*
X192706Y95517D01*
X193345Y95364D01*
X194000Y95312D01*
X194000D01*
Y89175D01*
X191825D01*
X191747Y89170D01*
X191670Y89152D01*
X191597Y89122D01*
X191530Y89081D01*
X191470Y89030D01*
X191419Y88970D01*
X191378Y88903D01*
X191348Y88830D01*
X191330Y88753D01*
X191323Y88675D01*
X191330Y88597D01*
X191348Y88520D01*
X191378Y88447D01*
X191419Y88380D01*
X191470Y88320D01*
X191530Y88269D01*
X191597Y88228D01*
X191670Y88198D01*
X191747Y88180D01*
X191825Y88175D01*
X194000D01*
Y81825D01*
X191825D01*
X191747Y81820D01*
X191670Y81802D01*
X191597Y81772D01*
X191530Y81731D01*
X191470Y81680D01*
X191419Y81620D01*
X191378Y81553D01*
X191348Y81480D01*
X191330Y81403D01*
X191323Y81325D01*
X191330Y81247D01*
X191348Y81170D01*
X191378Y81097D01*
X191419Y81030D01*
X191470Y80970D01*
X191530Y80919D01*
X191597Y80878D01*
X191670Y80848D01*
X191747Y80830D01*
X191825Y80825D01*
X194000D01*
Y79188D01*
G37*
G36*
X190325Y80796D02*X183994Y87128D01*
Y107385D01*
X190183Y101195D01*
X190017Y100794D01*
X189864Y100155D01*
X189812Y99500D01*
X189864Y98845D01*
X190017Y98206D01*
X190269Y97599D01*
X190325Y97507D01*
Y87677D01*
X190247Y87670D01*
X190170Y87652D01*
X190097Y87622D01*
X190030Y87581D01*
X189970Y87530D01*
X189919Y87470D01*
X189878Y87403D01*
X189848Y87330D01*
X189830Y87253D01*
X189825Y87175D01*
Y82825D01*
X189830Y82747D01*
X189848Y82670D01*
X189878Y82597D01*
X189919Y82530D01*
X189970Y82470D01*
X190030Y82419D01*
X190097Y82378D01*
X190170Y82348D01*
X190247Y82330D01*
X190325Y82323D01*
Y80796D01*
G37*
G36*
X194000Y54688D02*X194000D01*
X193345Y54636D01*
X192706Y54483D01*
X192305Y54317D01*
X190325Y56296D01*
Y57823D01*
X190403Y57830D01*
X190480Y57848D01*
X190553Y57878D01*
X190620Y57919D01*
X190680Y57970D01*
X190731Y58030D01*
X190772Y58097D01*
X190802Y58170D01*
X190820Y58247D01*
X190825Y58325D01*
Y62675D01*
X190820Y62753D01*
X190802Y62830D01*
X190772Y62903D01*
X190731Y62970D01*
X190680Y63030D01*
X190620Y63081D01*
X190553Y63122D01*
X190480Y63152D01*
X190403Y63170D01*
X190325Y63177D01*
Y73007D01*
X190612Y72538D01*
X191039Y72039D01*
X191538Y71612D01*
X192099Y71269D01*
X192706Y71017D01*
X193345Y70864D01*
X194000Y70812D01*
X194000D01*
Y64675D01*
X191825D01*
X191747Y64670D01*
X191670Y64652D01*
X191597Y64622D01*
X191530Y64581D01*
X191470Y64530D01*
X191419Y64470D01*
X191378Y64403D01*
X191348Y64330D01*
X191330Y64253D01*
X191323Y64175D01*
X191330Y64097D01*
X191348Y64020D01*
X191378Y63947D01*
X191419Y63880D01*
X191470Y63820D01*
X191530Y63769D01*
X191597Y63728D01*
X191670Y63698D01*
X191747Y63680D01*
X191825Y63675D01*
X194000D01*
Y57325D01*
X191825D01*
X191747Y57320D01*
X191670Y57302D01*
X191597Y57272D01*
X191530Y57231D01*
X191470Y57180D01*
X191419Y57120D01*
X191378Y57053D01*
X191348Y56980D01*
X191330Y56903D01*
X191323Y56825D01*
X191330Y56747D01*
X191348Y56670D01*
X191378Y56597D01*
X191419Y56530D01*
X191470Y56470D01*
X191530Y56419D01*
X191597Y56378D01*
X191670Y56348D01*
X191747Y56330D01*
X191825Y56325D01*
X194000D01*
Y54688D01*
G37*
G36*
X190325Y56296D02*X183994Y62628D01*
Y82885D01*
X190183Y76695D01*
X190017Y76294D01*
X189864Y75655D01*
X189812Y75000D01*
X189864Y74345D01*
X190017Y73706D01*
X190269Y73099D01*
X190325Y73007D01*
Y63177D01*
X190247Y63170D01*
X190170Y63152D01*
X190097Y63122D01*
X190030Y63081D01*
X189970Y63030D01*
X189919Y62970D01*
X189878Y62903D01*
X189848Y62830D01*
X189830Y62753D01*
X189825Y62675D01*
Y58325D01*
X189830Y58247D01*
X189848Y58170D01*
X189878Y58097D01*
X189919Y58030D01*
X189970Y57970D01*
X190030Y57919D01*
X190097Y57878D01*
X190170Y57848D01*
X190247Y57830D01*
X190325Y57823D01*
Y56296D01*
G37*
G36*
X194000Y30188D02*X194000D01*
X193345Y30136D01*
X192706Y29983D01*
X192305Y29817D01*
X190325Y31796D01*
Y33323D01*
X190403Y33330D01*
X190480Y33348D01*
X190553Y33378D01*
X190620Y33419D01*
X190680Y33470D01*
X190731Y33530D01*
X190772Y33597D01*
X190802Y33670D01*
X190820Y33747D01*
X190825Y33825D01*
Y38175D01*
X190820Y38253D01*
X190802Y38330D01*
X190772Y38403D01*
X190731Y38470D01*
X190680Y38530D01*
X190620Y38581D01*
X190553Y38622D01*
X190480Y38652D01*
X190403Y38670D01*
X190325Y38677D01*
Y48507D01*
X190612Y48038D01*
X191039Y47539D01*
X191538Y47112D01*
X192099Y46769D01*
X192706Y46517D01*
X193345Y46364D01*
X194000Y46312D01*
X194000D01*
Y40175D01*
X191825D01*
X191747Y40170D01*
X191670Y40152D01*
X191597Y40122D01*
X191530Y40081D01*
X191470Y40030D01*
X191419Y39970D01*
X191378Y39903D01*
X191348Y39830D01*
X191330Y39753D01*
X191323Y39675D01*
X191330Y39597D01*
X191348Y39520D01*
X191378Y39447D01*
X191419Y39380D01*
X191470Y39320D01*
X191530Y39269D01*
X191597Y39228D01*
X191670Y39198D01*
X191747Y39180D01*
X191825Y39175D01*
X194000D01*
Y32825D01*
X191825D01*
X191747Y32820D01*
X191670Y32802D01*
X191597Y32772D01*
X191530Y32731D01*
X191470Y32680D01*
X191419Y32620D01*
X191378Y32553D01*
X191348Y32480D01*
X191330Y32403D01*
X191323Y32325D01*
X191330Y32247D01*
X191348Y32170D01*
X191378Y32097D01*
X191419Y32030D01*
X191470Y31970D01*
X191530Y31919D01*
X191597Y31878D01*
X191670Y31848D01*
X191747Y31830D01*
X191825Y31825D01*
X194000D01*
Y30188D01*
G37*
G36*
X190325Y31796D02*X183994Y38128D01*
Y58385D01*
X190183Y52195D01*
X190017Y51794D01*
X189864Y51155D01*
X189812Y50500D01*
X189864Y49845D01*
X190017Y49206D01*
X190269Y48599D01*
X190325Y48507D01*
Y38677D01*
X190247Y38670D01*
X190170Y38652D01*
X190097Y38622D01*
X190030Y38581D01*
X189970Y38530D01*
X189919Y38470D01*
X189878Y38403D01*
X189848Y38330D01*
X189830Y38253D01*
X189825Y38175D01*
Y33825D01*
X189830Y33747D01*
X189848Y33670D01*
X189878Y33597D01*
X189919Y33530D01*
X189970Y33470D01*
X190030Y33419D01*
X190097Y33378D01*
X190170Y33348D01*
X190247Y33330D01*
X190325Y33323D01*
Y31796D01*
G37*
G36*
X194000Y19700D02*X183994D01*
Y33885D01*
X190183Y27695D01*
X190017Y27294D01*
X189864Y26655D01*
X189812Y26000D01*
X189864Y25345D01*
X190017Y24706D01*
X190269Y24099D01*
X190612Y23538D01*
X191039Y23039D01*
X191538Y22612D01*
X192099Y22269D01*
X192706Y22017D01*
X193345Y21864D01*
X194000Y21812D01*
X194000D01*
Y19700D01*
G37*
G36*
X190325Y213800D02*X194000D01*
Y211675D01*
X191825D01*
X191747Y211670D01*
X191670Y211652D01*
X191597Y211622D01*
X191530Y211581D01*
X191470Y211530D01*
X191419Y211470D01*
X191378Y211403D01*
X191348Y211330D01*
X191330Y211253D01*
X191323Y211175D01*
X191330Y211097D01*
X191348Y211020D01*
X191378Y210947D01*
X191419Y210880D01*
X191470Y210820D01*
X191530Y210769D01*
X191597Y210728D01*
X191670Y210698D01*
X191747Y210680D01*
X191825Y210675D01*
X194000D01*
Y204325D01*
X191825D01*
X191747Y204320D01*
X191670Y204302D01*
X191597Y204272D01*
X191530Y204231D01*
X191470Y204180D01*
X191419Y204120D01*
X191378Y204053D01*
X191348Y203980D01*
X191330Y203903D01*
X191323Y203825D01*
X191330Y203747D01*
X191348Y203670D01*
X191378Y203597D01*
X191419Y203530D01*
X191470Y203470D01*
X191530Y203419D01*
X191597Y203378D01*
X191670Y203348D01*
X191747Y203330D01*
X191825Y203325D01*
X194000D01*
Y201688D01*
X194000D01*
X193345Y201636D01*
X192706Y201483D01*
X192305Y201317D01*
X190325Y203296D01*
Y204823D01*
X190403Y204830D01*
X190480Y204848D01*
X190553Y204878D01*
X190620Y204919D01*
X190680Y204970D01*
X190731Y205030D01*
X190772Y205097D01*
X190802Y205170D01*
X190820Y205247D01*
X190825Y205325D01*
Y209675D01*
X190820Y209753D01*
X190802Y209830D01*
X190772Y209903D01*
X190731Y209970D01*
X190680Y210030D01*
X190620Y210081D01*
X190553Y210122D01*
X190480Y210152D01*
X190403Y210170D01*
X190325Y210177D01*
Y213800D01*
G37*
G36*
X183994D02*X190325D01*
Y210177D01*
X190247Y210170D01*
X190170Y210152D01*
X190097Y210122D01*
X190030Y210081D01*
X189970Y210030D01*
X189919Y209970D01*
X189878Y209903D01*
X189848Y209830D01*
X189830Y209753D01*
X189825Y209675D01*
Y205325D01*
X189830Y205247D01*
X189848Y205170D01*
X189878Y205097D01*
X189919Y205030D01*
X189970Y204970D01*
X190030Y204919D01*
X190097Y204878D01*
X190170Y204848D01*
X190247Y204830D01*
X190325Y204823D01*
Y203296D01*
X183994Y209628D01*
Y213800D01*
G37*
G36*
Y19700D02*X145436D01*
Y34500D01*
X158379D01*
X160183Y32695D01*
X160017Y32294D01*
X159864Y31655D01*
X159812Y31000D01*
X159864Y30345D01*
X160017Y29706D01*
X160269Y29099D01*
X160612Y28538D01*
X161039Y28039D01*
X161538Y27612D01*
X162099Y27269D01*
X162706Y27017D01*
X163345Y26864D01*
X164000Y26812D01*
X164655Y26864D01*
X165294Y27017D01*
X165901Y27269D01*
X166462Y27612D01*
X166961Y28039D01*
X167388Y28538D01*
X167731Y29099D01*
X167983Y29706D01*
X168136Y30345D01*
X168175Y31000D01*
X168136Y31655D01*
X167983Y32294D01*
X167731Y32901D01*
X167388Y33462D01*
X166961Y33961D01*
X166462Y34388D01*
X165901Y34731D01*
X165294Y34983D01*
X164655Y35136D01*
X164000Y35188D01*
X163345Y35136D01*
X162706Y34983D01*
X162305Y34817D01*
X160621Y36500D01*
X166379D01*
X170183Y32695D01*
X170017Y32294D01*
X169864Y31655D01*
X169812Y31000D01*
X169864Y30345D01*
X170017Y29706D01*
X170269Y29099D01*
X170612Y28538D01*
X171039Y28039D01*
X171538Y27612D01*
X172099Y27269D01*
X172706Y27017D01*
X173345Y26864D01*
X174000Y26812D01*
X174655Y26864D01*
X175294Y27017D01*
X175901Y27269D01*
X176462Y27612D01*
X176961Y28039D01*
X177388Y28538D01*
X177731Y29099D01*
X177983Y29706D01*
X178136Y30345D01*
X178175Y31000D01*
X178136Y31655D01*
X177983Y32294D01*
X177731Y32901D01*
X177388Y33462D01*
X176961Y33961D01*
X176462Y34388D01*
X175901Y34731D01*
X175294Y34983D01*
X174655Y35136D01*
X174000Y35188D01*
X173345Y35136D01*
X172706Y34983D01*
X172305Y34817D01*
X168102Y39019D01*
X168064Y39064D01*
X167884Y39217D01*
X167683Y39341D01*
X167465Y39431D01*
X167235Y39486D01*
X167235Y39486D01*
X167000Y39505D01*
X166941Y39500D01*
X146621D01*
X145436Y40685D01*
Y45346D01*
X145655Y45364D01*
X146294Y45517D01*
X146901Y45769D01*
X147462Y46112D01*
X147961Y46539D01*
X148388Y47038D01*
X148731Y47599D01*
X148983Y48206D01*
X149136Y48845D01*
X149175Y49500D01*
X149136Y50155D01*
X149067Y50445D01*
X171019Y72398D01*
X171064Y72436D01*
X171217Y72615D01*
X171217Y72616D01*
X171341Y72817D01*
X171431Y73035D01*
X171486Y73265D01*
X171505Y73500D01*
X171500Y73559D01*
Y75379D01*
X172305Y76183D01*
X172706Y76017D01*
X173345Y75864D01*
X174000Y75812D01*
X174655Y75864D01*
X175294Y76017D01*
X175901Y76269D01*
X176462Y76612D01*
X176961Y77039D01*
X177388Y77538D01*
X177731Y78099D01*
X177983Y78706D01*
X178136Y79345D01*
X178175Y80000D01*
X178136Y80655D01*
X177983Y81294D01*
X177731Y81901D01*
X177388Y82462D01*
X176961Y82961D01*
X176462Y83388D01*
X175901Y83731D01*
X175294Y83983D01*
X174655Y84136D01*
X174000Y84188D01*
X173345Y84136D01*
X172706Y83983D01*
X172099Y83731D01*
X171538Y83388D01*
X171039Y82961D01*
X170612Y82462D01*
X170269Y81901D01*
X170017Y81294D01*
X169864Y80655D01*
X169812Y80000D01*
X169864Y79345D01*
X170017Y78706D01*
X170183Y78305D01*
X168981Y77102D01*
X168936Y77064D01*
X168783Y76884D01*
X168659Y76683D01*
X168569Y76465D01*
X168514Y76235D01*
X168514Y76235D01*
X168495Y76000D01*
X168500Y75941D01*
Y74121D01*
X147341Y52962D01*
X146901Y53231D01*
X146294Y53483D01*
X145655Y53636D01*
X145436Y53654D01*
Y55346D01*
X145655Y55364D01*
X146294Y55517D01*
X146901Y55769D01*
X147462Y56112D01*
X147961Y56539D01*
X148388Y57038D01*
X148731Y57599D01*
X148898Y58000D01*
X149941D01*
X150000Y57995D01*
X150235Y58014D01*
X150235Y58014D01*
X150465Y58069D01*
X150683Y58159D01*
X150884Y58283D01*
X151064Y58436D01*
X151102Y58481D01*
X165019Y72398D01*
X165064Y72436D01*
X165217Y72615D01*
X165217Y72616D01*
X165341Y72817D01*
X165431Y73035D01*
X165486Y73265D01*
X165505Y73500D01*
X165500Y73559D01*
Y76102D01*
X165901Y76269D01*
X166462Y76612D01*
X166961Y77039D01*
X167388Y77538D01*
X167731Y78099D01*
X167983Y78706D01*
X168136Y79345D01*
X168175Y80000D01*
X168136Y80655D01*
X167983Y81294D01*
X167731Y81901D01*
X167388Y82462D01*
X166961Y82961D01*
X166462Y83388D01*
X165901Y83731D01*
X165294Y83983D01*
X164655Y84136D01*
X164000Y84188D01*
X163345Y84136D01*
X162706Y83983D01*
X162099Y83731D01*
X161538Y83388D01*
X161039Y82961D01*
X160612Y82462D01*
X160269Y81901D01*
X160017Y81294D01*
X159864Y80655D01*
X159812Y80000D01*
X159864Y79345D01*
X160017Y78706D01*
X160269Y78099D01*
X160612Y77538D01*
X161039Y77039D01*
X161538Y76612D01*
X162099Y76269D01*
X162500Y76102D01*
Y74121D01*
X149379Y61000D01*
X148898D01*
X148731Y61401D01*
X148388Y61962D01*
X147961Y62461D01*
X147462Y62888D01*
X146901Y63231D01*
X146294Y63483D01*
X145655Y63636D01*
X145436Y63654D01*
Y65346D01*
X145655Y65364D01*
X146294Y65517D01*
X146901Y65769D01*
X147462Y66112D01*
X147961Y66539D01*
X148388Y67038D01*
X148731Y67599D01*
X148983Y68206D01*
X149136Y68845D01*
X149175Y69500D01*
X149136Y70155D01*
X148983Y70794D01*
X148817Y71195D01*
X160019Y82398D01*
X160064Y82436D01*
X160217Y82615D01*
X160217Y82616D01*
X160341Y82817D01*
X160431Y83035D01*
X160486Y83265D01*
X160505Y83500D01*
X160500Y83559D01*
Y102721D01*
X160612Y102538D01*
X161039Y102039D01*
X161538Y101612D01*
X162099Y101269D01*
X162706Y101017D01*
X163345Y100864D01*
X164000Y100812D01*
X164655Y100864D01*
X165294Y101017D01*
X165901Y101269D01*
X166462Y101612D01*
X166961Y102039D01*
X167388Y102538D01*
X167731Y103099D01*
X167983Y103706D01*
X168136Y104345D01*
X168175Y105000D01*
X168136Y105655D01*
X167983Y106294D01*
X167817Y106695D01*
X171621Y110500D01*
X180879D01*
X183994Y107385D01*
Y87128D01*
X175500Y95621D01*
Y101102D01*
X175901Y101269D01*
X176462Y101612D01*
X176961Y102039D01*
X177388Y102538D01*
X177731Y103099D01*
X177983Y103706D01*
X178136Y104345D01*
X178175Y105000D01*
X178136Y105655D01*
X177983Y106294D01*
X177731Y106901D01*
X177388Y107462D01*
X176961Y107961D01*
X176462Y108388D01*
X175901Y108731D01*
X175294Y108983D01*
X174655Y109136D01*
X174000Y109188D01*
X173345Y109136D01*
X172706Y108983D01*
X172099Y108731D01*
X171538Y108388D01*
X171039Y107961D01*
X170612Y107462D01*
X170269Y106901D01*
X170017Y106294D01*
X169864Y105655D01*
X169812Y105000D01*
X169864Y104345D01*
X170017Y103706D01*
X170269Y103099D01*
X170612Y102538D01*
X171039Y102039D01*
X171538Y101612D01*
X172099Y101269D01*
X172500Y101102D01*
Y95059D01*
X172495Y95000D01*
X172514Y94765D01*
X172569Y94535D01*
X172659Y94317D01*
X172783Y94116D01*
X172936Y93936D01*
X172981Y93898D01*
X183994Y82885D01*
Y62628D01*
X182602Y64019D01*
X182564Y64064D01*
X182384Y64217D01*
X182183Y64341D01*
X181965Y64431D01*
X181735Y64486D01*
X181735Y64486D01*
X181500Y64505D01*
X181441Y64500D01*
X171059D01*
X171000Y64505D01*
X170765Y64486D01*
X170535Y64431D01*
X170317Y64341D01*
X170116Y64217D01*
X170115Y64217D01*
X169936Y64064D01*
X169898Y64019D01*
X165695Y59817D01*
X165294Y59983D01*
X164655Y60136D01*
X164000Y60188D01*
X163345Y60136D01*
X162706Y59983D01*
X162099Y59731D01*
X161538Y59388D01*
X161039Y58961D01*
X160612Y58462D01*
X160269Y57901D01*
X160017Y57294D01*
X159864Y56655D01*
X159812Y56000D01*
X159864Y55345D01*
X160017Y54706D01*
X160269Y54099D01*
X160612Y53538D01*
X161039Y53039D01*
X161538Y52612D01*
X162099Y52269D01*
X162706Y52017D01*
X163345Y51864D01*
X164000Y51812D01*
X164655Y51864D01*
X165294Y52017D01*
X165901Y52269D01*
X166462Y52612D01*
X166961Y53039D01*
X167388Y53538D01*
X167731Y54099D01*
X167983Y54706D01*
X168136Y55345D01*
X168175Y56000D01*
X168136Y56655D01*
X167983Y57294D01*
X167817Y57695D01*
X171621Y61500D01*
X180879D01*
X183994Y58385D01*
Y38128D01*
X175500Y46621D01*
Y52102D01*
X175901Y52269D01*
X176462Y52612D01*
X176961Y53039D01*
X177388Y53538D01*
X177731Y54099D01*
X177983Y54706D01*
X178136Y55345D01*
X178175Y56000D01*
X178136Y56655D01*
X177983Y57294D01*
X177731Y57901D01*
X177388Y58462D01*
X176961Y58961D01*
X176462Y59388D01*
X175901Y59731D01*
X175294Y59983D01*
X174655Y60136D01*
X174000Y60188D01*
X173345Y60136D01*
X172706Y59983D01*
X172099Y59731D01*
X171538Y59388D01*
X171039Y58961D01*
X170612Y58462D01*
X170269Y57901D01*
X170017Y57294D01*
X169864Y56655D01*
X169812Y56000D01*
X169864Y55345D01*
X170017Y54706D01*
X170269Y54099D01*
X170612Y53538D01*
X171039Y53039D01*
X171538Y52612D01*
X172099Y52269D01*
X172500Y52102D01*
Y46059D01*
X172495Y46000D01*
X172514Y45765D01*
X172569Y45535D01*
X172659Y45317D01*
X172783Y45116D01*
X172936Y44936D01*
X172981Y44898D01*
X183994Y33885D01*
Y19700D01*
G37*
G36*
X145436Y207804D02*X151626Y207807D01*
X151748Y207837D01*
X151864Y207885D01*
X151972Y207951D01*
X152067Y208033D01*
X152149Y208128D01*
X152215Y208236D01*
X152263Y208352D01*
X152293Y208474D01*
X152300Y208600D01*
X152293Y213526D01*
X152263Y213648D01*
X152215Y213764D01*
X152193Y213800D01*
X183994D01*
Y209628D01*
X182602Y211019D01*
X182564Y211064D01*
X182384Y211217D01*
X182183Y211341D01*
X181965Y211431D01*
X181735Y211486D01*
X181735Y211486D01*
X181500Y211505D01*
X181441Y211500D01*
X171059D01*
X171000Y211505D01*
X170765Y211486D01*
X170535Y211431D01*
X170317Y211341D01*
X170116Y211217D01*
X170115Y211217D01*
X169936Y211064D01*
X169898Y211019D01*
X165695Y206817D01*
X165294Y206983D01*
X164655Y207136D01*
X164000Y207188D01*
X163345Y207136D01*
X162706Y206983D01*
X162099Y206731D01*
X161538Y206388D01*
X161039Y205961D01*
X160612Y205462D01*
X160269Y204901D01*
X160017Y204294D01*
X159864Y203655D01*
X159812Y203000D01*
X159864Y202345D01*
X160017Y201706D01*
X160269Y201099D01*
X160612Y200538D01*
X161039Y200039D01*
X161538Y199612D01*
X162099Y199269D01*
X162706Y199017D01*
X163345Y198864D01*
X164000Y198812D01*
X164655Y198864D01*
X165294Y199017D01*
X165901Y199269D01*
X166462Y199612D01*
X166961Y200039D01*
X167388Y200538D01*
X167731Y201099D01*
X167983Y201706D01*
X168136Y202345D01*
X168175Y203000D01*
X168136Y203655D01*
X167983Y204294D01*
X167817Y204695D01*
X171621Y208500D01*
X180879D01*
X183994Y205385D01*
Y185128D01*
X175500Y193621D01*
Y199102D01*
X175901Y199269D01*
X176462Y199612D01*
X176961Y200039D01*
X177388Y200538D01*
X177731Y201099D01*
X177983Y201706D01*
X178136Y202345D01*
X178175Y203000D01*
X178136Y203655D01*
X177983Y204294D01*
X177731Y204901D01*
X177388Y205462D01*
X176961Y205961D01*
X176462Y206388D01*
X175901Y206731D01*
X175294Y206983D01*
X174655Y207136D01*
X174000Y207188D01*
X173345Y207136D01*
X172706Y206983D01*
X172099Y206731D01*
X171538Y206388D01*
X171039Y205961D01*
X170612Y205462D01*
X170269Y204901D01*
X170017Y204294D01*
X169864Y203655D01*
X169812Y203000D01*
X169864Y202345D01*
X170017Y201706D01*
X170269Y201099D01*
X170612Y200538D01*
X171039Y200039D01*
X171538Y199612D01*
X172099Y199269D01*
X172500Y199102D01*
Y193059D01*
X172495Y193000D01*
X172514Y192765D01*
X172569Y192535D01*
X172659Y192317D01*
X172783Y192116D01*
X172936Y191936D01*
X172981Y191898D01*
X183994Y180885D01*
Y160628D01*
X182602Y162019D01*
X182564Y162064D01*
X182384Y162217D01*
X182183Y162341D01*
X181965Y162431D01*
X181735Y162486D01*
X181735Y162486D01*
X181500Y162505D01*
X181441Y162500D01*
X171059D01*
X171000Y162505D01*
X170765Y162486D01*
X170535Y162431D01*
X170317Y162341D01*
X170116Y162217D01*
X170115Y162217D01*
X169936Y162064D01*
X169898Y162019D01*
X165695Y157817D01*
X165294Y157983D01*
X164655Y158136D01*
X164000Y158188D01*
X163345Y158136D01*
X162706Y157983D01*
X162099Y157731D01*
X161538Y157388D01*
X161039Y156961D01*
X160612Y156462D01*
X160269Y155901D01*
X160017Y155294D01*
X159864Y154655D01*
X159812Y154000D01*
X159864Y153345D01*
X160017Y152706D01*
X160269Y152099D01*
X160612Y151538D01*
X161039Y151039D01*
X161538Y150612D01*
X162099Y150269D01*
X162706Y150017D01*
X163345Y149864D01*
X164000Y149812D01*
X164655Y149864D01*
X165294Y150017D01*
X165901Y150269D01*
X166462Y150612D01*
X166961Y151039D01*
X167388Y151538D01*
X167731Y152099D01*
X167983Y152706D01*
X168136Y153345D01*
X168175Y154000D01*
X168136Y154655D01*
X167983Y155294D01*
X167817Y155695D01*
X171621Y159500D01*
X180879D01*
X183994Y156385D01*
Y136128D01*
X175500Y144621D01*
Y150102D01*
X175901Y150269D01*
X176462Y150612D01*
X176961Y151039D01*
X177388Y151538D01*
X177731Y152099D01*
X177983Y152706D01*
X178136Y153345D01*
X178175Y154000D01*
X178136Y154655D01*
X177983Y155294D01*
X177731Y155901D01*
X177388Y156462D01*
X176961Y156961D01*
X176462Y157388D01*
X175901Y157731D01*
X175294Y157983D01*
X174655Y158136D01*
X174000Y158188D01*
X173345Y158136D01*
X172706Y157983D01*
X172099Y157731D01*
X171538Y157388D01*
X171039Y156961D01*
X170612Y156462D01*
X170269Y155901D01*
X170017Y155294D01*
X169864Y154655D01*
X169812Y154000D01*
X169864Y153345D01*
X170017Y152706D01*
X170269Y152099D01*
X170612Y151538D01*
X171039Y151039D01*
X171538Y150612D01*
X172099Y150269D01*
X172500Y150102D01*
Y144059D01*
X172495Y144000D01*
X172514Y143765D01*
X172569Y143535D01*
X172659Y143317D01*
X172783Y143116D01*
X172936Y142936D01*
X172981Y142898D01*
X183994Y131885D01*
Y111628D01*
X182602Y113019D01*
X182564Y113064D01*
X182384Y113217D01*
X182183Y113341D01*
X181965Y113431D01*
X181735Y113486D01*
X181735Y113486D01*
X181500Y113505D01*
X181441Y113500D01*
X171059D01*
X171000Y113505D01*
X170765Y113486D01*
X170535Y113431D01*
X170317Y113341D01*
X170116Y113217D01*
X170115Y113217D01*
X169936Y113064D01*
X169898Y113019D01*
X165695Y108817D01*
X165294Y108983D01*
X164655Y109136D01*
X164000Y109188D01*
X163345Y109136D01*
X162706Y108983D01*
X162099Y108731D01*
X161538Y108388D01*
X161039Y107961D01*
X160612Y107462D01*
X160500Y107279D01*
Y113379D01*
X172305Y125183D01*
X172706Y125017D01*
X173345Y124864D01*
X174000Y124812D01*
X174655Y124864D01*
X175294Y125017D01*
X175901Y125269D01*
X176462Y125612D01*
X176961Y126039D01*
X177388Y126538D01*
X177731Y127099D01*
X177983Y127706D01*
X178136Y128345D01*
X178175Y129000D01*
X178136Y129655D01*
X177983Y130294D01*
X177731Y130901D01*
X177388Y131462D01*
X176961Y131961D01*
X176462Y132388D01*
X175901Y132731D01*
X175294Y132983D01*
X174655Y133136D01*
X174000Y133188D01*
X173345Y133136D01*
X172706Y132983D01*
X172099Y132731D01*
X171538Y132388D01*
X171039Y131961D01*
X170612Y131462D01*
X170269Y130901D01*
X170017Y130294D01*
X169864Y129655D01*
X169812Y129000D01*
X169864Y128345D01*
X170017Y127706D01*
X170183Y127305D01*
X158500Y115621D01*
Y121379D01*
X162305Y125183D01*
X162706Y125017D01*
X163345Y124864D01*
X164000Y124812D01*
X164655Y124864D01*
X165294Y125017D01*
X165901Y125269D01*
X166462Y125612D01*
X166961Y126039D01*
X167388Y126538D01*
X167731Y127099D01*
X167983Y127706D01*
X168136Y128345D01*
X168175Y129000D01*
X168136Y129655D01*
X167983Y130294D01*
X167731Y130901D01*
X167388Y131462D01*
X166961Y131961D01*
X166462Y132388D01*
X165901Y132731D01*
X165294Y132983D01*
X164655Y133136D01*
X164000Y133188D01*
X163345Y133136D01*
X162706Y132983D01*
X162099Y132731D01*
X161538Y132388D01*
X161039Y131961D01*
X160612Y131462D01*
X160269Y130901D01*
X160017Y130294D01*
X159864Y129655D01*
X159812Y129000D01*
X159864Y128345D01*
X160017Y127706D01*
X160183Y127305D01*
X156500Y123621D01*
Y158379D01*
X172305Y174183D01*
X172706Y174017D01*
X173345Y173864D01*
X174000Y173812D01*
X174655Y173864D01*
X175294Y174017D01*
X175901Y174269D01*
X176462Y174612D01*
X176961Y175039D01*
X177388Y175538D01*
X177731Y176099D01*
X177983Y176706D01*
X178136Y177345D01*
X178175Y178000D01*
X178136Y178655D01*
X177983Y179294D01*
X177731Y179901D01*
X177388Y180462D01*
X176961Y180961D01*
X176462Y181388D01*
X175901Y181731D01*
X175294Y181983D01*
X174655Y182136D01*
X174000Y182188D01*
X173345Y182136D01*
X172706Y181983D01*
X172099Y181731D01*
X171538Y181388D01*
X171039Y180961D01*
X170612Y180462D01*
X170269Y179901D01*
X170017Y179294D01*
X169864Y178655D01*
X169812Y178000D01*
X169864Y177345D01*
X170017Y176706D01*
X170183Y176305D01*
X154500Y160621D01*
Y166379D01*
X162305Y174183D01*
X162706Y174017D01*
X163345Y173864D01*
X164000Y173812D01*
X164655Y173864D01*
X165294Y174017D01*
X165901Y174269D01*
X166462Y174612D01*
X166961Y175039D01*
X167388Y175538D01*
X167731Y176099D01*
X167983Y176706D01*
X168136Y177345D01*
X168175Y178000D01*
X168136Y178655D01*
X167983Y179294D01*
X167731Y179901D01*
X167388Y180462D01*
X166961Y180961D01*
X166462Y181388D01*
X165901Y181731D01*
X165294Y181983D01*
X164655Y182136D01*
X164000Y182188D01*
X163345Y182136D01*
X162706Y181983D01*
X162099Y181731D01*
X161538Y181388D01*
X161039Y180961D01*
X160612Y180462D01*
X160269Y179901D01*
X160017Y179294D01*
X159864Y178655D01*
X159812Y178000D01*
X159864Y177345D01*
X160017Y176706D01*
X160183Y176305D01*
X151981Y168102D01*
X151936Y168064D01*
X151783Y167884D01*
X151659Y167683D01*
X151569Y167465D01*
X151514Y167235D01*
X151514Y167235D01*
X151495Y167000D01*
X151500Y166941D01*
Y129500D01*
X145436D01*
Y164754D01*
X145479Y164778D01*
X145541Y164826D01*
X145594Y164884D01*
X145637Y164950D01*
X145816Y165296D01*
X145959Y165659D01*
X146066Y166034D01*
X146139Y166417D01*
X146175Y166805D01*
Y167195D01*
X146139Y167583D01*
X146066Y167966D01*
X145959Y168341D01*
X145816Y168704D01*
X145641Y169052D01*
X145597Y169118D01*
X145543Y169176D01*
X145481Y169225D01*
X145436Y169250D01*
Y207804D01*
G37*
G36*
Y63654D02*X145000Y63688D01*
X144345Y63636D01*
X143706Y63483D01*
X143305Y63317D01*
X142002Y64620D01*
Y66582D01*
X142039Y66539D01*
X142538Y66112D01*
X143099Y65769D01*
X143706Y65517D01*
X144345Y65364D01*
X145000Y65312D01*
X145436Y65346D01*
Y63654D01*
G37*
G36*
Y53654D02*X145000Y53688D01*
X144345Y53636D01*
X143706Y53483D01*
X143305Y53317D01*
X142002Y54620D01*
Y56582D01*
X142039Y56539D01*
X142538Y56112D01*
X143099Y55769D01*
X143706Y55517D01*
X144345Y55364D01*
X145000Y55312D01*
X145436Y55346D01*
Y53654D01*
G37*
G36*
Y40685D02*X142002Y44120D01*
Y46582D01*
X142039Y46539D01*
X142538Y46112D01*
X143099Y45769D01*
X143706Y45517D01*
X144345Y45364D01*
X145000Y45312D01*
X145436Y45346D01*
Y40685D01*
G37*
G36*
Y19700D02*X142002D01*
Y36877D01*
X143898Y34981D01*
X143936Y34936D01*
X144116Y34783D01*
X144317Y34659D01*
X144535Y34569D01*
X144765Y34514D01*
X145000Y34495D01*
X145059Y34500D01*
X145436D01*
Y19700D01*
G37*
G36*
X142002Y207802D02*X145436Y207804D01*
Y169250D01*
X145412Y169264D01*
X145337Y169291D01*
X145259Y169306D01*
X145180Y169309D01*
X145102Y169300D01*
X145025Y169278D01*
X144953Y169245D01*
X144888Y169200D01*
X144830Y169146D01*
X144781Y169084D01*
X144742Y169015D01*
X144715Y168940D01*
X144700Y168863D01*
X144697Y168783D01*
X144706Y168705D01*
X144728Y168628D01*
X144763Y168557D01*
X144899Y168295D01*
X145007Y168019D01*
X145089Y167734D01*
X145144Y167443D01*
X145172Y167148D01*
Y166852D01*
X145144Y166557D01*
X145089Y166266D01*
X145007Y165981D01*
X144899Y165705D01*
X144766Y165441D01*
X144731Y165370D01*
X144710Y165295D01*
X144700Y165216D01*
X144703Y165138D01*
X144718Y165061D01*
X144745Y164987D01*
X144784Y164918D01*
X144832Y164856D01*
X144890Y164802D01*
X144955Y164759D01*
X145027Y164725D01*
X145102Y164704D01*
X145180Y164694D01*
X145259Y164697D01*
X145336Y164712D01*
X145410Y164739D01*
X145436Y164754D01*
Y129500D01*
X142002D01*
Y162825D01*
X142195D01*
X142583Y162861D01*
X142966Y162934D01*
X143341Y163041D01*
X143704Y163184D01*
X144052Y163359D01*
X144118Y163403D01*
X144176Y163457D01*
X144225Y163519D01*
X144264Y163588D01*
X144291Y163663D01*
X144306Y163741D01*
X144309Y163820D01*
X144300Y163898D01*
X144278Y163975D01*
X144245Y164047D01*
X144200Y164112D01*
X144146Y164170D01*
X144084Y164219D01*
X144015Y164258D01*
X143940Y164285D01*
X143863Y164300D01*
X143783Y164303D01*
X143705Y164294D01*
X143628Y164272D01*
X143557Y164237D01*
X143295Y164101D01*
X143019Y163993D01*
X142734Y163911D01*
X142443Y163856D01*
X142148Y163828D01*
X142002D01*
Y170172D01*
X142148D01*
X142443Y170144D01*
X142734Y170089D01*
X143019Y170007D01*
X143295Y169899D01*
X143559Y169766D01*
X143630Y169731D01*
X143705Y169710D01*
X143784Y169700D01*
X143862Y169703D01*
X143939Y169718D01*
X144013Y169745D01*
X144082Y169784D01*
X144144Y169832D01*
X144198Y169890D01*
X144241Y169955D01*
X144275Y170027D01*
X144296Y170102D01*
X144306Y170180D01*
X144303Y170259D01*
X144288Y170336D01*
X144261Y170410D01*
X144222Y170479D01*
X144174Y170541D01*
X144116Y170594D01*
X144050Y170637D01*
X143704Y170816D01*
X143341Y170959D01*
X142966Y171066D01*
X142583Y171139D01*
X142195Y171175D01*
X142002D01*
Y207802D01*
G37*
G36*
Y64620D02*X131102Y75519D01*
X131064Y75564D01*
X130884Y75717D01*
X130683Y75841D01*
X130465Y75931D01*
X130235Y75986D01*
X130235Y75986D01*
X130000Y76005D01*
X129941Y76000D01*
X128353D01*
Y118361D01*
X128404Y118382D01*
X128478Y118427D01*
X128545Y118483D01*
X128601Y118549D01*
X128645Y118623D01*
X128811Y118976D01*
X128939Y119345D01*
X129031Y119724D01*
X129086Y120110D01*
X129105Y120500D01*
X129086Y120890D01*
X129031Y121276D01*
X128939Y121655D01*
X128811Y122024D01*
X128649Y122379D01*
X128604Y122453D01*
X128547Y122519D01*
X128480Y122576D01*
X128406Y122621D01*
X128353Y122643D01*
Y128000D01*
X142002D01*
Y116680D01*
X139016Y119666D01*
X139062Y119857D01*
X139100Y120500D01*
X139062Y121143D01*
X138911Y121771D01*
X138664Y122367D01*
X138327Y122917D01*
X137908Y123408D01*
X137417Y123827D01*
X136867Y124164D01*
X136271Y124411D01*
X135643Y124562D01*
X135000Y124613D01*
X134357Y124562D01*
X133729Y124411D01*
X133133Y124164D01*
X132583Y123827D01*
X132092Y123408D01*
X131673Y122917D01*
X131336Y122367D01*
X131089Y121771D01*
X130938Y121143D01*
X130887Y120500D01*
X130938Y119857D01*
X131089Y119229D01*
X131336Y118633D01*
X131673Y118083D01*
X132092Y117592D01*
X132583Y117173D01*
X133133Y116836D01*
X133729Y116589D01*
X134357Y116438D01*
X135000Y116387D01*
X135643Y116438D01*
X135834Y116484D01*
X141166Y111152D01*
X141017Y110794D01*
X140864Y110155D01*
X140812Y109500D01*
X140864Y108845D01*
X141017Y108206D01*
X141269Y107599D01*
X141612Y107038D01*
X142002Y106582D01*
Y102418D01*
X141612Y101962D01*
X141269Y101401D01*
X141017Y100794D01*
X140864Y100155D01*
X140812Y99500D01*
X140864Y98845D01*
X141017Y98206D01*
X141269Y97599D01*
X141612Y97038D01*
X142002Y96582D01*
Y92418D01*
X141612Y91962D01*
X141269Y91401D01*
X141017Y90794D01*
X140864Y90155D01*
X140812Y89500D01*
X140864Y88845D01*
X141017Y88206D01*
X141269Y87599D01*
X141612Y87038D01*
X142002Y86582D01*
Y82418D01*
X141612Y81962D01*
X141269Y81401D01*
X141017Y80794D01*
X140864Y80155D01*
X140812Y79500D01*
X140864Y78845D01*
X141017Y78206D01*
X141269Y77599D01*
X141612Y77038D01*
X142002Y76582D01*
Y72418D01*
X141612Y71962D01*
X141269Y71401D01*
X141017Y70794D01*
X140864Y70155D01*
X140812Y69500D01*
X140864Y68845D01*
X141017Y68206D01*
X141269Y67599D01*
X141612Y67038D01*
X142002Y66582D01*
Y64620D01*
G37*
G36*
X128353Y76000D02*X125002D01*
Y116395D01*
X125390Y116414D01*
X125776Y116469D01*
X126155Y116561D01*
X126524Y116689D01*
X126879Y116851D01*
X126953Y116896D01*
X127019Y116953D01*
X127076Y117020D01*
X127121Y117094D01*
X127154Y117175D01*
X127174Y117259D01*
X127180Y117346D01*
X127173Y117433D01*
X127152Y117518D01*
X127119Y117598D01*
X127073Y117672D01*
X127016Y117738D01*
X126950Y117794D01*
X126875Y117840D01*
X126795Y117873D01*
X126710Y117893D01*
X126623Y117899D01*
X126536Y117892D01*
X126451Y117871D01*
X126372Y117836D01*
X126114Y117714D01*
X125844Y117621D01*
X125567Y117554D01*
X125285Y117514D01*
X125002Y117500D01*
Y123500D01*
X125285Y123486D01*
X125567Y123446D01*
X125844Y123379D01*
X126114Y123286D01*
X126373Y123167D01*
X126453Y123132D01*
X126537Y123112D01*
X126623Y123104D01*
X126709Y123111D01*
X126793Y123131D01*
X126874Y123163D01*
X126948Y123208D01*
X127014Y123264D01*
X127070Y123330D01*
X127116Y123404D01*
X127149Y123483D01*
X127170Y123567D01*
X127177Y123654D01*
X127171Y123740D01*
X127151Y123824D01*
X127118Y123904D01*
X127073Y123978D01*
X127017Y124045D01*
X126951Y124101D01*
X126877Y124145D01*
X126524Y124311D01*
X126155Y124439D01*
X125776Y124531D01*
X125390Y124586D01*
X125002Y124605D01*
Y128000D01*
X128353D01*
Y122643D01*
X128325Y122654D01*
X128241Y122674D01*
X128154Y122680D01*
X128067Y122673D01*
X127982Y122652D01*
X127902Y122619D01*
X127828Y122573D01*
X127762Y122516D01*
X127706Y122450D01*
X127660Y122375D01*
X127627Y122295D01*
X127607Y122210D01*
X127601Y122123D01*
X127608Y122036D01*
X127629Y121951D01*
X127664Y121872D01*
X127786Y121614D01*
X127879Y121344D01*
X127946Y121067D01*
X127986Y120785D01*
X128000Y120500D01*
X127986Y120215D01*
X127946Y119933D01*
X127879Y119656D01*
X127786Y119386D01*
X127667Y119127D01*
X127632Y119047D01*
X127612Y118963D01*
X127604Y118877D01*
X127611Y118791D01*
X127631Y118707D01*
X127663Y118626D01*
X127708Y118552D01*
X127764Y118486D01*
X127830Y118430D01*
X127904Y118384D01*
X127983Y118351D01*
X128067Y118330D01*
X128154Y118323D01*
X128240Y118329D01*
X128324Y118349D01*
X128353Y118361D01*
Y76000D01*
G37*
G36*
X125002D02*X121675D01*
Y114004D01*
X121826Y114173D01*
X122011Y114475D01*
X122146Y114803D01*
X122229Y115147D01*
X122257Y115500D01*
X122229Y115853D01*
X122146Y116197D01*
X122011Y116525D01*
X121826Y116827D01*
X121675Y117003D01*
Y118346D01*
X121759Y118326D01*
X121846Y118320D01*
X121933Y118327D01*
X122018Y118348D01*
X122098Y118381D01*
X122172Y118427D01*
X122238Y118484D01*
X122294Y118550D01*
X122340Y118625D01*
X122373Y118705D01*
X122393Y118790D01*
X122399Y118877D01*
X122392Y118964D01*
X122371Y119049D01*
X122336Y119128D01*
X122214Y119386D01*
X122121Y119656D01*
X122054Y119933D01*
X122014Y120215D01*
X122000Y120500D01*
X122014Y120785D01*
X122054Y121067D01*
X122121Y121344D01*
X122214Y121614D01*
X122333Y121873D01*
X122368Y121953D01*
X122388Y122037D01*
X122396Y122123D01*
X122389Y122209D01*
X122369Y122293D01*
X122337Y122374D01*
X122292Y122448D01*
X122236Y122514D01*
X122170Y122570D01*
X122096Y122616D01*
X122017Y122649D01*
X121933Y122670D01*
X121846Y122677D01*
X121760Y122671D01*
X121676Y122651D01*
X121675Y122650D01*
Y128000D01*
X125002D01*
Y124605D01*
X125000Y124605D01*
X124610Y124586D01*
X124224Y124531D01*
X123845Y124439D01*
X123476Y124311D01*
X123121Y124149D01*
X123047Y124104D01*
X122981Y124047D01*
X122924Y123980D01*
X122879Y123906D01*
X122846Y123825D01*
X122826Y123741D01*
X122820Y123654D01*
X122827Y123567D01*
X122848Y123482D01*
X122881Y123402D01*
X122927Y123328D01*
X122984Y123262D01*
X123050Y123206D01*
X123125Y123160D01*
X123205Y123127D01*
X123290Y123107D01*
X123377Y123101D01*
X123464Y123108D01*
X123549Y123129D01*
X123628Y123164D01*
X123886Y123286D01*
X124156Y123379D01*
X124433Y123446D01*
X124715Y123486D01*
X125000Y123500D01*
X125002Y123500D01*
Y117500D01*
X125000Y117500D01*
X124715Y117514D01*
X124433Y117554D01*
X124156Y117621D01*
X123886Y117714D01*
X123627Y117833D01*
X123547Y117868D01*
X123463Y117888D01*
X123377Y117896D01*
X123291Y117889D01*
X123207Y117869D01*
X123126Y117837D01*
X123052Y117792D01*
X122986Y117736D01*
X122930Y117670D01*
X122884Y117596D01*
X122851Y117517D01*
X122830Y117433D01*
X122823Y117346D01*
X122829Y117260D01*
X122849Y117176D01*
X122882Y117096D01*
X122927Y117022D01*
X122983Y116955D01*
X123049Y116899D01*
X123123Y116855D01*
X123476Y116689D01*
X123845Y116561D01*
X124224Y116469D01*
X124610Y116414D01*
X125000Y116395D01*
X125002Y116395D01*
Y76000D01*
G37*
G36*
X142002Y54620D02*X131102Y65519D01*
X131064Y65564D01*
X130884Y65717D01*
X130683Y65841D01*
X130465Y65931D01*
X130235Y65986D01*
X130000Y66005D01*
X129941Y66000D01*
X121675D01*
Y73000D01*
X129379D01*
X141183Y61195D01*
X141017Y60794D01*
X140864Y60155D01*
X140812Y59500D01*
X140864Y58845D01*
X141017Y58206D01*
X141269Y57599D01*
X141612Y57038D01*
X142002Y56582D01*
Y54620D01*
G37*
G36*
Y44120D02*X133602Y52519D01*
X133564Y52564D01*
X133384Y52717D01*
X133183Y52841D01*
X132965Y52931D01*
X132735Y52986D01*
X132735Y52986D01*
X132500Y53005D01*
X132441Y53000D01*
X123621D01*
X121675Y54946D01*
Y63000D01*
X129379D01*
X141183Y51195D01*
X141017Y50794D01*
X140864Y50155D01*
X140812Y49500D01*
X140864Y48845D01*
X141017Y48206D01*
X141269Y47599D01*
X141612Y47038D01*
X142002Y46582D01*
Y44120D01*
G37*
G36*
Y19700D02*X141193D01*
X141215Y19736D01*
X141263Y19852D01*
X141293Y19974D01*
X141300Y20100D01*
X141293Y25026D01*
X141263Y25148D01*
X141215Y25264D01*
X141149Y25372D01*
X141067Y25467D01*
X140972Y25549D01*
X140864Y25615D01*
X140748Y25663D01*
X140626Y25693D01*
X140500Y25700D01*
X135000Y25699D01*
Y29936D01*
X138725Y29941D01*
X138878Y29978D01*
X139024Y30038D01*
X139158Y30120D01*
X139278Y30222D01*
X139380Y30342D01*
X139462Y30476D01*
X139522Y30622D01*
X139559Y30775D01*
X139568Y30932D01*
X139559Y38225D01*
X139522Y38378D01*
X139462Y38524D01*
X139380Y38658D01*
X139278Y38778D01*
X139158Y38880D01*
X139024Y38962D01*
X138878Y39022D01*
X138725Y39059D01*
X138568Y39068D01*
X135000Y39064D01*
Y43879D01*
X142002Y36877D01*
Y19700D01*
G37*
G36*
X135000Y25699D02*X121675Y25695D01*
Y31359D01*
X121760Y31260D01*
X122306Y30793D01*
X122920Y30417D01*
X123584Y30142D01*
X124283Y29974D01*
X125000Y29917D01*
X125717Y29974D01*
X126416Y30142D01*
X127080Y30417D01*
X127694Y30793D01*
X128240Y31260D01*
X128707Y31806D01*
X129083Y32420D01*
X129358Y33084D01*
X129526Y33783D01*
X129568Y34500D01*
X129526Y35217D01*
X129358Y35916D01*
X129083Y36580D01*
X128707Y37194D01*
X128240Y37740D01*
X127694Y38207D01*
X127080Y38583D01*
X126416Y38858D01*
X125717Y39026D01*
X125000Y39083D01*
X124283Y39026D01*
X123584Y38858D01*
X122920Y38583D01*
X122306Y38207D01*
X121760Y37740D01*
X121675Y37641D01*
Y48000D01*
X130879D01*
X135000Y43879D01*
Y39064D01*
X131275Y39059D01*
X131122Y39022D01*
X130976Y38962D01*
X130842Y38880D01*
X130722Y38778D01*
X130620Y38658D01*
X130538Y38524D01*
X130478Y38378D01*
X130441Y38225D01*
X130432Y38068D01*
X130441Y30775D01*
X130478Y30622D01*
X130538Y30476D01*
X130620Y30342D01*
X130722Y30222D01*
X130842Y30120D01*
X130976Y30038D01*
X131122Y29978D01*
X131275Y29941D01*
X131432Y29932D01*
X135000Y29936D01*
Y25699D01*
G37*
G36*
X140596Y163066D02*X140659Y163041D01*
X141034Y162934D01*
X141417Y162861D01*
X141805Y162825D01*
X142002D01*
Y129500D01*
X140596D01*
Y140823D01*
X140674Y140830D01*
X140751Y140848D01*
X140824Y140878D01*
X140891Y140919D01*
X140951Y140970D01*
X141002Y141030D01*
X141043Y141097D01*
X141073Y141170D01*
X141091Y141247D01*
X141096Y141325D01*
Y145675D01*
X141091Y145753D01*
X141073Y145830D01*
X141043Y145903D01*
X141002Y145970D01*
X140951Y146030D01*
X140891Y146081D01*
X140824Y146122D01*
X140751Y146152D01*
X140674Y146170D01*
X140596Y146177D01*
Y163066D01*
G37*
G36*
Y169842D02*X140705Y169899D01*
X140981Y170007D01*
X141266Y170089D01*
X141557Y170144D01*
X141852Y170172D01*
X142002D01*
Y163828D01*
X141852D01*
X141557Y163856D01*
X141266Y163911D01*
X140981Y163993D01*
X140705Y164101D01*
X140596Y164156D01*
Y169842D01*
G37*
G36*
Y207801D02*X142002Y207802D01*
Y171175D01*
X141805D01*
X141417Y171139D01*
X141034Y171066D01*
X140659Y170959D01*
X140596Y170934D01*
Y207801D01*
G37*
G36*
X138564Y207800D02*X140596Y207801D01*
Y170934D01*
X140296Y170816D01*
X139948Y170641D01*
X139882Y170597D01*
X139824Y170543D01*
X139775Y170481D01*
X139736Y170412D01*
X139709Y170337D01*
X139694Y170259D01*
X139691Y170180D01*
X139700Y170102D01*
X139722Y170025D01*
X139755Y169953D01*
X139800Y169888D01*
X139854Y169830D01*
X139916Y169781D01*
X139985Y169742D01*
X140060Y169715D01*
X140137Y169700D01*
X140217Y169697D01*
X140295Y169706D01*
X140372Y169728D01*
X140443Y169763D01*
X140596Y169842D01*
Y164156D01*
X140441Y164234D01*
X140370Y164269D01*
X140295Y164290D01*
X140216Y164300D01*
X140138Y164297D01*
X140061Y164282D01*
X139987Y164255D01*
X139918Y164216D01*
X139856Y164168D01*
X139802Y164110D01*
X139759Y164045D01*
X139725Y163973D01*
X139704Y163898D01*
X139694Y163820D01*
X139697Y163741D01*
X139712Y163664D01*
X139739Y163590D01*
X139778Y163521D01*
X139826Y163459D01*
X139884Y163406D01*
X139950Y163363D01*
X140296Y163184D01*
X140596Y163066D01*
Y146177D01*
X140518Y146170D01*
X140441Y146152D01*
X140368Y146122D01*
X140301Y146081D01*
X140241Y146030D01*
X140190Y145970D01*
X140149Y145903D01*
X140119Y145830D01*
X140101Y145753D01*
X140096Y145675D01*
Y141325D01*
X140101Y141247D01*
X140119Y141170D01*
X140149Y141097D01*
X140190Y141030D01*
X140241Y140970D01*
X140301Y140919D01*
X140368Y140878D01*
X140441Y140848D01*
X140518Y140830D01*
X140596Y140823D01*
Y129500D01*
X138564D01*
Y139325D01*
X139096D01*
X139174Y139330D01*
X139251Y139348D01*
X139324Y139378D01*
X139391Y139419D01*
X139451Y139470D01*
X139502Y139530D01*
X139543Y139597D01*
X139573Y139670D01*
X139591Y139747D01*
X139598Y139825D01*
X139591Y139903D01*
X139573Y139980D01*
X139543Y140053D01*
X139502Y140120D01*
X139451Y140180D01*
X139391Y140231D01*
X139324Y140272D01*
X139251Y140302D01*
X139174Y140320D01*
X139096Y140325D01*
X138564D01*
Y146675D01*
X139096D01*
X139174Y146680D01*
X139251Y146698D01*
X139324Y146728D01*
X139391Y146769D01*
X139451Y146820D01*
X139502Y146880D01*
X139543Y146947D01*
X139573Y147020D01*
X139591Y147097D01*
X139598Y147175D01*
X139591Y147253D01*
X139573Y147330D01*
X139543Y147403D01*
X139502Y147470D01*
X139451Y147530D01*
X139391Y147581D01*
X139324Y147622D01*
X139251Y147652D01*
X139174Y147670D01*
X139096Y147675D01*
X138564D01*
Y164750D01*
X138588Y164736D01*
X138663Y164709D01*
X138741Y164694D01*
X138820Y164691D01*
X138898Y164700D01*
X138975Y164722D01*
X139047Y164755D01*
X139112Y164800D01*
X139170Y164854D01*
X139219Y164916D01*
X139258Y164985D01*
X139285Y165060D01*
X139300Y165137D01*
X139303Y165217D01*
X139294Y165295D01*
X139272Y165372D01*
X139237Y165443D01*
X139101Y165705D01*
X138993Y165981D01*
X138911Y166266D01*
X138856Y166557D01*
X138828Y166852D01*
Y167148D01*
X138856Y167443D01*
X138911Y167734D01*
X138993Y168019D01*
X139101Y168295D01*
X139234Y168559D01*
X139269Y168630D01*
X139290Y168705D01*
X139300Y168784D01*
X139297Y168862D01*
X139282Y168939D01*
X139255Y169013D01*
X139216Y169082D01*
X139168Y169144D01*
X139110Y169198D01*
X139045Y169241D01*
X138973Y169275D01*
X138898Y169296D01*
X138820Y169306D01*
X138741Y169303D01*
X138664Y169288D01*
X138590Y169261D01*
X138564Y169246D01*
Y207800D01*
G37*
G36*
X133246Y213800D02*X137407D01*
X137385Y213764D01*
X137337Y213648D01*
X137307Y213526D01*
X137300Y213400D01*
X137307Y208474D01*
X137337Y208352D01*
X137385Y208236D01*
X137451Y208128D01*
X137533Y208033D01*
X137628Y207951D01*
X137736Y207885D01*
X137852Y207837D01*
X137974Y207807D01*
X138100Y207800D01*
X138564Y207800D01*
Y169246D01*
X138521Y169222D01*
X138459Y169174D01*
X138406Y169116D01*
X138363Y169050D01*
X138184Y168704D01*
X138041Y168341D01*
X137934Y167966D01*
X137861Y167583D01*
X137825Y167195D01*
Y166805D01*
X137861Y166417D01*
X137934Y166034D01*
X138041Y165659D01*
X138184Y165296D01*
X138359Y164948D01*
X138403Y164882D01*
X138457Y164824D01*
X138519Y164775D01*
X138564Y164750D01*
Y147675D01*
X134746D01*
X134668Y147670D01*
X134591Y147652D01*
X134518Y147622D01*
X134451Y147581D01*
X134391Y147530D01*
X134340Y147470D01*
X134299Y147403D01*
X134269Y147330D01*
X134251Y147253D01*
X134244Y147175D01*
X134251Y147097D01*
X134269Y147020D01*
X134299Y146947D01*
X134340Y146880D01*
X134391Y146820D01*
X134451Y146769D01*
X134518Y146728D01*
X134591Y146698D01*
X134668Y146680D01*
X134746Y146675D01*
X138564D01*
Y140325D01*
X134746D01*
X134668Y140320D01*
X134591Y140302D01*
X134518Y140272D01*
X134451Y140231D01*
X134391Y140180D01*
X134340Y140120D01*
X134299Y140053D01*
X134269Y139980D01*
X134251Y139903D01*
X134244Y139825D01*
X134251Y139747D01*
X134269Y139670D01*
X134299Y139597D01*
X134340Y139530D01*
X134391Y139470D01*
X134451Y139419D01*
X134518Y139378D01*
X134591Y139348D01*
X134668Y139330D01*
X134746Y139325D01*
X138564D01*
Y129500D01*
X133246D01*
Y140823D01*
X133324Y140830D01*
X133401Y140848D01*
X133474Y140878D01*
X133541Y140919D01*
X133601Y140970D01*
X133652Y141030D01*
X133693Y141097D01*
X133723Y141170D01*
X133741Y141247D01*
X133746Y141325D01*
Y145675D01*
X133741Y145753D01*
X133723Y145830D01*
X133693Y145903D01*
X133652Y145970D01*
X133601Y146030D01*
X133541Y146081D01*
X133474Y146122D01*
X133401Y146152D01*
X133324Y146170D01*
X133246Y146177D01*
Y163006D01*
X133294Y163017D01*
X133901Y163269D01*
X134462Y163612D01*
X134961Y164039D01*
X135388Y164538D01*
X135731Y165099D01*
X135983Y165706D01*
X136136Y166345D01*
X136175Y167000D01*
X136136Y167655D01*
X135983Y168294D01*
X135731Y168901D01*
X135388Y169462D01*
X134961Y169961D01*
X134462Y170388D01*
X133901Y170731D01*
X133294Y170983D01*
X133246Y170994D01*
Y213800D01*
G37*
G36*
Y129500D02*X127073D01*
Y139313D01*
X127079Y139312D01*
X127734Y139364D01*
X128373Y139517D01*
X128980Y139769D01*
X129541Y140112D01*
X130040Y140539D01*
X130467Y141038D01*
X130810Y141599D01*
X131062Y142206D01*
X131215Y142845D01*
X131254Y143500D01*
X131215Y144155D01*
X131062Y144794D01*
X130810Y145401D01*
X130467Y145962D01*
X130040Y146461D01*
X129541Y146888D01*
X128980Y147231D01*
X128373Y147483D01*
X127734Y147636D01*
X127079Y147688D01*
X127073Y147687D01*
Y159951D01*
X130305Y163183D01*
X130706Y163017D01*
X131345Y162864D01*
X132000Y162812D01*
X132655Y162864D01*
X133246Y163006D01*
Y146177D01*
X133168Y146170D01*
X133091Y146152D01*
X133018Y146122D01*
X132951Y146081D01*
X132891Y146030D01*
X132840Y145970D01*
X132799Y145903D01*
X132769Y145830D01*
X132751Y145753D01*
X132746Y145675D01*
Y141325D01*
X132751Y141247D01*
X132769Y141170D01*
X132799Y141097D01*
X132840Y141030D01*
X132891Y140970D01*
X132951Y140919D01*
X133018Y140878D01*
X133091Y140848D01*
X133168Y140830D01*
X133246Y140823D01*
Y129500D01*
G37*
G36*
X127073D02*X121675D01*
Y158500D01*
X124941D01*
X125000Y158495D01*
X125235Y158514D01*
X125235Y158514D01*
X125465Y158569D01*
X125683Y158659D01*
X125884Y158783D01*
X126064Y158936D01*
X126102Y158981D01*
X127073Y159951D01*
Y147687D01*
X126424Y147636D01*
X125785Y147483D01*
X125178Y147231D01*
X124617Y146888D01*
X124118Y146461D01*
X123691Y145962D01*
X123348Y145401D01*
X123096Y144794D01*
X122943Y144155D01*
X122891Y143500D01*
X122943Y142845D01*
X123096Y142206D01*
X123348Y141599D01*
X123691Y141038D01*
X124118Y140539D01*
X124617Y140112D01*
X125178Y139769D01*
X125785Y139517D01*
X126424Y139364D01*
X127073Y139313D01*
Y129500D01*
G37*
G36*
X121675Y213800D02*X133246D01*
Y170994D01*
X132655Y171136D01*
X132000Y171188D01*
X131345Y171136D01*
X130706Y170983D01*
X130099Y170731D01*
X129538Y170388D01*
X129039Y169961D01*
X128612Y169462D01*
X128269Y168901D01*
X128017Y168294D01*
X127864Y167655D01*
X127812Y167000D01*
X127864Y166345D01*
X128017Y165706D01*
X128183Y165305D01*
X124379Y161500D01*
X121675D01*
Y162838D01*
X122000Y162812D01*
X122655Y162864D01*
X123294Y163017D01*
X123901Y163269D01*
X124462Y163612D01*
X124961Y164039D01*
X125388Y164538D01*
X125731Y165099D01*
X125983Y165706D01*
X126136Y166345D01*
X126175Y167000D01*
X126136Y167655D01*
X125983Y168294D01*
X125731Y168901D01*
X125388Y169462D01*
X124961Y169961D01*
X124462Y170388D01*
X123901Y170731D01*
X123294Y170983D01*
X122655Y171136D01*
X122000Y171188D01*
X121675Y171162D01*
Y188200D01*
X126555Y193080D01*
X126706Y193017D01*
X127345Y192864D01*
X128000Y192812D01*
X128655Y192864D01*
X129294Y193017D01*
X129901Y193269D01*
X130462Y193612D01*
X130961Y194039D01*
X131388Y194538D01*
X131731Y195099D01*
X131983Y195706D01*
X132136Y196345D01*
X132175Y197000D01*
X132136Y197655D01*
X131983Y198294D01*
X131731Y198901D01*
X131388Y199462D01*
X130961Y199961D01*
X130462Y200388D01*
X129901Y200731D01*
X129294Y200983D01*
X128655Y201136D01*
X128000Y201188D01*
X127345Y201136D01*
X126706Y200983D01*
X126099Y200731D01*
X125538Y200388D01*
X125039Y199961D01*
X124612Y199462D01*
X124269Y198901D01*
X124017Y198294D01*
X123864Y197655D01*
X123812Y197000D01*
X123864Y196345D01*
X124017Y195706D01*
X124080Y195555D01*
X121675Y193150D01*
Y194323D01*
X121753Y194330D01*
X121830Y194348D01*
X121903Y194378D01*
X121970Y194419D01*
X122030Y194470D01*
X122081Y194530D01*
X122122Y194597D01*
X122152Y194670D01*
X122170Y194747D01*
X122175Y194825D01*
Y199175D01*
X122170Y199253D01*
X122152Y199330D01*
X122122Y199403D01*
X122081Y199470D01*
X122030Y199530D01*
X121970Y199581D01*
X121903Y199622D01*
X121830Y199652D01*
X121753Y199670D01*
X121675Y199677D01*
Y213800D01*
G37*
G36*
Y171162D02*X121345Y171136D01*
X120706Y170983D01*
X120305Y170817D01*
X118102Y173019D01*
X118064Y173064D01*
X118000Y173119D01*
Y186250D01*
X118931D01*
X119000Y186245D01*
X119274Y186266D01*
X119275Y186266D01*
X119542Y186331D01*
X119797Y186436D01*
X120032Y186580D01*
X120241Y186759D01*
X120286Y186811D01*
X121675Y188200D01*
Y171162D01*
G37*
G36*
Y161500D02*X118000D01*
Y165777D01*
X118017Y165706D01*
X118269Y165099D01*
X118612Y164538D01*
X119039Y164039D01*
X119538Y163612D01*
X120099Y163269D01*
X120706Y163017D01*
X121345Y162864D01*
X121675Y162838D01*
Y161500D01*
G37*
G36*
Y129500D02*X118000D01*
Y158500D01*
X121675D01*
Y129500D01*
G37*
G36*
Y117003D02*X121596Y117096D01*
X121327Y117326D01*
X121025Y117511D01*
X120697Y117646D01*
X120353Y117729D01*
X120000Y117757D01*
X119647Y117729D01*
X119303Y117646D01*
X118975Y117511D01*
X118673Y117326D01*
X118409Y117091D01*
X118000Y116682D01*
Y128000D01*
X121675D01*
Y122650D01*
X121596Y122618D01*
X121522Y122573D01*
X121455Y122517D01*
X121399Y122451D01*
X121355Y122377D01*
X121189Y122024D01*
X121061Y121655D01*
X120969Y121276D01*
X120914Y120890D01*
X120895Y120500D01*
X120914Y120110D01*
X120969Y119724D01*
X121061Y119345D01*
X121189Y118976D01*
X121351Y118621D01*
X121396Y118547D01*
X121453Y118481D01*
X121520Y118424D01*
X121594Y118379D01*
X121675Y118346D01*
X121675Y118346D01*
Y117003D01*
G37*
G36*
Y76000D02*X118000D01*
Y76584D01*
X118388Y77038D01*
X118731Y77599D01*
X118983Y78206D01*
X119136Y78845D01*
X119175Y79500D01*
X119136Y80155D01*
X118983Y80794D01*
X118731Y81401D01*
X118388Y81962D01*
X118000Y82416D01*
Y86584D01*
X118388Y87038D01*
X118731Y87599D01*
X118983Y88206D01*
X119136Y88845D01*
X119175Y89500D01*
X119136Y90155D01*
X118983Y90794D01*
X118731Y91401D01*
X118388Y91962D01*
X118000Y92416D01*
Y96584D01*
X118388Y97038D01*
X118731Y97599D01*
X118983Y98206D01*
X119136Y98845D01*
X119175Y99500D01*
X119136Y100155D01*
X118983Y100794D01*
X118731Y101401D01*
X118388Y101962D01*
X118000Y102416D01*
Y105334D01*
X118332Y105334D01*
X118485Y105371D01*
X118630Y105431D01*
X118765Y105513D01*
X118884Y105616D01*
X118987Y105735D01*
X119069Y105870D01*
X119129Y106015D01*
X119166Y106168D01*
X119175Y106325D01*
X119168Y111486D01*
X121591Y113909D01*
X121675Y114004D01*
Y76000D01*
G37*
G36*
Y66000D02*X118000D01*
Y66584D01*
X118388Y67038D01*
X118731Y67599D01*
X118983Y68206D01*
X119136Y68845D01*
X119175Y69500D01*
X119136Y70155D01*
X118983Y70794D01*
X118731Y71401D01*
X118388Y71962D01*
X118000Y72416D01*
Y73000D01*
X121675D01*
Y66000D01*
G37*
G36*
Y54946D02*X118817Y57805D01*
X118983Y58206D01*
X119136Y58845D01*
X119175Y59500D01*
X119136Y60155D01*
X118983Y60794D01*
X118731Y61401D01*
X118388Y61962D01*
X118000Y62416D01*
Y63000D01*
X121675D01*
Y54946D01*
G37*
G36*
Y25695D02*X118000Y25694D01*
Y31054D01*
X118240Y31260D01*
X118707Y31806D01*
X119083Y32420D01*
X119358Y33084D01*
X119526Y33783D01*
X119568Y34500D01*
X119526Y35217D01*
X119358Y35916D01*
X119083Y36580D01*
X118707Y37194D01*
X118240Y37740D01*
X118000Y37946D01*
Y46584D01*
X118388Y47038D01*
X118731Y47599D01*
X118898Y48000D01*
X121675D01*
Y37641D01*
X121293Y37194D01*
X120917Y36580D01*
X120642Y35916D01*
X120474Y35217D01*
X120417Y34500D01*
X120474Y33783D01*
X120642Y33084D01*
X120917Y32420D01*
X121293Y31806D01*
X121675Y31359D01*
Y25695D01*
G37*
G36*
X118000Y213800D02*X121675D01*
Y199677D01*
X121597Y199670D01*
X121520Y199652D01*
X121447Y199622D01*
X121380Y199581D01*
X121320Y199530D01*
X121269Y199470D01*
X121228Y199403D01*
X121198Y199330D01*
X121180Y199253D01*
X121175Y199175D01*
Y194825D01*
X121180Y194747D01*
X121198Y194670D01*
X121228Y194597D01*
X121269Y194530D01*
X121320Y194470D01*
X121380Y194419D01*
X121447Y194378D01*
X121520Y194348D01*
X121597Y194330D01*
X121675Y194323D01*
Y193150D01*
X118275Y189750D01*
X118000D01*
Y192825D01*
X120175D01*
X120253Y192830D01*
X120330Y192848D01*
X120403Y192878D01*
X120470Y192919D01*
X120530Y192970D01*
X120581Y193030D01*
X120622Y193097D01*
X120652Y193170D01*
X120670Y193247D01*
X120677Y193325D01*
X120670Y193403D01*
X120652Y193480D01*
X120622Y193553D01*
X120581Y193620D01*
X120530Y193680D01*
X120470Y193731D01*
X120403Y193772D01*
X120330Y193802D01*
X120253Y193820D01*
X120175Y193825D01*
X118000D01*
Y200175D01*
X120175D01*
X120253Y200180D01*
X120330Y200198D01*
X120403Y200228D01*
X120470Y200269D01*
X120530Y200320D01*
X120581Y200380D01*
X120622Y200447D01*
X120652Y200520D01*
X120670Y200597D01*
X120677Y200675D01*
X120670Y200753D01*
X120652Y200830D01*
X120622Y200903D01*
X120581Y200970D01*
X120530Y201030D01*
X120470Y201081D01*
X120403Y201122D01*
X120330Y201152D01*
X120253Y201170D01*
X120175Y201175D01*
X118000D01*
Y213800D01*
G37*
G36*
Y173119D02*X117884Y173217D01*
X117683Y173341D01*
X117465Y173431D01*
X117235Y173486D01*
X117235Y173486D01*
X117000Y173505D01*
X116941Y173500D01*
X115898D01*
X115731Y173901D01*
X115388Y174462D01*
X114961Y174961D01*
X114462Y175388D01*
X113901Y175731D01*
X113294Y175983D01*
X112655Y176136D01*
X112000Y176188D01*
X111345Y176136D01*
X110706Y175983D01*
X110099Y175731D01*
X109994Y175667D01*
Y186250D01*
X118000D01*
Y173119D01*
G37*
G36*
Y161500D02*X109994D01*
Y168333D01*
X110099Y168269D01*
X110706Y168017D01*
X111345Y167864D01*
X112000Y167812D01*
X112655Y167864D01*
X113294Y168017D01*
X113901Y168269D01*
X114462Y168612D01*
X114961Y169039D01*
X115388Y169538D01*
X115731Y170099D01*
X115898Y170500D01*
X116379D01*
X118000Y168879D01*
Y168223D01*
X117864Y167655D01*
X117812Y167000D01*
X117864Y166345D01*
X118000Y165777D01*
Y161500D01*
G37*
G36*
Y129500D02*X109994D01*
Y143333D01*
X110099Y143269D01*
X110706Y143017D01*
X111345Y142864D01*
X112000Y142812D01*
X112655Y142864D01*
X113294Y143017D01*
X113901Y143269D01*
X114462Y143612D01*
X114961Y144039D01*
X115388Y144538D01*
X115731Y145099D01*
X115983Y145706D01*
X116136Y146345D01*
X116175Y147000D01*
X116136Y147655D01*
X115983Y148294D01*
X115731Y148901D01*
X115388Y149462D01*
X114961Y149961D01*
X114462Y150388D01*
X113901Y150731D01*
X113294Y150983D01*
X112655Y151136D01*
X112000Y151188D01*
X111345Y151136D01*
X110706Y150983D01*
X110099Y150731D01*
X109994Y150667D01*
Y158500D01*
X118000D01*
Y129500D01*
G37*
G36*
Y102416D02*X117961Y102461D01*
X117462Y102888D01*
X116901Y103231D01*
X116294Y103483D01*
X115655Y103636D01*
X115000Y103688D01*
X114345Y103636D01*
X113706Y103483D01*
X113305Y103317D01*
X112602Y104019D01*
X112564Y104064D01*
X112384Y104217D01*
X112183Y104341D01*
X111965Y104431D01*
X111735Y104486D01*
X111500Y104505D01*
X111441Y104500D01*
X109994D01*
Y128000D01*
X118000D01*
Y116682D01*
X114988Y113670D01*
X111668Y113666D01*
X111515Y113629D01*
X111370Y113569D01*
X111235Y113487D01*
X111116Y113384D01*
X111013Y113265D01*
X110931Y113130D01*
X110871Y112985D01*
X110834Y112832D01*
X110825Y112675D01*
X110834Y106168D01*
X110871Y106015D01*
X110931Y105870D01*
X111013Y105735D01*
X111116Y105616D01*
X111235Y105513D01*
X111370Y105431D01*
X111515Y105371D01*
X111668Y105334D01*
X111825Y105325D01*
X118000Y105334D01*
Y102416D01*
G37*
G36*
Y92416D02*X117961Y92461D01*
X117462Y92888D01*
X116901Y93231D01*
X116294Y93483D01*
X115655Y93636D01*
X115000Y93688D01*
X114345Y93636D01*
X113706Y93483D01*
X113099Y93231D01*
X112538Y92888D01*
X112039Y92461D01*
X111612Y91962D01*
X111269Y91401D01*
X111102Y91000D01*
X109994D01*
Y101500D01*
X110879D01*
X111183Y101195D01*
X111017Y100794D01*
X110864Y100155D01*
X110812Y99500D01*
X110864Y98845D01*
X111017Y98206D01*
X111269Y97599D01*
X111612Y97038D01*
X112039Y96539D01*
X112538Y96112D01*
X113099Y95769D01*
X113706Y95517D01*
X114345Y95364D01*
X115000Y95312D01*
X115655Y95364D01*
X116294Y95517D01*
X116901Y95769D01*
X117462Y96112D01*
X117961Y96539D01*
X118000Y96584D01*
Y92416D01*
G37*
G36*
Y82416D02*X117961Y82461D01*
X117462Y82888D01*
X116901Y83231D01*
X116294Y83483D01*
X115655Y83636D01*
X115000Y83688D01*
X114345Y83636D01*
X113706Y83483D01*
X113099Y83231D01*
X112538Y82888D01*
X112039Y82461D01*
X111612Y81962D01*
X111269Y81401D01*
X111102Y81000D01*
X109994D01*
Y88000D01*
X111102D01*
X111269Y87599D01*
X111612Y87038D01*
X112039Y86539D01*
X112538Y86112D01*
X113099Y85769D01*
X113706Y85517D01*
X114345Y85364D01*
X115000Y85312D01*
X115655Y85364D01*
X116294Y85517D01*
X116901Y85769D01*
X117462Y86112D01*
X117961Y86539D01*
X118000Y86584D01*
Y82416D01*
G37*
G36*
Y76000D02*X117279D01*
X117462Y76112D01*
X117961Y76539D01*
X118000Y76584D01*
Y76000D01*
G37*
G36*
Y72416D02*X117961Y72461D01*
X117462Y72888D01*
X117279Y73000D01*
X118000D01*
Y72416D01*
G37*
G36*
Y66000D02*X117279D01*
X117462Y66112D01*
X117961Y66539D01*
X118000Y66584D01*
Y66000D01*
G37*
G36*
Y62416D02*X117961Y62461D01*
X117462Y62888D01*
X117279Y63000D01*
X118000D01*
Y62416D01*
G37*
G36*
Y25694D02*X110974Y25693D01*
X110852Y25663D01*
X110736Y25615D01*
X110628Y25549D01*
X110533Y25467D01*
X110451Y25372D01*
X110385Y25264D01*
X110337Y25148D01*
X110307Y25026D01*
X110300Y24900D01*
X110307Y19974D01*
X110337Y19852D01*
X110385Y19736D01*
X110407Y19700D01*
X109994D01*
Y52385D01*
X111183Y51195D01*
X111017Y50794D01*
X110864Y50155D01*
X110812Y49500D01*
X110864Y48845D01*
X111017Y48206D01*
X111269Y47599D01*
X111612Y47038D01*
X112039Y46539D01*
X112538Y46112D01*
X113099Y45769D01*
X113706Y45517D01*
X114345Y45364D01*
X115000Y45312D01*
X115655Y45364D01*
X116294Y45517D01*
X116901Y45769D01*
X117462Y46112D01*
X117961Y46539D01*
X118000Y46584D01*
Y37946D01*
X117694Y38207D01*
X117080Y38583D01*
X116416Y38858D01*
X115717Y39026D01*
X115000Y39083D01*
X114283Y39026D01*
X113584Y38858D01*
X112920Y38583D01*
X112306Y38207D01*
X111760Y37740D01*
X111293Y37194D01*
X110917Y36580D01*
X110642Y35916D01*
X110474Y35217D01*
X110417Y34500D01*
X110474Y33783D01*
X110642Y33084D01*
X110917Y32420D01*
X111293Y31806D01*
X111760Y31260D01*
X112306Y30793D01*
X112920Y30417D01*
X113584Y30142D01*
X114283Y29974D01*
X115000Y29917D01*
X115717Y29974D01*
X116416Y30142D01*
X117080Y30417D01*
X117694Y30793D01*
X118000Y31054D01*
Y25694D01*
G37*
G36*
X114325Y213800D02*X118000D01*
Y201175D01*
X115825D01*
X115747Y201170D01*
X115670Y201152D01*
X115597Y201122D01*
X115530Y201081D01*
X115470Y201030D01*
X115419Y200970D01*
X115378Y200903D01*
X115348Y200830D01*
X115330Y200753D01*
X115323Y200675D01*
X115330Y200597D01*
X115348Y200520D01*
X115378Y200447D01*
X115419Y200380D01*
X115470Y200320D01*
X115530Y200269D01*
X115597Y200228D01*
X115670Y200198D01*
X115747Y200180D01*
X115825Y200175D01*
X118000D01*
Y193825D01*
X115825D01*
X115747Y193820D01*
X115670Y193802D01*
X115597Y193772D01*
X115530Y193731D01*
X115470Y193680D01*
X115419Y193620D01*
X115378Y193553D01*
X115348Y193480D01*
X115330Y193403D01*
X115323Y193325D01*
X115330Y193247D01*
X115348Y193170D01*
X115378Y193097D01*
X115419Y193030D01*
X115470Y192970D01*
X115530Y192919D01*
X115597Y192878D01*
X115670Y192848D01*
X115747Y192830D01*
X115825Y192825D01*
X118000D01*
Y189750D01*
X114325D01*
Y194323D01*
X114403Y194330D01*
X114480Y194348D01*
X114553Y194378D01*
X114620Y194419D01*
X114680Y194470D01*
X114731Y194530D01*
X114772Y194597D01*
X114802Y194670D01*
X114820Y194747D01*
X114825Y194825D01*
Y199175D01*
X114820Y199253D01*
X114802Y199330D01*
X114772Y199403D01*
X114731Y199470D01*
X114680Y199530D01*
X114620Y199581D01*
X114553Y199622D01*
X114480Y199652D01*
X114403Y199670D01*
X114325Y199677D01*
Y213800D01*
G37*
G36*
X109994D02*X114325D01*
Y199677D01*
X114247Y199670D01*
X114170Y199652D01*
X114097Y199622D01*
X114030Y199581D01*
X113970Y199530D01*
X113919Y199470D01*
X113878Y199403D01*
X113848Y199330D01*
X113830Y199253D01*
X113825Y199175D01*
Y194825D01*
X113830Y194747D01*
X113848Y194670D01*
X113878Y194597D01*
X113919Y194530D01*
X113970Y194470D01*
X114030Y194419D01*
X114097Y194378D01*
X114170Y194348D01*
X114247Y194330D01*
X114325Y194323D01*
Y189750D01*
X109994D01*
Y213800D01*
G37*
G36*
X60250Y143206D02*Y132294D01*
X60099Y132231D01*
X59994Y132167D01*
Y143333D01*
X60099Y143269D01*
X60250Y143206D01*
G37*
G36*
X90493Y62000D02*X100379D01*
X109994Y52385D01*
Y19700D01*
X90493D01*
Y25318D01*
X90500Y25317D01*
X91217Y25374D01*
X91916Y25542D01*
X92580Y25817D01*
X93194Y26193D01*
X93740Y26660D01*
X94207Y27206D01*
X94583Y27820D01*
X94858Y28484D01*
X95026Y29183D01*
X95068Y29900D01*
X95026Y30617D01*
X94858Y31316D01*
X94583Y31980D01*
X94207Y32594D01*
X93740Y33140D01*
X93194Y33607D01*
X92580Y33983D01*
X91916Y34258D01*
X91217Y34426D01*
X90500Y34483D01*
X90493Y34482D01*
Y50918D01*
X90500Y50917D01*
X91217Y50974D01*
X91916Y51142D01*
X92580Y51417D01*
X93194Y51793D01*
X93740Y52260D01*
X94207Y52806D01*
X94583Y53420D01*
X94858Y54084D01*
X95026Y54783D01*
X95068Y55500D01*
X95026Y56217D01*
X94858Y56916D01*
X94583Y57580D01*
X94207Y58194D01*
X93740Y58740D01*
X93194Y59207D01*
X92580Y59583D01*
X91916Y59858D01*
X91217Y60026D01*
X90500Y60083D01*
X90493Y60082D01*
Y62000D01*
G37*
G36*
X81994D02*X90493D01*
Y60082D01*
X89783Y60026D01*
X89084Y59858D01*
X88420Y59583D01*
X87806Y59207D01*
X87260Y58740D01*
X86793Y58194D01*
X86417Y57580D01*
X86142Y56916D01*
X85974Y56217D01*
X85917Y55500D01*
X85974Y54783D01*
X86142Y54084D01*
X86417Y53420D01*
X86793Y52806D01*
X87260Y52260D01*
X87806Y51793D01*
X88420Y51417D01*
X89084Y51142D01*
X89783Y50974D01*
X90493Y50918D01*
Y34482D01*
X89783Y34426D01*
X89084Y34258D01*
X88420Y33983D01*
X87806Y33607D01*
X87260Y33140D01*
X86793Y32594D01*
X86417Y31980D01*
X86142Y31316D01*
X85974Y30617D01*
X85917Y29900D01*
X85974Y29183D01*
X86142Y28484D01*
X86417Y27820D01*
X86793Y27206D01*
X87260Y26660D01*
X87806Y26193D01*
X88420Y25817D01*
X89084Y25542D01*
X89783Y25374D01*
X90493Y25318D01*
Y19700D01*
X81994D01*
Y62000D01*
G37*
G36*
Y74918D02*X82000Y74917D01*
X82717Y74974D01*
X83416Y75142D01*
X83997Y75382D01*
X85311Y74068D01*
X81994Y74064D01*
Y74918D01*
G37*
G36*
Y84918D02*X82000Y84917D01*
X82717Y84974D01*
X83416Y85142D01*
X83997Y85382D01*
X90898Y78481D01*
X90936Y78436D01*
X91116Y78283D01*
X91317Y78159D01*
X91535Y78069D01*
X91765Y78014D01*
X92000Y77995D01*
X92059Y78000D01*
X109994D01*
Y76000D01*
X87621D01*
X86118Y77503D01*
X86358Y78084D01*
X86526Y78783D01*
X86568Y79500D01*
X86526Y80217D01*
X86358Y80916D01*
X86083Y81580D01*
X85707Y82194D01*
X85240Y82740D01*
X84694Y83207D01*
X84080Y83583D01*
X83416Y83858D01*
X82717Y84026D01*
X82000Y84083D01*
X81994Y84082D01*
Y84918D01*
G37*
G36*
X100994Y85313D02*X101000Y85312D01*
X101655Y85364D01*
X102294Y85517D01*
X102901Y85769D01*
X103462Y86112D01*
X103961Y86539D01*
X104388Y87038D01*
X104731Y87599D01*
X104898Y88000D01*
X109994D01*
Y81000D01*
X100994D01*
Y85313D01*
G37*
G36*
Y105313D02*X101000Y105312D01*
X101655Y105364D01*
X102294Y105517D01*
X102695Y105683D01*
X106398Y101981D01*
X106436Y101936D01*
X106615Y101783D01*
X106616Y101783D01*
X106817Y101659D01*
X107035Y101569D01*
X107265Y101514D01*
X107500Y101495D01*
X107559Y101500D01*
X109994D01*
Y91000D01*
X104898D01*
X104731Y91401D01*
X104388Y91962D01*
X103961Y92461D01*
X103462Y92888D01*
X102901Y93231D01*
X102294Y93483D01*
X101655Y93636D01*
X101000Y93688D01*
X100994Y93687D01*
Y95313D01*
X101000Y95312D01*
X101655Y95364D01*
X102294Y95517D01*
X102901Y95769D01*
X103462Y96112D01*
X103961Y96539D01*
X104388Y97038D01*
X104731Y97599D01*
X104983Y98206D01*
X105136Y98845D01*
X105175Y99500D01*
X105136Y100155D01*
X104983Y100794D01*
X104731Y101401D01*
X104388Y101962D01*
X103961Y102461D01*
X103462Y102888D01*
X102901Y103231D01*
X102294Y103483D01*
X101655Y103636D01*
X101000Y103688D01*
X100994Y103687D01*
Y105313D01*
G37*
G36*
Y119994D02*X109000Y128000D01*
X109994D01*
Y104500D01*
X108121D01*
X104817Y107805D01*
X104983Y108206D01*
X105136Y108845D01*
X105175Y109500D01*
X105136Y110155D01*
X104983Y110794D01*
X104731Y111401D01*
X104388Y111962D01*
X103961Y112461D01*
X103462Y112888D01*
X102901Y113231D01*
X102294Y113483D01*
X101655Y113636D01*
X101000Y113688D01*
X100994Y113687D01*
Y119994D01*
G37*
G36*
Y142948D02*X101345Y142864D01*
X102000Y142812D01*
X102655Y142864D01*
X103294Y143017D01*
X103901Y143269D01*
X104462Y143612D01*
X104961Y144039D01*
X105388Y144538D01*
X105731Y145099D01*
X105898Y145500D01*
X108102D01*
X108269Y145099D01*
X108612Y144538D01*
X109039Y144039D01*
X109538Y143612D01*
X109994Y143333D01*
Y129500D01*
X108500D01*
X100994Y121994D01*
Y142948D01*
G37*
G36*
Y158500D02*X109994D01*
Y150667D01*
X109538Y150388D01*
X109039Y149961D01*
X108612Y149462D01*
X108269Y148901D01*
X108102Y148500D01*
X105898D01*
X105731Y148901D01*
X105388Y149462D01*
X104961Y149961D01*
X104462Y150388D01*
X103901Y150731D01*
X103294Y150983D01*
X102655Y151136D01*
X102000Y151188D01*
X101345Y151136D01*
X100994Y151052D01*
Y158500D01*
G37*
G36*
X81994Y158496D02*X82000Y158495D01*
X82059Y158500D01*
X100994D01*
Y151052D01*
X100706Y150983D01*
X100099Y150731D01*
X99538Y150388D01*
X99039Y149961D01*
X98612Y149462D01*
X98269Y148901D01*
X98017Y148294D01*
X97864Y147655D01*
X97812Y147000D01*
X97864Y146345D01*
X98017Y145706D01*
X98269Y145099D01*
X98612Y144538D01*
X99039Y144039D01*
X99538Y143612D01*
X100099Y143269D01*
X100706Y143017D01*
X100994Y142948D01*
Y121994D01*
X90500Y111500D01*
X91500Y110500D01*
X100994Y119994D01*
Y113687D01*
X100345Y113636D01*
X99706Y113483D01*
X99099Y113231D01*
X98538Y112888D01*
X98039Y112461D01*
X97612Y111962D01*
X97269Y111401D01*
X97017Y110794D01*
X96864Y110155D01*
X96812Y109500D01*
X96864Y108845D01*
X97017Y108206D01*
X97269Y107599D01*
X97612Y107038D01*
X98039Y106539D01*
X98538Y106112D01*
X99099Y105769D01*
X99706Y105517D01*
X100345Y105364D01*
X100994Y105313D01*
Y103687D01*
X100345Y103636D01*
X99706Y103483D01*
X99099Y103231D01*
X98538Y102888D01*
X98039Y102461D01*
X97612Y101962D01*
X97269Y101401D01*
X97017Y100794D01*
X96864Y100155D01*
X96812Y99500D01*
X96864Y98845D01*
X97017Y98206D01*
X97269Y97599D01*
X97612Y97038D01*
X98039Y96539D01*
X98538Y96112D01*
X99099Y95769D01*
X99706Y95517D01*
X100345Y95364D01*
X100994Y95313D01*
Y93687D01*
X100345Y93636D01*
X99706Y93483D01*
X99099Y93231D01*
X98538Y92888D01*
X98039Y92461D01*
X97612Y91962D01*
X97269Y91401D01*
X97017Y90794D01*
X96864Y90155D01*
X96812Y89500D01*
X96864Y88845D01*
X97017Y88206D01*
X97269Y87599D01*
X97612Y87038D01*
X98039Y86539D01*
X98538Y86112D01*
X99099Y85769D01*
X99706Y85517D01*
X100345Y85364D01*
X100994Y85313D01*
Y81000D01*
X92621D01*
X86118Y87503D01*
X86358Y88084D01*
X86526Y88783D01*
X86568Y89500D01*
X86526Y90217D01*
X86358Y90916D01*
X86083Y91580D01*
X85707Y92194D01*
X85240Y92740D01*
X84694Y93207D01*
X84080Y93583D01*
X83416Y93858D01*
X82717Y94026D01*
X82000Y94083D01*
X81994Y94082D01*
Y104313D01*
X82000Y104312D01*
X82655Y104364D01*
X83294Y104517D01*
X83901Y104769D01*
X84462Y105112D01*
X84961Y105539D01*
X85388Y106038D01*
X85731Y106599D01*
X85983Y107206D01*
X86136Y107845D01*
X86175Y108500D01*
X86136Y109155D01*
X85983Y109794D01*
X85731Y110401D01*
X85388Y110962D01*
X84961Y111461D01*
X84462Y111888D01*
X83901Y112231D01*
X83294Y112483D01*
X82655Y112636D01*
X82000Y112688D01*
X81994Y112687D01*
Y114313D01*
X82000Y114312D01*
X82655Y114364D01*
X83294Y114517D01*
X83901Y114769D01*
X84462Y115112D01*
X84961Y115539D01*
X85388Y116038D01*
X85731Y116599D01*
X85983Y117206D01*
X86136Y117845D01*
X86175Y118500D01*
X86136Y119155D01*
X85983Y119794D01*
X85817Y120195D01*
X93019Y127398D01*
X93064Y127436D01*
X93217Y127615D01*
X93217Y127616D01*
X93341Y127817D01*
X93431Y128035D01*
X93486Y128265D01*
X93505Y128500D01*
X93500Y128559D01*
Y143102D01*
X93901Y143269D01*
X94462Y143612D01*
X94961Y144039D01*
X95388Y144538D01*
X95731Y145099D01*
X95983Y145706D01*
X96136Y146345D01*
X96175Y147000D01*
X96136Y147655D01*
X95983Y148294D01*
X95731Y148901D01*
X95388Y149462D01*
X94961Y149961D01*
X94462Y150388D01*
X93901Y150731D01*
X93294Y150983D01*
X92655Y151136D01*
X92000Y151188D01*
X91345Y151136D01*
X90706Y150983D01*
X90099Y150731D01*
X89538Y150388D01*
X89039Y149961D01*
X88612Y149462D01*
X88269Y148901D01*
X88017Y148294D01*
X87864Y147655D01*
X87812Y147000D01*
X87864Y146345D01*
X88017Y145706D01*
X88269Y145099D01*
X88612Y144538D01*
X89039Y144039D01*
X89538Y143612D01*
X90099Y143269D01*
X90500Y143102D01*
Y129121D01*
X83695Y122317D01*
X83294Y122483D01*
X82655Y122636D01*
X82000Y122688D01*
X81994Y122687D01*
Y124313D01*
X82000Y124312D01*
X82655Y124364D01*
X83294Y124517D01*
X83901Y124769D01*
X84462Y125112D01*
X84961Y125539D01*
X85388Y126038D01*
X85731Y126599D01*
X85983Y127206D01*
X86136Y127845D01*
X86175Y128500D01*
X86136Y129155D01*
X85983Y129794D01*
X85731Y130401D01*
X85388Y130962D01*
X84961Y131461D01*
X84462Y131888D01*
X83901Y132231D01*
X83750Y132294D01*
Y143206D01*
X83901Y143269D01*
X84462Y143612D01*
X84961Y144039D01*
X85388Y144538D01*
X85731Y145099D01*
X85983Y145706D01*
X86136Y146345D01*
X86175Y147000D01*
X86136Y147655D01*
X85983Y148294D01*
X85731Y148901D01*
X85388Y149462D01*
X84961Y149961D01*
X84462Y150388D01*
X83901Y150731D01*
X83294Y150983D01*
X82655Y151136D01*
X82000Y151188D01*
X81994Y151187D01*
Y158496D01*
G37*
G36*
X72793Y74992D02*X73416Y75142D01*
X73997Y75382D01*
X75500Y73879D01*
Y72094D01*
X75456Y72094D01*
X75377Y72083D01*
X75302Y72059D01*
X75231Y72024D01*
X75166Y71978D01*
X75110Y71922D01*
X75062Y71859D01*
X75026Y71788D01*
X75000Y71713D01*
X74987Y71635D01*
X74986Y71556D01*
X74998Y71477D01*
X75022Y71402D01*
X75058Y71332D01*
X75214Y71051D01*
X75340Y70756D01*
X75439Y70451D01*
X75500Y70186D01*
Y68814D01*
X75439Y68549D01*
X75340Y68244D01*
X75214Y67949D01*
X75061Y67667D01*
X75025Y67597D01*
X75002Y67522D01*
X74990Y67444D01*
X74991Y67365D01*
X75004Y67288D01*
X75029Y67213D01*
X75065Y67143D01*
X75112Y67080D01*
X75169Y67025D01*
X75233Y66979D01*
X75303Y66944D01*
X75378Y66921D01*
X75456Y66909D01*
X75500Y66910D01*
Y65059D01*
X75495Y65000D01*
X75514Y64765D01*
X75569Y64535D01*
X75659Y64317D01*
X75783Y64116D01*
X75936Y63936D01*
X75981Y63898D01*
X77398Y62481D01*
X77436Y62436D01*
X77615Y62283D01*
X77616Y62283D01*
X77817Y62159D01*
X78035Y62069D01*
X78265Y62014D01*
X78500Y61995D01*
X78559Y62000D01*
X81994D01*
Y19700D01*
X72793D01*
Y25318D01*
X72800Y25317D01*
X73517Y25374D01*
X74216Y25542D01*
X74880Y25817D01*
X75494Y26193D01*
X76040Y26660D01*
X76507Y27206D01*
X76883Y27820D01*
X77158Y28484D01*
X77326Y29183D01*
X77368Y29900D01*
X77326Y30617D01*
X77158Y31316D01*
X76883Y31980D01*
X76507Y32594D01*
X76040Y33140D01*
X75494Y33607D01*
X74880Y33983D01*
X74216Y34258D01*
X73517Y34426D01*
X72800Y34483D01*
X72793Y34482D01*
Y50918D01*
X72800Y50917D01*
X73517Y50974D01*
X74216Y51142D01*
X74880Y51417D01*
X75494Y51793D01*
X76040Y52260D01*
X76507Y52806D01*
X76883Y53420D01*
X77158Y54084D01*
X77326Y54783D01*
X77368Y55500D01*
X77326Y56217D01*
X77158Y56916D01*
X76883Y57580D01*
X76507Y58194D01*
X76040Y58740D01*
X75494Y59207D01*
X74880Y59583D01*
X74216Y59858D01*
X73517Y60026D01*
X72800Y60083D01*
X72793Y60082D01*
Y64997D01*
X72818Y65001D01*
X73219Y65092D01*
X73610Y65220D01*
X73988Y65382D01*
X74350Y65577D01*
X74415Y65622D01*
X74471Y65678D01*
X74518Y65741D01*
X74555Y65812D01*
X74580Y65887D01*
X74594Y65965D01*
X74594Y66044D01*
X74583Y66123D01*
X74559Y66198D01*
X74524Y66269D01*
X74478Y66334D01*
X74422Y66390D01*
X74359Y66438D01*
X74288Y66474D01*
X74213Y66500D01*
X74135Y66513D01*
X74056Y66514D01*
X73977Y66502D01*
X73902Y66478D01*
X73832Y66442D01*
X73551Y66286D01*
X73256Y66160D01*
X72951Y66061D01*
X72793Y66024D01*
Y72976D01*
X72951Y72939D01*
X73256Y72840D01*
X73551Y72714D01*
X73833Y72561D01*
X73903Y72525D01*
X73978Y72502D01*
X74056Y72490D01*
X74135Y72491D01*
X74212Y72504D01*
X74287Y72529D01*
X74357Y72565D01*
X74420Y72612D01*
X74475Y72669D01*
X74521Y72733D01*
X74556Y72803D01*
X74579Y72878D01*
X74591Y72956D01*
X74590Y73035D01*
X74577Y73112D01*
X74552Y73187D01*
X74515Y73257D01*
X74468Y73320D01*
X74412Y73375D01*
X74347Y73419D01*
X73988Y73619D01*
X73610Y73780D01*
X73219Y73908D01*
X72818Y73999D01*
X72793Y74003D01*
Y74992D01*
G37*
G36*
Y158500D02*X81941D01*
X81994Y158496D01*
Y151187D01*
X81345Y151136D01*
X80706Y150983D01*
X80099Y150731D01*
X79538Y150388D01*
X79039Y149961D01*
X78612Y149462D01*
X78269Y148901D01*
X78017Y148294D01*
X77864Y147655D01*
X77812Y147000D01*
X77864Y146345D01*
X78017Y145706D01*
X78269Y145099D01*
X78612Y144538D01*
X79039Y144039D01*
X79538Y143612D01*
X80099Y143269D01*
X80250Y143206D01*
Y132294D01*
X80099Y132231D01*
X79538Y131888D01*
X79039Y131461D01*
X78612Y130962D01*
X78269Y130401D01*
X78017Y129794D01*
X77864Y129155D01*
X77812Y128500D01*
X77864Y127845D01*
X78017Y127206D01*
X78269Y126599D01*
X78612Y126038D01*
X79039Y125539D01*
X79538Y125112D01*
X80099Y124769D01*
X80706Y124517D01*
X81345Y124364D01*
X81994Y124313D01*
Y122687D01*
X81345Y122636D01*
X80706Y122483D01*
X80099Y122231D01*
X79538Y121888D01*
X79039Y121461D01*
X78612Y120962D01*
X78269Y120401D01*
X78017Y119794D01*
X77864Y119155D01*
X77812Y118500D01*
X77864Y117845D01*
X78017Y117206D01*
X78269Y116599D01*
X78612Y116038D01*
X79039Y115539D01*
X79538Y115112D01*
X80099Y114769D01*
X80706Y114517D01*
X81345Y114364D01*
X81994Y114313D01*
Y112687D01*
X81345Y112636D01*
X80706Y112483D01*
X80099Y112231D01*
X79538Y111888D01*
X79039Y111461D01*
X78612Y110962D01*
X78269Y110401D01*
X78017Y109794D01*
X77864Y109155D01*
X77812Y108500D01*
X77864Y107845D01*
X78017Y107206D01*
X78269Y106599D01*
X78612Y106038D01*
X79039Y105539D01*
X79538Y105112D01*
X80099Y104769D01*
X80706Y104517D01*
X81345Y104364D01*
X81994Y104313D01*
Y94082D01*
X81283Y94026D01*
X80584Y93858D01*
X79920Y93583D01*
X79306Y93207D01*
X78760Y92740D01*
X78293Y92194D01*
X77917Y91580D01*
X77642Y90916D01*
X77474Y90217D01*
X77417Y89500D01*
X77474Y88783D01*
X77642Y88084D01*
X77917Y87420D01*
X78293Y86806D01*
X78760Y86260D01*
X79306Y85793D01*
X79920Y85417D01*
X80584Y85142D01*
X81283Y84974D01*
X81994Y84918D01*
Y84082D01*
X81283Y84026D01*
X80584Y83858D01*
X79920Y83583D01*
X79306Y83207D01*
X78760Y82740D01*
X78293Y82194D01*
X77917Y81580D01*
X77642Y80916D01*
X77474Y80217D01*
X77417Y79500D01*
X77474Y78783D01*
X77642Y78084D01*
X77917Y77420D01*
X78293Y76806D01*
X78760Y76260D01*
X79306Y75793D01*
X79920Y75417D01*
X80584Y75142D01*
X81283Y74974D01*
X81994Y74918D01*
Y74064D01*
X78500Y74060D01*
Y74441D01*
X78505Y74500D01*
X78486Y74735D01*
X78486Y74735D01*
X78431Y74965D01*
X78341Y75183D01*
X78217Y75384D01*
X78064Y75564D01*
X78019Y75602D01*
X76118Y77503D01*
X76358Y78084D01*
X76526Y78783D01*
X76568Y79500D01*
X76526Y80217D01*
X76358Y80916D01*
X76083Y81580D01*
X75707Y82194D01*
X75240Y82740D01*
X74694Y83207D01*
X74080Y83583D01*
X73416Y83858D01*
X72793Y84008D01*
Y84992D01*
X73416Y85142D01*
X74080Y85417D01*
X74694Y85793D01*
X75240Y86260D01*
X75707Y86806D01*
X76083Y87420D01*
X76358Y88084D01*
X76526Y88783D01*
X76568Y89500D01*
X76526Y90217D01*
X76358Y90916D01*
X76083Y91580D01*
X75707Y92194D01*
X75240Y92740D01*
X74694Y93207D01*
X74080Y93583D01*
X73416Y93858D01*
X72793Y94008D01*
Y127172D01*
X73019Y127398D01*
X73064Y127436D01*
X73217Y127615D01*
X73217Y127616D01*
X73341Y127817D01*
X73431Y128035D01*
X73486Y128265D01*
X73505Y128500D01*
X73500Y128559D01*
Y143102D01*
X73901Y143269D01*
X74462Y143612D01*
X74961Y144039D01*
X75388Y144538D01*
X75731Y145099D01*
X75983Y145706D01*
X76136Y146345D01*
X76175Y147000D01*
X76136Y147655D01*
X75983Y148294D01*
X75731Y148901D01*
X75388Y149462D01*
X74961Y149961D01*
X74462Y150388D01*
X73901Y150731D01*
X73294Y150983D01*
X72793Y151103D01*
Y158500D01*
G37*
G36*
X68220Y122599D02*X72793Y127172D01*
Y94008D01*
X72717Y94026D01*
X72000Y94083D01*
X71283Y94026D01*
X70584Y93858D01*
X69920Y93583D01*
X69306Y93207D01*
X68760Y92740D01*
X68293Y92194D01*
X68220Y92075D01*
Y122599D01*
G37*
G36*
Y29864D02*X68274Y29183D01*
X68442Y28484D01*
X68717Y27820D01*
X69093Y27206D01*
X69560Y26660D01*
X70106Y26193D01*
X70720Y25817D01*
X71384Y25542D01*
X72083Y25374D01*
X72793Y25318D01*
Y19700D01*
X68220D01*
Y29864D01*
G37*
G36*
Y55464D02*X68274Y54783D01*
X68442Y54084D01*
X68717Y53420D01*
X69093Y52806D01*
X69560Y52260D01*
X70106Y51793D01*
X70720Y51417D01*
X71384Y51142D01*
X72083Y50974D01*
X72793Y50918D01*
Y34482D01*
X72083Y34426D01*
X71384Y34258D01*
X70720Y33983D01*
X70106Y33607D01*
X69560Y33140D01*
X69093Y32594D01*
X68717Y31980D01*
X68442Y31316D01*
X68274Y30617D01*
X68220Y29936D01*
Y55464D01*
G37*
G36*
Y76925D02*X68293Y76806D01*
X68760Y76260D01*
X69306Y75793D01*
X69920Y75417D01*
X70584Y75142D01*
X71283Y74974D01*
X72000Y74917D01*
X72717Y74974D01*
X72793Y74992D01*
Y74003D01*
X72411Y74055D01*
X72000Y74073D01*
X71589Y74055D01*
X71182Y73999D01*
X70781Y73908D01*
X70390Y73780D01*
X70012Y73619D01*
X69650Y73423D01*
X69585Y73378D01*
X69529Y73322D01*
X69482Y73259D01*
X69445Y73188D01*
X69420Y73113D01*
X69406Y73035D01*
X69406Y72956D01*
X69417Y72877D01*
X69441Y72802D01*
X69476Y72731D01*
X69522Y72666D01*
X69578Y72610D01*
X69641Y72562D01*
X69712Y72526D01*
X69787Y72500D01*
X69865Y72487D01*
X69944Y72486D01*
X70023Y72498D01*
X70098Y72522D01*
X70168Y72558D01*
X70449Y72714D01*
X70744Y72840D01*
X71049Y72939D01*
X71362Y73011D01*
X71680Y73054D01*
X72000Y73068D01*
X72320Y73054D01*
X72638Y73011D01*
X72793Y72976D01*
Y66024D01*
X72638Y65989D01*
X72320Y65946D01*
X72000Y65932D01*
X71680Y65946D01*
X71362Y65989D01*
X71049Y66061D01*
X70744Y66160D01*
X70449Y66286D01*
X70167Y66439D01*
X70097Y66475D01*
X70022Y66498D01*
X69944Y66510D01*
X69865Y66509D01*
X69788Y66496D01*
X69713Y66471D01*
X69643Y66435D01*
X69580Y66388D01*
X69525Y66331D01*
X69479Y66267D01*
X69444Y66197D01*
X69421Y66122D01*
X69409Y66044D01*
X69410Y65965D01*
X69423Y65888D01*
X69448Y65813D01*
X69485Y65743D01*
X69532Y65680D01*
X69588Y65625D01*
X69653Y65581D01*
X70012Y65382D01*
X70390Y65220D01*
X70781Y65092D01*
X71182Y65001D01*
X71589Y64945D01*
X72000Y64927D01*
X72411Y64945D01*
X72793Y64997D01*
Y60082D01*
X72083Y60026D01*
X71384Y59858D01*
X70720Y59583D01*
X70106Y59207D01*
X69560Y58740D01*
X69093Y58194D01*
X68717Y57580D01*
X68442Y56916D01*
X68274Y56217D01*
X68220Y55536D01*
Y66997D01*
X68241Y66982D01*
X68312Y66945D01*
X68387Y66920D01*
X68465Y66906D01*
X68544Y66906D01*
X68623Y66917D01*
X68698Y66941D01*
X68769Y66976D01*
X68834Y67022D01*
X68890Y67078D01*
X68938Y67141D01*
X68974Y67212D01*
X69000Y67287D01*
X69013Y67365D01*
X69014Y67444D01*
X69002Y67523D01*
X68978Y67598D01*
X68942Y67668D01*
X68786Y67949D01*
X68660Y68244D01*
X68561Y68549D01*
X68489Y68862D01*
X68446Y69180D01*
X68432Y69500D01*
X68446Y69820D01*
X68489Y70138D01*
X68561Y70451D01*
X68660Y70756D01*
X68786Y71051D01*
X68939Y71333D01*
X68975Y71403D01*
X68998Y71478D01*
X69010Y71556D01*
X69009Y71635D01*
X68996Y71712D01*
X68971Y71787D01*
X68935Y71857D01*
X68888Y71920D01*
X68831Y71975D01*
X68767Y72021D01*
X68697Y72056D01*
X68622Y72079D01*
X68544Y72091D01*
X68465Y72090D01*
X68388Y72077D01*
X68313Y72052D01*
X68243Y72015D01*
X68220Y71998D01*
Y76925D01*
G37*
G36*
X72793Y84008D02*X72717Y84026D01*
X72000Y84083D01*
X71283Y84026D01*
X70584Y83858D01*
X69920Y83583D01*
X69306Y83207D01*
X68760Y82740D01*
X68293Y82194D01*
X68220Y82075D01*
Y86925D01*
X68293Y86806D01*
X68760Y86260D01*
X69306Y85793D01*
X69920Y85417D01*
X70584Y85142D01*
X71283Y84974D01*
X72000Y84917D01*
X72717Y84974D01*
X72793Y84992D01*
Y84008D01*
G37*
G36*
X68220Y82075D02*X67917Y81580D01*
X67642Y80916D01*
X67474Y80217D01*
X67417Y79500D01*
X67474Y78783D01*
X67642Y78084D01*
X67917Y77420D01*
X68220Y76925D01*
Y71998D01*
X68180Y71968D01*
X68125Y71912D01*
X68081Y71847D01*
X67881Y71488D01*
X67720Y71110D01*
X67592Y70719D01*
X67501Y70318D01*
X67445Y69911D01*
X67427Y69500D01*
X67445Y69089D01*
X67501Y68682D01*
X67592Y68281D01*
X67720Y67890D01*
X67881Y67512D01*
X68077Y67150D01*
X68122Y67085D01*
X68178Y67029D01*
X68220Y66997D01*
Y55536D01*
X68217Y55500D01*
X68220Y55464D01*
Y29936D01*
X68217Y29900D01*
X68220Y29864D01*
Y19700D01*
X59994D01*
Y104833D01*
X60099Y104769D01*
X60706Y104517D01*
X61345Y104364D01*
X62000Y104312D01*
X62655Y104364D01*
X63294Y104517D01*
X63901Y104769D01*
X64462Y105112D01*
X64961Y105539D01*
X65388Y106038D01*
X65731Y106599D01*
X65983Y107206D01*
X66136Y107845D01*
X66175Y108500D01*
X66136Y109155D01*
X65983Y109794D01*
X65731Y110401D01*
X65388Y110962D01*
X64961Y111461D01*
X64462Y111888D01*
X63901Y112231D01*
X63294Y112483D01*
X62655Y112636D01*
X62000Y112688D01*
X61345Y112636D01*
X60706Y112483D01*
X60099Y112231D01*
X59994Y112167D01*
Y114833D01*
X60099Y114769D01*
X60706Y114517D01*
X61345Y114364D01*
X62000Y114312D01*
X62655Y114364D01*
X63294Y114517D01*
X63901Y114769D01*
X64462Y115112D01*
X64961Y115539D01*
X65388Y116038D01*
X65731Y116599D01*
X65983Y117206D01*
X66136Y117845D01*
X66175Y118500D01*
X66136Y119155D01*
X65983Y119794D01*
X65817Y120195D01*
X68220Y122599D01*
Y92075D01*
X67917Y91580D01*
X67642Y90916D01*
X67474Y90217D01*
X67417Y89500D01*
X67474Y88783D01*
X67642Y88084D01*
X67917Y87420D01*
X68220Y86925D01*
Y82075D01*
G37*
G36*
X59994Y158500D02*X61941D01*
X62000Y158495D01*
X62059Y158500D01*
X72793D01*
Y151103D01*
X72655Y151136D01*
X72000Y151188D01*
X71345Y151136D01*
X70706Y150983D01*
X70099Y150731D01*
X69538Y150388D01*
X69039Y149961D01*
X68612Y149462D01*
X68269Y148901D01*
X68017Y148294D01*
X67864Y147655D01*
X67812Y147000D01*
X67864Y146345D01*
X68017Y145706D01*
X68269Y145099D01*
X68612Y144538D01*
X69039Y144039D01*
X69538Y143612D01*
X70099Y143269D01*
X70500Y143102D01*
Y129121D01*
X63695Y122317D01*
X63294Y122483D01*
X62655Y122636D01*
X62000Y122688D01*
X61345Y122636D01*
X60706Y122483D01*
X60099Y122231D01*
X59994Y122167D01*
Y124833D01*
X60099Y124769D01*
X60706Y124517D01*
X61345Y124364D01*
X62000Y124312D01*
X62655Y124364D01*
X63294Y124517D01*
X63901Y124769D01*
X64462Y125112D01*
X64961Y125539D01*
X65388Y126038D01*
X65731Y126599D01*
X65983Y127206D01*
X66136Y127845D01*
X66175Y128500D01*
X66136Y129155D01*
X65983Y129794D01*
X65731Y130401D01*
X65388Y130962D01*
X64961Y131461D01*
X64462Y131888D01*
X63901Y132231D01*
X63750Y132294D01*
Y143206D01*
X63901Y143269D01*
X64462Y143612D01*
X64961Y144039D01*
X65388Y144538D01*
X65731Y145099D01*
X65983Y145706D01*
X66136Y146345D01*
X66175Y147000D01*
X66136Y147655D01*
X65983Y148294D01*
X65731Y148901D01*
X65388Y149462D01*
X64961Y149961D01*
X64462Y150388D01*
X63901Y150731D01*
X63294Y150983D01*
X62655Y151136D01*
X62000Y151188D01*
X61345Y151136D01*
X60706Y150983D01*
X60099Y150731D01*
X59994Y150667D01*
Y158500D01*
G37*
G36*
Y168333D02*X60099Y168269D01*
X60500Y168102D01*
Y161500D01*
X59994D01*
Y168333D01*
G37*
G36*
X105436Y182961D02*X108725Y186250D01*
X109994D01*
Y175667D01*
X109538Y175388D01*
X109039Y174961D01*
X108612Y174462D01*
X108269Y173901D01*
X108017Y173294D01*
X107864Y172655D01*
X107812Y172000D01*
X107864Y171345D01*
X108017Y170706D01*
X108269Y170099D01*
X108612Y169538D01*
X109039Y169039D01*
X109538Y168612D01*
X109994Y168333D01*
Y161500D01*
X105436D01*
Y169754D01*
X105479Y169778D01*
X105541Y169826D01*
X105594Y169884D01*
X105637Y169950D01*
X105816Y170296D01*
X105959Y170659D01*
X106066Y171034D01*
X106139Y171417D01*
X106175Y171805D01*
Y172195D01*
X106139Y172583D01*
X106066Y172966D01*
X105959Y173341D01*
X105816Y173704D01*
X105641Y174052D01*
X105597Y174118D01*
X105543Y174176D01*
X105481Y174225D01*
X105436Y174250D01*
Y182961D01*
G37*
G36*
X102002Y179527D02*X105436Y182961D01*
Y174250D01*
X105412Y174264D01*
X105337Y174291D01*
X105259Y174306D01*
X105180Y174309D01*
X105102Y174300D01*
X105025Y174278D01*
X104953Y174245D01*
X104888Y174200D01*
X104830Y174146D01*
X104781Y174084D01*
X104742Y174015D01*
X104715Y173940D01*
X104700Y173863D01*
X104697Y173783D01*
X104706Y173705D01*
X104728Y173628D01*
X104763Y173557D01*
X104899Y173295D01*
X105007Y173019D01*
X105089Y172734D01*
X105144Y172443D01*
X105172Y172148D01*
Y171852D01*
X105144Y171557D01*
X105089Y171266D01*
X105007Y170981D01*
X104899Y170705D01*
X104766Y170441D01*
X104731Y170370D01*
X104710Y170295D01*
X104700Y170216D01*
X104703Y170138D01*
X104718Y170061D01*
X104745Y169987D01*
X104784Y169918D01*
X104832Y169856D01*
X104890Y169802D01*
X104955Y169759D01*
X105027Y169725D01*
X105102Y169704D01*
X105180Y169694D01*
X105259Y169697D01*
X105336Y169712D01*
X105410Y169739D01*
X105436Y169754D01*
Y161500D01*
X102002D01*
Y167825D01*
X102195D01*
X102583Y167861D01*
X102966Y167934D01*
X103341Y168041D01*
X103704Y168184D01*
X104052Y168359D01*
X104118Y168403D01*
X104176Y168457D01*
X104225Y168519D01*
X104264Y168588D01*
X104291Y168663D01*
X104306Y168741D01*
X104309Y168820D01*
X104300Y168898D01*
X104278Y168975D01*
X104245Y169047D01*
X104200Y169112D01*
X104146Y169170D01*
X104084Y169219D01*
X104015Y169258D01*
X103940Y169285D01*
X103863Y169300D01*
X103783Y169303D01*
X103705Y169294D01*
X103628Y169272D01*
X103557Y169237D01*
X103295Y169101D01*
X103019Y168993D01*
X102734Y168911D01*
X102443Y168856D01*
X102148Y168828D01*
X102002D01*
Y175172D01*
X102148D01*
X102443Y175144D01*
X102734Y175089D01*
X103019Y175007D01*
X103295Y174899D01*
X103559Y174766D01*
X103630Y174731D01*
X103705Y174710D01*
X103784Y174700D01*
X103862Y174703D01*
X103939Y174718D01*
X104013Y174745D01*
X104082Y174784D01*
X104144Y174832D01*
X104198Y174890D01*
X104241Y174955D01*
X104275Y175027D01*
X104296Y175102D01*
X104306Y175180D01*
X104303Y175259D01*
X104288Y175336D01*
X104261Y175410D01*
X104222Y175479D01*
X104174Y175541D01*
X104116Y175594D01*
X104050Y175637D01*
X103704Y175816D01*
X103341Y175959D01*
X102966Y176066D01*
X102583Y176139D01*
X102195Y176175D01*
X102002D01*
Y179527D01*
G37*
G36*
X98564Y176089D02*X102002Y179527D01*
Y176175D01*
X101805D01*
X101417Y176139D01*
X101034Y176066D01*
X100659Y175959D01*
X100296Y175816D01*
X99948Y175641D01*
X99882Y175597D01*
X99824Y175543D01*
X99775Y175481D01*
X99736Y175412D01*
X99709Y175337D01*
X99694Y175259D01*
X99691Y175180D01*
X99700Y175102D01*
X99722Y175025D01*
X99755Y174953D01*
X99800Y174888D01*
X99854Y174830D01*
X99916Y174781D01*
X99985Y174742D01*
X100060Y174715D01*
X100137Y174700D01*
X100217Y174697D01*
X100295Y174706D01*
X100372Y174728D01*
X100443Y174763D01*
X100705Y174899D01*
X100981Y175007D01*
X101266Y175089D01*
X101557Y175144D01*
X101852Y175172D01*
X102002D01*
Y168828D01*
X101852D01*
X101557Y168856D01*
X101266Y168911D01*
X100981Y168993D01*
X100705Y169101D01*
X100441Y169234D01*
X100370Y169269D01*
X100295Y169290D01*
X100216Y169300D01*
X100138Y169297D01*
X100061Y169282D01*
X99987Y169255D01*
X99918Y169216D01*
X99856Y169168D01*
X99802Y169110D01*
X99759Y169045D01*
X99725Y168973D01*
X99704Y168898D01*
X99694Y168820D01*
X99697Y168741D01*
X99712Y168664D01*
X99739Y168590D01*
X99778Y168521D01*
X99826Y168459D01*
X99884Y168406D01*
X99950Y168363D01*
X100296Y168184D01*
X100659Y168041D01*
X101034Y167934D01*
X101417Y167861D01*
X101805Y167825D01*
X102002D01*
Y161500D01*
X98564D01*
Y169750D01*
X98588Y169736D01*
X98663Y169709D01*
X98741Y169694D01*
X98820Y169691D01*
X98898Y169700D01*
X98975Y169722D01*
X99047Y169755D01*
X99112Y169800D01*
X99170Y169854D01*
X99219Y169916D01*
X99258Y169985D01*
X99285Y170060D01*
X99300Y170137D01*
X99303Y170217D01*
X99294Y170295D01*
X99272Y170372D01*
X99237Y170443D01*
X99101Y170705D01*
X98993Y170981D01*
X98911Y171266D01*
X98856Y171557D01*
X98828Y171852D01*
Y172148D01*
X98856Y172443D01*
X98911Y172734D01*
X98993Y173019D01*
X99101Y173295D01*
X99234Y173559D01*
X99269Y173630D01*
X99290Y173705D01*
X99300Y173784D01*
X99297Y173862D01*
X99282Y173939D01*
X99255Y174013D01*
X99216Y174082D01*
X99168Y174144D01*
X99110Y174198D01*
X99045Y174241D01*
X98973Y174275D01*
X98898Y174296D01*
X98820Y174306D01*
X98741Y174303D01*
X98664Y174288D01*
X98590Y174261D01*
X98564Y174246D01*
Y176089D01*
G37*
G36*
X88000Y170777D02*X88017Y170706D01*
X88269Y170099D01*
X88612Y169538D01*
X89039Y169039D01*
X89538Y168612D01*
X90099Y168269D01*
X90706Y168017D01*
X91345Y167864D01*
X92000Y167812D01*
X92655Y167864D01*
X93294Y168017D01*
X93901Y168269D01*
X94462Y168612D01*
X94961Y169039D01*
X95388Y169538D01*
X95731Y170099D01*
X95983Y170706D01*
X96136Y171345D01*
X96175Y172000D01*
X96136Y172655D01*
X95983Y173294D01*
X95920Y173445D01*
X98564Y176089D01*
Y174246D01*
X98521Y174222D01*
X98459Y174174D01*
X98406Y174116D01*
X98363Y174050D01*
X98184Y173704D01*
X98041Y173341D01*
X97934Y172966D01*
X97861Y172583D01*
X97825Y172195D01*
Y171805D01*
X97861Y171417D01*
X97934Y171034D01*
X98041Y170659D01*
X98184Y170296D01*
X98359Y169948D01*
X98403Y169882D01*
X98457Y169824D01*
X98519Y169775D01*
X98564Y169750D01*
Y161500D01*
X88000D01*
Y170777D01*
G37*
G36*
X91675Y213800D02*X109994D01*
Y189750D01*
X108069D01*
X108000Y189755D01*
X107725Y189734D01*
X107458Y189669D01*
X107203Y189564D01*
X106968Y189420D01*
X106759Y189241D01*
X106714Y189189D01*
X93445Y175920D01*
X93294Y175983D01*
X92655Y176136D01*
X92000Y176188D01*
X91675Y176162D01*
Y188200D01*
X96555Y193080D01*
X96706Y193017D01*
X97345Y192864D01*
X98000Y192812D01*
X98655Y192864D01*
X99294Y193017D01*
X99901Y193269D01*
X100462Y193612D01*
X100961Y194039D01*
X101388Y194538D01*
X101731Y195099D01*
X101983Y195706D01*
X102136Y196345D01*
X102175Y197000D01*
X102136Y197655D01*
X101983Y198294D01*
X101731Y198901D01*
X101388Y199462D01*
X100961Y199961D01*
X100462Y200388D01*
X99901Y200731D01*
X99294Y200983D01*
X98655Y201136D01*
X98000Y201188D01*
X97345Y201136D01*
X96706Y200983D01*
X96099Y200731D01*
X95538Y200388D01*
X95039Y199961D01*
X94612Y199462D01*
X94269Y198901D01*
X94017Y198294D01*
X93864Y197655D01*
X93812Y197000D01*
X93864Y196345D01*
X94017Y195706D01*
X94080Y195555D01*
X91675Y193150D01*
Y194323D01*
X91753Y194330D01*
X91830Y194348D01*
X91903Y194378D01*
X91970Y194419D01*
X92030Y194470D01*
X92081Y194530D01*
X92122Y194597D01*
X92152Y194670D01*
X92170Y194747D01*
X92175Y194825D01*
Y199175D01*
X92170Y199253D01*
X92152Y199330D01*
X92122Y199403D01*
X92081Y199470D01*
X92030Y199530D01*
X91970Y199581D01*
X91903Y199622D01*
X91830Y199652D01*
X91753Y199670D01*
X91675Y199677D01*
Y213800D01*
G37*
G36*
Y176162D02*X91345Y176136D01*
X90706Y175983D01*
X90099Y175731D01*
X89538Y175388D01*
X89039Y174961D01*
X88612Y174462D01*
X88269Y173901D01*
X88017Y173294D01*
X88000Y173223D01*
Y185525D01*
X88725Y186250D01*
X88931D01*
X89000Y186245D01*
X89274Y186266D01*
X89275Y186266D01*
X89542Y186331D01*
X89797Y186436D01*
X90032Y186580D01*
X90241Y186759D01*
X90286Y186811D01*
X91675Y188200D01*
Y176162D01*
G37*
G36*
X88000Y213800D02*X91675D01*
Y199677D01*
X91597Y199670D01*
X91520Y199652D01*
X91447Y199622D01*
X91380Y199581D01*
X91320Y199530D01*
X91269Y199470D01*
X91228Y199403D01*
X91198Y199330D01*
X91180Y199253D01*
X91175Y199175D01*
Y194825D01*
X91180Y194747D01*
X91198Y194670D01*
X91228Y194597D01*
X91269Y194530D01*
X91320Y194470D01*
X91380Y194419D01*
X91447Y194378D01*
X91520Y194348D01*
X91597Y194330D01*
X91675Y194323D01*
Y193150D01*
X88275Y189750D01*
X88069D01*
X88000Y189755D01*
Y192825D01*
X90175D01*
X90253Y192830D01*
X90330Y192848D01*
X90403Y192878D01*
X90470Y192919D01*
X90530Y192970D01*
X90581Y193030D01*
X90622Y193097D01*
X90652Y193170D01*
X90670Y193247D01*
X90677Y193325D01*
X90670Y193403D01*
X90652Y193480D01*
X90622Y193553D01*
X90581Y193620D01*
X90530Y193680D01*
X90470Y193731D01*
X90403Y193772D01*
X90330Y193802D01*
X90253Y193820D01*
X90175Y193825D01*
X88000D01*
Y200175D01*
X90175D01*
X90253Y200180D01*
X90330Y200198D01*
X90403Y200228D01*
X90470Y200269D01*
X90530Y200320D01*
X90581Y200380D01*
X90622Y200447D01*
X90652Y200520D01*
X90670Y200597D01*
X90677Y200675D01*
X90670Y200753D01*
X90652Y200830D01*
X90622Y200903D01*
X90581Y200970D01*
X90530Y201030D01*
X90470Y201081D01*
X90403Y201122D01*
X90330Y201152D01*
X90253Y201170D01*
X90175Y201175D01*
X88000D01*
Y213800D01*
G37*
G36*
Y173223D02*X87864Y172655D01*
X87812Y172000D01*
X87864Y171345D01*
X88000Y170777D01*
Y161500D01*
X84994D01*
Y169077D01*
X85388Y169538D01*
X85731Y170099D01*
X85983Y170706D01*
X86136Y171345D01*
X86175Y172000D01*
X86136Y172655D01*
X85983Y173294D01*
X85731Y173901D01*
X85388Y174462D01*
X84994Y174923D01*
Y182519D01*
X88000Y185525D01*
Y173223D01*
G37*
G36*
X84994Y213800D02*X88000D01*
Y201175D01*
X85825D01*
X85747Y201170D01*
X85670Y201152D01*
X85597Y201122D01*
X85530Y201081D01*
X85470Y201030D01*
X85419Y200970D01*
X85378Y200903D01*
X85348Y200830D01*
X85330Y200753D01*
X85323Y200675D01*
X85330Y200597D01*
X85348Y200520D01*
X85378Y200447D01*
X85419Y200380D01*
X85470Y200320D01*
X85530Y200269D01*
X85597Y200228D01*
X85670Y200198D01*
X85747Y200180D01*
X85825Y200175D01*
X88000D01*
Y193825D01*
X85825D01*
X85747Y193820D01*
X85670Y193802D01*
X85597Y193772D01*
X85530Y193731D01*
X85470Y193680D01*
X85419Y193620D01*
X85378Y193553D01*
X85348Y193480D01*
X85330Y193403D01*
X85323Y193325D01*
X85330Y193247D01*
X85348Y193170D01*
X85378Y193097D01*
X85419Y193030D01*
X85470Y192970D01*
X85530Y192919D01*
X85597Y192878D01*
X85670Y192848D01*
X85747Y192830D01*
X85825Y192825D01*
X88000D01*
Y189755D01*
X88000D01*
X87725Y189734D01*
X87458Y189669D01*
X87203Y189564D01*
X86968Y189420D01*
X86968Y189420D01*
X86759Y189241D01*
X86714Y189189D01*
X84994Y187468D01*
Y213800D01*
G37*
G36*
Y161500D02*X83500D01*
Y168102D01*
X83901Y168269D01*
X84462Y168612D01*
X84961Y169039D01*
X84994Y169077D01*
Y161500D01*
G37*
G36*
X84325Y181850D02*X84994Y182519D01*
Y174923D01*
X84961Y174961D01*
X84462Y175388D01*
X84325Y175472D01*
Y181850D01*
G37*
G36*
Y213800D02*X84994D01*
Y187468D01*
X84325Y186800D01*
Y194323D01*
X84403Y194330D01*
X84480Y194348D01*
X84553Y194378D01*
X84620Y194419D01*
X84680Y194470D01*
X84731Y194530D01*
X84772Y194597D01*
X84802Y194670D01*
X84820Y194747D01*
X84825Y194825D01*
Y199175D01*
X84820Y199253D01*
X84802Y199330D01*
X84772Y199403D01*
X84731Y199470D01*
X84680Y199530D01*
X84620Y199581D01*
X84553Y199622D01*
X84480Y199652D01*
X84403Y199670D01*
X84325Y199677D01*
Y213800D01*
G37*
G36*
X61675D02*X84325D01*
Y199677D01*
X84247Y199670D01*
X84170Y199652D01*
X84097Y199622D01*
X84030Y199581D01*
X83970Y199530D01*
X83919Y199470D01*
X83878Y199403D01*
X83848Y199330D01*
X83830Y199253D01*
X83825Y199175D01*
Y194825D01*
X83830Y194747D01*
X83848Y194670D01*
X83878Y194597D01*
X83919Y194530D01*
X83970Y194470D01*
X84030Y194419D01*
X84097Y194378D01*
X84170Y194348D01*
X84247Y194330D01*
X84325Y194323D01*
Y186800D01*
X73445Y175920D01*
X73294Y175983D01*
X72655Y176136D01*
X72000Y176188D01*
X71345Y176136D01*
X70706Y175983D01*
X70099Y175731D01*
X69538Y175388D01*
X69039Y174961D01*
X68612Y174462D01*
X68269Y173901D01*
X68017Y173294D01*
X67864Y172655D01*
X67812Y172000D01*
X67864Y171345D01*
X68017Y170706D01*
X68269Y170099D01*
X68612Y169538D01*
X69039Y169039D01*
X69538Y168612D01*
X70099Y168269D01*
X70706Y168017D01*
X71345Y167864D01*
X72000Y167812D01*
X72655Y167864D01*
X73294Y168017D01*
X73901Y168269D01*
X74462Y168612D01*
X74961Y169039D01*
X75388Y169538D01*
X75731Y170099D01*
X75983Y170706D01*
X76136Y171345D01*
X76175Y172000D01*
X76136Y172655D01*
X75983Y173294D01*
X75920Y173445D01*
X84325Y181850D01*
Y175472D01*
X83901Y175731D01*
X83294Y175983D01*
X82655Y176136D01*
X82000Y176188D01*
X81345Y176136D01*
X80706Y175983D01*
X80099Y175731D01*
X79538Y175388D01*
X79039Y174961D01*
X78612Y174462D01*
X78269Y173901D01*
X78017Y173294D01*
X77864Y172655D01*
X77812Y172000D01*
X77864Y171345D01*
X78017Y170706D01*
X78269Y170099D01*
X78612Y169538D01*
X79039Y169039D01*
X79538Y168612D01*
X80099Y168269D01*
X80500Y168102D01*
Y161500D01*
X63500D01*
Y168102D01*
X63901Y168269D01*
X64462Y168612D01*
X64961Y169039D01*
X65388Y169538D01*
X65731Y170099D01*
X65983Y170706D01*
X66136Y171345D01*
X66175Y172000D01*
X66136Y172655D01*
X65983Y173294D01*
X65731Y173901D01*
X65388Y174462D01*
X64961Y174961D01*
X64462Y175388D01*
X63901Y175731D01*
X63294Y175983D01*
X62655Y176136D01*
X62000Y176188D01*
X61675Y176162D01*
Y179200D01*
X69189Y186714D01*
X69241Y186759D01*
X69420Y186968D01*
X69564Y187203D01*
X69669Y187458D01*
X69734Y187725D01*
X69755Y188000D01*
X69750Y188069D01*
Y193706D01*
X69901Y193769D01*
X70462Y194112D01*
X70961Y194539D01*
X71388Y195038D01*
X71731Y195599D01*
X71983Y196206D01*
X72136Y196845D01*
X72175Y197500D01*
X72136Y198155D01*
X71983Y198794D01*
X71731Y199401D01*
X71388Y199962D01*
X70961Y200461D01*
X70462Y200888D01*
X69901Y201231D01*
X69294Y201483D01*
X68655Y201636D01*
X68000Y201688D01*
X67345Y201636D01*
X66706Y201483D01*
X66099Y201231D01*
X65538Y200888D01*
X65039Y200461D01*
X64612Y199962D01*
X64269Y199401D01*
X64017Y198794D01*
X63864Y198155D01*
X63812Y197500D01*
X63864Y196845D01*
X64017Y196206D01*
X64269Y195599D01*
X64612Y195038D01*
X65039Y194539D01*
X65538Y194112D01*
X66099Y193769D01*
X66250Y193706D01*
Y188725D01*
X61675Y184150D01*
Y194823D01*
X61753Y194830D01*
X61830Y194848D01*
X61903Y194878D01*
X61970Y194919D01*
X62030Y194970D01*
X62081Y195030D01*
X62122Y195097D01*
X62152Y195170D01*
X62170Y195247D01*
X62175Y195325D01*
Y199675D01*
X62170Y199753D01*
X62152Y199830D01*
X62122Y199903D01*
X62081Y199970D01*
X62030Y200030D01*
X61970Y200081D01*
X61903Y200122D01*
X61830Y200152D01*
X61753Y200170D01*
X61675Y200177D01*
Y213800D01*
G37*
G36*
Y176162D02*X61345Y176136D01*
X60706Y175983D01*
X60099Y175731D01*
X59994Y175667D01*
Y177519D01*
X61675Y179200D01*
Y176162D01*
G37*
G36*
X59994Y213800D02*X61675D01*
Y200177D01*
X61597Y200170D01*
X61520Y200152D01*
X61447Y200122D01*
X61380Y200081D01*
X61320Y200030D01*
X61269Y199970D01*
X61228Y199903D01*
X61198Y199830D01*
X61180Y199753D01*
X61175Y199675D01*
Y195325D01*
X61180Y195247D01*
X61198Y195170D01*
X61228Y195097D01*
X61269Y195030D01*
X61320Y194970D01*
X61380Y194919D01*
X61447Y194878D01*
X61520Y194848D01*
X61597Y194830D01*
X61675Y194823D01*
Y184150D01*
X59994Y182468D01*
Y193325D01*
X60175D01*
X60253Y193330D01*
X60330Y193348D01*
X60403Y193378D01*
X60470Y193419D01*
X60530Y193470D01*
X60581Y193530D01*
X60622Y193597D01*
X60652Y193670D01*
X60670Y193747D01*
X60677Y193825D01*
X60670Y193903D01*
X60652Y193980D01*
X60622Y194053D01*
X60581Y194120D01*
X60530Y194180D01*
X60470Y194231D01*
X60403Y194272D01*
X60330Y194302D01*
X60253Y194320D01*
X60175Y194325D01*
X59994D01*
Y200675D01*
X60175D01*
X60253Y200680D01*
X60330Y200698D01*
X60403Y200728D01*
X60470Y200769D01*
X60530Y200820D01*
X60581Y200880D01*
X60622Y200947D01*
X60652Y201020D01*
X60670Y201097D01*
X60677Y201175D01*
X60670Y201253D01*
X60652Y201330D01*
X60622Y201403D01*
X60581Y201470D01*
X60530Y201530D01*
X60470Y201581D01*
X60403Y201622D01*
X60330Y201652D01*
X60253Y201670D01*
X60175Y201675D01*
X59994D01*
Y213800D01*
G37*
G36*
X36250Y193206D02*Y178725D01*
X34994Y177468D01*
Y194092D01*
X35039Y194039D01*
X35538Y193612D01*
X36099Y193269D01*
X36250Y193206D01*
G37*
G36*
X58175Y106825D02*X58269Y106599D01*
X58612Y106038D01*
X59039Y105539D01*
X59538Y105112D01*
X59994Y104833D01*
Y19700D01*
X58175D01*
Y34586D01*
X58231Y34678D01*
X58483Y35285D01*
X58636Y35924D01*
X58675Y36579D01*
X58636Y37234D01*
X58483Y37873D01*
X58231Y38480D01*
X58175Y38572D01*
Y43744D01*
X58253Y43751D01*
X58330Y43769D01*
X58403Y43799D01*
X58470Y43840D01*
X58530Y43891D01*
X58581Y43951D01*
X58622Y44018D01*
X58652Y44091D01*
X58670Y44168D01*
X58675Y44246D01*
Y48596D01*
X58670Y48674D01*
X58652Y48751D01*
X58622Y48824D01*
X58581Y48891D01*
X58530Y48951D01*
X58470Y49002D01*
X58403Y49043D01*
X58330Y49073D01*
X58253Y49091D01*
X58175Y49098D01*
Y106825D01*
G37*
G36*
Y116825D02*X58269Y116599D01*
X58612Y116038D01*
X59039Y115539D01*
X59538Y115112D01*
X59994Y114833D01*
Y112167D01*
X59538Y111888D01*
X59039Y111461D01*
X58612Y110962D01*
X58269Y110401D01*
X58175Y110175D01*
Y116825D01*
G37*
G36*
Y126825D02*X58269Y126599D01*
X58612Y126038D01*
X59039Y125539D01*
X59538Y125112D01*
X59994Y124833D01*
Y122167D01*
X59538Y121888D01*
X59039Y121461D01*
X58612Y120962D01*
X58269Y120401D01*
X58175Y120175D01*
Y126825D01*
G37*
G36*
Y145325D02*X58269Y145099D01*
X58612Y144538D01*
X59039Y144039D01*
X59538Y143612D01*
X59994Y143333D01*
Y132167D01*
X59538Y131888D01*
X59039Y131461D01*
X58612Y130962D01*
X58269Y130401D01*
X58175Y130175D01*
Y145325D01*
G37*
G36*
Y158500D02*X59994D01*
Y150667D01*
X59538Y150388D01*
X59039Y149961D01*
X58612Y149462D01*
X58269Y148901D01*
X58175Y148675D01*
Y158500D01*
G37*
G36*
Y19700D02*X54500D01*
Y32391D01*
X55155Y32443D01*
X55794Y32596D01*
X56401Y32848D01*
X56962Y33191D01*
X57461Y33618D01*
X57888Y34117D01*
X58175Y34586D01*
Y19700D01*
G37*
G36*
X54500Y158500D02*X58175D01*
Y148675D01*
X58017Y148294D01*
X57864Y147655D01*
X57812Y147000D01*
X57864Y146345D01*
X58017Y145706D01*
X58175Y145325D01*
Y130175D01*
X58017Y129794D01*
X57864Y129155D01*
X57812Y128500D01*
X57864Y127845D01*
X58017Y127206D01*
X58175Y126825D01*
Y120175D01*
X58017Y119794D01*
X57864Y119155D01*
X57812Y118500D01*
X57864Y117845D01*
X58017Y117206D01*
X58175Y116825D01*
Y110175D01*
X58017Y109794D01*
X57864Y109155D01*
X57812Y108500D01*
X57864Y107845D01*
X58017Y107206D01*
X58175Y106825D01*
Y49098D01*
X58097Y49091D01*
X58020Y49073D01*
X57947Y49043D01*
X57880Y49002D01*
X57820Y48951D01*
X57769Y48891D01*
X57728Y48824D01*
X57698Y48751D01*
X57680Y48674D01*
X57675Y48596D01*
Y44246D01*
X57680Y44168D01*
X57698Y44091D01*
X57728Y44018D01*
X57769Y43951D01*
X57820Y43891D01*
X57880Y43840D01*
X57947Y43799D01*
X58020Y43769D01*
X58097Y43751D01*
X58175Y43744D01*
Y38572D01*
X57888Y39041D01*
X57461Y39540D01*
X56962Y39967D01*
X56401Y40310D01*
X55794Y40562D01*
X55155Y40715D01*
X54500Y40767D01*
Y42246D01*
X56675D01*
X56753Y42251D01*
X56830Y42269D01*
X56903Y42299D01*
X56970Y42340D01*
X57030Y42391D01*
X57081Y42451D01*
X57122Y42518D01*
X57152Y42591D01*
X57170Y42668D01*
X57177Y42746D01*
X57170Y42824D01*
X57152Y42901D01*
X57122Y42974D01*
X57081Y43041D01*
X57030Y43101D01*
X56970Y43152D01*
X56903Y43193D01*
X56830Y43223D01*
X56753Y43241D01*
X56675Y43246D01*
X54500D01*
Y49596D01*
X56675D01*
X56753Y49601D01*
X56830Y49619D01*
X56903Y49649D01*
X56970Y49690D01*
X57030Y49741D01*
X57081Y49801D01*
X57122Y49868D01*
X57152Y49941D01*
X57170Y50018D01*
X57177Y50096D01*
X57170Y50174D01*
X57152Y50251D01*
X57122Y50324D01*
X57081Y50391D01*
X57030Y50451D01*
X56970Y50502D01*
X56903Y50543D01*
X56830Y50573D01*
X56753Y50591D01*
X56675Y50596D01*
X54500D01*
Y67329D01*
X54962Y67612D01*
X55461Y68039D01*
X55888Y68538D01*
X56231Y69099D01*
X56483Y69706D01*
X56636Y70345D01*
X56675Y71000D01*
X56636Y71655D01*
X56483Y72294D01*
X56231Y72901D01*
X55888Y73462D01*
X55461Y73961D01*
X54962Y74388D01*
X54500Y74671D01*
Y80384D01*
X54580Y80417D01*
X55194Y80793D01*
X55740Y81260D01*
X56207Y81806D01*
X56583Y82420D01*
X56858Y83084D01*
X57026Y83783D01*
X57068Y84500D01*
X57026Y85217D01*
X56858Y85916D01*
X56583Y86580D01*
X56207Y87194D01*
X55740Y87740D01*
X55194Y88207D01*
X54580Y88583D01*
X54500Y88616D01*
Y90384D01*
X54580Y90417D01*
X55194Y90793D01*
X55740Y91260D01*
X56207Y91806D01*
X56583Y92420D01*
X56858Y93084D01*
X57026Y93783D01*
X57068Y94500D01*
X57026Y95217D01*
X56858Y95916D01*
X56583Y96580D01*
X56207Y97194D01*
X55740Y97740D01*
X55194Y98207D01*
X54580Y98583D01*
X54500Y98616D01*
Y143645D01*
X54961Y144039D01*
X55388Y144538D01*
X55731Y145099D01*
X55983Y145706D01*
X56136Y146345D01*
X56175Y147000D01*
X56136Y147655D01*
X55983Y148294D01*
X55731Y148901D01*
X55388Y149462D01*
X54961Y149961D01*
X54500Y150355D01*
Y158500D01*
G37*
G36*
Y88616D02*X53916Y88858D01*
X53217Y89026D01*
X52500Y89083D01*
X51783Y89026D01*
X51084Y88858D01*
X50420Y88583D01*
X49806Y88207D01*
X49260Y87740D01*
X48793Y87194D01*
X48417Y86580D01*
X48176Y86000D01*
X41994D01*
Y104313D01*
X42000Y104312D01*
X42655Y104364D01*
X43294Y104517D01*
X43901Y104769D01*
X44462Y105112D01*
X44961Y105539D01*
X45388Y106038D01*
X45731Y106599D01*
X45983Y107206D01*
X46136Y107845D01*
X46175Y108500D01*
X46136Y109155D01*
X45983Y109794D01*
X45731Y110401D01*
X45388Y110962D01*
X44961Y111461D01*
X44462Y111888D01*
X43901Y112231D01*
X43294Y112483D01*
X42655Y112636D01*
X42000Y112688D01*
X41994Y112687D01*
Y114313D01*
X42000Y114312D01*
X42655Y114364D01*
X43294Y114517D01*
X43901Y114769D01*
X44462Y115112D01*
X44961Y115539D01*
X45388Y116038D01*
X45731Y116599D01*
X45983Y117206D01*
X46136Y117845D01*
X46175Y118500D01*
X46136Y119155D01*
X45983Y119794D01*
X45817Y120195D01*
X53019Y127398D01*
X53064Y127436D01*
X53217Y127615D01*
X53217Y127616D01*
X53341Y127817D01*
X53431Y128035D01*
X53486Y128265D01*
X53505Y128500D01*
X53500Y128559D01*
Y143102D01*
X53901Y143269D01*
X54462Y143612D01*
X54500Y143645D01*
Y98616D01*
X53916Y98858D01*
X53217Y99026D01*
X52500Y99083D01*
X51783Y99026D01*
X51084Y98858D01*
X50420Y98583D01*
X49806Y98207D01*
X49260Y97740D01*
X48793Y97194D01*
X48417Y96580D01*
X48142Y95916D01*
X47974Y95217D01*
X47917Y94500D01*
X47974Y93783D01*
X48142Y93084D01*
X48417Y92420D01*
X48793Y91806D01*
X49260Y91260D01*
X49806Y90793D01*
X50420Y90417D01*
X51084Y90142D01*
X51783Y89974D01*
X52500Y89917D01*
X53217Y89974D01*
X53916Y90142D01*
X54500Y90384D01*
Y88616D01*
G37*
G36*
Y74671D02*X54401Y74731D01*
X54000Y74898D01*
Y80176D01*
X54500Y80384D01*
Y74671D01*
G37*
G36*
X50825Y67175D02*X51206Y67017D01*
X51845Y66864D01*
X52500Y66812D01*
X53155Y66864D01*
X53794Y67017D01*
X54401Y67269D01*
X54500Y67329D01*
Y50596D01*
X52325D01*
X52247Y50591D01*
X52170Y50573D01*
X52097Y50543D01*
X52030Y50502D01*
X51970Y50451D01*
X51919Y50391D01*
X51878Y50324D01*
X51848Y50251D01*
X51830Y50174D01*
X51823Y50096D01*
X51830Y50018D01*
X51848Y49941D01*
X51878Y49868D01*
X51919Y49801D01*
X51970Y49741D01*
X52030Y49690D01*
X52097Y49649D01*
X52170Y49619D01*
X52247Y49601D01*
X52325Y49596D01*
X54500D01*
Y43246D01*
X52325D01*
X52247Y43241D01*
X52170Y43223D01*
X52097Y43193D01*
X52030Y43152D01*
X51970Y43101D01*
X51919Y43041D01*
X51878Y42974D01*
X51848Y42901D01*
X51830Y42824D01*
X51823Y42746D01*
X51830Y42668D01*
X51848Y42591D01*
X51878Y42518D01*
X51919Y42451D01*
X51970Y42391D01*
X52030Y42340D01*
X52097Y42299D01*
X52170Y42269D01*
X52247Y42251D01*
X52325Y42246D01*
X54500D01*
Y40767D01*
X54500D01*
X53845Y40715D01*
X53206Y40562D01*
X52599Y40310D01*
X52038Y39967D01*
X51539Y39540D01*
X51112Y39041D01*
X50825Y38572D01*
Y43744D01*
X50903Y43751D01*
X50980Y43769D01*
X51053Y43799D01*
X51120Y43840D01*
X51180Y43891D01*
X51231Y43951D01*
X51272Y44018D01*
X51302Y44091D01*
X51320Y44168D01*
X51325Y44246D01*
Y48596D01*
X51320Y48674D01*
X51302Y48751D01*
X51272Y48824D01*
X51231Y48891D01*
X51180Y48951D01*
X51120Y49002D01*
X51053Y49043D01*
X50980Y49073D01*
X50903Y49091D01*
X50825Y49098D01*
Y67175D01*
G37*
G36*
Y80249D02*X51000Y80176D01*
Y74898D01*
X50825Y74825D01*
Y80249D01*
G37*
G36*
X54500Y19700D02*X50825D01*
Y34586D01*
X51112Y34117D01*
X51539Y33618D01*
X52038Y33191D01*
X52599Y32848D01*
X53206Y32596D01*
X53845Y32443D01*
X54500Y32391D01*
X54500D01*
Y19700D01*
G37*
G36*
X50825D02*X41994D01*
Y35647D01*
X42026Y35783D01*
X42068Y36500D01*
X42026Y37217D01*
X41994Y37353D01*
Y43668D01*
X42015Y43704D01*
X42045Y43777D01*
X42064Y43853D01*
X42068Y43932D01*
Y49068D01*
X42064Y49147D01*
X42045Y49223D01*
X42015Y49296D01*
X41994Y49332D01*
Y83000D01*
X48176D01*
X48417Y82420D01*
X48793Y81806D01*
X49260Y81260D01*
X49806Y80793D01*
X50420Y80417D01*
X50825Y80249D01*
Y74825D01*
X50599Y74731D01*
X50038Y74388D01*
X49539Y73961D01*
X49112Y73462D01*
X48769Y72901D01*
X48517Y72294D01*
X48364Y71655D01*
X48312Y71000D01*
X48364Y70345D01*
X48517Y69706D01*
X48769Y69099D01*
X49112Y68538D01*
X49539Y68039D01*
X50038Y67612D01*
X50599Y67269D01*
X50825Y67175D01*
Y49098D01*
X50747Y49091D01*
X50670Y49073D01*
X50597Y49043D01*
X50530Y49002D01*
X50470Y48951D01*
X50419Y48891D01*
X50378Y48824D01*
X50348Y48751D01*
X50330Y48674D01*
X50325Y48596D01*
Y44246D01*
X50330Y44168D01*
X50348Y44091D01*
X50378Y44018D01*
X50419Y43951D01*
X50470Y43891D01*
X50530Y43840D01*
X50597Y43799D01*
X50670Y43769D01*
X50747Y43751D01*
X50825Y43744D01*
Y38572D01*
X50769Y38480D01*
X50517Y37873D01*
X50364Y37234D01*
X50312Y36579D01*
X50364Y35924D01*
X50517Y35285D01*
X50769Y34678D01*
X50825Y34586D01*
Y19700D01*
G37*
G36*
X41994Y158496D02*X42000Y158495D01*
X42059Y158500D01*
X54500D01*
Y150355D01*
X54462Y150388D01*
X53901Y150731D01*
X53294Y150983D01*
X52655Y151136D01*
X52000Y151188D01*
X51345Y151136D01*
X50706Y150983D01*
X50099Y150731D01*
X49538Y150388D01*
X49039Y149961D01*
X48612Y149462D01*
X48269Y148901D01*
X48017Y148294D01*
X47864Y147655D01*
X47812Y147000D01*
X47864Y146345D01*
X48017Y145706D01*
X48269Y145099D01*
X48612Y144538D01*
X49039Y144039D01*
X49538Y143612D01*
X50099Y143269D01*
X50500Y143102D01*
Y129121D01*
X43695Y122317D01*
X43294Y122483D01*
X42655Y122636D01*
X42000Y122688D01*
X41994Y122687D01*
Y124313D01*
X42000Y124312D01*
X42655Y124364D01*
X43294Y124517D01*
X43901Y124769D01*
X44462Y125112D01*
X44961Y125539D01*
X45388Y126038D01*
X45731Y126599D01*
X45983Y127206D01*
X46136Y127845D01*
X46175Y128500D01*
X46136Y129155D01*
X45983Y129794D01*
X45731Y130401D01*
X45388Y130962D01*
X44961Y131461D01*
X44462Y131888D01*
X43901Y132231D01*
X43750Y132294D01*
Y143206D01*
X43901Y143269D01*
X44462Y143612D01*
X44961Y144039D01*
X45388Y144538D01*
X45731Y145099D01*
X45983Y145706D01*
X46136Y146345D01*
X46175Y147000D01*
X46136Y147655D01*
X45983Y148294D01*
X45731Y148901D01*
X45388Y149462D01*
X44961Y149961D01*
X44462Y150388D01*
X43901Y150731D01*
X43294Y150983D01*
X42655Y151136D01*
X42000Y151188D01*
X41994Y151187D01*
Y158496D01*
G37*
G36*
Y37353D02*X41858Y37916D01*
X41583Y38580D01*
X41207Y39194D01*
X40740Y39740D01*
X40194Y40207D01*
X39580Y40583D01*
X38916Y40858D01*
X38217Y41026D01*
X37500Y41083D01*
X36783Y41026D01*
X36084Y40858D01*
X35420Y40583D01*
X34994Y40322D01*
Y41932D01*
X40068D01*
X40147Y41936D01*
X40223Y41955D01*
X40296Y41985D01*
X40363Y42026D01*
X40423Y42077D01*
X40474Y42137D01*
X40515Y42204D01*
X40545Y42277D01*
X40564Y42353D01*
X40570Y42432D01*
X40564Y42510D01*
X40545Y42586D01*
X40515Y42659D01*
X40474Y42726D01*
X40423Y42786D01*
X40363Y42837D01*
X40296Y42878D01*
X40223Y42908D01*
X40147Y42927D01*
X40068Y42932D01*
X34994D01*
Y50069D01*
X40068D01*
X40147Y50073D01*
X40223Y50092D01*
X40296Y50122D01*
X40363Y50163D01*
X40423Y50214D01*
X40474Y50274D01*
X40515Y50341D01*
X40545Y50414D01*
X40564Y50490D01*
X40570Y50568D01*
X40564Y50647D01*
X40545Y50723D01*
X40515Y50796D01*
X40474Y50863D01*
X40423Y50923D01*
X40363Y50974D01*
X40296Y51015D01*
X40223Y51045D01*
X40147Y51064D01*
X40068Y51068D01*
X34994D01*
Y57749D01*
X35083Y57673D01*
X35633Y57336D01*
X36229Y57089D01*
X36857Y56938D01*
X37500Y56887D01*
X38143Y56938D01*
X38771Y57089D01*
X39367Y57336D01*
X39917Y57673D01*
X40408Y58092D01*
X40827Y58583D01*
X41164Y59133D01*
X41411Y59729D01*
X41562Y60357D01*
X41600Y61000D01*
X41562Y61643D01*
X41411Y62271D01*
X41164Y62867D01*
X40827Y63417D01*
X40408Y63908D01*
X39917Y64327D01*
X39367Y64664D01*
X38771Y64911D01*
X38143Y65062D01*
X37500Y65113D01*
X36857Y65062D01*
X36229Y64911D01*
X35633Y64664D01*
X35083Y64327D01*
X34994Y64251D01*
Y83000D01*
X41994D01*
Y49332D01*
X41974Y49363D01*
X41923Y49423D01*
X41863Y49474D01*
X41796Y49515D01*
X41723Y49545D01*
X41647Y49564D01*
X41568Y49570D01*
X41490Y49564D01*
X41414Y49545D01*
X41341Y49515D01*
X41274Y49474D01*
X41214Y49423D01*
X41163Y49363D01*
X41122Y49296D01*
X41092Y49223D01*
X41073Y49147D01*
X41068Y49068D01*
Y43932D01*
X41073Y43853D01*
X41092Y43777D01*
X41122Y43704D01*
X41163Y43637D01*
X41214Y43577D01*
X41274Y43526D01*
X41341Y43485D01*
X41414Y43455D01*
X41490Y43436D01*
X41568Y43430D01*
X41647Y43436D01*
X41723Y43455D01*
X41796Y43485D01*
X41863Y43526D01*
X41923Y43577D01*
X41974Y43637D01*
X41994Y43668D01*
Y37353D01*
G37*
G36*
Y19700D02*X34994D01*
Y32678D01*
X35420Y32417D01*
X36084Y32142D01*
X36783Y31974D01*
X37500Y31917D01*
X38217Y31974D01*
X38916Y32142D01*
X39580Y32417D01*
X40194Y32793D01*
X40740Y33260D01*
X41207Y33806D01*
X41583Y34420D01*
X41858Y35084D01*
X41994Y35647D01*
Y19700D01*
G37*
G36*
X34994Y158500D02*X41941D01*
X41994Y158496D01*
Y151187D01*
X41345Y151136D01*
X40706Y150983D01*
X40099Y150731D01*
X39538Y150388D01*
X39039Y149961D01*
X38612Y149462D01*
X38269Y148901D01*
X38017Y148294D01*
X37864Y147655D01*
X37812Y147000D01*
X37864Y146345D01*
X38017Y145706D01*
X38269Y145099D01*
X38612Y144538D01*
X39039Y144039D01*
X39538Y143612D01*
X40099Y143269D01*
X40250Y143206D01*
Y132294D01*
X40099Y132231D01*
X39538Y131888D01*
X39039Y131461D01*
X38612Y130962D01*
X38269Y130401D01*
X38017Y129794D01*
X37864Y129155D01*
X37812Y128500D01*
X37864Y127845D01*
X38017Y127206D01*
X38269Y126599D01*
X38612Y126038D01*
X39039Y125539D01*
X39538Y125112D01*
X40099Y124769D01*
X40706Y124517D01*
X41345Y124364D01*
X41994Y124313D01*
Y122687D01*
X41345Y122636D01*
X40706Y122483D01*
X40099Y122231D01*
X39538Y121888D01*
X39039Y121461D01*
X38612Y120962D01*
X38269Y120401D01*
X38017Y119794D01*
X37864Y119155D01*
X37812Y118500D01*
X37864Y117845D01*
X38017Y117206D01*
X38269Y116599D01*
X38612Y116038D01*
X39039Y115539D01*
X39538Y115112D01*
X40099Y114769D01*
X40706Y114517D01*
X41345Y114364D01*
X41994Y114313D01*
Y112687D01*
X41345Y112636D01*
X40706Y112483D01*
X40099Y112231D01*
X39538Y111888D01*
X39039Y111461D01*
X38612Y110962D01*
X38269Y110401D01*
X38017Y109794D01*
X37864Y109155D01*
X37812Y108500D01*
X37864Y107845D01*
X38017Y107206D01*
X38269Y106599D01*
X38612Y106038D01*
X39039Y105539D01*
X39538Y105112D01*
X40099Y104769D01*
X40706Y104517D01*
X41345Y104364D01*
X41994Y104313D01*
Y86000D01*
X34994D01*
Y144077D01*
X35388Y144538D01*
X35731Y145099D01*
X35983Y145706D01*
X36136Y146345D01*
X36175Y147000D01*
X36136Y147655D01*
X35983Y148294D01*
X35731Y148901D01*
X35388Y149462D01*
X34994Y149923D01*
Y158500D01*
G37*
G36*
X54325Y168528D02*X54462Y168612D01*
X54961Y169039D01*
X55388Y169538D01*
X55731Y170099D01*
X55983Y170706D01*
X56136Y171345D01*
X56175Y172000D01*
X56136Y172655D01*
X55983Y173294D01*
X55920Y173445D01*
X59994Y177519D01*
Y175667D01*
X59538Y175388D01*
X59039Y174961D01*
X58612Y174462D01*
X58269Y173901D01*
X58017Y173294D01*
X57864Y172655D01*
X57812Y172000D01*
X57864Y171345D01*
X58017Y170706D01*
X58269Y170099D01*
X58612Y169538D01*
X59039Y169039D01*
X59538Y168612D01*
X59994Y168333D01*
Y161500D01*
X54325D01*
Y168528D01*
G37*
G36*
Y213800D02*X59994D01*
Y201675D01*
X55825D01*
X55747Y201670D01*
X55670Y201652D01*
X55597Y201622D01*
X55530Y201581D01*
X55470Y201530D01*
X55419Y201470D01*
X55378Y201403D01*
X55348Y201330D01*
X55330Y201253D01*
X55323Y201175D01*
X55330Y201097D01*
X55348Y201020D01*
X55378Y200947D01*
X55419Y200880D01*
X55470Y200820D01*
X55530Y200769D01*
X55597Y200728D01*
X55670Y200698D01*
X55747Y200680D01*
X55825Y200675D01*
X59994D01*
Y194325D01*
X55825D01*
X55747Y194320D01*
X55670Y194302D01*
X55597Y194272D01*
X55530Y194231D01*
X55470Y194180D01*
X55419Y194120D01*
X55378Y194053D01*
X55348Y193980D01*
X55330Y193903D01*
X55323Y193825D01*
X55330Y193747D01*
X55348Y193670D01*
X55378Y193597D01*
X55419Y193530D01*
X55470Y193470D01*
X55530Y193419D01*
X55597Y193378D01*
X55670Y193348D01*
X55747Y193330D01*
X55825Y193325D01*
X59994D01*
Y182468D01*
X54325Y176800D01*
Y194823D01*
X54403Y194830D01*
X54480Y194848D01*
X54553Y194878D01*
X54620Y194919D01*
X54680Y194970D01*
X54731Y195030D01*
X54772Y195097D01*
X54802Y195170D01*
X54820Y195247D01*
X54825Y195325D01*
Y199675D01*
X54820Y199753D01*
X54802Y199830D01*
X54772Y199903D01*
X54731Y199970D01*
X54680Y200030D01*
X54620Y200081D01*
X54553Y200122D01*
X54480Y200152D01*
X54403Y200170D01*
X54325Y200177D01*
Y213800D01*
G37*
G36*
X34994D02*X54325D01*
Y200177D01*
X54247Y200170D01*
X54170Y200152D01*
X54097Y200122D01*
X54030Y200081D01*
X53970Y200030D01*
X53919Y199970D01*
X53878Y199903D01*
X53848Y199830D01*
X53830Y199753D01*
X53825Y199675D01*
Y195325D01*
X53830Y195247D01*
X53848Y195170D01*
X53878Y195097D01*
X53919Y195030D01*
X53970Y194970D01*
X54030Y194919D01*
X54097Y194878D01*
X54170Y194848D01*
X54247Y194830D01*
X54325Y194823D01*
Y176800D01*
X53445Y175920D01*
X53294Y175983D01*
X52655Y176136D01*
X52000Y176188D01*
X51345Y176136D01*
X50706Y175983D01*
X50099Y175731D01*
X49538Y175388D01*
X49039Y174961D01*
X48612Y174462D01*
X48269Y173901D01*
X48017Y173294D01*
X47864Y172655D01*
X47812Y172000D01*
X47864Y171345D01*
X48017Y170706D01*
X48269Y170099D01*
X48612Y169538D01*
X49039Y169039D01*
X49538Y168612D01*
X50099Y168269D01*
X50706Y168017D01*
X51345Y167864D01*
X52000Y167812D01*
X52655Y167864D01*
X53294Y168017D01*
X53901Y168269D01*
X54325Y168528D01*
Y161500D01*
X43500D01*
Y168102D01*
X43901Y168269D01*
X44462Y168612D01*
X44961Y169039D01*
X45388Y169538D01*
X45731Y170099D01*
X45983Y170706D01*
X46136Y171345D01*
X46175Y172000D01*
X46136Y172655D01*
X45983Y173294D01*
X45731Y173901D01*
X45388Y174462D01*
X44961Y174961D01*
X44462Y175388D01*
X43901Y175731D01*
X43294Y175983D01*
X42655Y176136D01*
X42000Y176188D01*
X41345Y176136D01*
X40706Y175983D01*
X40099Y175731D01*
X39538Y175388D01*
X39039Y174961D01*
X38612Y174462D01*
X38269Y173901D01*
X38017Y173294D01*
X37864Y172655D01*
X37812Y172000D01*
X37864Y171345D01*
X38017Y170706D01*
X38269Y170099D01*
X38612Y169538D01*
X39039Y169039D01*
X39538Y168612D01*
X40099Y168269D01*
X40500Y168102D01*
Y161500D01*
X34994D01*
Y169077D01*
X35388Y169538D01*
X35731Y170099D01*
X35983Y170706D01*
X36136Y171345D01*
X36175Y172000D01*
X36136Y172655D01*
X35983Y173294D01*
X35920Y173445D01*
X39189Y176714D01*
X39241Y176759D01*
X39420Y176968D01*
X39564Y177203D01*
X39669Y177458D01*
X39734Y177725D01*
X39755Y178000D01*
X39750Y178069D01*
Y193206D01*
X39901Y193269D01*
X40462Y193612D01*
X40961Y194039D01*
X41388Y194538D01*
X41731Y195099D01*
X41983Y195706D01*
X42136Y196345D01*
X42175Y197000D01*
X42136Y197655D01*
X41983Y198294D01*
X41731Y198901D01*
X41388Y199462D01*
X40961Y199961D01*
X40462Y200388D01*
X39901Y200731D01*
X39294Y200983D01*
X38655Y201136D01*
X38000Y201188D01*
X37345Y201136D01*
X36706Y200983D01*
X36099Y200731D01*
X35538Y200388D01*
X35039Y199961D01*
X34994Y199908D01*
Y213800D01*
G37*
G36*
X33432Y34396D02*X33793Y33806D01*
X34260Y33260D01*
X34806Y32793D01*
X34994Y32678D01*
Y19700D01*
X33432D01*
Y34396D01*
G37*
G36*
Y60439D02*X33438Y60357D01*
X33589Y59729D01*
X33836Y59133D01*
X34173Y58583D01*
X34592Y58092D01*
X34994Y57749D01*
Y51068D01*
X34932D01*
X34853Y51064D01*
X34777Y51045D01*
X34704Y51015D01*
X34637Y50974D01*
X34577Y50923D01*
X34526Y50863D01*
X34485Y50796D01*
X34455Y50723D01*
X34436Y50647D01*
X34430Y50568D01*
X34436Y50490D01*
X34455Y50414D01*
X34485Y50341D01*
X34526Y50274D01*
X34577Y50214D01*
X34637Y50163D01*
X34704Y50122D01*
X34777Y50092D01*
X34853Y50073D01*
X34932Y50069D01*
X34994D01*
Y42932D01*
X34932D01*
X34853Y42927D01*
X34777Y42908D01*
X34704Y42878D01*
X34637Y42837D01*
X34577Y42786D01*
X34526Y42726D01*
X34485Y42659D01*
X34455Y42586D01*
X34436Y42510D01*
X34430Y42432D01*
X34436Y42353D01*
X34455Y42277D01*
X34485Y42204D01*
X34526Y42137D01*
X34577Y42077D01*
X34637Y42026D01*
X34704Y41985D01*
X34777Y41955D01*
X34853Y41936D01*
X34932Y41932D01*
X34994D01*
Y40322D01*
X34806Y40207D01*
X34260Y39740D01*
X33793Y39194D01*
X33432Y38604D01*
Y43430D01*
X33510Y43436D01*
X33586Y43455D01*
X33659Y43485D01*
X33726Y43526D01*
X33786Y43577D01*
X33837Y43637D01*
X33878Y43704D01*
X33908Y43777D01*
X33927Y43853D01*
X33931Y43932D01*
Y49068D01*
X33927Y49147D01*
X33908Y49223D01*
X33878Y49296D01*
X33837Y49363D01*
X33786Y49423D01*
X33726Y49474D01*
X33659Y49515D01*
X33586Y49545D01*
X33510Y49564D01*
X33432Y49570D01*
Y60439D01*
G37*
G36*
Y83000D02*X34994D01*
Y64251D01*
X34592Y63908D01*
X34173Y63417D01*
X33836Y62867D01*
X33589Y62271D01*
X33438Y61643D01*
X33432Y61561D01*
Y83000D01*
G37*
G36*
X27494D02*X33432D01*
Y61561D01*
X33387Y61000D01*
X33432Y60439D01*
Y49570D01*
X33353Y49564D01*
X33277Y49545D01*
X33204Y49515D01*
X33137Y49474D01*
X33077Y49423D01*
X33026Y49363D01*
X32985Y49296D01*
X32955Y49223D01*
X32936Y49147D01*
X32932Y49068D01*
Y43932D01*
X32936Y43853D01*
X32955Y43777D01*
X32985Y43704D01*
X33026Y43637D01*
X33077Y43577D01*
X33137Y43526D01*
X33204Y43485D01*
X33277Y43455D01*
X33353Y43436D01*
X33432Y43430D01*
Y38604D01*
X33417Y38580D01*
X33142Y37916D01*
X32974Y37217D01*
X32917Y36500D01*
X32974Y35783D01*
X33142Y35084D01*
X33417Y34420D01*
X33432Y34396D01*
Y19700D01*
X27494D01*
Y27697D01*
X28200Y28300D01*
X28805Y29009D01*
X29292Y29803D01*
X29649Y30665D01*
X29867Y31571D01*
X29921Y32500D01*
X29867Y33429D01*
X29649Y34335D01*
X29292Y35197D01*
X28805Y35991D01*
X28200Y36700D01*
X27494Y37303D01*
Y41697D01*
X28200Y42300D01*
X28805Y43009D01*
X29292Y43803D01*
X29649Y44665D01*
X29867Y45571D01*
X29921Y46500D01*
X29867Y47429D01*
X29649Y48335D01*
X29292Y49197D01*
X28805Y49991D01*
X28200Y50700D01*
X27494Y51303D01*
Y56888D01*
X27500Y56887D01*
X28143Y56938D01*
X28771Y57089D01*
X29367Y57336D01*
X29917Y57673D01*
X30408Y58092D01*
X30827Y58583D01*
X31164Y59133D01*
X31411Y59729D01*
X31562Y60357D01*
X31600Y61000D01*
X31562Y61643D01*
X31411Y62271D01*
X31164Y62867D01*
X30827Y63417D01*
X30408Y63908D01*
X29917Y64327D01*
X29367Y64664D01*
X29000Y64816D01*
Y67102D01*
X29401Y67269D01*
X29962Y67612D01*
X30461Y68039D01*
X30888Y68538D01*
X31231Y69099D01*
X31483Y69706D01*
X31636Y70345D01*
X31675Y71000D01*
X31636Y71655D01*
X31483Y72294D01*
X31231Y72901D01*
X30888Y73462D01*
X30461Y73961D01*
X29962Y74388D01*
X29401Y74731D01*
X28794Y74983D01*
X28155Y75136D01*
X27500Y75188D01*
X27494Y75187D01*
Y83000D01*
G37*
G36*
Y37303D02*X27491Y37305D01*
X26697Y37792D01*
X25835Y38149D01*
X24929Y38367D01*
X24000Y38440D01*
X23071Y38367D01*
X22165Y38149D01*
X21994Y38078D01*
Y40922D01*
X22165Y40851D01*
X23071Y40633D01*
X24000Y40560D01*
X24929Y40633D01*
X25835Y40851D01*
X26697Y41208D01*
X27491Y41695D01*
X27494Y41697D01*
Y37303D01*
G37*
G36*
Y19700D02*X21994D01*
Y26922D01*
X22165Y26851D01*
X23071Y26633D01*
X24000Y26560D01*
X24929Y26633D01*
X25835Y26851D01*
X26697Y27208D01*
X27491Y27695D01*
X27494Y27697D01*
Y19700D01*
G37*
G36*
X21994Y79935D02*X26225Y79941D01*
X26378Y79978D01*
X26524Y80038D01*
X26658Y80120D01*
X26778Y80222D01*
X26880Y80342D01*
X26962Y80476D01*
X27022Y80622D01*
X27059Y80775D01*
X27068Y80932D01*
X27066Y83000D01*
X27494D01*
Y75187D01*
X26845Y75136D01*
X26206Y74983D01*
X25599Y74731D01*
X25038Y74388D01*
X24539Y73961D01*
X24112Y73462D01*
X23769Y72901D01*
X23517Y72294D01*
X23364Y71655D01*
X23312Y71000D01*
X23364Y70345D01*
X23517Y69706D01*
X23769Y69099D01*
X24112Y68538D01*
X24539Y68039D01*
X25038Y67612D01*
X25599Y67269D01*
X26000Y67102D01*
Y64816D01*
X25633Y64664D01*
X25083Y64327D01*
X24592Y63908D01*
X24173Y63417D01*
X23836Y62867D01*
X23589Y62271D01*
X23438Y61643D01*
X23387Y61000D01*
X23438Y60357D01*
X23589Y59729D01*
X23836Y59133D01*
X24173Y58583D01*
X24592Y58092D01*
X25083Y57673D01*
X25633Y57336D01*
X26229Y57089D01*
X26857Y56938D01*
X27494Y56888D01*
Y51303D01*
X27491Y51305D01*
X26697Y51792D01*
X25835Y52149D01*
X24929Y52367D01*
X24000Y52440D01*
X23071Y52367D01*
X22165Y52149D01*
X21994Y52078D01*
Y79935D01*
G37*
G36*
X26280Y120658D02*X33019Y127398D01*
X33064Y127436D01*
X33217Y127615D01*
X33217Y127616D01*
X33341Y127817D01*
X33431Y128035D01*
X33486Y128265D01*
X33505Y128500D01*
X33500Y128559D01*
Y143102D01*
X33901Y143269D01*
X34462Y143612D01*
X34961Y144039D01*
X34994Y144077D01*
Y86000D01*
X27062D01*
X27059Y88225D01*
X27022Y88378D01*
X26962Y88524D01*
X26880Y88658D01*
X26778Y88778D01*
X26658Y88880D01*
X26524Y88962D01*
X26378Y89022D01*
X26280Y89046D01*
Y92002D01*
X26320Y92032D01*
X26375Y92088D01*
X26419Y92153D01*
X26618Y92512D01*
X26780Y92890D01*
X26908Y93281D01*
X26999Y93682D01*
X27055Y94089D01*
X27073Y94500D01*
X27055Y94911D01*
X26999Y95318D01*
X26908Y95719D01*
X26780Y96110D01*
X26618Y96488D01*
X26423Y96850D01*
X26378Y96915D01*
X26322Y96971D01*
X26280Y97003D01*
Y120658D01*
G37*
G36*
X21994Y114313D02*X22000Y114312D01*
X22655Y114364D01*
X23294Y114517D01*
X23901Y114769D01*
X24462Y115112D01*
X24961Y115539D01*
X25388Y116038D01*
X25731Y116599D01*
X25983Y117206D01*
X26136Y117845D01*
X26175Y118500D01*
X26136Y119155D01*
X25983Y119794D01*
X25817Y120195D01*
X26280Y120658D01*
Y97003D01*
X26259Y97018D01*
X26188Y97055D01*
X26113Y97080D01*
X26035Y97094D01*
X25956Y97094D01*
X25877Y97083D01*
X25802Y97059D01*
X25731Y97024D01*
X25666Y96978D01*
X25610Y96922D01*
X25562Y96859D01*
X25526Y96788D01*
X25500Y96713D01*
X25487Y96635D01*
X25486Y96556D01*
X25498Y96477D01*
X25522Y96402D01*
X25558Y96332D01*
X25714Y96051D01*
X25840Y95756D01*
X25939Y95451D01*
X26011Y95138D01*
X26054Y94820D01*
X26068Y94500D01*
X26054Y94180D01*
X26011Y93862D01*
X25939Y93549D01*
X25840Y93244D01*
X25714Y92949D01*
X25561Y92667D01*
X25525Y92597D01*
X25502Y92522D01*
X25490Y92444D01*
X25491Y92365D01*
X25504Y92288D01*
X25529Y92213D01*
X25565Y92143D01*
X25612Y92080D01*
X25669Y92025D01*
X25733Y91979D01*
X25803Y91944D01*
X25878Y91921D01*
X25956Y91909D01*
X26035Y91910D01*
X26112Y91923D01*
X26187Y91948D01*
X26257Y91985D01*
X26280Y92002D01*
Y89046D01*
X26225Y89059D01*
X26068Y89068D01*
X21994Y89063D01*
Y89958D01*
X22089Y89945D01*
X22500Y89927D01*
X22911Y89945D01*
X23318Y90001D01*
X23719Y90092D01*
X24110Y90220D01*
X24488Y90382D01*
X24850Y90577D01*
X24915Y90622D01*
X24971Y90678D01*
X25018Y90741D01*
X25055Y90812D01*
X25080Y90887D01*
X25094Y90965D01*
X25094Y91044D01*
X25083Y91123D01*
X25059Y91198D01*
X25024Y91269D01*
X24978Y91334D01*
X24922Y91390D01*
X24859Y91438D01*
X24788Y91474D01*
X24713Y91500D01*
X24635Y91513D01*
X24556Y91514D01*
X24477Y91502D01*
X24402Y91478D01*
X24332Y91442D01*
X24051Y91286D01*
X23756Y91160D01*
X23451Y91061D01*
X23138Y90989D01*
X22820Y90946D01*
X22500Y90932D01*
X22180Y90946D01*
X21994Y90971D01*
Y98029D01*
X22180Y98054D01*
X22500Y98068D01*
X22820Y98054D01*
X23138Y98011D01*
X23451Y97939D01*
X23756Y97840D01*
X24051Y97714D01*
X24333Y97561D01*
X24403Y97525D01*
X24478Y97502D01*
X24556Y97490D01*
X24635Y97491D01*
X24712Y97504D01*
X24787Y97529D01*
X24857Y97565D01*
X24920Y97612D01*
X24975Y97669D01*
X25021Y97733D01*
X25056Y97803D01*
X25079Y97878D01*
X25091Y97956D01*
X25090Y98035D01*
X25077Y98112D01*
X25052Y98187D01*
X25015Y98257D01*
X24968Y98320D01*
X24912Y98375D01*
X24847Y98419D01*
X24488Y98619D01*
X24110Y98780D01*
X23719Y98908D01*
X23318Y98999D01*
X22911Y99055D01*
X22500Y99073D01*
X22089Y99055D01*
X21994Y99042D01*
Y104313D01*
X22000Y104312D01*
X22655Y104364D01*
X23294Y104517D01*
X23901Y104769D01*
X24462Y105112D01*
X24961Y105539D01*
X25388Y106038D01*
X25731Y106599D01*
X25983Y107206D01*
X26136Y107845D01*
X26175Y108500D01*
X26136Y109155D01*
X25983Y109794D01*
X25731Y110401D01*
X25388Y110962D01*
X24961Y111461D01*
X24462Y111888D01*
X23901Y112231D01*
X23294Y112483D01*
X22655Y112636D01*
X22000Y112688D01*
X21994Y112687D01*
Y114313D01*
G37*
G36*
Y167813D02*X22000Y167812D01*
X22655Y167864D01*
X23294Y168017D01*
X23695Y168183D01*
X32898Y158981D01*
X32936Y158936D01*
X33116Y158783D01*
X33317Y158659D01*
X33535Y158569D01*
X33765Y158514D01*
X34000Y158495D01*
X34059Y158500D01*
X34994D01*
Y149923D01*
X34961Y149961D01*
X34462Y150388D01*
X33901Y150731D01*
X33294Y150983D01*
X32655Y151136D01*
X32000Y151188D01*
X31345Y151136D01*
X30706Y150983D01*
X30099Y150731D01*
X29538Y150388D01*
X29039Y149961D01*
X28612Y149462D01*
X28269Y148901D01*
X28017Y148294D01*
X27864Y147655D01*
X27812Y147000D01*
X27864Y146345D01*
X28017Y145706D01*
X28269Y145099D01*
X28612Y144538D01*
X29039Y144039D01*
X29538Y143612D01*
X30099Y143269D01*
X30500Y143102D01*
Y129121D01*
X23695Y122317D01*
X23294Y122483D01*
X22655Y122636D01*
X22000Y122688D01*
X21994Y122687D01*
Y124313D01*
X22000Y124312D01*
X22655Y124364D01*
X23294Y124517D01*
X23901Y124769D01*
X24462Y125112D01*
X24961Y125539D01*
X25388Y126038D01*
X25731Y126599D01*
X25983Y127206D01*
X26136Y127845D01*
X26175Y128500D01*
X26136Y129155D01*
X25983Y129794D01*
X25731Y130401D01*
X25388Y130962D01*
X24961Y131461D01*
X24462Y131888D01*
X23901Y132231D01*
X23750Y132294D01*
Y143206D01*
X23901Y143269D01*
X24462Y143612D01*
X24961Y144039D01*
X25388Y144538D01*
X25731Y145099D01*
X25983Y145706D01*
X26136Y146345D01*
X26175Y147000D01*
X26136Y147655D01*
X25983Y148294D01*
X25731Y148901D01*
X25388Y149462D01*
X24961Y149961D01*
X24462Y150388D01*
X23901Y150731D01*
X23294Y150983D01*
X22655Y151136D01*
X22000Y151188D01*
X21994Y151187D01*
Y167813D01*
G37*
G36*
X28000Y170777D02*X28017Y170706D01*
X28269Y170099D01*
X28612Y169538D01*
X29039Y169039D01*
X29538Y168612D01*
X30099Y168269D01*
X30706Y168017D01*
X31345Y167864D01*
X32000Y167812D01*
X32655Y167864D01*
X33294Y168017D01*
X33901Y168269D01*
X34462Y168612D01*
X34961Y169039D01*
X34994Y169077D01*
Y161500D01*
X34621D01*
X28000Y168121D01*
Y170777D01*
G37*
G36*
X31675Y213800D02*X34994D01*
Y199908D01*
X34612Y199462D01*
X34269Y198901D01*
X34017Y198294D01*
X33864Y197655D01*
X33812Y197000D01*
X33864Y196345D01*
X34017Y195706D01*
X34269Y195099D01*
X34612Y194538D01*
X34994Y194092D01*
Y177468D01*
X33445Y175920D01*
X33294Y175983D01*
X32655Y176136D01*
X32000Y176188D01*
X31675Y176162D01*
Y194323D01*
X31753Y194330D01*
X31830Y194348D01*
X31903Y194378D01*
X31970Y194419D01*
X32030Y194470D01*
X32081Y194530D01*
X32122Y194597D01*
X32152Y194670D01*
X32170Y194747D01*
X32175Y194825D01*
Y199175D01*
X32170Y199253D01*
X32152Y199330D01*
X32122Y199403D01*
X32081Y199470D01*
X32030Y199530D01*
X31970Y199581D01*
X31903Y199622D01*
X31830Y199652D01*
X31753Y199670D01*
X31675Y199677D01*
Y213800D01*
G37*
G36*
X28000D02*X31675D01*
Y199677D01*
X31597Y199670D01*
X31520Y199652D01*
X31447Y199622D01*
X31380Y199581D01*
X31320Y199530D01*
X31269Y199470D01*
X31228Y199403D01*
X31198Y199330D01*
X31180Y199253D01*
X31175Y199175D01*
Y194825D01*
X31180Y194747D01*
X31198Y194670D01*
X31228Y194597D01*
X31269Y194530D01*
X31320Y194470D01*
X31380Y194419D01*
X31447Y194378D01*
X31520Y194348D01*
X31597Y194330D01*
X31675Y194323D01*
Y176162D01*
X31345Y176136D01*
X30706Y175983D01*
X30099Y175731D01*
X29538Y175388D01*
X29039Y174961D01*
X28612Y174462D01*
X28269Y173901D01*
X28017Y173294D01*
X28000Y173223D01*
Y192825D01*
X30175D01*
X30253Y192830D01*
X30330Y192848D01*
X30403Y192878D01*
X30470Y192919D01*
X30530Y192970D01*
X30581Y193030D01*
X30622Y193097D01*
X30652Y193170D01*
X30670Y193247D01*
X30677Y193325D01*
X30670Y193403D01*
X30652Y193480D01*
X30622Y193553D01*
X30581Y193620D01*
X30530Y193680D01*
X30470Y193731D01*
X30403Y193772D01*
X30330Y193802D01*
X30253Y193820D01*
X30175Y193825D01*
X28000D01*
Y200175D01*
X30175D01*
X30253Y200180D01*
X30330Y200198D01*
X30403Y200228D01*
X30470Y200269D01*
X30530Y200320D01*
X30581Y200380D01*
X30622Y200447D01*
X30652Y200520D01*
X30670Y200597D01*
X30677Y200675D01*
X30670Y200753D01*
X30652Y200830D01*
X30622Y200903D01*
X30581Y200970D01*
X30530Y201030D01*
X30470Y201081D01*
X30403Y201122D01*
X30330Y201152D01*
X30253Y201170D01*
X30175Y201175D01*
X28000D01*
Y213800D01*
G37*
G36*
X24325D02*X28000D01*
Y201175D01*
X25825D01*
X25747Y201170D01*
X25670Y201152D01*
X25597Y201122D01*
X25530Y201081D01*
X25470Y201030D01*
X25419Y200970D01*
X25378Y200903D01*
X25348Y200830D01*
X25330Y200753D01*
X25323Y200675D01*
X25330Y200597D01*
X25348Y200520D01*
X25378Y200447D01*
X25419Y200380D01*
X25470Y200320D01*
X25530Y200269D01*
X25597Y200228D01*
X25670Y200198D01*
X25747Y200180D01*
X25825Y200175D01*
X28000D01*
Y193825D01*
X25825D01*
X25747Y193820D01*
X25670Y193802D01*
X25597Y193772D01*
X25530Y193731D01*
X25470Y193680D01*
X25419Y193620D01*
X25378Y193553D01*
X25348Y193480D01*
X25330Y193403D01*
X25323Y193325D01*
X25330Y193247D01*
X25348Y193170D01*
X25378Y193097D01*
X25419Y193030D01*
X25470Y192970D01*
X25530Y192919D01*
X25597Y192878D01*
X25670Y192848D01*
X25747Y192830D01*
X25825Y192825D01*
X28000D01*
Y173223D01*
X27864Y172655D01*
X27812Y172000D01*
X27864Y171345D01*
X28000Y170777D01*
Y168121D01*
X25817Y170305D01*
X25983Y170706D01*
X26136Y171345D01*
X26175Y172000D01*
X26136Y172655D01*
X25983Y173294D01*
X25731Y173901D01*
X25388Y174462D01*
X24961Y174961D01*
X24462Y175388D01*
X24325Y175472D01*
Y194323D01*
X24403Y194330D01*
X24480Y194348D01*
X24553Y194378D01*
X24620Y194419D01*
X24680Y194470D01*
X24731Y194530D01*
X24772Y194597D01*
X24802Y194670D01*
X24820Y194747D01*
X24825Y194825D01*
Y199175D01*
X24820Y199253D01*
X24802Y199330D01*
X24772Y199403D01*
X24731Y199470D01*
X24680Y199530D01*
X24620Y199581D01*
X24553Y199622D01*
X24480Y199652D01*
X24403Y199670D01*
X24325Y199677D01*
Y213800D01*
G37*
G36*
X21994D02*X24325D01*
Y199677D01*
X24247Y199670D01*
X24170Y199652D01*
X24097Y199622D01*
X24030Y199581D01*
X23970Y199530D01*
X23919Y199470D01*
X23878Y199403D01*
X23848Y199330D01*
X23830Y199253D01*
X23825Y199175D01*
Y194825D01*
X23830Y194747D01*
X23848Y194670D01*
X23878Y194597D01*
X23919Y194530D01*
X23970Y194470D01*
X24030Y194419D01*
X24097Y194378D01*
X24170Y194348D01*
X24247Y194330D01*
X24325Y194323D01*
Y175472D01*
X23901Y175731D01*
X23294Y175983D01*
X22655Y176136D01*
X22000Y176188D01*
X21994Y176187D01*
Y213800D01*
G37*
G36*
X18720Y29783D02*X19195Y29009D01*
X19800Y28300D01*
X20509Y27695D01*
X21303Y27208D01*
X21994Y26922D01*
Y19700D01*
X18720D01*
Y29783D01*
G37*
G36*
Y43783D02*X19195Y43009D01*
X19800Y42300D01*
X20509Y41695D01*
X21303Y41208D01*
X21994Y40922D01*
Y38078D01*
X21303Y37792D01*
X20509Y37305D01*
X19800Y36700D01*
X19195Y35991D01*
X18720Y35217D01*
Y43783D01*
G37*
G36*
Y79954D02*X18775Y79941D01*
X18932Y79932D01*
X21994Y79935D01*
Y52078D01*
X21303Y51792D01*
X20509Y51305D01*
X19800Y50700D01*
X19195Y49991D01*
X18720Y49217D01*
Y79954D01*
G37*
G36*
Y105912D02*X19039Y105539D01*
X19538Y105112D01*
X20099Y104769D01*
X20706Y104517D01*
X21345Y104364D01*
X21994Y104313D01*
Y99042D01*
X21682Y98999D01*
X21281Y98908D01*
X20890Y98780D01*
X20512Y98619D01*
X20150Y98423D01*
X20085Y98378D01*
X20029Y98322D01*
X19982Y98259D01*
X19945Y98188D01*
X19920Y98113D01*
X19906Y98035D01*
X19906Y97956D01*
X19917Y97877D01*
X19941Y97802D01*
X19976Y97731D01*
X20022Y97666D01*
X20078Y97610D01*
X20141Y97562D01*
X20212Y97526D01*
X20287Y97500D01*
X20365Y97487D01*
X20444Y97486D01*
X20523Y97498D01*
X20598Y97522D01*
X20668Y97558D01*
X20949Y97714D01*
X21244Y97840D01*
X21549Y97939D01*
X21862Y98011D01*
X21994Y98029D01*
Y90971D01*
X21862Y90989D01*
X21549Y91061D01*
X21244Y91160D01*
X20949Y91286D01*
X20667Y91439D01*
X20597Y91475D01*
X20522Y91498D01*
X20444Y91510D01*
X20365Y91509D01*
X20288Y91496D01*
X20213Y91471D01*
X20143Y91435D01*
X20080Y91388D01*
X20025Y91331D01*
X19979Y91267D01*
X19944Y91197D01*
X19921Y91122D01*
X19909Y91044D01*
X19910Y90965D01*
X19923Y90888D01*
X19948Y90813D01*
X19985Y90743D01*
X20032Y90680D01*
X20088Y90625D01*
X20153Y90581D01*
X20512Y90382D01*
X20890Y90220D01*
X21281Y90092D01*
X21682Y90001D01*
X21994Y89958D01*
Y89063D01*
X18775Y89059D01*
X18720Y89046D01*
Y91997D01*
X18741Y91982D01*
X18812Y91945D01*
X18887Y91920D01*
X18965Y91906D01*
X19044Y91906D01*
X19123Y91917D01*
X19198Y91941D01*
X19269Y91976D01*
X19334Y92022D01*
X19390Y92078D01*
X19438Y92141D01*
X19474Y92212D01*
X19500Y92287D01*
X19513Y92365D01*
X19514Y92444D01*
X19502Y92523D01*
X19478Y92598D01*
X19442Y92668D01*
X19286Y92949D01*
X19160Y93244D01*
X19061Y93549D01*
X18989Y93862D01*
X18946Y94180D01*
X18932Y94500D01*
X18946Y94820D01*
X18989Y95138D01*
X19061Y95451D01*
X19160Y95756D01*
X19286Y96051D01*
X19439Y96333D01*
X19475Y96403D01*
X19498Y96478D01*
X19510Y96556D01*
X19509Y96635D01*
X19496Y96712D01*
X19471Y96787D01*
X19435Y96857D01*
X19388Y96920D01*
X19331Y96975D01*
X19267Y97021D01*
X19197Y97056D01*
X19122Y97079D01*
X19044Y97091D01*
X18965Y97090D01*
X18888Y97077D01*
X18813Y97052D01*
X18743Y97015D01*
X18720Y96998D01*
Y105912D01*
G37*
G36*
Y115912D02*X19039Y115539D01*
X19538Y115112D01*
X20099Y114769D01*
X20706Y114517D01*
X21345Y114364D01*
X21994Y114313D01*
Y112687D01*
X21345Y112636D01*
X20706Y112483D01*
X20099Y112231D01*
X19538Y111888D01*
X19039Y111461D01*
X18720Y111088D01*
Y115912D01*
G37*
G36*
Y125912D02*X19039Y125539D01*
X19538Y125112D01*
X20099Y124769D01*
X20706Y124517D01*
X21345Y124364D01*
X21994Y124313D01*
Y122687D01*
X21345Y122636D01*
X20706Y122483D01*
X20099Y122231D01*
X19538Y121888D01*
X19039Y121461D01*
X18720Y121088D01*
Y125912D01*
G37*
G36*
Y144412D02*X19039Y144039D01*
X19538Y143612D01*
X20099Y143269D01*
X20250Y143206D01*
Y132294D01*
X20099Y132231D01*
X19538Y131888D01*
X19039Y131461D01*
X18720Y131088D01*
Y144412D01*
G37*
G36*
Y169412D02*X19039Y169039D01*
X19538Y168612D01*
X20099Y168269D01*
X20706Y168017D01*
X21345Y167864D01*
X21994Y167813D01*
Y151187D01*
X21345Y151136D01*
X20706Y150983D01*
X20099Y150731D01*
X19538Y150388D01*
X19039Y149961D01*
X18720Y149588D01*
Y169412D01*
G37*
G36*
Y213800D02*X21994D01*
Y176187D01*
X21345Y176136D01*
X20706Y175983D01*
X20099Y175731D01*
X19538Y175388D01*
X19039Y174961D01*
X18720Y174588D01*
Y213800D01*
G37*
G36*
X18000D02*X18720D01*
Y174588D01*
X18612Y174462D01*
X18269Y173901D01*
X18017Y173294D01*
X17864Y172655D01*
X17812Y172000D01*
X17864Y171345D01*
X18017Y170706D01*
X18269Y170099D01*
X18612Y169538D01*
X18720Y169412D01*
Y149588D01*
X18612Y149462D01*
X18269Y148901D01*
X18017Y148294D01*
X17864Y147655D01*
X17812Y147000D01*
X17864Y146345D01*
X18017Y145706D01*
X18269Y145099D01*
X18612Y144538D01*
X18720Y144412D01*
Y131088D01*
X18612Y130962D01*
X18269Y130401D01*
X18017Y129794D01*
X17864Y129155D01*
X17812Y128500D01*
X17864Y127845D01*
X18017Y127206D01*
X18269Y126599D01*
X18612Y126038D01*
X18720Y125912D01*
Y121088D01*
X18612Y120962D01*
X18269Y120401D01*
X18017Y119794D01*
X17864Y119155D01*
X17812Y118500D01*
X17864Y117845D01*
X18017Y117206D01*
X18269Y116599D01*
X18612Y116038D01*
X18720Y115912D01*
Y111088D01*
X18612Y110962D01*
X18269Y110401D01*
X18017Y109794D01*
X17864Y109155D01*
X17812Y108500D01*
X17864Y107845D01*
X18017Y107206D01*
X18269Y106599D01*
X18612Y106038D01*
X18720Y105912D01*
Y96998D01*
X18680Y96968D01*
X18625Y96912D01*
X18581Y96847D01*
X18381Y96488D01*
X18220Y96110D01*
X18092Y95719D01*
X18001Y95318D01*
X17945Y94911D01*
X17927Y94500D01*
X17945Y94089D01*
X18001Y93682D01*
X18092Y93281D01*
X18220Y92890D01*
X18381Y92512D01*
X18577Y92150D01*
X18622Y92085D01*
X18678Y92029D01*
X18720Y91997D01*
Y89046D01*
X18622Y89022D01*
X18476Y88962D01*
X18342Y88880D01*
X18222Y88778D01*
X18120Y88658D01*
X18038Y88524D01*
X17978Y88378D01*
X17941Y88225D01*
X17932Y88068D01*
X17941Y80775D01*
X17978Y80622D01*
X18038Y80476D01*
X18120Y80342D01*
X18222Y80222D01*
X18342Y80120D01*
X18476Y80038D01*
X18622Y79978D01*
X18720Y79954D01*
Y49217D01*
X18708Y49197D01*
X18351Y48335D01*
X18133Y47429D01*
X18060Y46500D01*
X18133Y45571D01*
X18351Y44665D01*
X18708Y43803D01*
X18720Y43783D01*
Y35217D01*
X18708Y35197D01*
X18351Y34335D01*
X18133Y33429D01*
X18060Y32500D01*
X18133Y31571D01*
X18351Y30665D01*
X18708Y29803D01*
X18720Y29783D01*
Y19700D01*
X18110D01*
X18000Y19706D01*
X17407Y19726D01*
X16819Y19803D01*
X16240Y19932D01*
X15674Y20110D01*
X15126Y20337D01*
X14600Y20611D01*
X14100Y20930D01*
X13629Y21291D01*
X13192Y21692D01*
X12791Y22129D01*
X12430Y22600D01*
X12111Y23100D01*
X11837Y23626D01*
X11610Y24174D01*
X11432Y24740D01*
X11303Y25319D01*
X11226Y25907D01*
X11200Y26500D01*
X11200Y26500D01*
Y206890D01*
X11206Y207000D01*
X11226Y207593D01*
X11303Y208181D01*
X11432Y208760D01*
X11610Y209326D01*
X11837Y209874D01*
X12111Y210400D01*
X12430Y210900D01*
X12791Y211371D01*
X13192Y211808D01*
X13629Y212209D01*
X14100Y212570D01*
X14600Y212889D01*
X15126Y213163D01*
X15674Y213390D01*
X16240Y213568D01*
X16819Y213697D01*
X17407Y213774D01*
X18000Y213800D01*
X18000Y213800D01*
G37*
G54D22*X92000Y172000D02*X108000Y188000D01*
G54D23*X112000Y172000D02*X117000D01*
X122000Y167000D01*
X132000D02*X125000Y160000D01*
G54D22*X108000Y188000D02*X119000D01*
X128000Y197000D01*
G54D24*X18000Y215000D02*X198500D01*
G54D23*X171000Y210000D02*X164000Y203000D01*
X181500Y210000D02*X171000D01*
X194000Y197500D02*X181500Y210000D01*
X153000Y167000D02*X164000Y178000D01*
X155000Y159000D02*X174000Y178000D01*
X82000Y172000D02*Y160000D01*
X62000Y172000D02*Y160000D01*
X145000Y99500D02*X153000Y107500D01*
Y167000D01*
X145000Y89500D02*X155000Y99500D01*
Y159000D01*
X145000Y79500D02*X157000Y91500D01*
Y122000D01*
X164000Y129000D01*
X159000Y83500D02*Y114000D01*
X174000Y129000D01*
Y144000D02*Y154000D01*
X171000Y112000D02*X164000Y105000D01*
X174000Y95000D02*Y105000D01*
G54D24*X206500Y207000D02*Y26500D01*
G54D23*X194000Y124000D02*X174000Y144000D01*
Y46000D02*Y56000D01*
Y193000D02*Y203000D01*
X194000Y173000D02*X174000Y193000D01*
X171000Y161000D02*X164000Y154000D01*
X181500Y161000D02*X171000D01*
X194000Y148500D02*X181500Y161000D01*
Y112000D02*X171000D01*
X194000Y99500D02*X181500Y112000D01*
X194000Y75000D02*X174000Y95000D01*
X181500Y63000D02*X171000D01*
X194000Y50500D02*X181500Y63000D01*
X194000Y26000D02*X174000Y46000D01*
X167000Y38000D02*X174000Y31000D01*
X92000Y147000D02*Y128500D01*
X102000Y147000D02*X112000D01*
G54D25*X145000Y109500D02*Y110500D01*
X135000Y120500D01*
G54D23*X101000Y109500D02*X107500Y103000D01*
X111500D01*
X115000Y99500D01*
G54D25*Y109500D02*Y110500D01*
X120000Y115500D01*
X125000Y120500D01*
G54D22*X68000Y197500D02*Y188000D01*
X72000Y172000D02*X88000Y188000D01*
X89000D01*
X98000Y197000D01*
X38000D02*Y178000D01*
X32000Y172000D01*
X68000Y188000D02*X52000Y172000D01*
G54D23*X125000Y160000D02*X34000D01*
X22000Y172000D01*
X42000D02*Y160000D01*
X131500Y49500D02*X115000D01*
X145000D02*X146000D01*
X115000D02*X101000Y63500D01*
X78500D01*
X77000Y65000D01*
Y74500D01*
X72000Y79500D01*
X52500Y84500D02*Y71000D01*
X27500Y61000D02*Y71000D01*
X22500Y84500D02*X52500D01*
X115000Y59500D02*X123000Y51500D01*
X132500D01*
G54D22*X22000Y147000D02*Y128500D01*
G54D23*X32000Y147000D02*Y128500D01*
X22000Y118500D01*
G54D24*X10000Y26500D02*Y207000D01*
G54D22*X42000Y128500D02*Y147000D01*
X62000D02*Y128500D01*
X82000Y147000D02*Y128500D01*
G54D23*X52000Y147000D02*Y128500D01*
X72000Y147000D02*Y128500D01*
X62000Y118500D01*
X52000Y128500D02*X42000Y118500D01*
X145000Y69500D02*X159000Y83500D01*
X164000Y73500D02*Y80000D01*
X170000Y73500D02*Y76000D01*
X174000Y80000D01*
X145000Y59500D02*X150000D01*
X164000Y73500D01*
X146000Y49500D02*X170000Y73500D01*
X171000Y63000D02*X164000Y56000D01*
X92000Y128500D02*X82000Y118500D01*
Y89500D02*X92000Y79500D01*
X101000Y89500D02*X115000D01*
X92000Y79500D02*X115000D01*
X82000D02*X87000Y74500D01*
X130000D01*
X82000Y69500D02*X105500D01*
X110500Y64500D01*
X130000D01*
G54D24*X198500Y18500D02*X18000D01*
G54D23*X130000Y74500D02*X145000Y59500D01*
X130000Y64500D02*X145000Y49500D01*
X132500Y51500D02*X146000Y38000D01*
X131500Y49500D02*X145000Y36000D01*
X146000Y38000D02*X167000D01*
X145000Y36000D02*X159000D01*
X164000Y31000D01*
G54D24*X18000Y215000D02*G75*G03X10000Y207000I0J-8000D01*G01*
Y26500D02*G75*G03X18000Y18500I8000J0D01*G01*
X198500D02*G75*G03X206500Y26500I0J8000D01*G01*
Y207000D02*G75*G03X198500Y215000I-8000J0D01*G01*
X140500Y209000D02*X141000Y209500D01*
X139000Y209000D02*X140500D01*
X138500Y209500D02*X139000Y209000D01*
X138500Y209500D02*Y210500D01*
X139000Y211000D01*
X140500D01*
X141000Y211500D01*
Y212500D01*
X140500Y213000D02*X141000Y212500D01*
X139000Y213000D02*X140500D01*
X138500Y212500D02*X139000Y213000D01*
X142200Y209500D02*Y212500D01*
Y209500D02*X142700Y209000D01*
X143700D01*
X144200Y209500D01*
Y212500D01*
X143700Y213000D02*X144200Y212500D01*
X142700Y213000D02*X143700D01*
X142200Y212500D02*X142700Y213000D01*
X145400Y209000D02*Y213000D01*
X147400D01*
X149100Y209000D02*Y213000D01*
X150400Y209000D02*X151100Y209700D01*
Y212300D01*
X150400Y213000D02*X151100Y212300D01*
X148600Y213000D02*X150400D01*
X148600Y209000D02*X150400D01*
X111500Y22500D02*X112500Y24500D01*
X113500Y22500D02*X112500Y24500D01*
X114700Y21000D02*X115200Y20500D01*
X116700D01*
X117200Y21000D01*
Y22000D01*
X114700Y24500D02*X117200Y22000D01*
X114700Y24500D02*X117200D01*
X118400Y24000D02*X118900Y24500D01*
X118400Y21000D02*Y24000D01*
Y21000D02*X118900Y20500D01*
X119900D01*
X120400Y21000D01*
Y24000D01*
X119900Y24500D02*X120400Y24000D01*
X118900Y24500D02*X119900D01*
X118400Y23500D02*X120400Y21500D01*
X121600Y21300D02*X122400Y20500D01*
Y24500D01*
X121600D02*X123100D01*
X124300Y21000D02*X124800Y20500D01*
X126300D01*
X126800Y21000D01*
Y22000D01*
X124300Y24500D02*X126800Y22000D01*
X124300Y24500D02*X126800D01*
X128000Y21300D02*X128800Y20500D01*
Y24500D01*
X128000D02*X129500D01*
X130700Y21000D02*X131200Y20500D01*
X132700D01*
X133200Y21000D01*
Y22000D01*
X130700Y24500D02*X133200Y22000D01*
X130700Y24500D02*X133200D01*
X134400Y21000D02*X134900Y20500D01*
X136400D01*
X136900Y21000D01*
Y22000D01*
X134400Y24500D02*X136900Y22000D01*
X134400Y24500D02*X136900D01*
X138100Y24000D02*X138600Y24500D01*
X138100Y21000D02*Y24000D01*
Y21000D02*X138600Y20500D01*
X139600D01*
X140100Y21000D01*
Y24000D01*
X139600Y24500D02*X140100Y24000D01*
X138600Y24500D02*X139600D01*
X138100Y23500D02*X140100Y21500D01*
G54D26*X37500Y61000D03*
G54D21*G36*
X51325Y49596D02*Y43246D01*
X57675D01*
Y49596D01*
X51325D01*
G37*
G54D27*X54500Y36579D03*
G54D21*G36*
X33932Y50068D02*Y42932D01*
X41068D01*
Y50068D01*
X33932D01*
G37*
G54D28*X37500Y36500D03*
G54D21*G36*
X190825Y88175D02*Y81825D01*
X197175D01*
Y88175D01*
X190825D01*
G37*
G54D27*X194000Y75000D03*
G54D21*G36*
X190825Y112675D02*Y106325D01*
X197175D01*
Y112675D01*
X190825D01*
G37*
G54D27*X194000Y99500D03*
G54D21*G36*
X190825Y137175D02*Y130825D01*
X197175D01*
Y137175D01*
X190825D01*
G37*
G54D27*X194000Y124000D03*
G54D21*G36*
X190825Y161675D02*Y155325D01*
X197175D01*
Y161675D01*
X190825D01*
G37*
G54D27*X194000Y148500D03*
G54D21*G36*
X190825Y39175D02*Y32825D01*
X197175D01*
Y39175D01*
X190825D01*
G37*
G54D27*X194000Y26000D03*
G54D21*G36*
X190825Y63675D02*Y57325D01*
X197175D01*
Y63675D01*
X190825D01*
G37*
G54D27*X194000Y50500D03*
G54D21*G36*
X190825Y186175D02*Y179825D01*
X197175D01*
Y186175D01*
X190825D01*
G37*
G54D27*X194000Y173000D03*
G54D21*G36*
X190825Y210675D02*Y204325D01*
X197175D01*
Y210675D01*
X190825D01*
G37*
G54D27*X194000Y197500D03*
X164000Y178000D03*
X174000D03*
X164000Y154000D03*
X174000D03*
X164000Y203000D03*
X174000D03*
X82000Y108500D03*
Y118500D03*
Y128500D03*
X62000Y108500D03*
Y118500D03*
Y128500D03*
X102000Y147000D03*
X92000D03*
X72000D03*
X82000D03*
X62000D03*
X112000D03*
G54D26*X125000Y120500D03*
X135000D03*
G54D21*G36*
X133746Y146675D02*Y140325D01*
X140096D01*
Y146675D01*
X133746D01*
G37*
G54D27*X127079Y143500D03*
G54D28*X90500Y55500D03*
G54D27*X101000Y89500D03*
Y99500D03*
Y109500D03*
G54D28*X72800Y55500D03*
X90500Y29900D03*
X72800D03*
G54D21*G36*
X111825Y112675D02*Y106325D01*
X118175D01*
Y112675D01*
X111825D01*
G37*
G54D27*X115000Y99500D03*
Y89500D03*
Y79500D03*
Y69500D03*
G54D21*G36*
X131432Y38068D02*Y30932D01*
X138568D01*
Y38068D01*
X131432D01*
G37*
G54D27*X145000Y49500D03*
Y59500D03*
G54D28*X125000Y34500D03*
X115000D03*
G54D27*Y59500D03*
Y49500D03*
X145000Y69500D03*
Y79500D03*
Y89500D03*
Y99500D03*
Y109500D03*
X164000Y105000D03*
X174000D03*
X164000Y129000D03*
X174000D03*
X164000Y31000D03*
Y56000D03*
X174000Y31000D03*
Y56000D03*
X164000Y80000D03*
X174000D03*
X27500Y71000D03*
G54D21*G36*
X18932Y88068D02*Y80932D01*
X26068D01*
Y88068D01*
X18932D01*
G37*
G54D28*X22500Y94500D03*
G54D27*X52500Y71000D03*
G54D28*Y84500D03*
Y94500D03*
G54D27*X52000Y147000D03*
G54D26*X27500Y61000D03*
G54D21*G36*
X78432Y73068D02*Y65932D01*
X85568D01*
Y73068D01*
X78432D01*
G37*
G54D28*X72000Y69500D03*
X82000Y79500D03*
X72000D03*
X82000Y89500D03*
X72000D03*
G54D27*X42000Y108500D03*
X22000D03*
Y118500D03*
Y128500D03*
X42000Y118500D03*
Y128500D03*
X32000Y147000D03*
X42000D03*
X22000D03*
G54D21*G36*
X54825Y200675D02*Y194325D01*
X61175D01*
Y200675D01*
X54825D01*
G37*
G54D27*X68000Y197500D03*
G54D21*G36*
X24825Y200175D02*Y193825D01*
X31175D01*
Y200175D01*
X24825D01*
G37*
G54D27*X38000Y197000D03*
G54D21*G36*
X114825Y200175D02*Y193825D01*
X121175D01*
Y200175D01*
X114825D01*
G37*
G54D27*X128000Y197000D03*
G54D21*G36*
X84825Y200175D02*Y193825D01*
X91175D01*
Y200175D01*
X84825D01*
G37*
G54D27*X98000Y197000D03*
X142000Y167000D03*
X132000D03*
X122000D03*
X112000Y172000D03*
X102000D03*
X92000D03*
X72000D03*
X82000D03*
X62000D03*
X52000D03*
X42000D03*
X32000D03*
X22000D03*
G54D29*G54D30*G54D29*G54D30*G54D29*G54D30*G54D29*G54D30*G54D29*G54D30*G54D29*G54D30*G54D29*G54D30*G54D29*G54D31*G54D30*G54D29*M02*
