G04 start of page 9 for group -4079 idx -4079 *
G04 Title: Zab-Let V2, topsilk *
G04 Creator: pcb 20110918 *
G04 CreationDate: Sun 06 Jan 2013 03:26:29 PM GMT UTC *
G04 For: bertho *
G04 Format: Gerber/RS-274X *
G04 PCB-Dimensions: 325000 235000 *
G04 PCB-Coordinate-Origin: lower left *
%MOIN*%
%FSLAX25Y25*%
%LNTOPSILK*%
%ADD587C,0.0072*%
%ADD586C,0.0076*%
%ADD585C,0.0070*%
%ADD584C,0.0098*%
%ADD583C,0.0100*%
%ADD582C,0.0080*%
G54D582*X28000Y225000D02*X208500D01*
Y28500D02*X28000D01*
X133000Y34500D02*X108500D01*
X125000Y38500D02*Y34500D01*
X134000Y38500D02*X133000Y34500D01*
X136000Y38500D02*X137000Y34500D01*
X165500D01*
X145000Y38500D02*Y34500D01*
X216500Y217000D02*Y36500D01*
G54D583*X97500Y86000D02*Y76000D01*
X97000Y86500D02*X98000Y85500D01*
Y76000D01*
X97500D02*X87500D01*
X98000D02*X97500Y75500D01*
X88000D01*
X87000Y76500D02*X88000Y75500D01*
G54D582*X20000Y36500D02*Y217000D01*
G75*G02X28000Y225000I8000J0D01*G01*
Y28500D02*G75*G02X20000Y36500I0J8000D01*G01*
X216500D02*G75*G02X208500Y28500I-8000J0D01*G01*
Y225000D02*G75*G02X216500Y217000I0J-8000D01*G01*
G54D584*X157450Y142125D02*Y136000D01*
X167250D02*X157450Y142125D01*
X167250D02*Y136000D01*
X162350Y148740D02*X163575Y149965D01*
X162350Y148740D02*Y146290D01*
X163575Y145065D02*X162350Y146290D01*
X163575Y145065D02*X166025D01*
X167250Y146290D01*
X162350Y149965D02*X166025D01*
X167250Y151190D01*
Y148740D02*Y146290D01*
Y148740D02*X166025Y149965D01*
X157450Y154130D02*X167250D01*
X166025D02*X167250Y155355D01*
Y157805D02*Y155355D01*
Y157805D02*X166025Y159030D01*
X163575D02*X166025D01*
X162350Y157805D02*X163575Y159030D01*
X162350Y157805D02*Y155355D01*
X163575Y154130D02*X162350Y155355D01*
Y166870D02*Y161970D01*
X157450Y169810D02*X167250D01*
Y174710D02*Y169810D01*
Y182550D02*Y178875D01*
X166025Y177650D02*X167250Y178875D01*
X163575Y177650D02*X166025D01*
X163575D02*X162350Y178875D01*
Y181325D02*Y178875D01*
Y181325D02*X163575Y182550D01*
X164800D02*Y177650D01*
X163575Y182550D02*X164800D01*
X157450Y186715D02*X166025D01*
X167250Y187940D01*
X161125D02*Y185490D01*
X162350Y194800D02*X167250Y197250D01*
X162350Y199700D02*X167250Y197250D01*
X158675Y202640D02*X157450Y203865D01*
Y207540D02*Y203865D01*
Y207540D02*X158675Y208765D01*
X161125D01*
X167250Y202640D02*X161125Y208765D01*
X167250D02*Y202640D01*
G54D585*X148000Y213500D02*X149500D01*
X150000Y214000D01*
X149500Y214500D02*X150000Y214000D01*
X148000Y214500D02*X149500D01*
X147500Y215000D02*X148000Y214500D01*
X147500Y215000D02*X148000Y215500D01*
X149500D01*
X150000Y215000D01*
X147500Y214000D02*X148000Y213500D01*
X151200Y216500D02*Y216400D01*
Y215000D02*Y213500D01*
X152200Y217500D02*Y214000D01*
X152700Y213500D01*
X153700Y217500D02*Y213500D01*
Y215000D02*X155200Y213500D01*
X153700Y215000D02*X154700Y216000D01*
X156900Y217500D02*Y214000D01*
X157400Y213500D01*
X156400Y216000D02*X157400D01*
X158400Y215000D02*Y214000D01*
Y215000D02*X158900Y215500D01*
X159900D01*
X160400Y215000D01*
Y214000D01*
X159900Y213500D02*X160400Y214000D01*
X158900Y213500D02*X159900D01*
X158400Y214000D02*X158900Y213500D01*
X162100Y215000D02*Y212000D01*
X161600Y215500D02*X162100Y215000D01*
X162600Y215500D01*
X163600D01*
X164100Y215000D01*
Y214000D01*
X163600Y213500D02*X164100Y214000D01*
X162600Y213500D02*X163600D01*
X162100Y214000D02*X162600Y213500D01*
X171500Y219500D02*X174500D01*
X173000Y221000D02*Y218000D01*
X171500Y195000D02*X174500D01*
X173000Y196500D02*Y193500D01*
X171500Y170500D02*X174500D01*
X173000Y172000D02*Y169000D01*
X171500Y146000D02*X174500D01*
X173000Y147500D02*Y144500D01*
G54D582*X28000Y197000D02*X32000D01*
X30000Y199000D02*Y195000D01*
X58500Y197000D02*X62500D01*
X60500Y199000D02*Y195000D01*
X88500Y196500D02*X92500D01*
X90500Y198500D02*Y194500D01*
X118500Y196500D02*X122500D01*
X120500Y198500D02*Y194500D01*
G54D585*X153000Y40000D02*X155000D01*
X154000D02*Y36000D01*
X156200Y40000D02*X157200Y36000D01*
X158200Y40000D01*
X159400Y36000D02*X161400D01*
X161900Y36500D01*
Y37700D02*Y36500D01*
X161400Y38200D02*X161900Y37700D01*
X159900Y38200D02*X161400D01*
X159900Y40000D02*Y36000D01*
X159400Y40000D02*X161400D01*
X161900Y39500D01*
Y38700D01*
X161400Y38200D02*X161900Y38700D01*
X165100Y40000D02*X165600Y39500D01*
X163600Y40000D02*X165100D01*
X163100Y39500D02*X163600Y40000D01*
X163100Y39500D02*Y36500D01*
X163600Y36000D01*
X165100D01*
X165600Y36500D01*
Y37500D02*Y36500D01*
X165100Y38000D02*X165600Y37500D01*
X164100Y38000D02*X165100D01*
X109000Y40000D02*Y36000D01*
X108500Y40000D02*X110500D01*
X111000Y39500D01*
Y38500D01*
X110500Y38000D02*X111000Y38500D01*
X109000Y38000D02*X110500D01*
X112200Y39500D02*Y36500D01*
Y39500D02*X112700Y40000D01*
X113700D01*
X114200Y39500D01*
Y36500D01*
X113700Y36000D02*X114200Y36500D01*
X112700Y36000D02*X113700D01*
X112200Y36500D02*X112700Y36000D01*
X115400Y40000D02*X116400Y36000D01*
X117400Y40000D01*
G54D586*X108850Y48000D02*X114550D01*
X108850D02*X107900Y48950D01*
Y50850D02*Y48950D01*
Y50850D02*X108850Y51800D01*
X114550D01*
X115500Y50850D02*X114550Y51800D01*
X115500Y50850D02*Y48950D01*
X114550Y48000D02*X115500Y48950D01*
X107900Y57880D02*X108850Y58830D01*
X107900Y57880D02*Y55030D01*
X108850Y54080D02*X107900Y55030D01*
X108850Y54080D02*X110750D01*
X111700Y55030D01*
Y57880D02*Y55030D01*
Y57880D02*X112650Y58830D01*
X114550D01*
X115500Y57880D02*X114550Y58830D01*
X115500Y57880D02*Y55030D01*
X114550Y54080D02*X115500Y55030D01*
X109800Y61110D02*X115500D01*
X109800D02*X107900Y62440D01*
Y64530D02*Y62440D01*
Y64530D02*X109800Y65860D01*
X115500D01*
X111700D02*Y61110D01*
X109800Y68140D02*X115500D01*
X109800D02*X107900Y69470D01*
Y71560D02*Y69470D01*
Y71560D02*X109800Y72890D01*
X115500D01*
X111700D02*Y68140D01*
X115500Y76120D02*Y75170D01*
X107900Y79350D02*X115500D01*
X107900Y81820D02*X109230Y83150D01*
X114170D01*
X115500Y81820D02*X114170Y83150D01*
X115500Y81820D02*Y78400D01*
X107900Y81820D02*Y78400D01*
Y85430D02*X115500D01*
X111700D02*X107900Y89230D01*
X111700Y85430D02*X115500Y89230D01*
G54D582*X55000Y40000D02*Y36000D01*
X55500Y64500D02*Y60500D01*
X53500Y62500D02*X57500D01*
G54D587*X165400Y59100D02*Y55500D01*
X169000D02*X165400Y59100D01*
X169000D02*Y55500D01*
X165400Y63960D02*X166300Y64860D01*
X165400Y63960D02*Y62160D01*
X166300Y61260D02*X165400Y62160D01*
X166300Y61260D02*X168100D01*
X169000Y62160D01*
X165400Y64860D02*X168100D01*
X169000Y65760D01*
Y63960D02*Y62160D01*
Y63960D02*X168100Y64860D01*
X161800Y67920D02*X169000D01*
X168100D02*X169000Y68820D01*
Y70620D02*Y68820D01*
Y70620D02*X168100Y71520D01*
X166300D02*X168100D01*
X165400Y70620D02*X166300Y71520D01*
X165400Y70620D02*Y68820D01*
X166300Y67920D02*X165400Y68820D01*
X161800Y73680D02*X168100D01*
X169000Y74580D01*
Y79980D02*Y77280D01*
X168100Y76380D02*X169000Y77280D01*
X166300Y76380D02*X168100D01*
X166300D02*X165400Y77280D01*
Y79080D02*Y77280D01*
Y79080D02*X166300Y79980D01*
X167200D02*Y76380D01*
X166300Y79980D02*X167200D01*
X161800Y83040D02*X168100D01*
X169000Y83940D01*
X164500D02*Y82140D01*
X169000Y86640D02*Y85740D01*
X166300Y88800D02*X168100D01*
X166300D02*X165400Y89700D01*
Y91500D02*Y89700D01*
Y91500D02*X166300Y92400D01*
X168100D01*
X169000Y91500D02*X168100Y92400D01*
X169000Y91500D02*Y89700D01*
X168100Y88800D02*X169000Y89700D01*
Y98160D02*Y95460D01*
Y98160D02*X168100Y99060D01*
X167200Y98160D02*X168100Y99060D01*
X167200Y98160D02*Y95460D01*
X166300Y94560D02*X167200Y95460D01*
X166300Y94560D02*X165400Y95460D01*
Y98160D02*Y95460D01*
Y98160D02*X166300Y99060D01*
X168100Y94560D02*X169000Y95460D01*
X165400Y103920D02*X166300Y104820D01*
X165400Y103920D02*Y102120D01*
X166300Y101220D02*X165400Y102120D01*
X166300Y101220D02*X168100D01*
X169000Y102120D01*
X165400Y104820D02*X168100D01*
X169000Y105720D01*
Y103920D02*Y102120D01*
Y103920D02*X168100Y104820D01*
X165400Y110580D02*X166300Y111480D01*
X165400Y110580D02*Y108780D01*
X166300Y107880D02*X165400Y108780D01*
X166300Y107880D02*X168100D01*
X169000Y108780D01*
X165400Y111480D02*X168100D01*
X169000Y112380D01*
Y110580D02*Y108780D01*
Y110580D02*X168100Y111480D01*
X169000Y115440D02*Y114540D01*
X161800Y121200D02*X169000D01*
Y120300D02*X168100Y121200D01*
X169000Y120300D02*Y118500D01*
X168100Y117600D02*X169000Y118500D01*
X166300Y117600D02*X168100D01*
X166300D02*X165400Y118500D01*
Y120300D02*Y118500D01*
Y120300D02*X166300Y121200D01*
X161800Y123360D02*X169000D01*
X166300D02*X169000Y126060D01*
X166300Y123360D02*X164500Y125160D01*
G54D585*X171500Y121500D02*X174500D01*
X173000Y123000D02*Y120000D01*
X171500Y97000D02*X174500D01*
X173000Y98500D02*Y95500D01*
X171500Y72500D02*X174500D01*
X173000Y74000D02*Y71000D01*
X171500Y48000D02*X174500D01*
X173000Y49500D02*Y46500D01*
G54D582*X123334Y213768D02*G75*G03X142666Y213768I9666J-6768D01*G01*
X123242Y216758D02*G75*G03X142758Y216758I9758J-9758D01*G01*
X137000Y168300D02*X147000D01*
X150660Y182000D02*G75*G03X133340Y182000I-8660J-5000D01*G01*
X133340Y172000D02*G75*G03X137000Y168340I8660J5000D01*G01*
X147000Y168340D02*G75*G03X150660Y172000I-5000J8660D01*G01*
X107000Y152000D02*X117000D01*
X107000Y187000D02*X117000D01*
Y152000D01*
X107000Y187000D02*Y152000D01*
X117000D02*X127000D01*
X117000Y187000D02*X127000D01*
Y152000D01*
X117000Y187000D02*Y152000D01*
X93334Y213768D02*G75*G03X112666Y213768I9666J-6768D01*G01*
X93242Y216758D02*G75*G03X112758Y216758I9758J-9758D01*G01*
X63334Y214268D02*G75*G03X82666Y214268I9666J-6768D01*G01*
X63242Y217258D02*G75*G03X82758Y217258I9758J-9758D01*G01*
X97000Y187000D02*X107000D01*
X97000Y152000D02*X107000D01*
X97000Y187000D02*Y152000D01*
X107000Y187000D02*Y152000D01*
X77000Y187000D02*X87000D01*
X77000Y152000D02*X87000D01*
X77000Y187000D02*Y152000D01*
X87000Y187000D02*Y152000D01*
Y187000D02*X97000D01*
X87000Y152000D02*X97000D01*
X87000Y187000D02*Y152000D01*
X97000Y187000D02*Y152000D01*
X67000Y187000D02*X77000D01*
X67000Y152000D02*X77000D01*
X67000Y187000D02*Y152000D01*
X77000Y187000D02*Y152000D01*
X177208Y158980D02*G75*G03X184792Y158980I3792J4520D01*G01*
X184792Y168020D02*G75*G03X177208Y168020I-3792J-4520D01*G01*
X175414Y157914D02*G75*G03X186586Y157914I5586J5586D01*G01*
X186586Y169086D02*G75*G03X175414Y169086I-5586J-5586D01*G01*
X192500Y169000D02*X202500D01*
X192500Y134000D02*X202500D01*
X192500Y169000D02*Y134000D01*
X202500Y169000D02*Y134000D01*
Y169000D02*X212500D01*
X202500Y134000D02*X212500D01*
X202500Y169000D02*Y134000D01*
X212500Y169000D02*Y134000D01*
X177208Y183480D02*G75*G03X184792Y183480I3792J4520D01*G01*
X184792Y192520D02*G75*G03X177208Y192520I-3792J-4520D01*G01*
X175414Y182414D02*G75*G03X186586Y182414I5586J5586D01*G01*
X186586Y193586D02*G75*G03X175414Y193586I-5586J-5586D01*G01*
X177208Y207980D02*G75*G03X184792Y207980I3792J4520D01*G01*
X184792Y217020D02*G75*G03X177208Y217020I-3792J-4520D01*G01*
X175414Y206914D02*G75*G03X186586Y206914I5586J5586D01*G01*
X186586Y218086D02*G75*G03X175414Y218086I-5586J-5586D01*G01*
X192500Y218000D02*X202500D01*
X192500Y183000D02*X202500D01*
X192500Y218000D02*Y183000D01*
X202500Y218000D02*Y183000D01*
Y218000D02*X212500D01*
X202500Y183000D02*X212500D01*
X202500Y218000D02*Y183000D01*
X212500Y218000D02*Y183000D01*
X57000Y187000D02*X67000D01*
X57000Y152000D02*X67000D01*
X57000Y187000D02*Y152000D01*
X67000Y187000D02*Y152000D01*
X37000Y187000D02*X47000D01*
X37000Y152000D02*X47000D01*
X37000Y187000D02*Y152000D01*
X47000Y187000D02*Y152000D01*
Y187000D02*X57000D01*
X47000Y152000D02*X57000D01*
X47000Y187000D02*Y152000D01*
X57000Y187000D02*Y152000D01*
X27000Y187000D02*X37000D01*
X27000Y152000D02*X37000D01*
X27000Y187000D02*Y152000D01*
X37000Y187000D02*Y152000D01*
X83300Y133500D02*Y123500D01*
X97000Y119840D02*G75*G03X97000Y137160I-5000J8660D01*G01*
X87000Y137160D02*G75*G03X83340Y133500I5000J-8660D01*G01*
X83340Y123500D02*G75*G03X87000Y119840I8660J5000D01*G01*
X63300Y133500D02*Y123500D01*
X77000Y119840D02*G75*G03X77000Y137160I-5000J8660D01*G01*
X67000Y137160D02*G75*G03X63340Y133500I5000J-8660D01*G01*
X63340Y123500D02*G75*G03X67000Y119840I8660J5000D01*G01*
X150000Y135500D02*Y125500D01*
X130000Y135500D02*Y125500D01*
Y135500D02*X150000D01*
X130000Y125500D02*X150000D01*
G54D585*X144921Y147000D02*X148921D01*
X146921Y149000D02*Y145000D01*
G54D582*X152650Y153500D02*G75*G03X152650Y153500I-10650J0D01*G01*
X67500Y86000D02*Y76000D01*
X32500Y86000D02*Y76000D01*
Y86000D02*X67500D01*
X32500Y76000D02*X67500D01*
X52500D02*Y66000D01*
X32500Y76000D02*Y66000D01*
Y76000D02*X52500D01*
X32500Y66000D02*X52500D01*
X27500Y89500D02*X67500D01*
Y109500D02*Y89500D01*
X27500Y109500D02*X67500D01*
X27500D02*Y89500D01*
X37500Y99500D02*Y89500D01*
X27500Y99500D02*X37500D01*
X43300Y133500D02*Y123500D01*
X57000Y119840D02*G75*G03X57000Y137160I-5000J8660D01*G01*
X47000Y137160D02*G75*G03X43340Y133500I5000J-8660D01*G01*
X43340Y123500D02*G75*G03X47000Y119840I8660J5000D01*G01*
X23300Y133500D02*Y123500D01*
X37000Y119840D02*G75*G03X37000Y137160I-5000J8660D01*G01*
X27000Y137160D02*G75*G03X23340Y133500I5000J-8660D01*G01*
X23340Y123500D02*G75*G03X27000Y119840I8660J5000D01*G01*
X33334Y213768D02*G75*G03X52666Y213768I9666J-6768D01*G01*
X33242Y216758D02*G75*G03X52758Y216758I9758J-9758D01*G01*
X97000Y106500D02*Y76500D01*
X77000Y106500D02*X97000D01*
X77000D02*Y76500D01*
X97000D01*
X87000Y86500D02*X97000D01*
X87000D02*Y76500D01*
X116000Y121500D02*Y97500D01*
X106000Y121500D02*Y97500D01*
G75*G03X116000Y97500I5000J0D01*G01*
Y121500D02*G75*G03X106000Y121500I-5000J0D01*G01*
X120000Y124500D02*Y54500D01*
X160000D01*
Y124500D02*Y54500D01*
X120000Y124500D02*X135000D01*
X145000D02*X160000D01*
X135000D02*G75*G03X145000Y124500I5000J0D01*G01*
X42500Y61500D02*Y41500D01*
X52500D01*
Y61500D01*
X42500D01*
Y51500D02*X52500D01*
Y61500D01*
G54D585*X71000Y58421D02*Y54421D01*
X69000Y56421D02*X73000D01*
G54D582*X64500Y62150D02*G75*G03X64500Y62150I0J-10650D01*G01*
X103500Y61000D02*Y44400D01*
X79900Y61000D02*Y44400D01*
X88000Y64500D02*X95300D01*
X88000Y40900D02*X95300D01*
X91700Y59600D02*G75*G03X91700Y59600I0J-6900D01*G01*
X120000Y49500D02*X150000D01*
X120000D02*Y39500D01*
X150000D01*
Y49500D02*Y39500D01*
X140000Y49500D02*Y39500D01*
X150000D01*
X177208Y36480D02*G75*G03X184792Y36480I3792J4520D01*G01*
X184792Y45520D02*G75*G03X177208Y45520I-3792J-4520D01*G01*
X175414Y35414D02*G75*G03X186586Y35414I5586J5586D01*G01*
X186586Y46586D02*G75*G03X175414Y46586I-5586J-5586D01*G01*
X177208Y60980D02*G75*G03X184792Y60980I3792J4520D01*G01*
X184792Y70020D02*G75*G03X177208Y70020I-3792J-4520D01*G01*
X175414Y59914D02*G75*G03X186586Y59914I5586J5586D01*G01*
X186586Y71086D02*G75*G03X175414Y71086I-5586J-5586D01*G01*
X192500Y71000D02*X202500D01*
X192500Y36000D02*X202500D01*
X192500Y71000D02*Y36000D01*
X202500Y71000D02*Y36000D01*
Y71000D02*X212500D01*
X202500Y36000D02*X212500D01*
X202500Y71000D02*Y36000D01*
X212500Y71000D02*Y36000D01*
X177208Y85480D02*G75*G03X184792Y85480I3792J4520D01*G01*
X184792Y94520D02*G75*G03X177208Y94520I-3792J-4520D01*G01*
X175414Y84414D02*G75*G03X186586Y84414I5586J5586D01*G01*
X186586Y95586D02*G75*G03X175414Y95586I-5586J-5586D01*G01*
X177208Y109980D02*G75*G03X184792Y109980I3792J4520D01*G01*
X184792Y119020D02*G75*G03X177208Y119020I-3792J-4520D01*G01*
X175414Y108914D02*G75*G03X186586Y108914I5586J5586D01*G01*
X186586Y120086D02*G75*G03X175414Y120086I-5586J-5586D01*G01*
X177208Y134480D02*G75*G03X184792Y134480I3792J4520D01*G01*
X184792Y143520D02*G75*G03X177208Y143520I-3792J-4520D01*G01*
X175414Y133414D02*G75*G03X186586Y133414I5586J5586D01*G01*
X186586Y144586D02*G75*G03X175414Y144586I-5586J-5586D01*G01*
X192500Y120000D02*X202500D01*
X192500Y85000D02*X202500D01*
X192500Y120000D02*Y85000D01*
X202500Y120000D02*Y85000D01*
Y120000D02*X212500D01*
X202500Y85000D02*X212500D01*
X202500Y120000D02*Y85000D01*
X212500Y120000D02*Y85000D01*
G54D585*X99500Y79000D02*Y78200D01*
Y79000D02*X103000D01*
X103500Y78500D02*X103000Y79000D01*
X103500Y78500D02*Y78000D01*
X103000Y77500D02*X103500Y78000D01*
X102500Y77500D02*X103000D01*
X100000Y80200D02*X99500Y80700D01*
Y82200D02*Y80700D01*
Y82200D02*X100000Y82700D01*
X101000D01*
X103500Y80200D02*X101000Y82700D01*
X103500D02*Y80200D01*
X185500Y82000D02*Y78000D01*
X186800Y82000D02*X187500Y81300D01*
Y78700D01*
X186800Y78000D02*X187500Y78700D01*
X185000Y78000D02*X186800D01*
X185000Y82000D02*X186800D01*
X190200D02*X190700Y81500D01*
X189200Y82000D02*X190200D01*
X188700Y81500D02*X189200Y82000D01*
X188700Y81500D02*Y78500D01*
X189200Y78000D01*
X190200Y80200D02*X190700Y79700D01*
X188700Y80200D02*X190200D01*
X189200Y78000D02*X190200D01*
X190700Y78500D01*
Y79700D02*Y78500D01*
X185500Y106500D02*Y102500D01*
X186800Y106500D02*X187500Y105800D01*
Y103200D01*
X186800Y102500D02*X187500Y103200D01*
X185000Y102500D02*X186800D01*
X185000Y106500D02*X186800D01*
X188700D02*X190700D01*
X188700D02*Y104500D01*
X189200Y105000D01*
X190200D01*
X190700Y104500D01*
Y103000D01*
X190200Y102500D02*X190700Y103000D01*
X189200Y102500D02*X190200D01*
X188700Y103000D02*X189200Y102500D01*
X195500Y74000D02*Y72000D01*
Y74000D02*X196000Y74500D01*
X197000D01*
X197500Y74000D02*X197000Y74500D01*
X197500Y74000D02*Y72500D01*
X195500D02*X199500D01*
X197500Y73300D02*X199500Y74500D01*
Y76200D02*X195500Y78200D01*
Y75700D01*
X205500Y74000D02*Y72000D01*
Y74000D02*X206000Y74500D01*
X207000D01*
X207500Y74000D02*X207000Y74500D01*
X207500Y74000D02*Y72500D01*
X205500D02*X209500D01*
X207500Y73300D02*X209500Y74500D01*
X209000Y75700D02*X209500Y76200D01*
X208200Y75700D02*X209000D01*
X208200D02*X207500Y76400D01*
Y77000D02*Y76400D01*
Y77000D02*X208200Y77700D01*
X209000D01*
X209500Y77200D02*X209000Y77700D01*
X209500Y77200D02*Y76200D01*
X206800Y75700D02*X207500Y76400D01*
X206000Y75700D02*X206800D01*
X206000D02*X205500Y76200D01*
Y77200D02*Y76200D01*
Y77200D02*X206000Y77700D01*
X206800D01*
X207500Y77000D02*X206800Y77700D01*
X45000Y37000D02*Y36200D01*
Y37000D02*X48500D01*
X49000Y36500D02*X48500Y37000D01*
X49000Y36500D02*Y36000D01*
X48500Y35500D02*X49000Y36000D01*
X48000Y35500D02*X48500D01*
X45800Y38200D02*X45000Y39000D01*
X49000D01*
Y39700D02*Y38200D01*
X89500Y35500D02*X90000Y36000D01*
X89500Y35500D02*Y34000D01*
X90000Y33500D02*X89500Y34000D01*
X90000Y33500D02*X91000D01*
X91500Y34000D01*
Y35500D02*Y34000D01*
Y35500D02*X92000Y36000D01*
X93000D01*
X93500Y35500D02*X93000Y36000D01*
X93500Y35500D02*Y34000D01*
X93000Y33500D02*X93500Y34000D01*
X90300Y37200D02*X89500Y38000D01*
X93500D01*
Y38700D02*Y37200D01*
X76000Y62579D02*Y61279D01*
X75300Y60579D02*X76000Y61279D01*
X72700Y60579D02*X75300D01*
X72700D02*X72000Y61279D01*
Y62579D02*Y61279D01*
X72500Y63779D02*X72000Y64279D01*
Y65779D02*Y64279D01*
Y65779D02*X72500Y66279D01*
X73500D01*
X76000Y63779D02*X73500Y66279D01*
X76000D02*Y63779D01*
X152200Y51500D02*X153000D01*
Y48000D01*
X152500Y47500D02*X153000Y48000D01*
X152000Y47500D02*X152500D01*
X151500Y48000D02*X152000Y47500D01*
X151500Y48500D02*Y48000D01*
X154700Y51500D02*Y47500D01*
X154200Y51500D02*X156200D01*
X156700Y51000D01*
Y50000D01*
X156200Y49500D02*X156700Y50000D01*
X154700Y49500D02*X156200D01*
X157900Y50700D02*X158700Y51500D01*
Y47500D01*
X157900D02*X159400D01*
X174500Y54500D02*Y50500D01*
X175800Y54500D02*X176500Y53800D01*
Y51200D01*
X175800Y50500D02*X176500Y51200D01*
X174000Y50500D02*X175800D01*
X174000Y54500D02*X175800D01*
X177700Y51000D02*X178200Y50500D01*
X177700Y51800D02*Y51000D01*
Y51800D02*X178400Y52500D01*
X179000D01*
X179700Y51800D01*
Y51000D01*
X179200Y50500D02*X179700Y51000D01*
X178200Y50500D02*X179200D01*
X177700Y53200D02*X178400Y52500D01*
X177700Y54000D02*Y53200D01*
Y54000D02*X178200Y54500D01*
X179200D01*
X179700Y54000D01*
Y53200D01*
X179000Y52500D02*X179700Y53200D01*
X185500Y57500D02*Y53500D01*
X186800Y57500D02*X187500Y56800D01*
Y54200D01*
X186800Y53500D02*X187500Y54200D01*
X185000Y53500D02*X186800D01*
X185000Y57500D02*X186800D01*
X189200Y53500D02*X191200Y57500D01*
X188700D02*X191200D01*
X23000Y83000D02*X25000D01*
X25500Y82500D01*
Y81500D01*
X25000Y81000D02*X25500Y81500D01*
X23500Y81000D02*X25000D01*
X23500Y83000D02*Y79000D01*
X24300Y81000D02*X25500Y79000D01*
X26700Y82200D02*X27500Y83000D01*
Y79000D01*
X26700D02*X28200D01*
X29900D02*X31400Y81000D01*
Y82500D02*Y81000D01*
X30900Y83000D02*X31400Y82500D01*
X29900Y83000D02*X30900D01*
X29400Y82500D02*X29900Y83000D01*
X29400Y82500D02*Y81500D01*
X29900Y81000D01*
X31400D01*
X26700Y69000D02*X28000D01*
X26000Y69700D02*X26700Y69000D01*
X26000Y72300D02*Y69700D01*
Y72300D02*X26700Y73000D01*
X28000D01*
X29200Y72500D02*X29700Y73000D01*
X30700D01*
X31200Y72500D01*
X30700Y69000D02*X31200Y69500D01*
X29700Y69000D02*X30700D01*
X29200Y69500D02*X29700Y69000D01*
Y71200D02*X30700D01*
X31200Y72500D02*Y71700D01*
Y70700D02*Y69500D01*
Y70700D02*X30700Y71200D01*
X31200Y71700D02*X30700Y71200D01*
X22000Y93500D02*Y92700D01*
Y93500D02*X25500D01*
X26000Y93000D02*X25500Y93500D01*
X26000Y93000D02*Y92500D01*
X25500Y92000D02*X26000Y92500D01*
X25000Y92000D02*X25500D01*
X22500Y94700D02*X22000Y95200D01*
Y96200D02*Y95200D01*
Y96200D02*X22500Y96700D01*
X26000Y96200D02*X25500Y96700D01*
X26000Y96200D02*Y95200D01*
X25500Y94700D02*X26000Y95200D01*
X23800Y96200D02*Y95200D01*
X22500Y96700D02*X23300D01*
X24300D02*X25500D01*
X24300D02*X23800Y96200D01*
X23300Y96700D02*X23800Y96200D01*
X42500Y113000D02*X45500D01*
X42500D02*X42000Y113500D01*
Y114500D02*Y113500D01*
Y114500D02*X42500Y115000D01*
X45000D01*
X46000Y114000D02*X45000Y115000D01*
X46000Y114000D02*Y113500D01*
X45500Y113000D02*X46000Y113500D01*
X44500Y114000D02*X46000Y115000D01*
X42500Y116200D02*X42000Y116700D01*
Y118200D02*Y116700D01*
Y118200D02*X42500Y118700D01*
X43500D01*
X46000Y116200D02*X43500Y118700D01*
X46000D02*Y116200D01*
X22500Y114000D02*X25500D01*
X22500D02*X22000Y114500D01*
Y115500D02*Y114500D01*
Y115500D02*X22500Y116000D01*
X25000D01*
X26000Y115000D02*X25000Y116000D01*
X26000Y115000D02*Y114500D01*
X25500Y114000D02*X26000Y114500D01*
X24500Y115000D02*X26000Y116000D01*
X22800Y117200D02*X22000Y118000D01*
X26000D01*
Y118700D02*Y117200D01*
X40500Y192000D02*Y188000D01*
X41800Y192000D02*X42500Y191300D01*
Y188700D01*
X41800Y188000D02*X42500Y188700D01*
X40000Y188000D02*X41800D01*
X40000Y192000D02*X41800D01*
X44200Y188000D02*X45700Y190000D01*
Y191500D02*Y190000D01*
X45200Y192000D02*X45700Y191500D01*
X44200Y192000D02*X45200D01*
X43700Y191500D02*X44200Y192000D01*
X43700Y191500D02*Y190500D01*
X44200Y190000D01*
X45700D01*
X40000Y144500D02*Y142500D01*
Y144500D02*X40500Y145000D01*
X41500D01*
X42000Y144500D02*X41500Y145000D01*
X42000Y144500D02*Y143000D01*
X40000D02*X44000D01*
X42000Y143800D02*X44000Y145000D01*
X40800Y146200D02*X40000Y147000D01*
X44000D01*
Y147700D02*Y146200D01*
X43500Y148900D02*X44000Y149400D01*
X40500Y148900D02*X43500D01*
X40500D02*X40000Y149400D01*
Y150400D02*Y149400D01*
Y150400D02*X40500Y150900D01*
X43500D01*
X44000Y150400D02*X43500Y150900D01*
X44000Y150400D02*Y149400D01*
X43000Y148900D02*X41000Y150900D01*
X82500Y113000D02*X85500D01*
X82500D02*X82000Y113500D01*
Y114500D02*Y113500D01*
Y114500D02*X82500Y115000D01*
X85000D01*
X86000Y114000D02*X85000Y115000D01*
X86000Y114000D02*Y113500D01*
X85500Y113000D02*X86000Y113500D01*
X84500Y114000D02*X86000Y115000D01*
X84500Y116200D02*X82000Y118200D01*
X84500Y118700D02*Y116200D01*
X82000Y118200D02*X86000D01*
X62500Y113500D02*X65500D01*
X62500D02*X62000Y114000D01*
Y115000D02*Y114000D01*
Y115000D02*X62500Y115500D01*
X65000D01*
X66000Y114500D02*X65000Y115500D01*
X66000Y114500D02*Y114000D01*
X65500Y113500D02*X66000Y114000D01*
X64500Y114500D02*X66000Y115500D01*
X62500Y116700D02*X62000Y117200D01*
Y118200D02*Y117200D01*
Y118200D02*X62500Y118700D01*
X66000Y118200D02*X65500Y118700D01*
X66000Y118200D02*Y117200D01*
X65500Y116700D02*X66000Y117200D01*
X63800Y118200D02*Y117200D01*
X62500Y118700D02*X63300D01*
X64300D02*X65500D01*
X64300D02*X63800Y118200D01*
X63300Y118700D02*X63800Y118200D01*
X80000Y144000D02*Y142000D01*
Y144000D02*X80500Y144500D01*
X81500D01*
X82000Y144000D02*X81500Y144500D01*
X82000Y144000D02*Y142500D01*
X80000D02*X84000D01*
X82000Y143300D02*X84000Y144500D01*
X80800Y145700D02*X80000Y146500D01*
X84000D01*
Y147200D02*Y145700D01*
X82500Y148400D02*X80000Y150400D01*
X82500Y150900D02*Y148400D01*
X80000Y150400D02*X84000D01*
X89950Y144900D02*Y143000D01*
Y144900D02*X90425Y145375D01*
X91375D01*
X91850Y144900D02*X91375Y145375D01*
X91850Y144900D02*Y143475D01*
X89950D02*X93750D01*
X91850Y144235D02*X93750Y145375D01*
X90710Y146515D02*X89950Y147275D01*
X93750D01*
Y147940D02*Y146515D01*
X89950Y150980D02*Y149080D01*
X91850D01*
X91375Y149555D01*
Y150505D02*Y149555D01*
Y150505D02*X91850Y150980D01*
X93275D01*
X93750Y150505D02*X93275Y150980D01*
X93750Y150505D02*Y149555D01*
X93275Y149080D02*X93750Y149555D01*
X69950Y144900D02*Y143000D01*
Y144900D02*X70425Y145375D01*
X71375D01*
X71850Y144900D02*X71375Y145375D01*
X71850Y144900D02*Y143475D01*
X69950D02*X73750D01*
X71850Y144235D02*X73750Y145375D01*
X70710Y146515D02*X69950Y147275D01*
X73750D01*
Y147940D02*Y146515D01*
X70425Y149080D02*X69950Y149555D01*
Y150505D02*Y149555D01*
Y150505D02*X70425Y150980D01*
X73750Y150505D02*X73275Y150980D01*
X73750Y150505D02*Y149555D01*
X73275Y149080D02*X73750Y149555D01*
X71660Y150505D02*Y149555D01*
X70425Y150980D02*X71185D01*
X72135D02*X73275D01*
X72135D02*X71660Y150505D01*
X71185Y150980D02*X71660Y150505D01*
X60000Y144000D02*Y142000D01*
Y144000D02*X60500Y144500D01*
X61500D01*
X62000Y144000D02*X61500Y144500D01*
X62000Y144000D02*Y142500D01*
X60000D02*X64000D01*
X62000Y143300D02*X64000Y144500D01*
X60800Y145700D02*X60000Y146500D01*
X64000D01*
Y147200D02*Y145700D01*
X60500Y148400D02*X60000Y148900D01*
Y150400D02*Y148900D01*
Y150400D02*X60500Y150900D01*
X61500D01*
X64000Y148400D02*X61500Y150900D01*
X64000D02*Y148400D01*
X49950Y144900D02*Y143000D01*
Y144900D02*X50425Y145375D01*
X51375D01*
X51850Y144900D02*X51375Y145375D01*
X51850Y144900D02*Y143475D01*
X49950D02*X53750D01*
X51850Y144235D02*X53750Y145375D01*
X50710Y146515D02*X49950Y147275D01*
X53750D01*
Y147940D02*Y146515D01*
X50710Y149080D02*X49950Y149840D01*
X53750D01*
Y150505D02*Y149080D01*
X30000Y147000D02*Y145000D01*
Y147000D02*X30500Y147500D01*
X31500D01*
X32000Y147000D02*X31500Y147500D01*
X32000Y147000D02*Y145500D01*
X30000D02*X34000D01*
X32000Y146300D02*X34000Y147500D01*
Y149200D02*X32000Y150700D01*
X30500D02*X32000D01*
X30000Y150200D02*X30500Y150700D01*
X30000Y150200D02*Y149200D01*
X30500Y148700D02*X30000Y149200D01*
X30500Y148700D02*X31500D01*
X32000Y149200D01*
Y150700D02*Y149200D01*
X110000Y144000D02*Y142000D01*
Y144000D02*X110500Y144500D01*
X111500D01*
X112000Y144000D02*X111500Y144500D01*
X112000Y144000D02*Y142500D01*
X110000D02*X114000D01*
X112000Y143300D02*X114000Y144500D01*
X110800Y145700D02*X110000Y146500D01*
X114000D01*
Y147200D02*Y145700D01*
Y148900D02*X110000Y150900D01*
Y148400D01*
X120000Y144000D02*Y142000D01*
Y144000D02*X120500Y144500D01*
X121500D01*
X122000Y144000D02*X121500Y144500D01*
X122000Y144000D02*Y142500D01*
X120000D02*X124000D01*
X122000Y143300D02*X124000Y144500D01*
X120800Y145700D02*X120000Y146500D01*
X124000D01*
Y147200D02*Y145700D01*
X123500Y148400D02*X124000Y148900D01*
X122700Y148400D02*X123500D01*
X122700D02*X122000Y149100D01*
Y149700D02*Y149100D01*
Y149700D02*X122700Y150400D01*
X123500D01*
X124000Y149900D02*X123500Y150400D01*
X124000Y149900D02*Y148900D01*
X121300Y148400D02*X122000Y149100D01*
X120500Y148400D02*X121300D01*
X120500D02*X120000Y148900D01*
Y149900D02*Y148900D01*
Y149900D02*X120500Y150400D01*
X121300D01*
X122000Y149700D02*X121300Y150400D01*
X100000Y144000D02*Y142000D01*
Y144000D02*X100500Y144500D01*
X101500D01*
X102000Y144000D02*X101500Y144500D01*
X102000Y144000D02*Y142500D01*
X100000D02*X104000D01*
X102000Y143300D02*X104000Y144500D01*
X100800Y145700D02*X100000Y146500D01*
X104000D01*
Y147200D02*Y145700D01*
X100000Y149900D02*X100500Y150400D01*
X100000Y149900D02*Y148900D01*
X100500Y148400D02*X100000Y148900D01*
X100500Y148400D02*X103500D01*
X104000Y148900D01*
X101800Y149900D02*X102300Y150400D01*
X101800Y149900D02*Y148400D01*
X104000Y149900D02*Y148900D01*
Y149900D02*X103500Y150400D01*
X102300D02*X103500D01*
X113000Y128000D02*X109000Y130500D01*
Y128000D02*X113000Y130500D01*
X109800Y131700D02*X109000Y132500D01*
X113000D01*
Y133200D02*Y131700D01*
X152200Y128500D02*X153500D01*
X151500Y129200D02*X152200Y128500D01*
X151500Y131800D02*Y129200D01*
Y131800D02*X152200Y132500D01*
X153500D01*
X154700Y131700D02*X155500Y132500D01*
Y128500D01*
X154700D02*X156200D01*
X121000Y130500D02*Y127000D01*
X121500Y126500D01*
X122500D01*
X123000Y127000D01*
Y130500D02*Y127000D01*
X124200Y129700D02*X125000Y130500D01*
Y126500D01*
X124200D02*X125700D01*
X185500Y131000D02*Y127000D01*
X186800Y131000D02*X187500Y130300D01*
Y127700D01*
X186800Y127000D02*X187500Y127700D01*
X185000Y127000D02*X186800D01*
X185000Y131000D02*X186800D01*
X188700Y128500D02*X190700Y131000D01*
X188700Y128500D02*X191200D01*
X190700Y131000D02*Y127000D01*
X185500Y155500D02*Y151500D01*
X186800Y155500D02*X187500Y154800D01*
Y152200D01*
X186800Y151500D02*X187500Y152200D01*
X185000Y151500D02*X186800D01*
X185000Y155500D02*X186800D01*
X188700Y155000D02*X189200Y155500D01*
X190200D01*
X190700Y155000D01*
X190200Y151500D02*X190700Y152000D01*
X189200Y151500D02*X190200D01*
X188700Y152000D02*X189200Y151500D01*
Y153700D02*X190200D01*
X190700Y155000D02*Y154200D01*
Y153200D02*Y152000D01*
Y153200D02*X190200Y153700D01*
X190700Y154200D02*X190200Y153700D01*
X195500Y123000D02*Y121000D01*
Y123000D02*X196000Y123500D01*
X197000D01*
X197500Y123000D02*X197000Y123500D01*
X197500Y123000D02*Y121500D01*
X195500D02*X199500D01*
X197500Y122300D02*X199500Y123500D01*
X195500Y126700D02*Y124700D01*
X197500D01*
X197000Y125200D01*
Y126200D02*Y125200D01*
Y126200D02*X197500Y126700D01*
X199000D01*
X199500Y126200D02*X199000Y126700D01*
X199500Y126200D02*Y125200D01*
X199000Y124700D02*X199500Y125200D01*
X205500Y123000D02*Y121000D01*
Y123000D02*X206000Y123500D01*
X207000D01*
X207500Y123000D02*X207000Y123500D01*
X207500Y123000D02*Y121500D01*
X205500D02*X209500D01*
X207500Y122300D02*X209500Y123500D01*
X205500Y126200D02*X206000Y126700D01*
X205500Y126200D02*Y125200D01*
X206000Y124700D02*X205500Y125200D01*
X206000Y124700D02*X209000D01*
X209500Y125200D01*
X207300Y126200D02*X207800Y126700D01*
X207300Y126200D02*Y124700D01*
X209500Y126200D02*Y125200D01*
Y126200D02*X209000Y126700D01*
X207800D02*X209000D01*
X129000Y192000D02*Y188000D01*
X130300Y192000D02*X131000Y191300D01*
Y188700D01*
X130300Y188000D02*X131000Y188700D01*
X128500Y188000D02*X130300D01*
X128500Y192000D02*X130300D01*
X132200Y191200D02*X133000Y192000D01*
Y188000D01*
X132200D02*X133700D01*
X134900Y191500D02*X135400Y192000D01*
X136900D01*
X137400Y191500D01*
Y190500D01*
X134900Y188000D02*X137400Y190500D01*
X134900Y188000D02*X137400D01*
X99000Y192000D02*Y188000D01*
X100300Y192000D02*X101000Y191300D01*
Y188700D01*
X100300Y188000D02*X101000Y188700D01*
X98500Y188000D02*X100300D01*
X98500Y192000D02*X100300D01*
X102200Y191200D02*X103000Y192000D01*
Y188000D01*
X102200D02*X103700D01*
X104900Y191200D02*X105700Y192000D01*
Y188000D01*
X104900D02*X106400D01*
X69000Y192000D02*Y188000D01*
X70300Y192000D02*X71000Y191300D01*
Y188700D01*
X70300Y188000D02*X71000Y188700D01*
X68500Y188000D02*X70300D01*
X68500Y192000D02*X70300D01*
X72200Y191200D02*X73000Y192000D01*
Y188000D01*
X72200D02*X73700D01*
X74900Y188500D02*X75400Y188000D01*
X74900Y191500D02*Y188500D01*
Y191500D02*X75400Y192000D01*
X76400D01*
X76900Y191500D01*
Y188500D01*
X76400Y188000D02*X76900Y188500D01*
X75400Y188000D02*X76400D01*
X74900Y189000D02*X76900Y191000D01*
X129500Y168000D02*Y165000D01*
Y168000D02*X130000Y168500D01*
X131000D01*
X131500Y168000D01*
Y165500D01*
X130500Y164500D02*X131500Y165500D01*
X130000Y164500D02*X130500D01*
X129500Y165000D02*X130000Y164500D01*
X130500Y166000D02*X131500Y164500D01*
X132700Y168500D02*X134700D01*
X132700D02*Y166500D01*
X133200Y167000D01*
X134200D01*
X134700Y166500D01*
Y165000D01*
X134200Y164500D02*X134700Y165000D01*
X133200Y164500D02*X134200D01*
X132700Y165000D02*X133200Y164500D01*
X130200Y140000D02*X131500D01*
X129500Y140700D02*X130200Y140000D01*
X129500Y143300D02*Y140700D01*
Y143300D02*X130200Y144000D01*
X131500D01*
X132700Y141500D02*X134700Y144000D01*
X132700Y141500D02*X135200D01*
X134700Y144000D02*Y140000D01*
X185500Y180000D02*Y176000D01*
X186800Y180000D02*X187500Y179300D01*
Y176700D01*
X186800Y176000D02*X187500Y176700D01*
X185000Y176000D02*X186800D01*
X185000Y180000D02*X186800D01*
X188700Y179500D02*X189200Y180000D01*
X190700D01*
X191200Y179500D01*
Y178500D01*
X188700Y176000D02*X191200Y178500D01*
X188700Y176000D02*X191200D01*
X185500Y204500D02*Y200500D01*
X186800Y204500D02*X187500Y203800D01*
Y201200D01*
X186800Y200500D02*X187500Y201200D01*
X185000Y200500D02*X186800D01*
X185000Y204500D02*X186800D01*
X188700Y203700D02*X189500Y204500D01*
Y200500D01*
X188700D02*X190200D01*
X194500Y223000D02*X196500D01*
X197000Y222500D01*
Y221500D01*
X196500Y221000D02*X197000Y221500D01*
X195000Y221000D02*X196500D01*
X195000Y223000D02*Y219000D01*
X195800Y221000D02*X197000Y219000D01*
X198200Y222200D02*X199000Y223000D01*
Y219000D01*
X198200D02*X199700D01*
X204500Y223000D02*X206500D01*
X207000Y222500D01*
Y221500D01*
X206500Y221000D02*X207000Y221500D01*
X205000Y221000D02*X206500D01*
X205000Y223000D02*Y219000D01*
X205800Y221000D02*X207000Y219000D01*
X208200Y222500D02*X208700Y223000D01*
X210200D01*
X210700Y222500D01*
Y221500D01*
X208200Y219000D02*X210700Y221500D01*
X208200Y219000D02*X210700D01*
X195500Y172000D02*Y170000D01*
Y172000D02*X196000Y172500D01*
X197000D01*
X197500Y172000D02*X197000Y172500D01*
X197500Y172000D02*Y170500D01*
X195500D02*X199500D01*
X197500Y171300D02*X199500Y172500D01*
X196000Y173700D02*X195500Y174200D01*
Y175200D02*Y174200D01*
Y175200D02*X196000Y175700D01*
X199500Y175200D02*X199000Y175700D01*
X199500Y175200D02*Y174200D01*
X199000Y173700D02*X199500Y174200D01*
X197300Y175200D02*Y174200D01*
X196000Y175700D02*X196800D01*
X197800D02*X199000D01*
X197800D02*X197300Y175200D01*
X196800Y175700D02*X197300Y175200D01*
X205500Y172000D02*Y170000D01*
Y172000D02*X206000Y172500D01*
X207000D01*
X207500Y172000D02*X207000Y172500D01*
X207500Y172000D02*Y170500D01*
X205500D02*X209500D01*
X207500Y171300D02*X209500Y172500D01*
X208000Y173700D02*X205500Y175700D01*
X208000Y176200D02*Y173700D01*
X205500Y175700D02*X209500D01*
M02*
