G04 start of page 6 for group -4063 idx -4063 *
G04 Title: Zab-Let V2, componentmask *
G04 Creator: pcb 20110918 *
G04 CreationDate: Fri 21 Dec 2012 01:58:23 PM GMT UTC *
G04 For: bertho *
G04 Format: Gerber/RS-274X *
G04 PCB-Dimensions: 325000 225000 *
G04 PCB-Coordinate-Origin: lower left *
%MOIN*%
%FSLAX25Y25*%
%LNTOPMASK*%
%ADD42R,0.0735X0.0735*%
%ADD41C,0.1084*%
%ADD40C,0.0814*%
%ADD39C,0.0735*%
%ADD38C,0.0001*%
%ADD37C,0.0700*%
G54D37*X37500Y61000D03*
G54D38*G36*
X50825Y50096D02*Y42746D01*
X58175D01*
Y50096D01*
X50825D01*
G37*
G54D39*X54500Y36579D03*
G54D38*G36*
X33432Y50568D02*Y42432D01*
X41568D01*
Y50568D01*
X33432D01*
G37*
G54D40*X37500Y36500D03*
G54D38*G36*
X190325Y88675D02*Y81325D01*
X197675D01*
Y88675D01*
X190325D01*
G37*
G54D39*X194000Y75000D03*
G54D38*G36*
X190325Y113175D02*Y105825D01*
X197675D01*
Y113175D01*
X190325D01*
G37*
G54D39*X194000Y99500D03*
G54D38*G36*
X190325Y137675D02*Y130325D01*
X197675D01*
Y137675D01*
X190325D01*
G37*
G54D39*X194000Y124000D03*
G54D38*G36*
X190325Y162175D02*Y154825D01*
X197675D01*
Y162175D01*
X190325D01*
G37*
G54D39*X194000Y148500D03*
G54D38*G36*
X190325Y39675D02*Y32325D01*
X197675D01*
Y39675D01*
X190325D01*
G37*
G54D39*X194000Y26000D03*
G54D38*G36*
X190325Y64175D02*Y56825D01*
X197675D01*
Y64175D01*
X190325D01*
G37*
G54D39*X194000Y50500D03*
G54D38*G36*
X190325Y186675D02*Y179325D01*
X197675D01*
Y186675D01*
X190325D01*
G37*
G54D39*X194000Y173000D03*
G54D38*G36*
X190325Y211175D02*Y203825D01*
X197675D01*
Y211175D01*
X190325D01*
G37*
G54D39*X194000Y197500D03*
X164000Y178000D03*
X174000D03*
X164000Y154000D03*
X174000D03*
X164000Y203000D03*
X174000D03*
X82000Y108500D03*
Y118500D03*
Y128500D03*
X62000Y108500D03*
Y118500D03*
Y128500D03*
X102000Y147000D03*
X92000D03*
X72000D03*
X82000D03*
X62000D03*
X112000D03*
G54D37*X125000Y120500D03*
X135000D03*
G54D38*G36*
X133246Y147175D02*Y139825D01*
X140596D01*
Y147175D01*
X133246D01*
G37*
G54D39*X127079Y143500D03*
G54D40*X90500Y55500D03*
G54D39*X101000Y89500D03*
Y99500D03*
Y109500D03*
G54D40*X72800Y55500D03*
X90500Y29900D03*
X72800D03*
G54D38*G36*
X111325Y113175D02*Y105825D01*
X118675D01*
Y113175D01*
X111325D01*
G37*
G54D39*X115000Y99500D03*
Y89500D03*
Y79500D03*
Y69500D03*
G54D38*G36*
X130932Y38568D02*Y30432D01*
X139068D01*
Y38568D01*
X130932D01*
G37*
G54D39*X145000Y49500D03*
Y59500D03*
G54D40*X125000Y34500D03*
X115000D03*
G54D39*Y59500D03*
Y49500D03*
X145000Y69500D03*
Y79500D03*
Y89500D03*
Y99500D03*
Y109500D03*
X164000Y105000D03*
X174000D03*
X164000Y129000D03*
X174000D03*
X164000Y31000D03*
Y56000D03*
X174000Y31000D03*
Y56000D03*
X164000Y80000D03*
X174000D03*
X27500Y71000D03*
G54D38*G36*
X18432Y88568D02*Y80432D01*
X26568D01*
Y88568D01*
X18432D01*
G37*
G54D40*X22500Y94500D03*
G54D39*X52500Y71000D03*
G54D40*Y84500D03*
Y94500D03*
G54D39*X52000Y147000D03*
G54D37*X27500Y61000D03*
G54D41*X24000Y46500D03*
Y32500D03*
G54D38*G36*
X77932Y73568D02*Y65432D01*
X86068D01*
Y73568D01*
X77932D01*
G37*
G54D40*X72000Y69500D03*
X82000Y79500D03*
X72000D03*
X82000Y89500D03*
X72000D03*
G54D39*X42000Y108500D03*
X22000D03*
Y118500D03*
Y128500D03*
X42000Y118500D03*
Y128500D03*
X32000Y147000D03*
X42000D03*
X22000D03*
G54D38*G36*
X54325Y201175D02*Y193825D01*
X61675D01*
Y201175D01*
X54325D01*
G37*
G54D39*X68000Y197500D03*
G54D38*G36*
X24325Y200675D02*Y193325D01*
X31675D01*
Y200675D01*
X24325D01*
G37*
G54D39*X38000Y197000D03*
G54D38*G36*
X114325Y200675D02*Y193325D01*
X121675D01*
Y200675D01*
X114325D01*
G37*
G54D39*X128000Y197000D03*
G54D38*G36*
X84325Y200675D02*Y193325D01*
X91675D01*
Y200675D01*
X84325D01*
G37*
G54D39*X98000Y197000D03*
X142000Y167000D03*
X132000D03*
X122000D03*
X112000Y172000D03*
X102000D03*
X92000D03*
X72000D03*
X82000D03*
X62000D03*
X52000D03*
X42000D03*
X32000D03*
X22000D03*
G54D42*X68000Y207500D02*Y200175D01*
X88000Y207500D02*Y200175D01*
X98000Y207500D02*Y200175D01*
X118000Y207500D02*Y200175D01*
X28000Y207500D02*Y200175D01*
X38000Y207500D02*Y200175D01*
X58000Y207500D02*Y200175D01*
X128000Y207500D02*Y200175D01*
M02*
